<?xml version="1.0" encoding="iso-8859-1"?>
<!-- Generator: Adobe Illustrator 19.0.0, SVG Export Plug-In . SVG Version: 6.00 Build 0)  -->
<svg version="1.1" id="Layer_1" xmlns="http://www.w3.org/2000/svg" xmlns:xlink="http://www.w3.org/1999/xlink" x="0px" y="0px"
	 viewBox="0 0 512 512" style="enable-background:new 0 0 512 512;" xml:space="preserve">
<circle style="fill:#EFEFEF;" cx="256" cy="256" r="245.106"/>
<path style="fill:#FF7D46;" d="M267.385,299.566c-24.062,0.421-43.908-18.746-44.328-42.808
	c-0.421-24.062,18.746-43.908,42.808-44.328c24.062-0.419,191.668,40.236,191.668,40.236S291.447,299.146,267.385,299.566z"/>
<g>
	<path style="fill:#231F20;" d="M437.019,74.981C388.667,26.628,324.38,0,256,0S123.333,26.628,74.981,74.981
		C26.628,123.332,0,187.62,0,256s26.628,132.667,74.981,181.019S187.62,512,256,512s132.667-26.628,181.019-74.981
		S512,324.38,512,256S485.372,123.332,437.019,74.981z M256,490.213C126.854,490.213,21.787,385.145,21.787,256
		S126.854,21.787,256,21.787S490.213,126.855,490.213,256S385.146,490.213,256,490.213z"/>
	<path style="fill:#231F20;" d="M468.426,256c0-36.93-9.67-73.281-27.949-105.215c-0.151-0.338-0.321-0.671-0.511-0.998
		c-3.008-5.208-9.667-6.995-14.881-3.987l-31.977,18.461c-5.21,3.008-6.996,9.67-3.987,14.881c2.019,3.495,5.679,5.448,9.445,5.448
		c1.848,0,3.72-0.471,5.436-1.461l22.235-12.837c10.762,21.317,17.41,44.535,19.59,68.353
		c-42.8-10.233-158.855-37.466-180.154-37.107c-14.546,0.254-28.123,6.157-38.23,16.623s-15.533,24.24-15.278,38.788
		c0.519,29.708,24.849,53.519,54.445,53.517c0.32,0,0.644-0.003,0.965-0.009c21.313-0.373,136.285-31.633,178.721-43.363
		c-1.519,26.001-8.356,51.431-20.06,74.613l-22.235-12.837c-5.211-3.009-11.874-1.223-14.881,3.987
		c-3.009,5.21-1.223,11.873,3.987,14.881l31.977,18.461c1.716,0.99,3.588,1.461,5.436,1.461c3.765,0,7.427-1.953,9.445-5.448
		c0.188-0.327,0.358-0.659,0.51-0.997C458.755,329.281,468.426,292.93,468.426,256z M267.194,288.674
		c-18.044,0.322-32.931-14.089-33.247-32.106c-0.153-8.728,3.104-16.993,9.168-23.272c6.063-6.28,14.21-9.822,22.939-9.974
		c0.1-0.001,0.203-0.002,0.308-0.002c14.24,0,85.508,15.615,147.38,30.111C351.954,270.201,280.675,288.439,267.194,288.674z"/>
	<path style="fill:#231F20;" d="M256,102.285c6.015,0,10.894-4.877,10.894-10.894V54.468c0-6.017-4.878-10.894-10.894-10.894
		s-10.894,4.877-10.894,10.894v36.923C245.106,97.407,249.985,102.285,256,102.285z"/>
	<path style="fill:#231F20;" d="M102.286,256c0-6.017-4.878-10.894-10.894-10.894H54.468c-6.015,0-10.894,4.877-10.894,10.894
		c0,6.017,4.878,10.894,10.894,10.894h36.924C97.407,266.894,102.286,262.017,102.286,256z"/>
	<path style="fill:#231F20;" d="M107.998,328.871l-31.977,18.461c-5.21,3.008-6.996,9.67-3.987,14.881
		c2.019,3.495,5.679,5.448,9.445,5.448c1.848,0,3.721-0.471,5.436-1.461l31.977-18.461c5.21-3.008,6.996-9.67,3.987-14.881
		C119.87,327.648,113.209,325.862,107.998,328.871z"/>
	<path style="fill:#231F20;" d="M164.668,76.021c-3.009-5.209-9.669-6.996-14.881-3.987c-5.21,3.008-6.996,9.67-3.987,14.881
		l18.461,31.976c2.019,3.495,5.679,5.448,9.445,5.448c1.848,0,3.721-0.471,5.436-1.461c5.21-3.008,6.996-9.67,3.987-14.881
		L164.668,76.021z"/>
	<path style="fill:#231F20;" d="M118.892,164.262L86.915,145.8c-5.213-3.009-11.874-1.222-14.881,3.987
		c-3.009,5.21-1.223,11.873,3.987,14.881l31.977,18.461c1.716,0.991,3.588,1.461,5.436,1.461c3.765,0,7.427-1.953,9.445-5.448
		C125.888,173.932,124.102,167.269,118.892,164.262z"/>
	<path style="fill:#231F20;" d="M332.858,122.878c1.716,0.99,3.588,1.461,5.436,1.461c3.765,0,7.426-1.953,9.445-5.448L366.2,86.915
		c3.009-5.21,1.223-11.873-3.987-14.881c-5.212-3.009-11.872-1.223-14.881,3.987l-18.461,31.976
		C325.862,113.208,327.647,119.87,332.858,122.878z"/>
	<path style="fill:#231F20;" d="M312.647,381.161h-73.895c-6.015,0-10.894,4.877-10.894,10.894c0,6.017,4.878,10.894,10.894,10.894
		h73.895c6.015,0,10.894-4.877,10.894-10.894C323.54,386.038,318.662,381.161,312.647,381.161z"/>
	<path style="fill:#231F20;" d="M200.443,381.161h-1.089c-6.015,0-10.894,4.877-10.894,10.894c0,6.017,4.878,10.894,10.894,10.894
		h1.089c6.015,0,10.894-4.877,10.894-10.894C211.336,386.038,206.458,381.161,200.443,381.161z"/>
</g>
<g>
</g>
<g>
</g>
<g>
</g>
<g>
</g>
<g>
</g>
<g>
</g>
<g>
</g>
<g>
</g>
<g>
</g>
<g>
</g>
<g>
</g>
<g>
</g>
<g>
</g>
<g>
</g>
<g>
</g>
</svg>
