<?xml version="1.0" encoding="UTF-8"?>
<svg version="1.1" xmlns="http://www.w3.org/2000/svg" width="512" height="512">
<path d="M0 0 C2.30004907 1.11577063 4.59403136 2.24410678 6.8828125 3.3828125 C9.39260176 4.59442776 11.91004628 5.78949518 14.4296875 6.98046875 C15.06524567 7.28154037 15.70080383 7.582612 16.35562134 7.89280701 C70.18669972 33.19887593 130.34406003 42.5546813 189.24682617 45.74072266 C189.92937973 45.77993332 190.61193329 45.81914398 191.31517029 45.85954285 C193.18081354 45.96561343 195.04694092 46.06306954 196.91308594 46.15991211 C202.54200108 46.7926988 205.53019568 48.91354172 209.3828125 53.0703125 C211.94593569 56.91499729 212.13560659 59.83374316 212.14825439 64.35023499 C212.15396454 65.57049377 212.15967468 66.79075256 212.16555786 68.04798889 C212.16680335 69.40316762 212.16792842 70.75834647 212.16894531 72.11352539 C212.1735749 73.53974536 212.17859975 74.9659641 212.18399048 76.3921814 C212.19712655 80.27585657 212.20356495 84.15951443 212.20800114 88.04320836 C212.21093757 90.48052846 212.21504405 92.91784391 212.21950531 95.35516167 C212.23320019 103.01077886 212.24284997 110.66638533 212.2467072 118.32201391 C212.25115515 127.09910092 212.26854059 135.87602964 212.2977078 144.6530686 C212.31954893 151.46791957 212.32942369 158.28272684 212.33074832 165.09761232 C212.33178302 169.15058159 212.33739509 173.20340257 212.35556793 177.2563343 C212.43568916 196.20281118 211.80578871 214.71913622 209.0078125 233.5078125 C208.84339944 234.61261963 208.84339944 234.61261963 208.6756649 235.73974609 C208.12086867 239.39039338 207.48439438 243.01246284 206.7578125 246.6328125 C206.54946777 247.68936035 206.34112305 248.7459082 206.12646484 249.83447266 C203.78187365 261.2649923 200.57560657 272.40499249 197.0078125 283.5078125 C196.72679687 284.38663086 196.44578125 285.26544922 196.15625 286.17089844 C191.98963702 299.02606769 186.89264214 311.34728698 181.0078125 323.5078125 C180.54133301 324.47348145 180.07485352 325.43915039 179.59423828 326.43408203 C161.22871308 364.01444008 134.89837545 399.21890796 103.0078125 426.5078125 C102.09515625 427.30960937 101.1825 428.11140625 100.2421875 428.9375 C79.97248503 446.60492269 57.30591812 460.41197511 33.6171875 472.96484375 C26.23046224 476.89189471 18.96858736 481.0301686 11.74316406 485.24584961 C-4.48341809 494.58138324 -4.48341809 494.58138324 -13.9921875 493.5078125 C-20.57879613 491.37180818 -26.27464892 488.23470211 -32.2421875 484.7578125 C-40.56007502 479.97278387 -48.95575875 475.37078701 -57.44287109 470.89578247 C-82.61064595 457.60117006 -105.50389569 441.95939812 -126.546875 422.73046875 C-128.11809144 421.30231834 -129.70554986 419.89172682 -131.3125 418.50390625 C-142.97585658 408.36102025 -153.53236857 396.71564221 -162.9921875 384.5078125 C-163.4253125 383.95786621 -163.8584375 383.40791992 -164.3046875 382.84130859 C-206.35521581 329.29988938 -232.03832083 261.0226187 -232.16918945 192.69238281 C-232.17546987 191.23415471 -232.18211801 189.77592815 -232.18910217 188.31770325 C-232.20993054 183.57379223 -232.22047388 178.8298816 -232.23046875 174.0859375 C-232.23452212 172.444496 -232.23863921 170.80305465 -232.24281883 169.16161346 C-232.26181161 161.45747765 -232.27606346 153.75335114 -232.2844308 146.04919648 C-232.29422776 137.17856541 -232.32063576 128.3081822 -232.36093169 119.43763852 C-232.39109694 112.56007977 -232.40589943 105.68259221 -232.40921181 98.8049686 C-232.41155865 94.70516555 -232.42047397 90.6056292 -232.44567299 86.50589752 C-232.468971 82.65451974 -232.47318029 78.80358418 -232.46291161 74.95215416 C-232.46241682 73.54246993 -232.46872057 72.13276372 -232.48246765 70.72314644 C-232.60444856 57.47085835 -232.60444856 57.47085835 -227.9921875 51.5078125 C-222.77076775 46.66844785 -218.25481959 46.29139246 -211.3828125 45.89453125 C-209.59306231 45.78264845 -207.80335019 45.67015546 -206.01367188 45.55712891 C-205.07225342 45.49857727 -204.13083496 45.44002563 -203.16088867 45.37969971 C-174.79080207 43.58743639 -146.84667143 40.34298946 -118.9921875 34.5078125 C-117.30488525 34.15493164 -117.30488525 34.15493164 -115.58349609 33.79492188 C-84.68443079 27.17400555 -54.46099099 17.08308855 -26.1015625 3.109375 C-25.33030029 2.73329102 -24.55903809 2.35720703 -23.7644043 1.96972656 C-22.35658665 1.27725013 -20.95598657 0.56975666 -19.56567383 -0.15722656 C-12.12451136 -3.85995055 -7.29670769 -3.28676458 0 0 Z " fill="#BFD9EF" transform="translate(265.9921875,10.4921875)"/>
<path d="M0 0 C0.1489597 5.28348602 0.25750071 10.56573513 0.32958984 15.85083008 C0.35965704 17.64629421 0.4005234 19.44161274 0.45263672 21.23657227 C0.52590349 23.82604974 0.55955491 26.41357699 0.5859375 29.00390625 C0.61690521 29.79898087 0.64787292 30.59405548 0.67977905 31.41322327 C0.68308406 36.95767328 -0.7119751 39.65281285 -4.61044312 43.58970642 C-6.96120836 45.97555271 -7.20501743 47.87789493 -7.3125 51.125 C-7.21872687 57.59534619 -5.03594349 62.01371367 -0.4375 66.5 C5.47379181 69.07947279 11.24459041 68.81641766 17.375 67 C21.74811542 63.66810254 24.47701066 59.95147895 25.44921875 54.46484375 C25.69649198 48.81166608 24.76578673 45.41135017 21 41 C20.20036079 40.29667793 20.20036079 40.29667793 19.38456726 39.57914734 C16.91973911 36.76792471 17.63943805 32.9554729 17.70703125 29.39453125 C17.71127609 28.55532639 17.71552094 27.71612152 17.71989441 26.85148621 C17.73668536 24.17149755 17.7743377 21.4922613 17.8125 18.8125 C17.82754633 16.99545357 17.84123482 15.17839535 17.85351562 13.36132812 C17.88659018 8.90726224 17.93837487 4.45375868 18 0 C22.24926735 0.68168991 25.95312907 2.07591699 29.93359375 3.6953125 C31.30771431 4.24906289 32.68198802 4.80243334 34.05639648 5.35546875 C34.7715744 5.64470215 35.48675232 5.93393555 36.22360229 6.23193359 C49.97968824 11.78101484 63.75382816 16.83706104 78 21 C79.40505726 21.42672346 80.81000955 21.85379277 82.21484375 22.28125 C91.19994598 24.95209574 100.32142521 27.06422042 109.46661377 29.10791016 C111.3958155 29.5392082 113.323682 29.97646608 115.25146484 30.4140625 C128.06749245 33.21538001 141.0256646 35.09106137 154 37 C154.13941241 46.75354755 154.24582918 56.50685561 154.31087303 66.261199 C154.34210132 70.7912729 154.38441649 75.32066197 154.45263672 79.8503418 C154.51813582 84.22705312 154.5537699 88.60310844 154.56926346 92.98027229 C154.5802954 94.64479961 154.60183844 96.3092936 154.63438034 97.97353935 C154.81042918 107.35554007 154.8371562 114.8183424 148 122 C147.16525146 122.92095459 146.33050293 123.84190918 145.47045898 124.79077148 C144.65391846 125.55977783 143.83737793 126.32878418 142.99609375 127.12109375 C142.09052734 127.99443359 141.18496094 128.86777344 140.25195312 129.76757812 C138.37554118 131.54763026 136.49532382 133.32367953 134.61132812 135.09570312 C127.70078688 141.77966924 121.21196787 149.37306666 120.88989258 159.44238281 C120.88867939 160.86263053 120.890416 162.28288272 120.89453125 163.703125 C120.88107066 165.25652427 120.86604668 166.80991063 120.84960938 168.36328125 C120.82682712 170.80367754 120.81246222 173.24261742 120.82495117 175.68310547 C120.88251619 191.02029429 120.88251619 191.02029429 117.01171875 195.484375 C116.01785156 196.31453125 115.02398437 197.1446875 114 198 C111.90694424 202.18611152 112.57635392 207.44132948 113 212 C115.26569169 216.87995132 118.17373306 219.63239735 123 222 C129.41245379 223.16590069 134.68307439 221.66555106 140 218 C144.26596601 213.45881038 144.33645346 208.70563646 144.2890625 202.734375 C143.88896865 198.94970345 142.51679356 196.80442711 140 194 C139.01 193.34 138.02 192.68 137 192 C136.65752506 189.46856342 136.5080568 187.1865176 136.49609375 184.6484375 C136.48610855 183.91557526 136.47612335 183.18271301 136.46583557 182.42764282 C136.4506305 180.872555 136.44361052 179.31736911 136.4440918 177.76220703 C136.43757892 175.40358043 136.38327696 173.04927767 136.32617188 170.69140625 C136.16258896 156.96963251 136.16258896 156.96963251 141.09008789 151.75537109 C141.72035889 151.17609863 142.35062988 150.59682617 143 150 C143.71857178 149.26990723 144.43714355 148.53981445 145.17749023 147.78759766 C148.39575792 144.54229132 151.69608805 141.38765364 155.01171875 138.2421875 C163.25076242 130.22582069 170.10636868 121.37898973 170.31230164 109.43041992 C170.31554192 108.39679321 170.31554192 108.39679321 170.31884766 107.34228516 C170.32889328 106.60013763 170.3389389 105.85799011 170.34928894 105.09335327 C170.37999488 102.65859702 170.39712068 100.22395009 170.4140625 97.7890625 C170.43278431 96.09368965 170.45235847 94.39832602 170.4727478 92.70297241 C170.52396808 88.25447028 170.56364772 83.80593798 170.60089111 79.3572998 C170.64099427 74.81234331 170.69205776 70.26751125 170.7421875 65.72265625 C170.83882707 56.81519171 170.92326999 47.90765674 171 39 C174.04370043 39.0602713 177.08267412 39.14739957 180.125 39.25 C180.9809375 39.26417969 181.836875 39.27835938 182.71875 39.29296875 C188.38866614 39.51104245 191.64115434 40.29567749 196 44 C197.16483952 46.32967905 197.13059365 47.68885961 197.14044189 50.28385925 C197.14615204 51.18419388 197.15186218 52.0845285 197.15774536 53.012146 C197.15886322 54.00353577 197.15998108 54.99492554 197.16113281 56.01635742 C197.16609772 57.0592543 197.17106262 58.10215118 197.17617798 59.176651 C197.19086034 62.65293025 197.19762103 66.12916347 197.203125 69.60546875 C197.20595238 70.80058893 197.20877975 71.99570911 197.21169281 73.22704506 C197.22673061 79.58455249 197.23592361 85.94203708 197.24023438 92.29956055 C197.24457919 97.50633915 197.25830669 102.71294832 197.28125 107.91967773 C197.62545748 187.57149786 184.90261822 258.64081846 134.875 323 C134.41343506 323.59417725 133.95187012 324.18835449 133.47631836 324.80053711 C130.24826946 328.87586527 130.24826946 328.87586527 128 330 C127.99120064 328.73212898 127.99120064 328.73212898 127.98222351 327.43864441 C127.92435058 319.47795735 127.85230526 311.51755248 127.76428509 303.5571394 C127.71953281 299.46446382 127.68028768 295.3718889 127.65356445 291.27905273 C127.62757951 287.33016285 127.587212 283.38165934 127.53681374 279.43300819 C127.52011229 277.92555861 127.50861844 276.41804214 127.50238609 274.91051292 C127.4927801 272.80084989 127.46476581 270.69218261 127.43237305 268.58276367 C127.42126999 267.38141281 127.41016693 266.18006195 127.39872742 264.94230652 C127.23618055 262.02833799 127.23618055 262.02833799 125.68391418 260.15107727 C122.79518077 258.17641882 120.45509196 258 117 258 C114.12942655 259.90731595 114.12942655 259.90731595 112 263 C111.56308079 265.99639604 111.42579703 268.39959599 111.53100586 271.37939453 C111.54419357 272.62682686 111.54419357 272.62682686 111.55764771 273.89945984 C111.57886936 275.70128745 111.61104184 277.5030122 111.65293694 279.30447769 C111.71554271 282.16474593 111.74088113 285.02310864 111.75526428 287.88400269 C111.80053219 296.01517201 111.89419726 304.14474122 112.05786133 312.27441406 C112.15546714 317.25382482 112.1937929 322.23088456 112.19601631 327.21120834 C112.2084564 329.10033968 112.24309403 330.98946976 112.30113029 332.8777504 C112.76891154 348.3851482 112.76891154 348.3851482 108.46170044 353.49676514 C105.57291915 356.37112475 102.34320194 358.67459696 99 361 C96.92272356 362.69063972 94.90350274 364.43772258 92.875 366.1875 C88.26795096 370 88.26795096 370 86 370 C85.9065301 346.01720044 85.8360077 322.03442821 85.79275131 298.05148315 C85.77213216 286.91560779 85.7440238 275.77984566 85.69824219 264.64404297 C85.65835477 254.93729609 85.63256249 245.23063122 85.62364602 235.52380466 C85.61843453 230.38479523 85.6061989 225.24602038 85.57707977 220.10708618 C85.54988068 215.26767978 85.54156413 210.42860408 85.54756927 205.58912849 C85.54647105 203.81543237 85.53854398 202.04172492 85.5231781 200.26809502 C85.50317933 197.84011173 85.50809606 195.41336544 85.51898193 192.98535156 C85.50733057 192.28882886 85.4956792 191.59230616 85.48367476 190.8746767 C85.57151215 183.59157992 88.97964141 177.98473892 93.3125 172.34375 C93.91320312 171.54839844 94.51390625 170.75304687 95.1328125 169.93359375 C96.37760417 168.31119792 97.62239583 166.68880208 98.8671875 165.06640625 C102.48800532 160.27231913 105.70517326 155.5739275 108 150 C108.35989014 149.1352002 108.71978027 148.27040039 109.09057617 147.37939453 C110.29247376 142.91317536 110.25949578 138.75180861 110.23828125 134.1484375 C110.25368946 132.22655535 110.26999223 130.30468019 110.28710938 128.3828125 C110.30360847 125.36963393 110.31245789 122.35697039 110.30541992 119.34375 C110.30280612 116.42389088 110.33085886 113.50558881 110.36328125 110.5859375 C110.34797112 109.23427994 110.34797112 109.23427994 110.33235168 107.85531616 C110.43088219 101.57020577 110.43088219 101.57020577 113.42651367 98.56884766 C114.27576416 98.05112793 115.12501465 97.5334082 116 97 C119.24865636 92.18302677 119.89488438 87.65448923 119 82 C117.38719855 77.70746692 115.01165236 74.32934653 111 72 C105.1991439 70.0663813 99.1018254 70.00640981 93.5625 72.625 C88.89136643 76.95434331 86.76138018 80.07876026 86.5 86.5 C86.67980325 91.40130333 87.70728664 94.23689901 91 98 C91.531129 98.4655127 92.062258 98.93102539 92.60948181 99.41064453 C95.11639433 102.27603325 94.48955654 106.23506424 94.50390625 109.875 C94.51389145 110.75470459 94.52387665 111.63440918 94.53416443 112.54077148 C94.5493609 114.40685324 94.55638975 116.27301659 94.5559082 118.13916016 C94.56241401 120.96268169 94.61671763 123.78257857 94.67382812 126.60546875 C94.77248363 136.79900307 94.44691891 144.61745983 88 153 C87.45641846 153.75055664 86.91283691 154.50111328 86.3527832 155.27441406 C84.20811134 158.15098509 81.94745859 160.92327656 79.6796875 163.703125 C72.58910638 172.63324367 69.80353411 180.74015946 69.94271851 192.13348389 C69.94836402 192.94811639 69.95400953 193.76274889 69.95982611 194.60206723 C69.9727361 196.38472433 69.98799296 198.1673656 70.00529289 199.9499855 C70.04320124 203.86800106 70.0696749 207.78607317 70.0970118 211.70417452 C70.11184779 213.81358261 70.12727905 215.92298659 70.14326262 218.0323863 C70.24406066 231.56197211 70.26830124 245.09179538 70.29638553 258.62169409 C70.32425089 271.79720579 70.37621272 284.97152607 70.50390625 298.14648438 C70.60522327 308.61456921 70.65364165 319.08137625 70.63969004 329.54996419 C70.63426131 335.08852664 70.65543127 340.62409947 70.74058151 346.16207123 C70.82005761 351.37385008 70.82908197 356.58105852 70.78472328 361.79320908 C70.78083685 363.70205369 70.80249303 365.6111531 70.85199928 367.51935959 C71.19581453 381.57059774 71.19581453 381.57059774 67.47523546 385.6869669 C63.34215403 389.01501171 57.44212031 393 52 393 C51.8626601 360.25152639 51.75693872 327.50312748 51.69360802 294.75443157 C51.6861038 290.88796368 51.67833787 287.02149635 51.67041016 283.1550293 C51.66883629 282.38528686 51.66726243 281.61554442 51.66564088 280.82247645 C51.63953453 268.3596542 51.592228 255.89699804 51.53708322 243.43427431 C51.48096955 230.64590053 51.44764637 217.85761373 51.43546903 205.0691219 C51.42723714 197.17814044 51.40124043 189.28762846 51.3525012 181.39679153 C51.31702898 175.34554052 51.31326996 169.29469316 51.32135391 163.24332619 C51.31970171 160.76128625 51.30774626 158.27922873 51.28476715 155.79729462 C51.25493836 152.40969394 51.26208185 149.02410604 51.2784729 145.63645935 C51.26099585 144.65298458 51.2435188 143.66950981 51.22551215 142.65623277 C51.29009941 137.72199986 51.67780944 134.80925138 54.98259544 131.02272129 C55.52135823 130.5038159 56.06012101 129.98491052 56.61520994 129.45028073 C59.74416656 126.17334684 59.32856235 121.76161078 59.28515625 117.5078125 C58.75921499 112.88241127 56.32575738 110.16505952 52.9375 107.1875 C48.03933967 104.18540173 42.55355381 104.31744031 37 105 C32.90852883 106.70723257 30.58902959 109.16395799 28.0625 112.75 C26.41216992 117.79806848 25.80383331 122.31893673 28.01953125 127.28515625 C30.08605196 130.72519526 31.61422184 132.74281456 35 135 C35.37259549 136.97323287 35.37259549 136.97323287 35.36914349 139.44716835 C35.37511663 140.38818386 35.38108978 141.32919936 35.38724393 142.29873049 C35.3785054 143.3395699 35.36976688 144.38040931 35.36076355 145.45278931 C35.36332682 146.55297374 35.3658901 147.65315818 35.36853105 148.78668153 C35.37349895 152.49807035 35.35692626 156.2090584 35.34057617 159.92041016 C35.33973055 162.57092714 35.34007146 165.22141907 35.34190369 167.87193298 C35.34347907 173.59105251 35.33404228 179.3100696 35.31719017 185.02916336 C35.29284053 193.29806244 35.28499905 201.56691184 35.2812262 209.83584289 C35.27465536 223.25061607 35.25467708 236.66533462 35.22631836 250.08007812 C35.19879413 263.11360398 35.17755255 276.14711502 35.16479492 289.18066406 C35.16361267 290.38512861 35.16361267 290.38512861 35.16240653 291.61392577 C35.1584915 295.64209957 35.15470036 299.67027349 35.15097082 303.69844747 C35.11985522 337.13233794 35.06700226 370.56616228 35 404 C32.730384 405.14829977 30.45939222 406.29371978 28.1875 407.4375 C27.22360352 407.92573242 27.22360352 407.92573242 26.24023438 408.42382812 C23.51734534 409.79232676 20.89550206 411.03483265 18 412 C17.99853344 411.19547299 17.99706688 410.39094599 17.99555588 409.56203938 C17.95851239 389.99068176 17.89953038 370.419503 17.81609726 350.84828663 C17.77627931 341.3837995 17.74390084 331.91939585 17.72900391 322.45483398 C17.71600165 314.20599921 17.68907358 305.9573479 17.64538693 297.70861644 C17.62273991 293.34049347 17.60709125 288.97259706 17.60811615 284.60441017 C17.60886086 280.49291807 17.59098673 276.38192741 17.55883217 272.27056503 C17.55031343 270.7617223 17.54859664 269.25282345 17.55419731 267.74396706 C17.56082966 265.68259126 17.54293907 263.6228145 17.51898193 261.56159973 C17.51529476 260.40843671 17.51160759 259.25527369 17.50780869 258.06716633 C16.89167153 254.34569563 15.61812035 252.66671556 13 250 C11.03474875 249.22402041 11.03474875 249.22402041 9 249.375 C8.34 249.36210937 7.68 249.34921875 7 249.3359375 C3.86875395 250.37560904 2.79997957 252.29300835 1 255 C0.39871787 258.12360254 0.39871787 258.12360254 0.48101807 261.56159973 C0.47351681 262.20698958 0.46601556 262.85237942 0.458287 263.51732653 C0.43804762 265.67179315 0.44610423 267.82520356 0.45410156 269.97973633 C0.44536442 271.52726276 0.43487814 273.07478016 0.42277527 274.62228394 C0.39491158 278.8182069 0.39151066 283.01383515 0.39249516 287.2098372 C0.38936636 291.59680169 0.36374886 295.98363339 0.34051514 300.37052917 C0.29994901 308.67540523 0.279613 316.98020275 0.26654124 325.28516263 C0.25067327 334.7410337 0.2122585 344.1967711 0.17194796 353.65256464 C0.08954064 373.1016675 0.03545374 392.55075773 0 412 C-2.64704909 410.68990468 -5.2926656 409.37705236 -7.9375 408.0625 C-8.69224609 407.68931641 -9.44699219 407.31613281 -10.22460938 406.93164062 C-10.94326172 406.57392578 -11.66191406 406.21621094 -12.40234375 405.84765625 C-13.06741943 405.51773682 -13.73249512 405.18781738 -14.41772461 404.84790039 C-16 404 -16 404 -17 403 C-17.10107589 401.57039748 -17.13289868 400.13583539 -17.13701439 398.7026701 C-17.14208893 397.76959583 -17.14716347 396.83652156 -17.15239179 395.87517232 C-17.15288955 394.83803949 -17.15338731 393.80090667 -17.15390015 392.73234558 C-17.16047353 391.09370929 -17.16047353 391.09370929 -17.1671797 389.42196923 C-17.18062361 385.73077406 -17.18675904 382.03960278 -17.19287109 378.34838867 C-17.20076759 375.71436961 -17.20903625 373.08035165 -17.21765137 370.44633484 C-17.24220242 362.51934607 -17.25680653 354.59235097 -17.26971143 346.66533586 C-17.27342141 344.4276706 -17.2773948 342.19000596 -17.2814641 339.95234132 C-17.30669877 326.06707866 -17.32875948 312.18181507 -17.34119225 298.29653454 C-17.34412211 295.07846765 -17.34708375 291.86040079 -17.35009766 288.64233398 C-17.35084371 287.84246397 -17.35158976 287.04259395 -17.35235842 286.21848545 C-17.36501693 273.25579871 -17.39824491 260.29324899 -17.43989949 247.33062633 C-17.4822828 234.03258849 -17.50588311 220.73462086 -17.51111281 207.43651563 C-17.51453106 199.96587104 -17.52633457 192.49544054 -17.55921555 185.02486229 C-17.5871679 178.66350385 -17.59823679 172.30240336 -17.58702008 165.94098826 C-17.58182079 162.69374684 -17.58750729 159.44716124 -17.60948563 156.19997406 C-17.63200446 152.68239377 -17.6239614 149.16619017 -17.60800171 145.64860535 C-17.6218838 144.61816469 -17.63576588 143.58772403 -17.65006864 142.5260579 C-17.57212729 135.58931675 -17.57212729 135.58931675 -14.57528114 132.50243092 C-13.72543837 132.00662871 -12.87559559 131.51082651 -12 131 C-8.76395854 126.20173163 -7.99089392 121.63576227 -9 116 C-10.73786942 111.72216758 -12.95748702 108.7942956 -16.625 106 C-22.77562484 104.17759264 -28.57431462 103.85331236 -34.4375 106.625 C-37.95561769 109.88569445 -40.63452443 112.47862919 -41.34765625 117.3984375 C-41.52953646 122.66505563 -40.98804036 126.51793945 -38 131 C-37.31382725 131.5022044 -36.6276545 132.0044088 -35.92068863 132.52183151 C-32.87281106 136.45435552 -33.46215779 140.4366348 -33.51898193 145.2756958 C-33.51556423 146.33267001 -33.51214653 147.38964422 -33.50862527 148.47864795 C-33.50201959 152.03193679 -33.52406773 155.58447569 -33.54589844 159.13769531 C-33.54702633 161.68012474 -33.5463942 164.22255547 -33.54412842 166.76498413 C-33.54321659 172.24457647 -33.55458563 177.72392591 -33.57707977 183.20346832 C-33.60958117 191.12592041 -33.62000486 199.04828037 -33.62503174 206.97079191 C-33.63378733 219.82433015 -33.66041002 232.67776688 -33.69824219 245.53125 C-33.73495547 258.01757296 -33.76327056 270.50386835 -33.78027344 282.99023438 C-33.78132433 283.75982834 -33.78237523 284.52942231 -33.78345796 285.3223373 C-33.7886781 289.18314497 -33.79373293 293.04395284 -33.79870558 296.90476084 C-33.84017583 328.936581 -33.91063139 360.96827641 -34 393 C-34.69661775 392.72027942 -35.39323549 392.44055883 -36.11096287 392.15236187 C-38.07707952 391.36812901 -40.06317044 390.63260448 -42.06383419 389.94124317 C-45.73904935 388.33775432 -48.18706927 386.87997428 -51 384 C-52.81339131 377.69817795 -52.54725097 371.51569986 -52.40649414 365.00463867 C-52.40806126 363.04940201 -52.41495242 361.09416345 -52.42675781 359.13896179 C-52.44411164 353.83605738 -52.38814082 348.53613701 -52.31986165 343.23373961 C-52.26171534 337.67841267 -52.27393703 332.12326705 -52.27940369 326.56770325 C-52.27963232 316.03953571 -52.22139381 305.51258782 -52.1399855 294.9847663 C-52.02271974 279.55116318 -51.98106652 264.11731551 -51.95396328 248.68331623 C-51.95096308 246.98262644 -51.95096308 246.98262644 -51.94790226 245.24757928 C-51.9439865 242.98598106 -51.94026577 240.7243825 -51.93674558 238.46278363 C-51.92432446 231.8544533 -51.89080982 225.24665705 -51.83892739 218.63852155 C-51.80862937 214.52014478 -51.79007661 210.40176532 -51.77379608 206.28331184 C-51.76346422 204.3798138 -51.74787312 202.47633556 -51.72650719 200.57292938 C-51.52078231 183.85556169 -51.52078231 183.85556169 -58.0625 168.6875 C-58.66835937 167.77742187 -59.27421875 166.86734375 -59.8984375 165.9296875 C-63.01448177 161.58575961 -66.31131002 157.39842365 -69.66796875 153.23828125 C-74.60870904 146.37752129 -76.62008696 140.96734997 -76.6015625 132.49609375 C-76.61013275 131.6139772 -76.618703 130.73186066 -76.62753296 129.82301331 C-76.63895116 127.97001562 -76.64007076 126.11692835 -76.63134766 124.26391602 C-76.6250071 121.44066202 -76.67207919 118.62156801 -76.72265625 115.79882812 C-76.7272014 113.98958857 -76.72860961 112.18033785 -76.7265625 110.37109375 C-76.74498199 109.53549423 -76.76340149 108.69989471 -76.78237915 107.838974 C-76.6940908 102.20825426 -75.36153332 99.39770905 -71.38461304 95.39710999 C-68.73282689 92.7213899 -68.78211253 90.39507239 -68.6875 86.75 C-68.74737665 81.66048438 -69.44205771 78.83883247 -73 75 C-76.81930172 71.37166337 -79.88279006 70.68999542 -85 70.5 C-90.11871131 70.6963862 -93.21914991 71.31367116 -97 75 C-100.20772033 78.98443248 -101.6761958 82.7030485 -101.390625 87.9453125 C-100.68567085 91.65337131 -99.19876614 94.93937183 -97 98 C-95.98534668 98.50889771 -95.98534668 98.50889771 -94.95019531 99.02807617 C-92.2258501 101.78277525 -92.52802842 103.84663125 -92.49694824 107.61376953 C-92.50826782 108.50435059 -92.5195874 109.39493164 -92.53125 110.3125 C-92.52420044 111.23659668 -92.51715088 112.16069336 -92.5098877 113.11279297 C-92.48044478 117.06313439 -92.49690998 121.01298323 -92.50927734 124.96337891 C-92.52094961 138.9771005 -92.23172386 150.40843312 -83.3125 161.875 C-82.43398579 163.05531278 -81.55640462 164.23632051 -80.6796875 165.41796875 C-80.2372168 166.00626465 -79.79474609 166.59456055 -79.33886719 167.20068359 C-77.14232218 170.15264141 -75.03693028 173.166066 -72.9375 176.1875 C-72.20402344 177.23292969 -71.47054687 178.27835938 -70.71484375 179.35546875 C-67.89406946 183.70550108 -67.85921592 187.3723741 -67.87974548 192.38407898 C-67.87889106 193.14209944 -67.87803663 193.9001199 -67.87715632 194.68111068 C-67.87550541 197.22843029 -67.88101654 199.77568447 -67.88647461 202.32299805 C-67.88675659 204.14607746 -67.88659853 205.96915698 -67.8860321 207.79223633 C-67.88574456 212.74852208 -67.89163441 217.70478376 -67.89860606 222.66106391 C-67.90484669 227.83807234 -67.90544396 233.01508129 -67.90663147 238.1920929 C-67.90974269 247.99867967 -67.91795326 257.80525533 -67.92798096 267.61183721 C-67.93914859 278.77493351 -67.94465419 289.93803034 -67.94967639 301.10113084 C-67.96013604 324.06742673 -67.97773144 347.03371274 -68 370 C-71.45427232 368.34591216 -74.16467072 366.38430277 -77.125 363.9375 C-77.99382812 363.22464844 -78.86265625 362.51179688 -79.7578125 361.77734375 C-80.24117569 361.34543732 -80.72453888 360.91353088 -81.22254944 360.46853638 C-83.04823778 358.89513189 -83.04823778 358.89513189 -85.46580505 357.45504761 C-89.07614276 354.89407906 -92.29177196 352.44906223 -93.56880188 348.03307533 C-94.46478596 342.13478055 -94.21799502 336.17621214 -94.08984375 330.23046875 C-94.08600904 328.30235649 -94.08702774 326.37422904 -94.09266663 324.44612122 C-94.09646788 319.39156876 -94.04333421 314.33931461 -93.9753418 309.28527832 C-93.8763318 301.18019249 -93.86580063 293.07448893 -93.85257149 284.96889687 C-93.84000218 282.14111202 -93.80403542 279.31437865 -93.7641449 276.48686218 C-93.75111614 274.75711371 -93.73848562 273.02736217 -93.72631836 271.29760742 C-93.70917282 270.51261368 -93.69202728 269.72761993 -93.67436218 268.9188385 C-93.66574795 265.65708161 -93.77456939 263.39851176 -95.39820862 260.52827454 C-97.28265868 258.7303144 -98.36880993 258.31553966 -100.9375 258 C-101.60652344 257.896875 -102.27554688 257.79375 -102.96484375 257.6875 C-106.06223644 258.16310732 -107.07507844 259.57836821 -109 262 C-109.61633605 265.14199628 -109.61633605 265.14199628 -109.54589844 268.69628906 C-109.55623611 269.36011597 -109.56657379 270.02394287 -109.57722473 270.70788574 C-109.60663646 272.8940469 -109.60815143 275.07928161 -109.609375 277.265625 C-109.62435791 278.78450281 -109.6410853 280.30336433 -109.65948486 281.82220459 C-109.7031589 285.81376903 -109.72315734 289.80511371 -109.73822021 293.796875 C-109.7577913 297.87252803 -109.79976123 301.94794371 -109.83984375 306.0234375 C-109.9151463 314.0155629 -109.96543722 322.00759509 -110 330 C-144.31345023 295.89132188 -164.8433825 245.69157696 -174 199 C-174.16580566 198.16291504 -174.33161133 197.32583008 -174.50244141 196.46337891 C-178.55978403 175.48809423 -179.32293526 154.49864868 -179.3359375 133.1875 C-179.34238127 130.67358325 -179.34911074 128.15966722 -179.35610962 125.64575195 C-179.36797771 120.42527523 -179.37180024 115.20486423 -179.37060547 109.984375 C-179.3704208 103.96210336 -179.39074365 97.94024979 -179.4220928 91.91807079 C-179.45138569 86.08049774 -179.45858275 80.24306519 -179.45738602 74.40542603 C-179.45974428 71.93664081 -179.46858041 69.46785286 -179.48405075 66.99911499 C-179.50359486 63.565511 -179.49792283 60.13283694 -179.48583984 56.69921875 C-179.49707886 55.68420288 -179.50831787 54.66918701 -179.51989746 53.62341309 C-179.48043786 49.2219386 -179.43547476 46.70992813 -177.09463501 42.89379883 C-174.10339375 40.18936146 -172.36660171 39.858014 -168.4296875 39.68359375 C-167.53378906 39.64169922 -166.63789063 39.59980469 -165.71484375 39.55664062 C-164.77769531 39.51732422 -163.84054688 39.47800781 -162.875 39.4375 C-161.93011719 39.39431641 -160.98523438 39.35113281 -160.01171875 39.30664062 C-157.67462908 39.20040928 -155.3374317 39.09836824 -153 39 C-152.99857498 39.92548645 -152.99714996 40.8509729 -152.99568176 41.80450439 C-152.97777348 50.57183698 -152.9359293 59.33866993 -152.86790943 68.10576248 C-152.83377335 72.61191575 -152.80855044 77.11773481 -152.80444336 81.62402344 C-152.80013146 85.98155842 -152.77143222 90.33834118 -152.72656822 94.69564056 C-152.71368484 96.34916535 -152.70925266 98.00278059 -152.71384621 99.65634918 C-152.7430326 113.36638261 -150.74991545 123.88048139 -140.87890625 134.15234375 C-139.92166089 135.10397271 -138.96169679 136.05286978 -138 137 C-135.93273742 139.05049391 -133.86636629 141.10186125 -131.80200195 143.15527344 C-130.37383591 144.57046634 -128.93896854 145.97893506 -127.49682617 147.37988281 C-126.83013916 148.0344043 -126.16345215 148.68892578 -125.4765625 149.36328125 C-124.5805835 150.23400269 -124.5805835 150.23400269 -123.66650391 151.12231445 C-119.505525 155.81057826 -118.53301501 159.60413937 -118.53125 165.78515625 C-118.52363647 166.52326035 -118.51602295 167.26136444 -118.50817871 168.02183533 C-118.49741303 169.57580189 -118.49451022 171.12984059 -118.49902344 172.68383789 C-118.4999987 175.05932746 -118.4582856 177.4316146 -118.4140625 179.80664062 C-118.40885701 181.32030579 -118.40616728 182.83398214 -118.40625 184.34765625 C-118.3816571 185.40872337 -118.3816571 185.40872337 -118.35656738 186.4912262 C-118.38476562 188.50415039 -118.38476562 188.50415039 -119 192 C-121.45629883 194.35864258 -121.45629883 194.35864258 -124 196 C-127.0545184 200.52179461 -126.47205901 205.76166782 -126 211 C-124.51758941 215.70883364 -122.08856561 218.42730941 -118.0234375 221.0859375 C-112.9912493 223.35916537 -108.28881413 222.40143391 -103.1875 220.8125 C-99.21467797 218.55344433 -97.03114184 216.06228368 -95 212 C-94.48527601 206.36335039 -94.21386786 201.54515628 -96.8125 196.4375 C-98.78142502 194.07400651 -98.78142502 194.07400651 -100.61352539 192.82250977 C-102.79229646 189.95853265 -102.40069172 186.85669023 -102.37109375 183.40234375 C-102.38849652 181.86262822 -102.40608064 180.32291472 -102.42382812 178.78320312 C-102.43383604 176.36983093 -102.43751364 173.95660482 -102.43579102 171.54321289 C-102.45373226 155.15273859 -102.45373226 155.15273859 -110.75 141.375 C-111.52214844 140.56160156 -112.29429687 139.74820313 -113.08984375 138.91015625 C-115.3743557 136.60582924 -117.6901052 134.33346195 -120.00390625 132.05859375 C-121.06689941 131.00889404 -121.06689941 131.00889404 -122.15136719 129.93798828 C-123.56399494 128.54865963 -124.98492812 127.16771233 -126.41503906 125.79638672 C-127.07858398 125.14814941 -127.74212891 124.49991211 -128.42578125 123.83203125 C-129.01786377 123.26202393 -129.60994629 122.6920166 -130.2199707 122.10473633 C-134.8001252 116.68908526 -136.60244309 112.29960222 -136.45410156 105.22875977 C-136.45468567 104.48646622 -136.45526978 103.74417267 -136.45587158 102.97938538 C-136.45310643 100.54956697 -136.42209145 98.12100772 -136.390625 95.69140625 C-136.38315697 93.99747894 -136.37746669 92.30354295 -136.37347412 90.60960388 C-136.35826193 86.16903484 -136.31901885 81.72899601 -136.2746582 77.28863525 C-136.2336097 72.75043915 -136.21544273 68.21215669 -136.1953125 63.67382812 C-136.15251977 54.78232019 -136.08432258 45.89120433 -136 37 C-134.86796143 36.8141333 -133.73592285 36.6282666 -132.56958008 36.43676758 C-89.52860057 29.34472919 -48.08882279 19.48716562 -7.88256836 1.98022461 C-5.0566639 0.76083512 -3.11873174 0 0 0 Z " fill="#153B77" transform="translate(247,50)"/>
<path d="M0 0 C5.28923987 1.76307996 7.80008936 4.61155112 11 9 C12.60370972 13.81112917 13.04566305 18.54060051 11.0234375 23.296875 C8.73254559 27.14782214 7.07513879 29.08084542 3 31 C3.02094727 32.24499268 3.04189453 33.48998535 3.06347656 34.77270508 C3.13644299 39.43746216 3.18200388 44.10216987 3.21972656 48.76733398 C3.23971393 50.77783724 3.26691326 52.78828333 3.30175781 54.79858398 C3.54140845 68.99083547 3.24261863 80.3774978 -5.75 92 C-6.3987207 92.87483032 -6.3987207 92.87483032 -7.06054688 93.76733398 C-8.36230269 95.52045117 -9.67987166 97.26069585 -11 99 C-12.50562778 101.01664383 -14.00616763 103.03710319 -15.5 105.0625 C-16.1290625 105.89910156 -16.758125 106.73570312 -17.40625 107.59765625 C-20.689475 112.54663511 -21.27540152 116.74596958 -21.1530304 122.59526062 C-21.14556689 123.35201783 -21.13810338 124.10877503 -21.13041371 124.88846427 C-21.10330231 127.4202356 -21.06185752 129.95157455 -21.02075195 132.4831543 C-20.9989014 134.30014328 -20.97813064 136.11714553 -20.95835876 137.93415833 C-20.91476717 141.84598877 -20.86603959 145.75771098 -20.81411171 149.66943932 C-20.73451712 155.85997194 -20.68202666 162.05054446 -20.63627625 168.2414093 C-20.62845054 169.28687398 -20.62062484 170.33233866 -20.612562 171.40948409 C-20.59665234 173.54726795 -20.58082467 175.68505241 -20.56507719 177.82283747 C-20.45824093 192.23334993 -20.33542464 206.64301967 -20.12915039 221.05249023 C-19.99016077 230.77571981 -19.89750752 240.49817727 -19.85819024 250.22233707 C-19.83556021 255.36577224 -19.78942036 260.50657488 -19.68663979 265.64908409 C-19.59027058 270.49011202 -19.55521061 275.32778398 -19.5661869 280.1697216 C-19.55944345 281.9411863 -19.53053956 283.7127342 -19.47724533 285.48340988 C-19.10499932 298.44502664 -19.10499932 298.44502664 -22.26478553 302.70527291 C-26.99807379 307.47784296 -32.69341988 310.72429809 -39 313 C-39.07012562 287.2263498 -39.12300563 261.45271394 -39.15543652 235.6789875 C-39.17089593 223.71141493 -39.19196784 211.74390168 -39.22631836 199.77636719 C-39.25624895 189.34372539 -39.27558173 178.91112657 -39.28226548 168.47844303 C-39.28617152 162.9560043 -39.29533212 157.43368849 -39.31719017 151.91128922 C-39.33761306 146.70913522 -39.34382205 141.50715434 -39.33932304 136.30496407 C-39.34014565 134.39988704 -39.34607658 132.49480399 -39.35761642 130.58976173 C-39.48472282 108.5163775 -39.48472282 108.5163775 -32.9375 98.6875 C-32.02871094 97.32238281 -32.02871094 97.32238281 -31.1015625 95.9296875 C-27.98551823 91.58575961 -24.68868998 87.39842365 -21.33203125 83.23828125 C-16.39129096 76.37752129 -14.37991304 70.96734997 -14.3984375 62.49609375 C-14.38986725 61.6139772 -14.381297 60.73186066 -14.37246704 59.82301331 C-14.36104884 57.97001562 -14.35992924 56.11692835 -14.36865234 54.26391602 C-14.3749929 51.44066202 -14.32792081 48.62156801 -14.27734375 45.79882812 C-14.2727986 43.98958857 -14.27139039 42.18033785 -14.2734375 40.37109375 C-14.25501801 39.53549423 -14.23659851 38.69989471 -14.21762085 37.838974 C-14.3059092 32.20825426 -15.63846668 29.39770905 -19.61538696 25.39710999 C-22.26717311 22.7213899 -22.21788747 20.39507239 -22.3125 16.75 C-22.25927779 11.66062631 -21.49801724 8.87618126 -18 5 C-12.02699628 -0.26193185 -7.81748614 -0.59793803 0 0 Z " fill="#58CECF" transform="translate(355,120)"/>
<path d="M0 0 C5.01791684 2.41935276 8.49958655 5.9991731 11 11 C11.53229587 16.34041106 11.68515143 20.67694896 9.1875 25.5 C7 28 7 28 5.38853455 29.40766907 C2.86991325 32.29595054 3.55385109 36.31847667 3.56640625 39.98046875 C3.55854347 41.31069817 3.55854347 41.31069817 3.55052185 42.6678009 C3.54409636 44.54650832 3.54544546 46.42525594 3.55395508 48.30395508 C3.5624178 51.15976109 3.53378902 54.01353473 3.50195312 56.86914062 C3.50033966 58.69791607 3.50092142 60.52669503 3.50390625 62.35546875 C3.49267227 63.20159225 3.48143829 64.04771576 3.46986389 64.91947937 C3.56328818 72.99182972 6.58819125 78.56590886 11.53125 84.83984375 C12.17707031 85.67580078 12.82289063 86.51175781 13.48828125 87.37304688 C14.82753095 89.08026519 16.16867308 90.78600069 17.51171875 92.49023438 C24.88406672 102.04779925 28.16671474 110.03821293 28.12025452 122.15608215 C28.12110894 122.9729812 28.12196337 123.78988024 28.12284368 124.6315338 C28.12448951 127.36611327 28.11899179 130.10063127 28.11352539 132.83520508 C28.1132433 134.79650877 28.11340168 136.75781258 28.1139679 138.71911621 C28.11425501 144.04303974 28.10837205 149.36694078 28.10139394 154.69085908 C28.09514621 160.25489834 28.09455547 165.81893811 28.09336853 171.38298035 C28.09025941 181.91906908 28.08205165 192.45514745 28.07201904 202.99123162 C28.06084491 214.9862812 28.05534417 226.98133127 28.05032361 238.97638476 C28.03986871 263.65092892 28.02227735 288.32546388 28 313 C21.21555897 310.55232477 14.37634766 306.89979915 10 301 C7.74836328 295.30439208 8.39535265 288.92069457 8.58764648 282.91748047 C8.59787569 281.09651957 8.60229073 279.2755182 8.60136414 277.45452881 C8.61466918 272.53139302 8.70736808 267.61258671 8.81360507 262.69070196 C8.91013692 257.52982426 8.92917412 252.36869016 8.95558167 247.20706177 C9.01654141 237.43405777 9.1403676 227.66299296 9.28991991 217.89098179 C9.55551464 200.39024394 9.71017192 182.8882892 9.84763962 165.38613427 C9.89829237 159.24777404 9.97512669 153.11045407 10.07424247 146.97269034 C10.1328695 143.15276437 10.1754646 139.33276617 10.21461678 135.51259613 C10.23642928 133.74525537 10.26530191 131.97798505 10.30186462 130.21088791 C10.74100357 118.00170062 10.74100357 118.00170062 6 107 C5.44699219 106.16662109 4.89398438 105.33324219 4.32421875 104.47460938 C3.78410156 103.77142578 3.24398437 103.06824219 2.6875 102.34375 C2.08679688 101.54839844 1.48609375 100.75304687 0.8671875 99.93359375 C-0.05707031 98.72896484 -0.05707031 98.72896484 -1 97.5 C-5.27575738 91.92720325 -9.31123932 86.53075758 -12 80 C-12.36077637 79.13810059 -12.72155273 78.27620117 -13.09326172 77.38818359 C-14.3021764 72.87086588 -14.24813001 68.6619881 -14.1953125 64.0078125 C-14.1924826 63.06187225 -14.18965271 62.11593201 -14.18673706 61.1413269 C-14.17558932 58.13575306 -14.15049465 55.13048298 -14.125 52.125 C-14.11496321 50.08073349 -14.10583859 48.03646228 -14.09765625 45.9921875 C-14.07566767 40.99467556 -14.04117509 35.9973892 -14 31 C-14.61488281 30.73058594 -15.22976562 30.46117187 -15.86328125 30.18359375 C-19.79055575 28.00815651 -21.61877076 24.14368772 -23 20 C-23.60220006 14.07836608 -22.93284332 10.64580168 -19.46484375 5.765625 C-14.0788167 -0.72633293 -7.97780064 -1.08489322 0 0 Z " fill="#58CFCF" transform="translate(168,120)"/>
<path d="M0 0 C3.7229703 2.6592645 6.55543557 5.73587115 8.625 9.875 C9.18671614 15.88104183 9.05998525 20.72252212 5.625 25.875 C4.93882725 26.37642139 4.2526545 26.87784279 3.54568863 27.39445877 C0.49338783 31.33646055 1.08726449 35.33974413 1.14398193 40.18865967 C1.14056423 41.24971743 1.13714653 42.31077519 1.13362527 43.40398622 C1.12701945 46.97109352 1.14906796 50.53745383 1.17089844 54.10449219 C1.17202633 56.6567737 1.1713942 59.20905652 1.16912842 61.76133728 C1.16821658 67.26221017 1.17958582 72.7628411 1.20207977 78.26366425 C1.23458091 86.21688538 1.24500484 94.17001475 1.25003174 102.1232951 C1.25878737 115.02674744 1.28541018 127.93009866 1.32324219 140.83349609 C1.35995536 153.36832167 1.38827051 165.90311979 1.40527344 178.43798828 C1.40684978 179.59685972 1.40684978 179.59685972 1.40845796 180.77914271 C1.4136781 184.65493445 1.41873293 188.53072639 1.42370558 192.40651846 C1.46517595 224.56275246 1.53563163 256.7188622 1.625 288.875 C-0.99714328 290.38019387 -3.62244208 291.87931319 -6.25 293.375 C-7.36955078 294.01888672 -7.36955078 294.01888672 -8.51171875 294.67578125 C-9.58486328 295.28486328 -9.58486328 295.28486328 -10.6796875 295.90625 C-11.33952637 296.28330078 -11.99936523 296.66035156 -12.67919922 297.04882812 C-14.375 297.875 -14.375 297.875 -16.375 297.875 C-16.375 209.435 -16.375 120.995 -16.375 29.875 C-17.695 29.215 -19.015 28.555 -20.375 27.875 C-23.68465455 24.24308961 -25.70939064 20.30681176 -26 15.375 C-25.60036835 8.94759094 -22.28083714 4.69008299 -17.75 0.375 C-11.88544854 -2.23146731 -6.04425376 -2.01475125 0 0 Z " fill="#57CDCF" transform="translate(298.375,155.125)"/>
<path d="M0 0 C4.8726693 2.44171287 7.88193337 6.37738923 9.89453125 11.38671875 C10.99318437 16.50483449 10.26851257 20.31781606 7.64453125 24.82421875 C5.53766106 28.04304821 4.60278551 28.53259162 0.89453125 30.38671875 C0.89453125 118.82671875 0.89453125 207.26671875 0.89453125 298.38671875 C-3.26754952 296.72188644 -6.99544645 294.90127637 -10.91796875 292.76171875 C-11.81418945 292.27445312 -11.81418945 292.27445312 -12.72851562 291.77734375 C-14.1888401 290.98292724 -15.64734366 290.18516499 -17.10546875 289.38671875 C-17.10205127 288.5686516 -17.10205127 288.5686516 -17.09856474 287.73405784 C-16.9642904 255.40907483 -16.8613466 223.08416566 -16.79907677 190.75896805 C-16.79157255 186.87747888 -16.78380662 182.99599028 -16.77587891 179.11450195 C-16.77430504 178.3417689 -16.77273118 177.56903585 -16.77110963 176.77288664 C-16.74500312 164.26156578 -16.6976965 151.75041037 -16.64255197 139.23918765 C-16.58643874 126.40109329 -16.55311522 113.56308557 -16.54093778 100.7248736 C-16.5327058 92.80318348 -16.50670859 84.881961 -16.45796995 76.96041483 C-16.4224984 70.88566315 -16.41873861 64.81131357 -16.42682266 58.73644638 C-16.42517043 56.24473122 -16.41321457 53.75299853 -16.3902359 51.26138878 C-16.36040825 47.86065341 -16.36755022 44.46192316 -16.38394165 41.06114197 C-16.35772608 39.58009339 -16.35772608 39.58009339 -16.3309809 38.06912464 C-16.39543684 33.12612915 -16.77703598 30.20087516 -20.08806419 26.4070673 C-20.62682698 25.88850448 -21.16558976 25.36994166 -21.72067869 24.83566481 C-24.85113622 21.56017619 -24.43624912 17.14404589 -24.38671875 12.890625 C-23.83022145 7.9362532 -21.08253284 5.24746569 -17.48046875 2.07421875 C-12.31069269 -1.59904318 -6.07991185 -1.77095763 0 0 Z " fill="#57CDCF" transform="translate(229.10546875,154.61328125)"/>
<path d="M0 0 C-0.00079559 0.93214828 -0.00159119 1.86429657 -0.00241089 2.82469177 C-0.00602332 11.63711669 0.02192983 20.44896032 0.0802784 29.261199 C0.10927127 33.79105214 0.12739035 38.32039019 0.12011719 42.8503418 C0.11349862 47.22739386 0.13615115 51.60343036 0.17855453 55.98027229 C0.18964106 57.64465784 0.19042628 59.30914694 0.18042374 60.97353935 C0.1314002 70.3358176 0.20776325 77.83161941 7 85 C7.83474854 85.92095459 8.66949707 86.84190918 9.52954102 87.79077148 C10.34608154 88.55977783 11.16262207 89.32878418 12.00390625 90.12109375 C13.36225586 91.43110352 13.36225586 91.43110352 14.74804688 92.76757812 C16.62445882 94.54763026 18.50467618 96.32367953 20.38867188 98.09570312 C27.29921312 104.77966924 33.78803213 112.37306666 34.11010742 122.44238281 C34.11132061 123.86263053 34.109584 125.28288272 34.10546875 126.703125 C34.11892934 128.25652427 34.13395332 129.80991063 34.15039062 131.36328125 C34.17317288 133.80367754 34.18753778 136.24261742 34.17504883 138.68310547 C33.70002929 149.27194462 33.70002929 149.27194462 37.98828125 158.484375 C38.98214844 159.31453125 39.97601563 160.1446875 41 161 C43.09182531 165.18365063 42.42935408 170.44407619 42 175 C39.84829659 179.46279226 37.09499214 182.2358803 33 185 C27.93521469 186.548736 22.60356916 187.30178458 17.7421875 184.87109375 C13.51346222 181.88289858 10.52829969 179.06249272 9 174 C8.36005 168.58067655 8.31803146 164.3882931 10.75 159.4375 C12.85987303 157.15180422 14.24409759 156.25636728 17 155 C17.00536144 150.30337489 16.97137617 145.60920791 16.90234375 140.91308594 C16.88427784 139.31876967 16.87659807 137.72429805 16.87988281 136.12988281 C17.2104476 124.57962465 17.2104476 124.57962465 11.93017578 114.7734375 C10.97473877 113.89558594 10.97473877 113.89558594 10 113 C9.25089355 112.24976563 8.50178711 111.49953125 7.72998047 110.7265625 C4.32478775 107.34751716 0.85242157 104.04475776 -2.65625 100.7734375 C-9.73316253 93.93100098 -16.73961874 85.02844387 -17.12025452 74.75398254 C-17.12315302 73.39694338 -17.12049651 72.03988568 -17.11352539 70.68286133 C-17.11367142 69.94115189 -17.11381744 69.19944244 -17.1139679 68.43525696 C-17.11327134 65.98415195 -17.10549097 63.53312298 -17.09765625 61.08203125 C-17.09579116 59.38238059 -17.09436768 57.68272939 -17.09336853 55.983078 C-17.08955055 51.50980139 -17.07972638 47.03655724 -17.06866455 42.56329346 C-17.05843499 37.99858031 -17.0538676 33.43386193 -17.04882812 28.86914062 C-17.03810349 19.91274615 -17.02103567 10.95637578 -17 2 C-14.79885109 0.89942555 -13.18873532 0.69879307 -10.75 0.4375 C-10.00234375 0.35371094 -9.2546875 0.26992187 -8.484375 0.18359375 C-5.64961159 -0.02589348 -2.84164295 -0.01146217 0 0 Z " fill="#58CFD0" transform="translate(111,87)"/>
<path d="M0 0 C2.64624284 0.14021805 5.29184578 0.28689776 7.9375 0.4375 C9.06961914 0.49647461 9.06961914 0.49647461 10.22460938 0.55664062 C15.88671875 0.88671875 15.88671875 0.88671875 17 2 C17.12089949 4.29760582 17.17031469 6.59898431 17.19287109 8.8996582 C17.20513733 9.98287102 17.20513733 9.98287102 17.21765137 11.08796692 C17.2425764 13.49222991 17.2590506 15.89643302 17.2734375 18.30078125 C17.27876118 19.12336111 17.28408485 19.94594097 17.28956985 20.79344749 C17.31634826 25.15794316 17.33569708 29.52240993 17.35009766 33.88696289 C17.3666429 38.37122786 17.41132 42.85474307 17.4624691 47.338727 C17.49635311 50.80401828 17.50769876 54.26913752 17.51332474 57.73457909 C17.51999267 59.38541495 17.53509684 61.03624131 17.55921555 62.68691444 C17.71414748 73.94438266 16.96804984 84.09524516 9.59765625 93.3046875 C8.34275391 94.57699219 8.34275391 94.57699219 7.0625 95.875 C6.60230469 96.35203369 6.14210938 96.82906738 5.66796875 97.32055664 C4.13165766 98.90132117 2.56980166 100.45251119 1 102 C-0.87533856 103.85928 -2.75031906 105.71890205 -4.62329102 107.58056641 C-5.84732627 108.79170367 -7.0780133 109.9961659 -8.31616211 111.19287109 C-8.88214111 111.74668457 -9.44812012 112.30049805 -10.03125 112.87109375 C-10.78245117 113.59703735 -10.78245117 113.59703735 -11.54882812 114.33764648 C-15.60765468 118.98713337 -16.45774443 122.86181556 -16.51171875 128.92578125 C-16.53864555 130.04716743 -16.53864555 130.04716743 -16.56611633 131.19120789 C-16.62003849 133.56491558 -16.65405554 135.93842432 -16.6875 138.3125 C-16.72068921 139.92776195 -16.75518035 141.54299771 -16.79101562 143.15820312 C-16.87575399 147.10532476 -16.94265049 151.05238927 -17 155 C-16.07960938 155.41958984 -16.07960938 155.41958984 -15.140625 155.84765625 C-11.76587923 157.66435333 -10.68897884 159.56172164 -9 163 C-8.16343603 169.1868962 -8.29995376 174.76890014 -12 180 C-17.12182551 184.85225575 -21.82972919 186.48981156 -28.7890625 186.31640625 C-33.52226782 185.63903941 -36.2667914 182.83229084 -39.3125 179.375 C-42.94530785 174.26215933 -42.59231547 169.12326125 -42 163 C-40.40952757 159.87389901 -39.20790579 157.88148429 -36.38647461 155.82250977 C-34.20770354 152.95853265 -34.59930828 149.85669023 -34.62890625 146.40234375 C-34.61150348 144.86262822 -34.59391936 143.32291472 -34.57617188 141.78320312 C-34.56616396 139.36983093 -34.56248636 136.95660482 -34.56420898 134.54321289 C-34.53084073 112.95395099 -34.53084073 112.95395099 -26.25 104.375 C-25.09177734 103.15490234 -25.09177734 103.15490234 -23.91015625 101.91015625 C-21.6256443 99.60582924 -19.3098948 97.33346195 -16.99609375 95.05859375 C-16.28743164 94.35879395 -15.57876953 93.65899414 -14.84863281 92.93798828 C-13.43600506 91.54865963 -12.01507188 90.16771233 -10.58496094 88.79638672 C-9.58964355 87.82403076 -9.58964355 87.82403076 -8.57421875 86.83203125 C-7.98213623 86.26202393 -7.39005371 85.6920166 -6.7800293 85.10473633 C-2.21642268 79.70865176 -0.40242562 75.27065493 -0.45410156 68.22875977 C-0.44376389 67.48646622 -0.43342621 66.74417267 -0.42277527 65.97938538 C-0.39350867 63.54983332 -0.3918516 61.12112017 -0.390625 58.69140625 C-0.37563235 56.99745612 -0.35890293 55.30352056 -0.34051514 53.60960388 C-0.29695085 49.16927391 -0.27686689 44.72914111 -0.26177979 40.28863525 C-0.24216916 35.75024816 -0.20020366 31.21207276 -0.16015625 26.67382812 C-0.08497261 17.78261756 -0.03460956 8.89145465 0 0 Z " fill="#58CFD0" transform="translate(401,87)"/>
<path d="M0 0 C0.639375 -0.01546875 1.27875 -0.0309375 1.9375 -0.046875 C5.49220065 1.32653207 7.38429907 3.3976239 9 6.75 C9.7450312 11.80489534 9.63209016 16.84047353 9.56762695 21.93505859 C9.56621571 23.49257359 9.56700996 25.05009191 9.56983948 26.60760498 C9.57127208 30.82641625 9.54190815 35.04451445 9.50696969 39.26316023 C9.47567986 43.6753727 9.47277339 48.08760214 9.46684265 52.49990845 C9.4513119 60.85095111 9.41029392 69.20166588 9.3600952 77.55256426 C9.30417776 87.06154503 9.27670921 96.57054158 9.25161803 106.07964587 C9.19937733 125.63661348 9.11145003 145.19328607 9 164.75 C5.80050109 166.45290455 3.64904168 167.02225025 0 167 C-1.2684375 167.00773437 -1.2684375 167.00773437 -2.5625 167.015625 C-5.15153742 166.73348631 -6.72425992 165.96124221 -9 164.75 C-9.11680824 144.2530526 -9.20497592 123.7561601 -9.25906086 103.25894737 C-9.2848411 93.74169157 -9.31998817 84.22464259 -9.37719727 74.70751953 C-9.42703776 66.41225758 -9.45929233 58.11714541 -9.47044247 49.82173789 C-9.47696017 45.42941535 -9.49227458 41.03752133 -9.52865028 36.64533615 C-9.56262016 32.51008942 -9.5730511 28.37544717 -9.56553841 24.24007416 C-9.56691253 22.72353199 -9.57683967 21.20696935 -9.59602737 19.69054794 C-9.75110886 6.80067828 -9.75110886 6.80067828 -6.59342957 2.85073853 C-2.98494722 -0.07221646 -2.98494722 -0.07221646 0 0 Z " fill="#55C9CC" transform="translate(256,298.25)"/>
<path d="M0 0 C0.928125 -0.01160156 0.928125 -0.01160156 1.875 -0.0234375 C4.87392144 0.53886027 7.30037755 1.98611045 10 3.375 C9.9685791 4.51976807 9.9371582 5.66453613 9.90478516 6.84399414 C9.79573709 11.113399 9.72714199 15.38268221 9.67041016 19.65307617 C9.64033767 21.49703712 9.5994674 23.34085621 9.54736328 25.18432617 C9.47412142 27.84329291 9.44044995 30.50036075 9.4140625 33.16015625 C9.36761093 34.38557884 9.36761093 34.38557884 9.32022095 35.63575745 C9.3169622 41.24656487 10.65226623 43.98967467 14.61044312 47.97239685 C17.0904223 50.47566005 17.23751228 52.58395887 17.375 56 C17.32635697 61.60205607 15.56779776 65.13441752 12 69.375 C7.37719498 73.58991046 2.75172906 73.72388267 -3.2734375 73.65234375 C-7.14953489 73.25807023 -9.16140409 72.00589377 -12 69.375 C-16.42571494 63.51391805 -17.91689042 58.62339046 -17 51.375 C-15.39218783 48.38114286 -13.93185856 46.19355926 -11.38456726 43.95597839 C-8.8880018 41.10525661 -9.64026853 37.16228615 -9.70703125 33.55078125 C-9.71127609 32.68938034 -9.71552094 31.82797943 -9.71989441 30.94047546 C-9.73668752 28.18916569 -9.77434044 25.43858838 -9.8125 22.6875 C-9.82754604 20.8222762 -9.84123459 18.95704093 -9.85351562 17.09179688 C-9.88659307 12.51924902 -9.9383794 7.9472487 -10 3.375 C-3.35832472 -0.04197906 -3.35832472 -0.04197906 0 0 Z " fill="#6BE5E8" transform="translate(256,45.625)"/>
<path d="M0 0 C2.89784823 2.18334173 3.88010903 3.41351998 4.6131897 6.99958801 C4.66429901 8.17124008 4.71540833 9.34289215 4.76806641 10.55004883 C4.80089218 11.19953491 4.83371796 11.849021 4.86753845 12.51818848 C4.968304 14.66422109 5.03800197 16.80959073 5.1015625 18.95703125 C5.12640087 19.69588751 5.15123924 20.43474377 5.17683029 21.19598961 C5.30674098 25.11624702 5.41205697 29.03630727 5.49804688 32.95776367 C5.57258436 36.17768604 5.69021199 39.3912835 5.84863281 42.6081543 C7.28274421 72.13622346 7.28274421 72.13622346 0.14047241 80.61833191 C-2.71322802 83.41857088 -5.68448107 85.777689 -9 88 C-10.33760141 88.99428378 -11.67195569 89.99298655 -13 91 C-13.09268518 79.87341787 -13.1637576 68.7469276 -13.20724869 57.62003803 C-13.22812241 52.45334041 -13.25643634 47.28690693 -13.30175781 42.12036133 C-13.34522292 37.13422741 -13.36913873 32.14834755 -13.37950897 27.1620388 C-13.38689913 25.2598184 -13.4013304 23.35761188 -13.42292023 21.45549965 C-13.45196313 18.79074699 -13.45595565 16.1270437 -13.45410156 13.4621582 C-13.46848267 12.67597107 -13.48286377 11.88978394 -13.49768066 11.07977295 C-13.46950572 7.33676299 -13.13833327 5.21558986 -11.09661865 2.03361511 C-7.31823995 -1.63122305 -5.05700545 -1.13346674 0 0 Z " fill="#57CCCE" transform="translate(371,308)"/>
<path d="M0 0 C0.97259766 0.15855469 0.97259766 0.15855469 1.96484375 0.3203125 C2.61582031 0.40023438 3.26679688 0.48015625 3.9375 0.5625 C6.97129309 1.9255959 8.11107614 3.64998893 9.90234375 6.4453125 C10.26954687 9.39669418 10.41029322 11.96370961 10.35644531 14.9074707 C10.35702942 15.7470079 10.35761353 16.5865451 10.35821533 17.45152283 C10.35543638 20.21680553 10.32435381 22.98100018 10.29296875 25.74609375 C10.28550568 27.66708284 10.27981306 29.58807955 10.27581787 31.50907898 C10.26056677 36.55792366 10.22128934 41.60630592 10.17700195 46.65496826 C10.13603803 51.80962875 10.11780445 56.96436418 10.09765625 62.11914062 C10.05479469 72.22806743 9.98654957 82.33665146 9.90234375 92.4453125 C7.55859536 90.45724282 5.22773183 88.45482131 2.90234375 86.4453125 C2.37689468 85.99622969 1.85144562 85.54714687 1.31007385 85.08445549 C-4.93724407 79.59339416 -8.71331638 75.37578386 -9.33398438 66.82836914 C-9.36532176 63.99666859 -9.25697866 61.18381713 -9.12890625 58.35546875 C-9.0985513 56.83767874 -9.07246811 55.31979795 -9.05041504 53.80186462 C-8.99302325 50.64412756 -8.89892511 47.49052676 -8.77490234 44.3347168 C-8.61720053 40.29771409 -8.53108369 36.26316539 -8.4693985 32.22367191 C-8.41765081 29.09947212 -8.33963991 25.97639283 -8.25254822 22.85299492 C-8.21204243 21.36403699 -8.17702875 19.87491873 -8.14772034 18.38569832 C-8.10064434 16.30754574 -8.02097583 14.23320603 -7.93164062 12.15649414 C-7.89180054 10.97801407 -7.85196045 9.799534 -7.81091309 8.58534241 C-6.84383553 4.32789642 -4.46259719 0.947367 0 0 Z " fill="#57CCCE" transform="translate(144.09765625,306.5546875)"/>
<path d="M0 0 C3.7229703 2.6592645 6.55543557 5.73587115 8.625 9.875 C9.18174965 15.82793853 9.16641118 20.84848091 5.625 25.875 C1.29542549 30.22504531 -1.82567256 32.66255605 -8.125 33.1875 C-12.89752495 33.11731581 -15.49937123 31.63265893 -19.375 28.875 C-23.90500977 23.97769214 -25.91807536 19.8972829 -25.75390625 13.25390625 C-24.88249227 7.78286382 -21.65758573 4.09651022 -17.75 0.375 C-11.88544854 -2.23146731 -6.04425376 -2.01475125 0 0 Z " fill="#6BE5E8" transform="translate(298.375,155.125)"/>
<path d="M0 0 C5.28923987 1.76307996 7.80008936 4.61155112 11 9 C12.59072853 13.77218558 13.02510621 18.48142009 11.09375 23.2265625 C7.90590356 28.6826843 4.07457639 31.9751412 -2 34 C-7.65281185 34.5435396 -11.54639304 33.47805496 -16 30 C-20.14607984 25.81117707 -22.1591773 22.65695874 -22.3125 16.75 C-22.25927779 11.66062631 -21.49801724 8.87618126 -18 5 C-12.02699628 -0.26193185 -7.81748614 -0.59793803 0 0 Z " fill="#6BE5E8" transform="translate(355,120)"/>
<path d="M0 0 C4.8726693 2.44171287 7.88193337 6.37738923 9.89453125 11.38671875 C10.95336397 16.31932973 10.33005811 20.22957491 7.89453125 24.63671875 C4.6147544 29.25612276 0.47046988 32.68897463 -5.1875 33.79296875 C-9.8789461 34.008255 -13.25771132 32.97977267 -17.10546875 30.38671875 C-21.73746475 25.79811382 -24.22319697 22.24771505 -24.41796875 15.57421875 C-24.36144883 10.72057065 -23.38111447 8.10501929 -20.10546875 4.38671875 C-14.0413827 -0.95545229 -7.95830581 -2.3180965 0 0 Z " fill="#6BE5E8" transform="translate(229.10546875,154.61328125)"/>
<path d="M0 0 C5.01791684 2.41935276 8.49958655 5.9991731 11 11 C11.5238576 16.25575165 11.66505372 20.64526095 9.3125 25.4375 C5.91456392 29.20278052 2.61264873 32.7614198 -2.609375 33.23828125 C-13.27337762 33.49029126 -13.27337762 33.49029126 -18 29 C-21.65153244 24.16418677 -23.43433907 20.34013953 -23.34375 14.19140625 C-22.51238657 8.89146441 -19.16861616 5.14011333 -15.4375 1.5 C-10.29517977 -0.74392156 -5.52295971 -0.75106183 0 0 Z " fill="#6BE5E8" transform="translate(168,120)"/>
<path d="M0 0 C3.86926347 3.32936624 7.44580836 6.66577838 7.92578125 11.921875 C8.17484758 22.46131343 8.17484758 22.46131343 3.6875 27.3125 C-1.15587111 31.79261828 -5.44994245 32.79750479 -11.9296875 32.72265625 C-17.42500226 31.77674141 -21.09584819 27.94737587 -24.3125 23.625 C-26.16275652 17.49602528 -26.47715275 11.68494078 -23.625 5.875 C-17.22014772 -1.22226874 -9.05719647 -4.61404348 0 0 Z " fill="#6CE6E8" transform="translate(145.3125,240.6875)"/>
<path d="M0 0 C3.06775374 2.96496817 5.83238108 6.02725422 6.203125 10.390625 C6.29499339 15.99459692 6.35273398 20.25992781 3 25 C-2.12182551 29.85225575 -6.82972919 31.48981156 -13.7890625 31.31640625 C-18.52226782 30.63903941 -21.2667914 27.83229084 -24.3125 24.375 C-27.95019722 19.25527798 -27.57769859 14.13002394 -27 8 C-24.66551393 3.15810296 -21.21743545 -0.71302582 -16.125 -2.75 C-9.9342312 -3.47832574 -5.52114158 -3.06730088 0 0 Z " fill="#6CE6E8" transform="translate(386,242)"/>
<path d="M0 0 C0.61875 -0.00773437 1.2375 -0.01546875 1.875 -0.0234375 C4 0.375 4 0.375 10 3.375 C9.67 16.245 9.34 29.115 9 42.375 C7.35 41.715 5.7 41.055 4 40.375 C1.96379584 40.06533159 1.96379584 40.06533159 0 40.125 C-0.639375 40.11984375 -1.27875 40.1146875 -1.9375 40.109375 C-4.56837561 40.36092387 -4.56837561 40.36092387 -9 42.375 C-9.33 29.505 -9.66 16.635 -10 3.375 C-3.17073171 -0.03963415 -3.17073171 -0.03963415 0 0 Z " fill="#55C8CC" transform="translate(256,45.625)"/>
</svg>
