<?xml version="1.0" encoding="iso-8859-1"?>
<!-- Generator: Adobe Illustrator 18.0.0, SVG Export Plug-In . SVG Version: 6.00 Build 0)  -->
<!DOCTYPE svg PUBLIC "-//W3C//DTD SVG 1.1//EN" "http://www.w3.org/Graphics/SVG/1.1/DTD/svg11.dtd">
<svg version="1.1" id="Capa_1" xmlns="http://www.w3.org/2000/svg" xmlns:xlink="http://www.w3.org/1999/xlink" x="0px" y="0px"
	 viewBox="0 0 53.325 53.325" style="enable-background:new 0 0 53.325 53.325;" xml:space="preserve">
<g>
	<path style="fill:#FFD581;" d="M47.162,28.325c-0.141-0.797-0.342-1.567-0.57-2.325H6.733c-0.228,0.758-0.43,1.528-0.57,2.325
		c-1.663,0.661-3,2.602-3,4.5c0,1.978,1.284,3.639,3.058,4.242c2.153,9.31,10.478,16.258,20.442,16.258
		c9.964,0,18.29-6.948,20.442-16.258c1.774-0.604,3.058-2.265,3.058-4.242C50.162,30.927,48.825,28.986,47.162,28.325z"/>
	<circle style="fill:#414141;" cx="20.162" cy="34.325" r="2"/>
	<path style="fill:#414141;" d="M26.88,41.729c-3.861-1.805-8.447-0.142-10.252,3.72C20.489,47.254,25.075,45.59,26.88,41.729z"/>
	<path style="fill:#414141;" d="M26.91,41.729c3.861-1.805,8.447-0.142,10.252,3.72C33.301,47.254,28.716,45.59,26.91,41.729z"/>
	<path style="fill:#3D324C;" d="M45.162,43.325c-4.71,0-8-3.701-8-9c0-0.553,0.448-1,1-1s1,0.447,1,1c0,3.484,1.855,7,6,7
		c0.552,0,1,0.447,1,1S45.715,43.325,45.162,43.325z"/>
	<path style="fill:#3D324C;" d="M48.162,26h-42c-1.1,0-2-0.9-2-2v0c0-1.1,0.9-2,2-2h42c1.1,0,2,0.9,2,2v0
		C50.162,25.1,49.262,26,48.162,26z"/>
	<path style="fill:#556080;" d="M46.162,22h-39l0.7-1.679C10.593,13.767,10.337,6.35,7.162,0l0,0h39l0,0
		c-3.175,6.35-3.43,13.767-0.7,20.321L46.162,22z"/>
	<path style="fill:#8697CB;" d="M43.591,11H9.734c-0.002,0.667-0.031,1.334-0.087,2h34.031C43.621,12.334,43.593,11.667,43.591,11z"
		/>
	<g>
		<circle style="fill:#D0E8F9;" cx="34.162" cy="34.325" r="4"/>
		<path style="fill:#556080;" d="M34.162,39.325c-2.757,0-5-2.243-5-5s2.243-5,5-5s5,2.243,5,5S36.919,39.325,34.162,39.325z
			 M34.162,31.325c-1.654,0-3,1.346-3,3s1.346,3,3,3s3-1.346,3-3S35.817,31.325,34.162,31.325z"/>
	</g>
</g>
<g>
</g>
<g>
</g>
<g>
</g>
<g>
</g>
<g>
</g>
<g>
</g>
<g>
</g>
<g>
</g>
<g>
</g>
<g>
</g>
<g>
</g>
<g>
</g>
<g>
</g>
<g>
</g>
<g>
</g>
</svg>
