<?xml version="1.0" encoding="UTF-8" standalone="no"?>
<!DOCTYPE svg PUBLIC "-//W3C//DTD SVG 1.1//EN" "http://www.w3.org/Graphics/SVG/1.1/DTD/svg11.dtd">
<svg width="100%" height="100%" viewBox="0 0 191 40" version="1.1" xmlns="http://www.w3.org/2000/svg" xmlns:xlink="http://www.w3.org/1999/xlink" xml:space="preserve" xmlns:serif="http://www.serif.com/" style="fill-rule:evenodd;clip-rule:evenodd;stroke-linejoin:round;stroke-miterlimit:2;">
    <g>
        <g transform="matrix(1,0,0,1,0,1.538)">
            <path d="M11.058,16.08L14.828,18.77L10.883,21.59L6.647,24.611C8.298,25.449 9.909,26.426 11.467,27.554C13.323,28.899 15.114,30.463 16.807,32.261C18.499,30.468 20.284,28.899 22.146,27.554C22.886,27.016 23.644,26.514 24.409,26.044L24.737,25.845L28.553,28.57C24.901,30.479 21.763,33.106 18.756,36.697L18.569,36.923L15.044,36.923C10.736,31.72 6.194,28.503 0.236,26.558L0,26.482L0,23.969L6.442,19.369L8.182,18.129L11.058,16.079L11.058,16.08Z" style="fill:url(#_Linear1);"/>
        </g>
        <g transform="matrix(1,0,0,1,0,1.538)">
            <path d="M33.887,0L33.887,26.426C33.095,26.679 32.325,26.948 31.576,27.244L31.203,27.394L27.19,24.56L24.724,22.818L22.923,21.543L8.25,11.186L4.549,8.575L4.549,17.895L0.012,21.1L0.012,0.01L3.643,2.577L10.976,7.755L14.448,10.205L20.758,14.66L22.676,16.013L25.648,18.112L29.349,20.722L29.349,8.587L25.648,11.198L22.746,13.241L18.945,10.558L22.923,7.746L30.256,2.568L33.887,0Z" style="fill:url(#_Linear2);"/>
        </g>
        <g transform="matrix(1,0,0,1,51.253,11.077)">
            <path d="M7.645,16.923C9.073,16.923 10.265,16.49 11.219,15.625C12.182,14.798 12.671,13.673 12.689,12.251C12.689,11.394 12.452,10.6 11.979,9.871C11.472,9.163 10.725,8.693 9.737,8.46L9.737,8.414C10.26,8.189 10.7,7.937 11.057,7.658C11.414,7.395 11.687,7.117 11.879,6.823C12.252,6.206 12.431,5.559 12.414,4.883C12.414,3.558 11.962,2.493 11.057,1.689C10.16,0.89 8.82,0.485 7.035,0.47L0,0.47L0,16.923L7.645,16.923ZM6.871,7.051L2.82,7.051L2.82,2.351L6.87,2.351C7.895,2.365 8.648,2.587 9.13,3.016C9.622,3.474 9.868,4.034 9.868,4.696C9.868,5.356 9.622,5.906 9.131,6.341C8.648,6.815 7.895,7.051 6.871,7.051ZM6.973,14.573L2.82,14.573L2.82,9.402L6.973,9.402C7.975,9.417 8.708,9.673 9.173,10.169C9.636,10.673 9.869,11.279 9.869,11.987C9.869,12.68 9.636,13.277 9.172,13.782C8.708,14.293 7.975,14.557 6.973,14.572L6.973,14.573ZM25.226,16.923L25.226,10.153L30.546,0.47L27.71,0.47L23.966,7.771L20.223,0.471L17.387,0.471L22.707,10.152L22.707,16.923L25.227,16.923L25.226,16.923ZM42.03,16.923L42.03,2.693L46.993,2.693L46.993,0.47L34.305,0.47L34.305,2.693L39.268,2.693L39.268,16.923L42.03,16.923ZM64.38,16.923L64.38,14.565L55.78,14.565L55.78,9.735L63.12,9.735L63.12,7.523L55.78,7.523L55.78,2.829L64.38,2.829L64.38,0.47L53.102,0.47L53.102,16.923L64.38,16.923ZM76.405,16.923C80.517,16.877 82.617,15.263 82.707,12.081C82.707,10.901 82.31,9.866 81.514,8.975C80.709,8.069 79.466,7.51 77.784,7.297C76.931,7.197 76.258,7.11 75.765,7.034C74.879,6.882 74.235,6.608 73.833,6.212C73.431,5.824 73.23,5.39 73.23,4.91C73.246,4.11 73.546,3.51 74.128,3.106C74.686,2.718 75.384,2.524 76.221,2.524C77.837,2.554 79.318,2.98 80.664,3.803L82.178,1.724C80.528,0.62 78.588,0.046 76.356,0C74.502,0.015 73.07,0.464 72.06,1.347C71.018,2.238 70.497,3.41 70.497,4.865C70.497,6.075 70.912,7.103 71.74,7.948C72.545,8.77 73.718,9.298 75.26,9.535C76.122,9.649 76.914,9.752 77.636,9.843C79.212,10.094 79.991,10.841 79.975,12.081C79.942,13.596 78.76,14.369 76.43,14.399C74.46,14.384 72.762,13.832 71.334,12.744L69.549,14.639C71.461,16.162 73.747,16.923 76.405,16.923ZM90.791,16.923L92.186,13.244L99.075,13.244L100.482,16.924L103.384,16.924L96.783,0.47L94.478,0.47L87.877,16.923L90.791,16.923ZM98.215,10.812L93.045,10.812L95.606,3.761L95.655,3.761L98.215,10.812ZM112.171,16.923L112.171,9.893L119.511,9.893L119.511,7.68L112.171,7.68L112.171,2.829L120.771,2.829L120.771,0.47L109.493,0.47L109.493,16.923L112.171,16.923ZM138.629,16.923L138.629,14.565L130.028,14.565L130.028,9.735L137.369,9.735L137.369,7.523L130.028,7.523L130.028,2.829L138.629,2.829L138.629,0.47L127.351,0.47L127.351,16.923L138.629,16.923Z" style="fill-rule:nonzero;"/>
        </g>
    </g>
    <defs>
        <linearGradient id="_Linear1" x1="0" y1="0" x2="1" y2="0" gradientUnits="userSpaceOnUse" gradientTransform="matrix(-26.4235,-7.25413,7.25413,-26.4235,28.553,31.4229)"><stop offset="0" style="stop-color:rgb(137,7,235);stop-opacity:1"/><stop offset="0.41" style="stop-color:rgb(7,65,232);stop-opacity:1"/><stop offset="0.42" style="stop-color:rgb(33,37,180);stop-opacity:1"/><stop offset="0.57" style="stop-color:rgb(11,61,225);stop-opacity:1"/><stop offset="0.58" style="stop-color:rgb(10,143,255);stop-opacity:1"/><stop offset="0.73" style="stop-color:rgb(11,143,255);stop-opacity:1"/><stop offset="1" style="stop-color:rgb(8,193,238);stop-opacity:1"/></linearGradient>
        <linearGradient id="_Linear2" x1="0" y1="0" x2="1" y2="0" gradientUnits="userSpaceOnUse" gradientTransform="matrix(-33.875,-12.7064,12.7064,-33.875,33.887,21.973)"><stop offset="0" style="stop-color:rgb(103,53,255);stop-opacity:1"/><stop offset="0.39" style="stop-color:rgb(6,147,255);stop-opacity:1"/><stop offset="0.39" style="stop-color:rgb(13,127,196);stop-opacity:1"/><stop offset="0.42" style="stop-color:rgb(13,127,196);stop-opacity:1"/><stop offset="0.43" style="stop-color:rgb(6,205,230);stop-opacity:1"/><stop offset="1" style="stop-color:rgb(8,192,238);stop-opacity:1"/></linearGradient>
    </defs>
</svg>
