<?xml version="1.0" standalone="no"?>
<!DOCTYPE svg PUBLIC "-//W3C//DTD SVG 20010904//EN"
 "http://www.w3.org/TR/2001/REC-SVG-20010904/DTD/svg10.dtd">
<svg version="1.0" xmlns="http://www.w3.org/2000/svg"
 width="150.000000pt" height="150.000000pt" viewBox="0 0 150.000000 150.000000"
 preserveAspectRatio="xMidYMid meet">

<g transform="translate(0.000000,150.000000) scale(0.100000,-0.100000)"
fill="#000000" stroke="none">
<path d="M470 975 l0 -305 285 0 285 0 0 193 0 194 -272 112 c-150 61 -279
111 -285 111 -10 0 -13 -68 -13 -305z m52 130 c4 -189 -2 -405 -13 -405 -5 0
-9 116 -9 270 0 154 4 270 9 270 5 0 11 -61 13 -135z m123 84 c41 -18 75 -35
75 -39 0 -13 -108 -125 -139 -143 l-31 -18 0 115 c0 73 4 116 10 116 6 0 44
-14 85 -31z m166 -68 c24 -10 79 -33 122 -51 l77 -32 0 -169 c0 -93 -3 -169
-6 -169 -4 0 -333 197 -412 247 l-23 14 38 28 c42 30 133 128 133 142 0 14 24
11 71 -10z m-56 -306 l189 -115 -197 0 -197 0 0 115 c0 63 3 115 8 115 4 0 92
-52 197 -115z"/>
<path d="M230 447 c0 -78 3 -97 18 -110 26 -24 32 -21 32 12 0 16 7 34 15 41
13 11 21 8 48 -18 30 -29 74 -52 99 -52 5 0 -14 27 -43 61 l-52 60 49 50 c26
27 45 49 41 49 -23 0 -76 -32 -106 -64 -19 -20 -39 -36 -43 -36 -4 0 -8 15 -8
33 0 30 -24 67 -43 67 -4 0 -7 -42 -7 -93z"/>
<path d="M496 448 c-31 -68 -41 -98 -34 -110 12 -25 27 -22 38 7 9 23 15 25
65 25 49 0 57 -3 67 -25 13 -29 21 -31 38 -11 18 23 -59 182 -95 196 -14 6
-28 10 -31 10 -3 0 -24 -42 -48 -92z m89 2 c22 -42 19 -50 -20 -50 -19 0 -35
2 -35 5 0 11 29 75 34 75 3 0 12 -13 21 -30z"/>
<path d="M700 445 c0 -117 6 -125 96 -125 35 0 64 2 64 4 0 17 -38 36 -71 36
l-39 0 0 66 c0 69 -9 98 -35 108 -13 5 -15 -8 -15 -89z"/>
<path d="M860 447 c0 -78 3 -97 18 -110 28 -25 42 -21 42 13 0 28 2 30 40 30
58 0 108 23 116 54 17 71 -30 106 -145 106 l-71 0 0 -93z m154 31 c18 -29 -4
-53 -53 -56 l-41 -3 0 41 0 41 41 -3 c27 -2 46 -9 53 -20z"/>
<path d="M1100 445 c-41 -90 -46 -125 -18 -125 7 0 18 10 23 23 8 18 19 23 62
25 48 3 54 1 65 -22 13 -30 21 -32 38 -11 10 12 6 29 -21 91 -32 72 -66 114
-94 114 -7 0 -31 -43 -55 -95z m89 4 c16 -46 14 -49 -19 -49 -33 0 -37 13 -18
55 15 33 24 32 37 -6z"/>
<path d="M370 245 c0 -8 5 -15 10 -15 6 0 10 -5 10 -11 0 -5 -4 -7 -10 -4 -5
3 -10 1 -10 -4 0 -15 27 -14 36 0 4 7 -1 16 -11 21 -14 8 -15 12 -4 19 11 7
10 9 -3 9 -10 0 -18 -7 -18 -15z"/>
<path d="M470 230 c0 -24 4 -30 23 -30 18 0 19 2 7 10 -19 12 -20 33 0 42 11
5 9 7 -7 7 -19 1 -23 -4 -23 -29z"/>
<path d="M577 254 c-13 -13 -8 -46 7 -41 7 3 18 1 23 -4 5 -5 9 2 8 18 0 27
-22 42 -38 27z m33 -14 c0 -5 -4 -10 -10 -10 -5 0 -10 5 -10 10 0 6 5 10 10
10 6 0 10 -4 10 -10z"/>
<path d="M681 255 c0 -5 6 -21 13 -34 13 -24 14 -24 25 -3 14 27 14 54 0 29
-10 -18 -11 -18 -25 0 -7 10 -13 14 -13 8z"/>
<path d="M877 253 c-4 -3 -7 -14 -7 -24 0 -21 30 -34 44 -18 8 8 6 10 -9 7
-25 -4 -33 29 -8 35 14 4 14 5 2 6 -9 0 -19 -2 -22 -6z"/>
<path d="M980 230 c0 -25 4 -30 23 -29 17 1 18 2 4 6 -21 5 -19 35 3 45 11 5
9 7 -7 7 -19 1 -23 -4 -23 -29z"/>
<path d="M1085 251 c-3 -5 0 -13 6 -17 7 -4 9 -3 5 4 -3 6 2 13 11 15 16 4 16
5 1 6 -9 0 -19 -3 -23 -8z"/>
<path d="M790 230 c0 -11 4 -20 8 -20 4 0 8 9 9 20 1 11 -2 20 -8 20 -5 0 -9
-9 -9 -20z"/>
<path d="M1110 221 c0 -8 -7 -11 -17 -6 -15 5 -16 4 -5 -6 9 -10 15 -10 24 -1
6 6 9 15 5 19 -4 3 -7 1 -7 -6z"/>
</g>
</svg>
