<svg version="1.0" xmlns="http://www.w3.org/2000/svg" width="1442.667" height="914.667" viewBox="0 0 1082 686">
    <path d="M0 343v343h1082V0H0v343zm539.1-105c1.8 1 1.9 2.3 1.9 19.4v18.3l-5 2.7-5 2.7v-3.3c0-2.5-.6-3.7-2.6-4.9-2.5-1.5-2.9-1.5-5.5 0-2.3 1.3-2.9 2.3-2.9 5.1s.6 3.9 2.8 5.2c2.4 1.4 3 1.5 5.5.1l2.8-1.4-.3 5.6-.3 5.7-15.3 8.9c-14.6 8.5-15.4 8.8-17.6 7.3-3.4-2.1-5.1-9.3-5.1-20.9 0-12.6 2.4-20.9 6.7-23.1 2.2-1.1 2.8-2.2 2.8-4.6 0-4.2 3.6-8.7 11.3-14.2 6.6-4.7 9.2-6 16.7-8.1 5.7-1.7 6.7-1.7 9.1-.5zm18 .6c8.4 2.5 14.2 5.8 20.8 12 5.4 5 6.1 6.1 6.1 9.4 0 3.2.4 3.9 3 5 9 3.7 9.7 39.9.9 44.9-2.4 1.3-3.3 1-18-7.5l-15.4-9-.3-5.8-.3-5.7 2.8 1.4c2.5 1.4 3.1 1.3 5.5-.1 2.2-1.3 2.8-2.4 2.8-5.3s-.5-3.8-2.5-4.7c-1.4-.7-3.2-1.2-3.9-1.2-2.1 0-5.6 4-5.6 6.5v2.4l-4.5-2.6-4.5-2.5v-18.3c0-16.5.2-18.5 1.8-19.4 2.4-1.5 5-1.3 11.3.5zm-20 59.6c4.4 2.4 4.8 3.4 1.9 4.3-3.1 1-2.8 7.7.5 9.9 2.3 1.5 2.8 1.5 5.5.1 4-2.1 4.3-7.4.4-10.2l-2.6-1.9 5.1-2.3 5-2.4 15.6 8.9c14.8 8.5 15.5 9 15.5 12 0 6.6-16.3 18.3-29.9 21.4-4.8 1.1-5.8 1.1-8.6-.5-3-1.5-3.5-1.6-6.3-.1-2.7 1.4-3.6 1.4-8.8 0-8.2-2.1-16.9-7-23.6-13.4-8.9-8.5-8.8-8.8 9-19.2 8.1-4.7 15.3-8.6 16.1-8.7.7-.1 3.1.9 5.2 2.1zm-252.5 88.5c5.3 2.8 7.4 6.1 8.7 13.9 1.5 8.6-.1 16.6-4.2 20.8l-3 3.1 3.2 1.9c2.4 1.4 5.1 1.9 10.7 1.9 6.5 0 6.7.1 1.7.4-3.2.2-5.7.7-5.4 1.1.2.4 1 2.2 1.7 3.9.8 1.8 2 3.3 2.7 3.3.7 0 1.3.4 1.3 1 0 .5-1.5 1-3.4 1s-3.8-.5-4.1-1c-.3-.6-4.2-1-8.6-1-7.8 0-7.9 0-7.9-2.5 0-2.6 0-2.6-8.2-2.3l-8.3.3-.3 12.7-.3 12.8h3.9c2.2 0 6-.3 8.6-.6l4.6-.7V439h16l.1 7.7c.1 4.3.4 6.8.6 5.5.9-4.5 1.8-1.2 1.5 5.2-.4 6.6-.4 6.6-3.4 6.6-3.7 0-3.3 2.4.5 2.8 1.5.2 2.7 1 2.7 1.8 0 1.1-2 1.4-10.5 1.4-6.3 0-10.5.4-10.5 1s-4.5 1-11.5 1-11.5-.4-11.5-1-.9-1-2-1c-1.8 0-2-.7-2-6.5V457h3c2.3 0 3-.4 3-2 0-1.5-.7-2-2.9-2-3.4 0-4.1-1.7-4.1-10.8 0-4.8-.3-6.2-1.5-6.2-.9 0-1.5-.9-1.5-2.4 0-1.3-.6-2.7-1.2-2.9-.7-.3-.1-.6 1.5-.6 1.5-.1 2.7.3 2.7.9 0 .5-.5 1-1.2 1-.6 0-.8.3-.5.6.4.4 1.2.2 1.9-.4.7-.6 3.1-1.2 5.3-1.5l4-.4-4.3-.1c-3.5-.2-4.5-.6-4.9-2.2-.3-1.1-.9-2-1.4-2-.5 0-.9-9.5-.9-21.1v-21.1l17.8.4c15.8.3 18.1.6 21.8 2.5zm116.3.3c7.1 4 8.6 8 8.6 22.5 0 10-.3 12.7-2 16-1.7 3.5-2.5 4-5.8 4.3-2.9.3-3.7.7-3.7 2.3 0 1.6.7 1.9 5 1.9h5v21h-3c-2 0-3 .5-3 1.5 0 1.1 1.2 1.5 4.5 1.5h4.5v12h-18v-20h-7v-12h-13v11c0 9.1.3 11 1.5 11s1.5 1.3 1.5 6v6h-17v-35h3.5c2.4 0 3.5-.5 3.5-1.5s-1.1-1.5-3.5-1.5H359v-50.2l18.8.4c17.8.3 18.9.4 23.1 2.8zm53.7-.8c1.8 1 4.4 3.2 5.9 5 2.3 2.7 3.6 3.4 7.9 3.8 6.1.6 6.4 2.4.4 2.8l-4.3.3v11.2c0 9.4-.4 12-2.2 15.9-2 4.4-2.5 4.8-5.7 4.8-2.9 0-3.6.4-3.6 2 0 1.7.7 2 5 2h5.1l-.3 10.2-.3 10.3-2.7.3c-4.9.6-3.4 3.2 1.7 3.2h4.5v12h-19v-20h-7v-12h-12v11c0 6.7.4 11 1 11s1 2.7 1 6v6h-17v-35h4c2.9 0 4-.4 4-1.5s-1.1-1.5-4-1.5h-4v-50.2l19.3.4c15.7.3 19.8.6 22.3 2zm34.8-.6c.3.9.6 3.3.6 5.3 0 4.2 1.1 8 6.8 22.9l3.9 10.3 5.1-14.3c2.8-7.9 5.4-16.9 5.7-20.1l.6-5.7h15.8l-.6 3.7c-1.3 9.1-3.5 16.5-8.1 26.8-4.6 10.4-5 11-8 11.3l-3.2.3V441h-4.5c-3.3 0-4.5.4-4.5 1.5s1.2 1.5 4.5 1.5h4.5v28h-17v-7c0-4-.4-7-1-7s-1-4.7-1-12v-12h2.5c3.7 0 3.2-2.8-.6-3.2-2.9-.3-3.4-1-8.6-12.8-3-6.9-6.1-14.2-6.8-16.3l-1.4-3.7h3.4c5 0 4.7-2.8-.2-3.2-3.8-.3-3.8-.3-4.3-5.6l-.6-5.2h8.2c6.5 0 8.3.3 8.8 1.6zm70.9 17.6c4.2 10.6 7.9 20.1 8.3 21 .5 1.5 0 1.8-3.5 1.8-3 0-4.1.4-4.1 1.5s1.2 1.5 4.9 1.5h4.8l2.1 5.2 2.1 5.3v-5.3l.1-5.2h3.5c2.4 0 3.5-.5 3.5-1.5 0-1.1-1.1-1.5-4-1.5-3 0-4 .4-4 1.6 0 .9-.7 1.4-1.7 1.2-2.5-.5-2.8-2.8-.4-2.8 2.1 0 2.1-.4 2.1-21v-21h16v25c0 16 .4 25 1 25s1 3.8 1 9.4v9.5l-3.2.3c-2.2.2-3.4.9-3.6 2-.3 1.5.4 1.8 3.2 1.8h3.6v12.1l-11.7-.3-11.8-.3-.3-7.3c-.2-6.2-.5-7.2-2.1-7.2-1.5 0-3.1-2.9-7.2-12.8-4.6-11.1-5.4-13.8-5.8-21.6-.4-5.9-1-9.1-1.8-9.4-1-.3-1.3 4.7-1.3 22.7 0 19.9-.2 23.1-1.5 23.1-1.2 0-1.5 1.5-1.5 7.5v7.5h-15v-16.5c0-14 .2-16.5 1.5-16.5s1.5-3.7 1.5-27v-27h17.6l7.7 19.2zm85.2-16.8c9.1 3.8 13 10.5 14.5 24.7.5 5.2 1 9.7 1 10.1 0 .5-1.6.8-3.5.8-2.8 0-3.5.4-3.5 2s.7 2 3.5 2h3.5v15.4c0 15.3 0 15.5-2.2 15.8-2 .3-2.3 1-2.6 6l-.3 5.8H652c-2.9 0-4 .4-4 1.5 0 1.3-2.3 1.5-15 1.5-12.1 0-15-.3-15-1.4 0-.7-.9-1.6-2-1.9-1.7-.4-2-1.4-2-6.1V457h-3.5c-3.4 0-3.5-.1-3.5-4 0-3.3.3-4 2-4 1.5 0 2-.7 2-2.5 0-2-.5-2.5-2.5-2.5-1.8 0-2.5.5-2.5 2 0 1.7-.7 2-5 2s-5-.3-5-2 .7-2 3.9-2h3.9l.4-19.8c.4-18.1.6-20.2 2.9-25.6 4.3-10.5 12.7-14.9 26.9-14.2 4.2.2 9.3 1.1 11.5 2zm65.6.2c9.3 4.3 13.3 11.7 15.1 27.8.7 5.8 1.6 10.6 2 10.6.4 0 .8.7.8 1.5 0 1.1 1.2 1.5 4.3 1.6l4.2.2-4 .6-4 .6-.3 8.2-.3 8.3h-12.4c-7.7 0-12.5-.4-12.5-1s1.8-1 4-1h4v-9.4c0-7.4-.3-9.5-1.5-10-1.2-.4-1.5-2.3-1.5-8.1 0-13.3-3.3-17.5-13.7-17.5H689v13c0 8 .4 13 1 13s1 4.2 1 10.5V446h-17v-10c0-6-.4-10-1-10s-1-7.7-1-21.1v-21.1l17.3.4c15 .3 17.8.6 21.8 2.4zm119.2.6c4.8 2.7 8.3 8.2 9.3 14.7.8 5.3-.1 6.1-7.1 6.1-4.9 0-5-.1-6.7-4-1.9-4.7-5.4-6.4-11-5.5-4.6.8-6.8 3.6-6.8 8.5 0 5.4 2.4 7.8 12.4 12.5 5 2.4 10 5 11.1 5.9 1.9 1.4 1.5 1.5-5.2 1.6-4.2 0-7.3.4-7.3 1s3.9 1 9.8 1c13.2 0 13.2 0 13.2 16.5V458h-2.5c-2.4 0-2.5.2-2.5 7v7h-39v-14h-9v-4.5c0-4.3-.1-4.5-3-4.5-2 0-3-.5-3-1.5s1-1.5 3-1.5c1.7 0 3-.5 3-1 0-.6 3.7-1 9-1h9v14h18v-22h-14v-7l-8.7-.2c-4.9-.1-6.9-.3-4.5-.5 2.3-.2 4.2-.7 4.2-1 0-.3-1.1-1.4-2.4-2.4-4.2-3.3-7.6-11.5-7.6-18.3.1-9.9 3.1-16 9.3-19.3 7.6-3.9 22-4 29-.1zm-478.5 4.5l-.3 6.8-12.7.3-12.8.3V418h22.5l.1 7 .1 7H329v9c0 8.9 0 9-2.5 9-1.4 0-2.5.4-2.5 1 0 .5 1.1 1 2.4 1 1.9 0 2.5.6 2.8 2.7l.3 2.8 11.5.6c6.3.3 10.9.6 10.3.7-.9.1-1.3 2.1-1.3 5.7v5.5h-13.5c-8.3 0-13.5.4-13.5 1s-2.8 1-6.5 1H310v-12.8c0-7-.3-16.4-.7-21l-.6-8.2h3.7c2 0 3.6-.5 3.6-1 0-.6-1.6-1-3.5-1H309v-43h43.1l-.3 6.7zm428.2.3v7h-26v19h23v3.9c0 2.1.3 5.3.6 7l.7 3.1H758v9c0 8.9 0 9-2.5 9-1.4 0-2.5.4-2.5 1 0 .5 1.1 1 2.5 1 2.1 0 2.5.5 2.5 3v3l11.8.1c6.4 0 11.1.3 10.5.6-.8.3-1.3 2.5-1.3 5.9v5.4h-13.5c-8.3 0-13.5.4-13.5 1s-2.8 1-6.5 1H739v-23h-4.5c-3.3 0-4.5-.4-4.5-1.5s1.2-1.5 4.5-1.5c4.1 0 4.5-.2 4.5-2.4 0-1.4-.4-2.8-1-3.1-.5-.3-1-2.8-1-5.6V430h3.4c4.8 0 5.5-1.8.9-2.2l-3.8-.3-.3-21.3-.2-21.2h43v7zm-187.6 20.5c-.4.8-.8 1.5-1 1.5-.2 0-.4-.7-.4-1.5s.4-1.5 1-1.5c.5 0 .7.7.4 1.5zm.1 9.5c.3.5.1 1-.4 1-.6 0-1.1-.5-1.1-1 0-.6.2-1 .4-1 .3 0 .8.4 1.1 1zm78.5 2c0 .5-2.2 1-5 1-2.7 0-5-.5-5-1 0-.6 2.3-1 5-1 2.8 0 5 .4 5 1zm-78 2c0 .5-.2 1-.4 1-.3 0-.8-.5-1.1-1-.3-.6-.1-1 .4-1 .6 0 1.1.4 1.1 1zm251.8 2.7c-1 .2-2.6.2-3.5 0-1-.3-.2-.5 1.7-.5s2.7.2 1.8.5zm-251.2 1.5c.4.6.3.8-.4.4-.5-.3-1.3 0-1.5.6-.3.8-.6.6-.6-.5-.1-1.9 1.4-2.3 2.5-.5zM277 438c0 .5-1.6 1-3.5 1s-3.5-.5-3.5-1c0-.6 1.6-1 3.5-1s3.5.4 3.5 1zm20 3.5c0 .8-.4 1.5-1 1.5-.5 0-.7-.7-.4-1.5.4-.8.8-1.5 1-1.5.2 0 .4.7.4 1.5zm219 1c0 1-1.1 1.5-3.5 1.5s-3.5-.5-3.5-1.5 1.1-1.5 3.5-1.5 3.5.5 3.5 1.5zm-220.3 4.7c-.3.7-.5.2-.5-1.2s.2-1.9.5-1.3c.2.7.2 1.9 0 2.5zm376.1 0c-.3.7-2.1 1.4-4.1 1.6-2.8.2-3.7-.1-3.7-1.2 0-1.2 1.1-1.6 4.1-1.6 2.8 0 3.9.4 3.7 1.2zm31.2.3c0 1.2-1.3 1.5-5.5 1.5s-5.5-.3-5.5-1.5 1.3-1.5 5.5-1.5 5.5.3 5.5 1.5zm-11.8 4.2c.3 2.7.5 2.8 6.3 2.8s6-.1 6.3-2.8l.3-2.7H729v2.5c0 2.5-.1 2.5-8.5 2.5H712v16h-10.5c-6.3 0-10.5.4-10.5 1s-3.8 1-9.5 1H672v-23h18.9l.3 2.7zm-414.5.9c-.3.3-1.2.4-1.9.1-.8-.3-.5-.6.6-.6 1.1-.1 1.7.2 1.3.5zm-.2 2.4c.3.5-.1 1-1 1s-1.3-.5-1-1c.3-.6.8-1 1-1 .2 0 .7.4 1 1zm290.5 1c0 .5-.4 1-1 1-.5 0-1-.5-1-1 0-.6.5-1 1-1 .6 0 1 .4 1 1zm-17.7 2.5c-.3.9-.8 1.4-1 1.1-.3-.3-.2-.9.2-1.5.9-1.6 1.5-1.3.8.4zm17.4 7c0 .8-.4 1.2-.9.9-.5-.3-.6-1-.3-1.5.9-1.3 1.2-1.1 1.2.6zm23.6 6.2c-4 .2-10.7.2-15 0-4.3-.1-1-.3 7.2-.3 8.3 0 11.8.2 7.8.3z"/>
    <path d="M262 410.1v11.2l5.1-.5c7.6-.8 9.4-3.1 9.4-11.9 0-8.5-1.3-9.9-9.2-9.9H262v11.1zm114 .3V423h6.9c6.2 0 7.2-.3 8.9-2.5 1.4-1.7 3-2.5 5.1-2.5 2.4 0 3.1-.4 3.1-2 0-1.5-.7-2-2.9-2-1.6 0-3.1.6-3.5 1.5-.3 1-1.9 1.5-4.6 1.5-2.9 0-4-.4-4-1.5s1.2-1.5 4.5-1.5h4.5v-5.4c0-8.1-1.9-9.9-10.9-10.4l-7.1-.4v12.6zm54 0V423h7c6.3 0 7.4-.3 9.4-2.5 1.5-1.6 3.4-2.5 5.5-2.5 2.4 0 3.1-.4 3.1-2 0-1.5-.7-2-2.9-2-2.8 0-2.9-.2-3.3-6-.6-8.2-1.9-9.4-11.3-9.8l-7.5-.4v12.6zm18 5.1c0 1.1-1.1 1.5-4 1.5s-4-.4-4-1.5 1.1-1.5 4-1.5 4 .4 4 1.5zM624.5 401c-1.3 1.4-2.1 4.8-2.9 11.5l-1 9.5h-2.8c-2.1 0-2.8.5-2.8 2 0 1.6.7 2 3 2h2.9l.3 15.7.3 15.8 7.3.3c7.1.3 7.2.3 7.2-2.3 0-2.2.4-2.5 3.5-2.5h3.5v-20.4c0-31.7-.6-33.6-10.9-33.6-4.5 0-6.2.4-7.6 2zM789 447.5c0 .9.9 1.5 2.5 1.5s2.5-.6 2.5-1.5-.9-1.5-2.5-1.5-2.5.6-2.5 1.5z"/>
</svg>
