<svg xmlns="http://www.w3.org/2000/svg" viewBox="0 0 97 13">
    <path d="M21.097 1.781A4.72 4.72 0 0 1 25.809 6.5a4.721 4.721 0 0 1-4.712 4.719A4.721 4.721 0 0 1 16.385 6.5a4.72 4.72 0 0 1 4.712-4.719m0-1.767A6.481 6.481 0 0 0 14.62 6.5c0 3.582 2.9 6.486 6.477 6.486A6.481 6.481 0 0 0 27.574 6.5c0-3.582-2.9-6.486-6.477-6.486M45.39 0a.176.176 0 0 0-.148.083L38.57 9.114 31.897.083a.176.176 0 0 0-.326.09v12.034h1.765V5.1l5.13 6.892a.133.133 0 0 0 .207-.001l5.13-6.891v7.106h1.765V.174A.176.176 0 0 0 45.39 0M52 8.228v4.376h-1.764V.396"/>
    <path d="M56.115.397h-5.88v12.207H52V8.227h4.115c2.16 0 3.91-1.753 3.91-3.916a3.913 3.913 0 0 0-3.91-3.915zm0 6.064H52V2.164h4.115a2.15 2.15 0 0 1 0 4.297zM10.248 9.384a4.703 4.703 0 0 1-3.726 1.835A4.72 4.72 0 0 1 1.81 6.5a4.72 4.72 0 0 1 4.712-4.719c1.514 0 2.863.72 3.726 1.835l1.267-1.247A6.46 6.46 0 0 0 6.522.014 6.481 6.481 0 0 0 .045 6.5c0 3.582 2.9 6.486 6.477 6.486a6.46 6.46 0 0 0 4.993-2.355l-1.267-1.247m70.05 3.436c-2.04 0-3.467-1.13-4.303-2.08l1.244-1.214c.312.404 1.359 1.568 3.059 1.568 1.59 0 2.7-.8 2.7-1.948 0-.98-.667-1.64-2.038-2.017l-1.487-.338c-3.18-.78-3.18-2.688-3.18-3.315 0-1.972 1.59-3.297 3.956-3.297 1.554 0 2.876.592 4.042 1.81l-1.244 1.218c-.32-.334-1.365-1.3-2.798-1.3-1.393 0-2.192.571-2.192 1.569 0 .298.113 1.292 1.564 1.604l1.353.305c2.477.583 3.788 1.883 3.788 3.761 0 2.095-1.92 3.675-4.464 3.675m11.88-.001c-2.04 0-3.466-1.13-4.303-2.08l1.244-1.214c.312.404 1.359 1.568 3.06 1.568 1.589 0 2.699-.8 2.699-1.948 0-.98-.666-1.64-2.038-2.017l-1.487-.338c-3.18-.78-3.18-2.688-3.18-3.315 0-1.972 1.59-3.297 3.956-3.297 1.554 0 2.876.592 4.042 1.81l-1.244 1.218c-.319-.334-1.365-1.3-2.798-1.3-1.393 0-2.191.571-2.191 1.569 0 .298.112 1.292 1.564 1.604l1.352.305c2.478.583 3.788 1.883 3.788 3.761 0 2.095-1.919 3.675-4.464 3.675m-68.3-7.857l-4.315 4.321-1.247-1.25 4.314-4.32 1.248 1.25M67.375.391a.177.177 0 0 0-.322 0L60.62 12.604h1.996l1.647-3.13h5.902l1.648 3.13h1.995L67.375.39zm-2.181 7.317l2.02-3.837 2.02 3.837h-4.04z"/>
</svg>
