<?xml version="1.0" encoding="UTF-8" standalone="no"?>
<svg
   xmlns:dc="http://purl.org/dc/elements/1.1/"
   xmlns:cc="http://creativecommons.org/ns#"
   xmlns:rdf="http://www.w3.org/1999/02/22-rdf-syntax-ns#"
   xmlns:svg="http://www.w3.org/2000/svg"
   xmlns="http://www.w3.org/2000/svg"
   viewBox="0 0 2876.1877 755.90552"
   height="755.90552"
   width="2876.1877"
   xml:space="preserve"
   id="svg2"
   version="1.1"><metadata
     id="metadata8"><rdf:RDF><cc:Work
         rdf:about=""><dc:format>image/svg+xml</dc:format><dc:type
           rdf:resource="http://purl.org/dc/dcmitype/StillImage" /><dc:title></dc:title></cc:Work></rdf:RDF></metadata><defs
     id="defs6" /><g
     transform="matrix(1.3333333,0,0,-1.3333333,0,755.90552)"
     id="g10"><g
       id="g12"><path
         id="path14"
         style="fill:#f93f26;fill-opacity:1;fill-rule:nonzero;stroke:none"
         d="M 59.758,566.929 0,484.292 H 405.371 V 402.289 H 103.438 V 325.82 H 405.371 V 243.816 H 103.438 V 167.347 H 405.371 V 85.343 H 0 L 59.758,-0.001 H 411.793 L 582.82,283.464 411.793,566.929 Z" /><path
         id="path16"
         style="fill:#000000;fill-opacity:1;fill-rule:nonzero;stroke:none"
         d="m 2022.742,486.472 -1.797,-5.57 c -3.3,-10.985 -8.211,-25.082 -14.695,-42.262 l -35.715,-91.918 h 104.602 l -35.907,92.297 c -3.714,9.125 -7.425,19.445 -11.14,30.965 z m 95.692,-251.117 -31.969,81.785 H 1959.02 l -32.165,-81.785 h -39.3 l 114.133,279.691 h 43.082 l 112.371,-279.691 z m -297.938,0 V 421.96 c 0,20.645 0.598,40.5 1.762,59.539 -6.485,-23.695 -12.305,-42.199 -17.465,-55.574 l -72.25,-190.57 h -26.59 l -73.258,190.57 -11.14,33.735 -6.547,21.839 0.597,-22.027 0.79,-37.512 V 235.355 h -33.735 v 279.691 h 49.813 l 74.453,-193.941 c 2.644,-7.801 5.191,-16.172 7.648,-25.109 2.453,-8.938 4.059,-15.387 4.875,-19.352 1.039,5.285 3.274,13.34 6.641,24.102 3.367,10.793 5.664,17.593 6.859,20.359 l 73.039,193.941 h 48.649 V 235.355 Z m -418.808,-3.996 c -22.879,0 -42.86,4.187 -59.95,12.523 -17.054,8.34 -30.3,20.457 -39.711,36.317 -9.379,15.89 -14.066,34.804 -14.066,56.8 v 178.047 h 37.918 V 340.175 c 0,-25.551 6.484,-44.933 19.449,-58.183 12.965,-13.215 31.688,-19.856 56.168,-19.856 25.145,0 44.688,6.86 58.656,20.547 13.973,13.723 20.961,33.734 20.961,60.074 v 172.289 h 37.699 V 340.554 c 0,-22.625 -4.785,-42.137 -14.382,-58.562 -9.598,-16.395 -23.16,-28.95 -40.688,-37.606 -17.558,-8.683 -38.234,-13.027 -62.054,-13.027 m -223.047,3.996 -149.664,238.215 0.976,-19.258 1.008,-33.168 V 235.355 h -33.766 v 279.691 h 44.086 l 151.27,-239.789 c -1.606,25.93 -2.395,44.715 -2.395,56.36 v 183.429 h 34.145 V 235.355 Z m -451.789,0 V 515.046 H 939.043 V 484.081 H 764.742 V 394.363 H 927.148 V 363.777 H 764.742 V 266.32 h 182.449 v -30.965 z" /><path
         id="path18"
         style="fill:#000000;fill-opacity:1;fill-rule:nonzero;stroke:none"
         d="m 2157.137,55.792 c 0,-11.578 -4.532,-20.546 -13.563,-26.875 -9.062,-6.355 -21.808,-9.531 -38.265,-9.531 -30.555,0 -48.27,10.602 -53.149,31.875 l 16.488,3.274 c 1.891,-7.52 5.918,-13.059 12.086,-16.586 6.2,-3.555 14.571,-5.317 25.204,-5.317 10.984,0 19.449,1.887 25.429,5.664 5.945,3.778 8.934,9.317 8.934,16.618 0,4.089 -0.91,7.394 -2.801,9.972 -1.855,2.551 -4.5,4.66 -7.867,6.293 -3.399,1.672 -7.426,3.086 -12.113,4.188 -4.688,1.132 -9.883,2.359 -15.579,3.648 -9.91,2.203 -17.433,4.406 -22.562,6.609 -5.16,2.204 -9.188,4.625 -12.176,7.332 -2.961,2.708 -5.226,5.887 -6.797,9.504 -1.574,3.618 -2.363,7.774 -2.363,12.461 0,10.731 4.125,19.008 12.336,24.828 8.215,5.821 19.984,8.719 35.309,8.719 14.222,0 25.113,-2.176 32.664,-6.547 7.55,-4.343 12.808,-11.769 15.859,-22.281 l -16.742,-2.957 c -1.856,6.672 -5.348,11.488 -10.508,14.477 -5.16,2.988 -12.336,4.5 -21.461,4.5 -10.039,0 -17.688,-1.668 -22.973,-4.973 -5.289,-3.336 -7.929,-8.309 -7.929,-14.883 0,-3.871 1.039,-7.051 3.082,-9.566 2.047,-2.52 5.004,-4.66 8.843,-6.422 3.872,-1.762 11.547,-3.902 23.067,-6.449 3.871,-0.883 7.711,-1.797 11.547,-2.707 3.808,-0.946 7.492,-2.016 10.984,-3.305 3.492,-1.289 6.766,-2.77 9.848,-4.5 3.054,-1.731 5.695,-3.84 7.961,-6.324 2.234,-2.485 4.031,-5.414 5.289,-8.813 1.289,-3.367 1.918,-7.363 1.918,-11.926 M 1937.395,21.148 v 125.461 h 95.191 v -13.875 h -78.164 v -40.25 h 72.816 V 78.765 h -72.816 V 35.054 h 81.816 V 21.148 Z m -46.793,125.461 h 16.992 V 21.148 h -16.992 z M 1741.254,84.46 c 0,20.36 5.445,36.125 16.394,47.266 10.922,11.172 26.247,16.742 46.008,16.742 13.91,0 25.176,-2.332 33.828,-7.019 8.688,-4.688 15.356,-12.211 20.047,-22.532 l -16.207,-4.812 c -3.554,7.141 -8.465,12.332 -14.726,15.574 -6.262,3.274 -14.067,4.91 -23.383,4.91 -14.473,0 -25.551,-4.375 -33.199,-13.121 -7.676,-8.781 -11.485,-21.086 -11.485,-37.008 0,-15.859 4.059,-28.351 12.18,-37.543 8.148,-9.156 19.383,-13.75 33.766,-13.75 8.179,0 15.828,1.258 22.906,3.747 7.113,2.484 12.84,5.882 17.246,10.164 v 22.593 h -37.481 v 14.254 h 53.153 V 40.656 c -6.672,-6.766 -14.793,-12.02 -24.453,-15.703 -9.629,-3.711 -20.106,-5.567 -31.371,-5.567 -13.125,0 -24.422,2.61 -33.926,7.832 -9.504,5.227 -16.77,12.746 -21.774,22.563 -5.004,9.82 -7.523,21.367 -7.523,34.679 m -35.117,0 c 0,15.61 -3.903,27.879 -11.707,36.786 -7.805,8.906 -18.817,13.343 -33.071,13.343 -14.351,0 -25.461,-4.406 -33.293,-13.183 -7.836,-8.782 -11.769,-21.086 -11.769,-36.946 0,-15.734 3.965,-28.195 11.894,-37.445 7.93,-9.223 18.911,-13.848 33.008,-13.848 14.477,0 25.586,4.469 33.324,13.407 7.743,8.937 11.614,21.554 11.614,37.886 m 17.371,0 c 0,-13.121 -2.52,-24.609 -7.52,-34.457 -5.004,-9.851 -12.211,-17.433 -21.59,-22.687 -9.375,-5.289 -20.453,-7.93 -33.199,-7.93 -12.902,0 -24.008,2.61 -33.355,7.832 -9.344,5.227 -16.489,12.778 -21.43,22.66 -4.91,9.879 -7.363,21.399 -7.363,34.582 0,20.079 5.476,35.746 16.457,47.043 10.984,11.332 26.277,16.965 45.851,16.965 12.774,0 23.821,-2.519 33.231,-7.617 9.375,-5.066 16.519,-12.43 21.492,-22.121 4.938,-9.66 7.426,-21.086 7.426,-34.27 M 1503.984,21.148 v 125.461 h 16.996 V 35.054 h 63.407 V 21.148 Z m -40.906,63.312 c 0,15.61 -3.902,27.879 -11.707,36.786 -7.805,8.906 -18.816,13.343 -33.074,13.343 -14.348,0 -25.457,-4.406 -33.293,-13.183 -7.836,-8.782 -11.77,-21.086 -11.77,-36.946 0,-15.734 3.965,-28.195 11.899,-37.445 7.929,-9.223 18.91,-13.848 32.976,-13.848 14.508,0 25.614,4.469 33.356,13.407 7.742,8.937 11.613,21.554 11.613,37.886 m 17.371,0 c 0,-13.121 -2.519,-24.609 -7.523,-34.457 -5.035,-9.851 -12.207,-17.433 -21.586,-22.687 -9.379,-5.289 -20.453,-7.93 -33.231,-7.93 -12.871,0 -23.98,2.61 -33.324,7.832 -9.347,5.227 -16.488,12.778 -21.43,22.66 -4.91,9.879 -7.363,21.399 -7.363,34.582 0,20.079 5.477,35.746 16.457,47.043 10.985,11.332 26.278,16.965 45.848,16.965 12.777,0 23.824,-2.519 33.199,-7.617 9.379,-5.066 16.555,-12.43 21.524,-22.121 4.941,-9.66 7.429,-21.086 7.429,-34.27 m -168.418,-63.312 -67.152,106.863 0.473,-8.652 0.437,-14.852 V 21.148 h -15.137 v 125.461 h 19.766 L 1318.262,39.05 c -0.723,11.645 -1.071,20.078 -1.071,25.301 v 82.258 h 15.325 V 21.148 Z m -128.203,0 V 79.3 h -67.812 V 21.148 h -17.024 v 125.461 h 17.024 V 93.554 h 67.812 v 53.055 h 17.027 V 21.148 Z m -160.926,113.441 c -13.879,0 -24.703,-4.468 -32.414,-13.406 -7.707,-8.937 -11.578,-21.176 -11.578,-36.723 0,-15.355 4.028,-27.722 12.082,-37.07 8.024,-9.344 18.914,-14.035 32.633,-14.035 17.559,0 30.777,8.687 39.617,26.09 l 13.879,-6.957 c -5.16,-10.793 -12.43,-19.004 -21.777,-24.637 -9.344,-5.664 -20.199,-8.465 -32.535,-8.465 -12.653,0 -23.571,2.61 -32.789,7.863 -9.254,5.258 -16.27,12.778 -21.118,22.532 -4.847,9.758 -7.269,21.336 -7.269,34.679 0,20.016 5.414,35.684 16.207,47.012 10.824,11.332 25.773,16.996 44.875,16.996 13.371,0 24.512,-2.613 33.48,-7.836 8.969,-5.226 15.547,-12.965 19.762,-23.226 l -16.113,-5.348 c -2.895,7.301 -7.582,12.871 -14,16.742 -6.453,3.871 -14.098,5.789 -22.942,5.789 M 845.895,21.148 v 125.461 h 95.191 v -13.875 h -78.168 v -40.25 h 72.816 V 78.765 H 862.918 V 35.054 h 81.816 V 21.148 Z M 785.633,132.734 V 21.148 h -16.899 v 111.586 h -43.113 v 13.875 h 103.121 v -13.875 z" /><path
         id="path20"
         style="fill:#000000;fill-opacity:1;fill-rule:nonzero;stroke:none"
         d="m 2157.137,55.792 c 0,-11.578 -4.532,-20.546 -13.563,-26.875 -9.062,-6.355 -21.808,-9.531 -38.265,-9.531 -30.555,0 -48.27,10.602 -53.149,31.875 l 16.488,3.274 c 1.891,-7.52 5.918,-13.059 12.086,-16.586 6.2,-3.555 14.571,-5.317 25.204,-5.317 10.984,0 19.449,1.887 25.429,5.664 5.945,3.778 8.934,9.317 8.934,16.618 0,4.089 -0.91,7.394 -2.801,9.972 -1.855,2.551 -4.5,4.66 -7.867,6.293 -3.399,1.672 -7.426,3.086 -12.113,4.188 -4.688,1.132 -9.883,2.359 -15.579,3.648 -9.91,2.203 -17.433,4.406 -22.562,6.609 -5.16,2.204 -9.188,4.625 -12.176,7.332 -2.961,2.708 -5.226,5.887 -6.797,9.504 -1.574,3.618 -2.363,7.774 -2.363,12.461 0,10.731 4.125,19.008 12.336,24.828 8.215,5.821 19.984,8.719 35.309,8.719 14.222,0 25.113,-2.176 32.664,-6.547 7.55,-4.343 12.808,-11.769 15.859,-22.281 l -16.742,-2.957 c -1.856,6.672 -5.348,11.488 -10.508,14.477 -5.16,2.988 -12.336,4.5 -21.461,4.5 -10.039,0 -17.688,-1.668 -22.973,-4.973 -5.289,-3.336 -7.929,-8.309 -7.929,-14.883 0,-3.871 1.039,-7.051 3.082,-9.566 2.047,-2.52 5.004,-4.66 8.843,-6.422 3.872,-1.762 11.547,-3.902 23.067,-6.449 3.871,-0.883 7.711,-1.797 11.547,-2.707 3.808,-0.946 7.492,-2.016 10.984,-3.305 3.492,-1.289 6.766,-2.77 9.848,-4.5 3.054,-1.731 5.695,-3.84 7.961,-6.324 2.234,-2.485 4.031,-5.414 5.289,-8.813 1.289,-3.367 1.918,-7.363 1.918,-11.926 M 1937.395,21.148 v 125.461 h 95.191 v -13.875 h -78.164 v -40.25 h 72.816 V 78.765 h -72.816 V 35.054 h 81.816 V 21.148 Z m -46.793,125.461 h 16.992 V 21.148 h -16.992 z M 1741.254,84.46 c 0,20.36 5.445,36.125 16.394,47.266 10.922,11.172 26.247,16.742 46.008,16.742 13.91,0 25.176,-2.332 33.828,-7.019 8.688,-4.688 15.356,-12.211 20.047,-22.532 l -16.207,-4.812 c -3.554,7.141 -8.465,12.332 -14.726,15.574 -6.262,3.274 -14.067,4.91 -23.383,4.91 -14.473,0 -25.551,-4.375 -33.199,-13.121 -7.676,-8.781 -11.485,-21.086 -11.485,-37.008 0,-15.859 4.059,-28.351 12.18,-37.543 8.148,-9.156 19.383,-13.75 33.766,-13.75 8.179,0 15.828,1.258 22.906,3.747 7.113,2.484 12.84,5.882 17.246,10.164 v 22.593 h -37.481 v 14.254 h 53.153 V 40.656 c -6.672,-6.766 -14.793,-12.02 -24.453,-15.703 -9.629,-3.711 -20.106,-5.567 -31.371,-5.567 -13.125,0 -24.422,2.61 -33.926,7.832 -9.504,5.227 -16.77,12.746 -21.774,22.563 -5.004,9.82 -7.523,21.367 -7.523,34.679 m -35.117,0 c 0,15.61 -3.903,27.879 -11.707,36.786 -7.805,8.906 -18.817,13.343 -33.071,13.343 -14.351,0 -25.461,-4.406 -33.293,-13.183 -7.836,-8.782 -11.769,-21.086 -11.769,-36.946 0,-15.734 3.965,-28.195 11.894,-37.445 7.93,-9.223 18.911,-13.848 33.008,-13.848 14.477,0 25.586,4.469 33.324,13.407 7.743,8.937 11.614,21.554 11.614,37.886 m 17.371,0 c 0,-13.121 -2.52,-24.609 -7.52,-34.457 -5.004,-9.851 -12.211,-17.433 -21.59,-22.687 -9.375,-5.289 -20.453,-7.93 -33.199,-7.93 -12.902,0 -24.008,2.61 -33.355,7.832 -9.344,5.227 -16.489,12.778 -21.43,22.66 -4.91,9.879 -7.363,21.399 -7.363,34.582 0,20.079 5.476,35.746 16.457,47.043 10.984,11.332 26.277,16.965 45.851,16.965 12.774,0 23.821,-2.519 33.231,-7.617 9.375,-5.066 16.519,-12.43 21.492,-22.121 4.938,-9.66 7.426,-21.086 7.426,-34.27 M 1503.984,21.148 v 125.461 h 16.996 V 35.054 h 63.407 V 21.148 Z m -40.906,63.312 c 0,15.61 -3.902,27.879 -11.707,36.786 -7.805,8.906 -18.816,13.343 -33.074,13.343 -14.348,0 -25.457,-4.406 -33.293,-13.183 -7.836,-8.782 -11.77,-21.086 -11.77,-36.946 0,-15.734 3.965,-28.195 11.899,-37.445 7.929,-9.223 18.91,-13.848 32.976,-13.848 14.508,0 25.614,4.469 33.356,13.407 7.742,8.937 11.613,21.554 11.613,37.886 m 17.371,0 c 0,-13.121 -2.519,-24.609 -7.523,-34.457 -5.035,-9.851 -12.207,-17.433 -21.586,-22.687 -9.379,-5.289 -20.453,-7.93 -33.231,-7.93 -12.871,0 -23.98,2.61 -33.324,7.832 -9.347,5.227 -16.488,12.778 -21.43,22.66 -4.91,9.879 -7.363,21.399 -7.363,34.582 0,20.079 5.477,35.746 16.457,47.043 10.985,11.332 26.278,16.965 45.848,16.965 12.777,0 23.824,-2.519 33.199,-7.617 9.379,-5.066 16.555,-12.43 21.524,-22.121 4.941,-9.66 7.429,-21.086 7.429,-34.27 m -168.418,-63.312 -67.152,106.863 0.473,-8.652 0.437,-14.852 V 21.148 h -15.137 v 125.461 h 19.766 L 1318.262,39.05 c -0.723,11.645 -1.071,20.078 -1.071,25.301 v 82.258 h 15.325 V 21.148 Z m -128.203,0 V 79.3 h -67.812 V 21.148 h -17.024 v 125.461 h 17.024 V 93.554 h 67.812 v 53.055 h 17.027 V 21.148 Z m -160.926,113.441 c -13.879,0 -24.703,-4.468 -32.414,-13.406 -7.707,-8.937 -11.578,-21.176 -11.578,-36.723 0,-15.355 4.028,-27.722 12.082,-37.07 8.024,-9.344 18.914,-14.035 32.633,-14.035 17.559,0 30.777,8.687 39.617,26.09 l 13.879,-6.957 c -5.16,-10.793 -12.43,-19.004 -21.777,-24.637 -9.344,-5.664 -20.199,-8.465 -32.535,-8.465 -12.653,0 -23.571,2.61 -32.789,7.863 -9.254,5.258 -16.27,12.778 -21.118,22.532 -4.847,9.758 -7.269,21.336 -7.269,34.679 0,20.016 5.414,35.684 16.207,47.012 10.824,11.332 25.773,16.996 44.875,16.996 13.371,0 24.512,-2.613 33.48,-7.836 8.969,-5.226 15.547,-12.965 19.762,-23.226 l -16.113,-5.348 c -2.895,7.301 -7.582,12.871 -14,16.742 -6.453,3.871 -14.098,5.789 -22.942,5.789 M 845.895,21.148 v 125.461 h 95.191 v -13.875 h -78.168 v -40.25 h 72.816 V 78.765 H 862.918 V 35.054 h 81.816 V 21.148 Z M 785.633,132.734 V 21.148 h -16.899 v 111.586 h -43.113 v 13.875 h 103.121 v -13.875 z" /></g></g></svg>