<svg xmlns="http://www.w3.org/2000/svg" height="755.906" width="2876.188">
    <path d="M79.677 0L0 110.183h540.495V219.52H137.917v101.96h402.578v109.339H137.917v101.958h402.578v109.339H0l79.677 113.792h469.38l228.036-377.953L549.057 0z" fill="#f93f26"/>
    <path d="M2696.99 107.276l-2.397 7.427c-4.4 14.647-10.948 33.443-19.593 56.35l-47.62 122.557h139.47l-47.877-123.063c-4.952-12.167-9.9-25.927-14.853-41.287zM2824.578 442.1l-42.626-109.047h-169.926L2569.14 442.1h-52.4l152.177-372.921h57.443l149.828 372.92zm-397.251 0V193.292c0-27.526.797-54 2.35-79.385-8.647 31.593-16.407 56.265-23.287 74.099l-96.334 254.093h-35.453l-97.677-254.093-14.854-44.98-8.73-29.12.797 29.37 1.053 50.016V442.1h-44.98V69.178h66.418l99.27 258.588c3.526 10.4 6.922 21.562 10.198 33.478 3.27 11.918 5.412 20.516 6.5 25.803 1.385-7.047 4.365-17.787 8.854-32.136 4.49-14.39 7.552-23.457 9.146-27.145l97.385-258.588h64.865v372.92zm-558.41 5.328c-30.506 0-57.147-5.583-79.934-16.697-22.739-11.12-40.4-27.276-52.948-48.423-12.505-21.187-18.755-46.405-18.755-75.733V69.178h50.558v233.16c0 34.069 8.645 59.912 25.932 77.578 17.286 17.62 42.25 26.475 74.89 26.475 33.527 0 59.584-9.147 78.208-27.396 18.631-18.297 27.948-44.979 27.948-80.099V69.178h50.266v232.656c0 30.166-6.38 56.182-19.176 78.082-12.798 21.86-30.88 38.6-54.251 50.142-23.41 11.577-50.979 17.369-82.739 17.369m-297.396-5.328l-199.552-317.62 1.302 25.677 1.344 44.224V442.1h-45.022V69.178h58.782l201.693 319.718c-2.141-34.573-3.193-59.62-3.193-75.146V69.178h45.526v372.92zm-602.385 0V69.178h282.921v41.286h-232.401v119.624h216.541v40.782h-216.541v129.942h243.265V442.1zm1907.048 239.417c0 15.438-6.043 27.395-18.084 35.834-12.083 8.473-29.078 12.708-51.02 12.708-40.74 0-64.36-14.136-70.866-42.5l21.984-4.366c2.522 10.027 7.89 17.412 16.115 22.115 8.267 4.74 19.428 7.09 33.605 7.09 14.646 0 25.932-2.517 33.906-7.553 7.926-5.037 11.912-12.422 11.912-22.157 0-5.452-1.214-9.859-3.735-13.296-2.473-3.401-6-6.213-10.49-8.39-4.531-2.23-9.9-4.115-16.15-5.585-6.25-1.51-13.177-3.145-20.772-4.864-13.213-2.937-23.244-5.874-30.083-8.812-6.88-2.938-12.25-6.166-16.234-9.776-3.948-3.61-6.968-7.85-9.063-12.672-2.099-4.824-3.15-10.365-3.15-16.614 0-14.308 5.5-25.344 16.447-33.104 10.954-7.762 26.646-11.626 47.079-11.626 18.963 0 33.484 2.902 43.552 8.73 10.067 5.79 17.077 15.692 21.145 29.708l-22.322 3.942c-2.475-8.896-7.131-15.317-14.011-19.302-6.88-3.984-16.448-6-28.615-6-13.385 0-23.584 2.224-30.63 6.63-7.052 4.448-10.572 11.079-10.572 19.844 0 5.162 1.385 9.402 4.109 12.755 2.73 3.36 6.672 6.213 11.79 8.563 5.163 2.349 15.397 5.202 30.757 8.598 5.16 1.178 10.28 2.396 15.396 3.61 5.077 1.26 9.989 2.688 14.645 4.406 4.656 1.719 9.021 3.694 13.13 6 4.073 2.308 7.594 5.12 10.615 8.432 2.979 3.314 5.375 7.219 7.052 11.75 1.719 4.49 2.558 9.818 2.558 15.902m-292.99 46.192V560.427h126.922v18.5h-104.22v53.667h97.089v18.292h-97.088v58.28h109.088v18.542zm-62.39-167.281h22.656v167.281h-22.656zm-199.131 82.865c0-27.146 7.26-48.166 21.859-63.021 14.562-14.896 34.996-22.323 61.344-22.323 18.546 0 33.568 3.11 45.104 9.359 11.584 6.25 20.474 16.281 26.729 30.043l-21.61 6.416c-4.738-9.522-11.286-16.443-19.634-20.766-8.35-4.365-18.756-6.546-31.177-6.546-19.298 0-34.068 5.833-44.266 17.494-10.234 11.708-15.313 28.115-15.313 49.344 0 21.146 5.412 37.802 16.24 50.058 10.864 12.208 25.844 18.333 45.021 18.333 10.906 0 21.104-1.677 30.542-4.996 9.484-3.312 17.12-7.843 22.994-13.552V663.01h-49.974v-19.005h70.87v57.692c-8.896 9.02-19.724 16.026-32.604 20.937-12.838 4.948-26.808 7.423-41.828 7.423-17.5 0-32.562-3.48-45.234-10.443-12.672-6.97-22.36-16.995-29.032-30.084-6.672-13.093-10.031-28.49-10.031-46.239m-46.823 0c0-20.813-5.204-37.172-15.61-49.048-10.406-11.874-25.088-17.79-44.094-17.79-19.134 0-33.948 5.874-44.39 17.577-10.448 11.71-15.692 28.115-15.692 49.261 0 20.979 5.286 37.594 15.858 49.927 10.574 12.297 25.215 18.464 44.01 18.464 19.304 0 34.116-5.959 44.433-17.876 10.324-11.916 15.485-28.739 15.485-50.515m23.162 0c0 17.495-3.36 32.812-10.027 45.943-6.672 13.135-16.281 23.244-28.787 30.25-12.5 7.051-27.27 10.573-44.265 10.573-17.203 0-32.01-3.48-44.473-10.443-12.46-6.97-21.986-17.037-28.574-30.213-6.546-13.172-9.817-28.532-9.817-46.11 0-26.772 7.301-47.661 21.943-62.724 14.645-15.11 35.036-22.62 61.134-22.62 17.032 0 31.762 3.359 44.308 10.156 12.5 6.755 22.026 16.574 28.656 29.495 6.584 12.88 9.902 28.115 9.902 45.693m-292.7 84.416v-167.28h22.662v148.74h84.543v18.541zm-54.54-84.416c0-20.813-5.203-37.172-15.61-49.048-10.406-11.874-25.088-17.79-44.098-17.79-19.131 0-33.943 5.874-44.391 17.577-10.448 11.71-15.693 28.115-15.693 49.261 0 20.979 5.286 37.594 15.865 49.927 10.572 12.297 25.213 18.464 43.968 18.464 19.344 0 34.152-5.959 44.475-17.876 10.322-11.916 15.484-28.739 15.484-50.515m23.161 0c0 17.495-3.359 32.812-10.03 45.943-6.714 13.135-16.277 23.244-28.782 30.25-12.505 7.051-27.27 10.573-44.308 10.573-17.161 0-31.973-3.48-44.432-10.443-12.463-6.97-21.984-17.037-28.573-30.213-6.547-13.172-9.818-28.532-9.818-46.11 0-26.772 7.303-47.661 21.943-62.724 14.647-15.11 35.037-22.62 61.13-22.62 17.037 0 31.766 3.359 44.266 10.156 12.505 6.755 22.073 16.574 28.699 29.495 6.588 12.88 9.905 28.115 9.905 45.693m-224.557 84.416l-89.536-142.484.63 11.536.583 19.803v111.145h-20.183v-167.28h26.355l90.459 143.412c-.964-15.527-1.428-26.77-1.428-33.735V560.427h20.433v167.281zm-170.938 0v-77.536h-90.416v77.536h-22.698v-167.28h22.698v70.74h90.416v-70.74h22.703v167.281zM1363.87 576.454c-18.505 0-32.937 5.957-43.218 17.874-10.276 11.916-15.438 28.235-15.438 48.964 0 20.474 5.371 36.963 16.11 49.427 10.698 12.459 25.218 18.713 43.51 18.713 23.412 0 41.036-11.582 52.823-34.786l18.505 9.276c-6.88 14.39-16.573 25.338-29.036 32.849-12.458 7.552-26.932 11.287-43.38 11.287-16.87 0-31.428-3.48-43.718-10.484-12.339-7.011-21.694-17.038-28.158-30.043-6.462-13.01-9.692-28.448-9.692-46.239 0-26.688 7.219-47.578 21.61-62.682 14.432-15.11 34.364-22.662 59.833-22.662 17.828 0 32.683 3.484 44.64 10.448 11.959 6.968 20.73 17.287 26.35 30.968l-21.485 7.13c-3.86-9.734-10.109-17.16-18.666-22.322-8.604-5.161-18.798-7.718-30.59-7.718m-236.01 151.254V560.427h126.921v18.5h-104.224v53.667h97.088v18.292h-97.088v58.28h109.088v18.542zm-80.35-148.781v148.781h-22.531V578.927h-57.484v-18.5h137.494v18.5z"/>
    <path d="M2876.183 681.516c0 15.438-6.043 27.395-18.084 35.834-12.083 8.473-29.078 12.708-51.02 12.708-40.74 0-64.36-14.136-70.866-42.5l21.984-4.366c2.522 10.027 7.89 17.412 16.115 22.115 8.267 4.74 19.428 7.09 33.605 7.09 14.646 0 25.932-2.517 33.906-7.553 7.926-5.037 11.912-12.422 11.912-22.157 0-5.452-1.214-9.859-3.735-13.296-2.473-3.401-6-6.213-10.49-8.39-4.531-2.23-9.9-4.115-16.15-5.585-6.25-1.51-13.177-3.145-20.772-4.864-13.213-2.937-23.244-5.874-30.083-8.812-6.88-2.938-12.25-6.166-16.234-9.776-3.948-3.61-6.968-7.85-9.063-12.672-2.099-4.824-3.15-10.365-3.15-16.614 0-14.308 5.5-25.344 16.447-33.104 10.954-7.762 26.646-11.626 47.079-11.626 18.963 0 33.484 2.902 43.552 8.73 10.067 5.79 17.077 15.692 21.145 29.708l-22.322 3.942c-2.475-8.896-7.131-15.317-14.011-19.302-6.88-3.984-16.448-6-28.615-6-13.385 0-23.584 2.224-30.63 6.63-7.052 4.448-10.572 11.079-10.572 19.844 0 5.162 1.385 9.402 4.109 12.755 2.73 3.36 6.672 6.213 11.79 8.563 5.163 2.349 15.397 5.202 30.757 8.598 5.16 1.178 10.28 2.396 15.396 3.61 5.077 1.26 9.989 2.688 14.645 4.406 4.656 1.719 9.021 3.694 13.13 6 4.073 2.308 7.594 5.12 10.615 8.432 2.979 3.314 5.375 7.219 7.052 11.75 1.719 4.49 2.558 9.818 2.558 15.902m-292.99 46.192V560.427h126.922v18.5h-104.22v53.667h97.089v18.292h-97.088v58.28h109.088v18.542zm-62.39-167.281h22.656v167.281h-22.656zm-199.131 82.865c0-27.146 7.26-48.166 21.859-63.021 14.562-14.896 34.996-22.323 61.344-22.323 18.546 0 33.568 3.11 45.104 9.359 11.584 6.25 20.474 16.281 26.729 30.043l-21.61 6.416c-4.738-9.522-11.286-16.443-19.634-20.766-8.35-4.365-18.756-6.546-31.177-6.546-19.298 0-34.068 5.833-44.266 17.494-10.234 11.708-15.313 28.115-15.313 49.344 0 21.146 5.412 37.802 16.24 50.058 10.864 12.208 25.844 18.333 45.021 18.333 10.906 0 21.104-1.677 30.542-4.996 9.484-3.312 17.12-7.843 22.994-13.552V663.01h-49.974v-19.005h70.87v57.692c-8.896 9.02-19.724 16.026-32.604 20.937-12.838 4.948-26.808 7.423-41.828 7.423-17.5 0-32.562-3.48-45.234-10.443-12.672-6.97-22.36-16.995-29.032-30.084-6.672-13.093-10.031-28.49-10.031-46.239m-46.823 0c0-20.813-5.204-37.172-15.61-49.048-10.406-11.874-25.088-17.79-44.094-17.79-19.134 0-33.948 5.874-44.39 17.577-10.448 11.71-15.692 28.115-15.692 49.261 0 20.979 5.286 37.594 15.858 49.927 10.574 12.297 25.215 18.464 44.01 18.464 19.304 0 34.116-5.959 44.433-17.876 10.324-11.916 15.485-28.739 15.485-50.515m23.162 0c0 17.495-3.36 32.812-10.027 45.943-6.672 13.135-16.281 23.244-28.787 30.25-12.5 7.051-27.27 10.573-44.265 10.573-17.203 0-32.01-3.48-44.473-10.443-12.46-6.97-21.986-17.037-28.574-30.213-6.546-13.172-9.817-28.532-9.817-46.11 0-26.772 7.301-47.661 21.943-62.724 14.645-15.11 35.036-22.62 61.134-22.62 17.032 0 31.762 3.359 44.308 10.156 12.5 6.755 22.026 16.574 28.656 29.495 6.584 12.88 9.902 28.115 9.902 45.693m-292.7 84.416v-167.28h22.662v148.74h84.543v18.541zm-54.54-84.416c0-20.813-5.203-37.172-15.61-49.048-10.406-11.874-25.088-17.79-44.098-17.79-19.131 0-33.943 5.874-44.391 17.577-10.448 11.71-15.693 28.115-15.693 49.261 0 20.979 5.286 37.594 15.865 49.927 10.572 12.297 25.213 18.464 43.968 18.464 19.344 0 34.152-5.959 44.475-17.876 10.322-11.916 15.484-28.739 15.484-50.515m23.161 0c0 17.495-3.359 32.812-10.03 45.943-6.714 13.135-16.277 23.244-28.782 30.25-12.505 7.051-27.27 10.573-44.308 10.573-17.161 0-31.973-3.48-44.432-10.443-12.463-6.97-21.984-17.037-28.573-30.213-6.547-13.172-9.818-28.532-9.818-46.11 0-26.772 7.303-47.661 21.943-62.724 14.647-15.11 35.037-22.62 61.13-22.62 17.037 0 31.766 3.359 44.266 10.156 12.505 6.755 22.073 16.574 28.699 29.495 6.588 12.88 9.905 28.115 9.905 45.693m-224.557 84.416l-89.536-142.484.63 11.536.583 19.803v111.145h-20.183v-167.28h26.355l90.459 143.412c-.964-15.527-1.428-26.77-1.428-33.735V560.427h20.433v167.281zm-170.938 0v-77.536h-90.416v77.536h-22.698v-167.28h22.698v70.74h90.416v-70.74h22.703v167.281zM1363.87 576.454c-18.505 0-32.937 5.957-43.218 17.874-10.276 11.916-15.438 28.235-15.438 48.964 0 20.474 5.371 36.963 16.11 49.427 10.698 12.459 25.218 18.713 43.51 18.713 23.412 0 41.036-11.582 52.823-34.786l18.505 9.276c-6.88 14.39-16.573 25.338-29.036 32.849-12.458 7.552-26.932 11.287-43.38 11.287-16.87 0-31.428-3.48-43.718-10.484-12.339-7.011-21.694-17.038-28.158-30.043-6.462-13.01-9.692-28.448-9.692-46.239 0-26.688 7.219-47.578 21.61-62.682 14.432-15.11 34.364-22.662 59.833-22.662 17.828 0 32.683 3.484 44.64 10.448 11.959 6.968 20.73 17.287 26.35 30.968l-21.485 7.13c-3.86-9.734-10.109-17.16-18.666-22.322-8.604-5.161-18.798-7.718-30.59-7.718m-236.01 151.254V560.427h126.921v18.5h-104.224v53.667h97.088v18.292h-97.088v58.28h109.088v18.542zm-80.35-148.781v148.781h-22.531V578.927h-57.484v-18.5h137.494v18.5z"/>
</svg>
