<?xml version="1.0" encoding="UTF-8"?>
<svg xmlns="http://www.w3.org/2000/svg" xmlns:xlink="http://www.w3.org/1999/xlink" width="113.39pt" height="113.39pt" viewBox="0 0 113.39 113.39" version="1.1">
<g id="surface1">
<path style=" stroke:none;fill-rule:nonzero;fill:rgb(10.588074%,27.450562%,49.411011%);fill-opacity:1;" d="M 70.445312 71.207031 L 65.097656 71.207031 L 62.679688 66.371094 L 68.023438 66.371094 Z M 49.3125 66.371094 L 46.890625 71.207031 L 41.546875 71.207031 L 56.058594 42.183594 L 65.734375 61.53125 L 60.257812 61.53125 L 55.929688 53.128906 L 51.601562 61.660156 Z M 49.3125 66.371094 "/>
<path style=" stroke:none;fill-rule:nonzero;fill:rgb(10.588074%,27.450562%,49.411011%);fill-opacity:1;" d="M 87.886719 56.695312 L 99.214844 71.207031 L 93.105469 71.207031 L 84.828125 60.640625 Z M 87.886719 56.695312 L 84.828125 52.75 L 93.105469 42.183594 L 99.214844 42.183594 Z M 81.773438 56.695312 L 84.828125 60.640625 L 76.554688 71.207031 L 70.316406 71.207031 Z M 84.828125 52.875 L 81.773438 56.820312 L 70.316406 42.308594 L 76.554688 42.308594 Z M 84.828125 52.875 "/>
<path style=" stroke:none;fill-rule:nonzero;fill:rgb(10.588074%,27.450562%,49.411011%);fill-opacity:1;" d="M 39 46.382812 C 41.925781 49.3125 43.199219 52.75 43.199219 56.695312 C 43.199219 60.640625 41.800781 64.078125 39 67.007812 C 36.199219 69.933594 32.761719 71.207031 28.6875 71.207031 C 24.613281 71.207031 21.304688 69.808594 18.375 67.007812 C 15.574219 64.207031 14.175781 60.769531 14.175781 56.695312 C 14.175781 53.511719 15.066406 50.710938 16.847656 48.292969 L 20.414062 51.855469 C 19.523438 53.257812 19.011719 55.039062 19.011719 56.824219 C 19.011719 59.496094 20.03125 61.789062 21.8125 63.695312 C 23.722656 65.605469 26.015625 66.625 28.6875 66.625 C 31.363281 66.625 33.652344 65.605469 35.5625 63.695312 C 37.472656 61.789062 38.363281 59.496094 38.363281 56.824219 C 38.363281 54.148438 37.34375 51.855469 35.5625 49.949219 C 33.652344 48.039062 31.363281 47.148438 28.6875 47.148438 C 26.90625 47.148438 25.25 47.53125 23.851562 48.421875 L 20.285156 44.855469 C 22.703125 43.074219 25.503906 42.183594 28.6875 42.183594 C 32.761719 42.183594 36.199219 43.582031 39 46.382812 "/>
</g>
</svg>
