<svg xmlns="http://www.w3.org/2000/svg" width="151.187" height="151.187" viewBox="0 0 113.39 113.39">
    <g fill="#1b467e">
        <path d="M70.445 71.207h-5.347l-2.418-4.836h5.343zm-21.132-4.836l-2.422 4.836h-5.344l14.512-29.023 9.675 19.347h-5.476L55.93 53.13l-4.328 8.531zm0 0"/>
        <path d="M87.887 56.695l11.328 14.512h-6.11l-8.277-10.566zm0 0l-3.059-3.945 8.277-10.566h6.11zm-6.114 0l3.055 3.946-8.273 10.566h-6.239zm3.055-3.82l-3.055 3.945-11.457-14.51h6.239zM39 46.383c2.926 2.93 4.2 6.367 4.2 10.312 0 3.946-1.4 7.383-4.2 10.313-2.8 2.926-6.238 4.199-10.313 4.199-4.074 0-7.382-1.398-10.312-4.2-2.8-2.8-4.2-6.237-4.2-10.312 0-3.183.891-5.984 2.673-8.402l3.566 3.562c-.89 1.403-1.402 3.184-1.402 4.97 0 2.671 1.02 4.964 2.8 6.87 1.91 1.91 4.204 2.93 6.875 2.93 2.676 0 4.965-1.02 6.875-2.93 1.91-1.906 2.801-4.199 2.801-6.87 0-2.677-1.02-4.97-2.8-6.876-1.91-1.91-4.2-2.8-6.876-2.8-1.78 0-3.437.382-4.835 1.273l-3.567-3.567c2.418-1.78 5.219-2.671 8.402-2.671 4.075 0 7.512 1.398 10.313 4.199"/>
    </g>
</svg>
