<svg width="31" height="45" xmlns="http://www.w3.org/2000/svg" xmlns:xlink="http://www.w3.org/1999/xlink">
    <defs>
        <path d="M18.213 34.865H8.205c-.823 0-1.46.804-1.186 1.678.165.527.692.852 1.239.852h.019c.722 0 1.383.413 1.706 1.067l.013.026a2.57 2.57 0 0 0 2.3 1.438h1.827c.973 0 1.864-.557 2.299-1.438l.013-.026a1.907 1.907 0 0 1 1.706-1.067h.02c.546 0 1.073-.325 1.238-.852.275-.874-.363-1.678-1.186-1.678zm1.251-3.2c0 .698-.56 1.265-1.25 1.265H8.204c-.69 0-1.25-.567-1.25-1.265 0-.674.521-1.22 1.178-1.257-.779-7.12-8.06-8.705-8.06-17.087C.074 5.985 5.956.037 13.21.037c7.255 0 13.136 5.948 13.136 13.284 0 8.382-7.281 9.968-8.06 17.087.657.038 1.18.583 1.18 1.257z" id="a"/>
    </defs>
    <g fill="none" fill-rule="evenodd">
        <g transform="translate(2 2.5)">
            <use fill="#333" xlink:href="#a"/>
            <path stroke="#FFF" stroke-width="2" d="M18.213 33.865c1.522 0 2.61 1.482 2.14 2.977-.296.946-1.207 1.553-2.193 1.553h-.019a.906.906 0 0 0-.81.51l-.013.027a3.568 3.568 0 0 1-3.195 1.994h-1.827A3.57 3.57 0 0 1 9.1 38.932l-.013-.027a.906.906 0 0 0-.81-.51h-.02c-.985 0-1.896-.607-2.193-1.553-.469-1.496.62-2.977 2.141-2.977h10.008zM7.027 29.74c-.366-2.015-1.29-3.508-3.395-6.05l-.265-.319C.237 19.592-.926 17.313-.926 13.32-.926 5.436 5.4-.962 13.209-.962c7.81 0 14.136 6.398 14.136 14.284 0 3.992-1.163 6.27-4.294 10.05l-.264.319c-2.105 2.541-3.03 4.034-3.396 6.049a2.26 2.26 0 0 1 1.073 1.926 2.259 2.259 0 0 1-2.25 2.265H8.204a2.259 2.259 0 0 1-2.25-2.265 2.26 2.26 0 0 1 1.072-1.926z"/>
        </g>
        <path d="M20.213 37.365H10.205c-.823 0-1.46.804-1.186 1.678.165.527.692.852 1.239.852h.019c.722 0 1.383.413 1.706 1.067l.013.026a2.57 2.57 0 0 0 2.3 1.438h1.827c.973 0 1.864-.557 2.299-1.438l.013-.026a1.907 1.907 0 0 1 1.706-1.067h.02c.546 0 1.073-.325 1.238-.852.275-.874-.363-1.678-1.186-1.678zm1.251-3.2c0 .698-.56 1.265-1.25 1.265h-10.01c-.69 0-1.25-.567-1.25-1.265 0-.674.521-1.22 1.178-1.257-.779-7.12-8.06-8.705-8.06-17.087 0-7.336 5.882-13.284 13.136-13.284 7.255 0 13.136 5.948 13.136 13.284 0 8.382-7.281 9.968-8.06 17.087.657.038 1.18.583 1.18 1.257z" fill="#333"/>
        <path d="M8.98 17.285l5.605-11.318c.08-.145.187-.211.31-.211.183 0 .331.149.331.333l-.008.073-.944 7.652a.999.999 0 0 0 .986 1.158l5.23.005a1.498 1.498 0 0 1 1.23 2.143l-5.644 11.396-.035.074a.334.334 0 0 1-.612-.185l.947-7.68a.918.918 0 0 0 .02-.16c.002-.596-.445-1.044-.997-1.044l-5.235-.005a1.497 1.497 0 0 1-1.262-2.075l.077-.156z" fill="#FFF199"/>
    </g>
</svg>
