<svg xmlns="http://www.w3.org/2000/svg" width="543.156" height="743.156">
    <defs>
        <clipPath clipPathUnits="userSpaceOnUse" id="a">
            <path d="M0 594.525h434.525V0H0v594.525z"/>
        </clipPath>
    </defs>
    <path d="M16.652 13.653h509.85v715.85H16.653V13.652z" fill="#fff"/>
    <g clip-path="url(#a)" transform="matrix(1.25 0 0 -1.25 0 743.156)">
        <path d="M369.978 374.411c-2.08-21.437-21.145-37.13-42.582-35.05-21.401 2.075-37.085 21.081-35.061 42.487.139 1.424.355 2.84.646 4.241l22.189-7.91c-.046-8.874 7.11-16.106 15.984-16.153 8.874-.047 16.105 7.11 16.152 15.984.047 8.874-7.11 16.106-15.983 16.152a16.072 16.072 0 0 1-12.483-5.847l-21.847 8.646a39.066 39.066 0 0 0 34.093 20.172c1.257 0 2.52-.06 3.789-.182 21.44-2.054 37.157-21.1 35.103-42.54zM182.764 209.992c-2.037-21.45-21.076-37.187-42.526-35.15-21.45 2.037-37.186 21.076-35.15 42.526 1.902 20.02 18.71 35.314 38.82 35.324 2.837 0 5.665-.308 8.436-.917l-23.618-25.197 2.398-3.338c-5.274-7.076-3.813-17.087 3.263-22.36 7.076-5.274 17.087-3.813 22.36 3.263a15.997 15.997 0 0 1 1.89 3.29l19.952 24.188a38.724 38.724 0 0 0 4.175-21.629zm-8.741 28.54c.294-.358.573-.724.854-1.088l-15.668-18.995a15.785 15.785 0 0 1-5.948 8.234l15.576 17.035a38.984 38.984 0 0 0 5.186-5.187zm12.347 24.362c.465.071.944.162 1.448.288a50.322 50.322 0 0 1 11.433 5.174c.22-.195.439-.383.656-.568l-15.454-18.736a53.896 53.896 0 0 1-5.637 5.58l7.554 8.262zm-23.983 28.245a598.887 598.887 0 0 1 12.709 7.87c2.382-3.624 5.602-8.372 9.15-13.198l-4.453-4.752c-2.84 5.431-7.555 9.83-17.406 10.08m44.322 113.53c-6.074-2.13-11.551-5.048-15.3-8.757-5.166 5.014-9.206 8.693-10.302 10.675.406.018.797.154 1.127.39 1.737 1.268.192 4.357 2.409 6.063 3.627 2.792 10.052-3.705 14.23-1.134 1.898 1.167 2.969 3.983 2.96 6.678l10.636-3.792-5.76-10.124zm40.225-2.318l-.004.155.059-.02c-.02-.045-.036-.09-.055-.135m125.7 10.006c-18.926 22.91-52.84 26.141-75.75 7.216a53.803 53.803 0 0 1-13.718-17.14l-12.985 5.137a96.784 96.784 0 0 0 13.388 15.264c10.924 10.174 22.923 17.025 32.92 18.797a2.465 2.465 0 0 1 1.626 1.067 29.091 29.091 0 0 0 2.642 3.18c2.024 2.222 3.936 4.321 2.104 6.391a2.466 2.466 0 0 1-1.994.826c-17.359-1.058-42.005-9.2-59.125-28.882-3.135-3.604-5.807-6.934-8.068-10.11L203.09 434.12c-2.862 3.676-6.883 6.475-9.257 6.687a3.43 3.43 0 0 1-1.47-.328 57.972 57.972 0 0 1 3.271 11.298c1.504 8.323 1.702 15.302 4.09 15.851 4.41 1.013 3.93-1.24 4.814 1.985 1.317 4.81-4.975 10.505-3.14 14.641a37.406 37.406 0 0 0 3.886 6.91c4.462-.85 8.384-1.56 12.214-4.066 4.027 3.731 7.392 9.286 6.642 13.466-.773 4.306-9.1 4.1-7.383 11.848 1.128 5.091 8.324 6.64 12.882 6.545 2.528-.052 1.705 10.901-1.314 12.638-3.81 2.191-37.235 13.79-48.506 2.367-6.302-6.388-9.326-23.395-2.13-29.556a79.28 79.28 0 0 1 2.405-1.972 8.888 8.888 0 0 0-3.925-1.298c-3.914-.394-6.088 1.317-7.779-.068-1.714-1.405 1.23-3.143-.095-5.432-2.419-4.182-4.646 1.542-12.59-6.322-3.694-3.654-4.617-10.652-8.265-19.419-5.862-14.087-11.004-11.378-17.752-33.074-1.654-5.316 5.402-2.703 18.49-9.113-6.38-12.08-10.515-23.525-8.562-30.683 2.403-8.812 19.47-22.55 28.325-30.378a20.634 20.634 0 0 0 1.901-1.977c-24.37-23.72-66.832-41.15-123.482-83.479-2.669-4.31 2.95-11.455 5.453-11.957 33.331 28.122 73.422 37.163 114.894 34.188a649.222 649.222 0 0 0-14.212-8.62l2.087 5.335-14.236-4.404-65.806-20.695-7.853-9.06 3.777-10.593 11.814-2.048 64.01 25.598.608 1.555c20.694 5.856 24.526.38 26.826-5.909l-10.149-10.827c-27.626 10.804-58.78-2.834-69.583-30.46-10.803-27.627 2.835-58.78 30.461-69.584 27.627-10.802 58.78 2.835 69.583 30.461a53.707 53.707 0 0 1-5.464 49.551l16.984 20.591a4.817 4.817 0 0 1 2.142-.202c2.417.387 6.011 3.094 10.118 7.141a4.246 4.246 0 0 1 4.136-2.285 4.314 4.314 0 0 1 3.812 4.76 4.457 4.457 0 0 1-.85 2.215c7.695-1.196 13.945-1.448 14.462.3 2.123 7.171-1.866 10.268-6.688 12.371a244.319 244.319 0 0 1 7.662 10.67c8.526 7.987 14.834 15.408 15.842 19.951 2.098 9.458-5.807 24.32-13.374 32.868.551 5.682 1.217 12.2 1.852 18.692a160.484 160.484 0 0 1 5.476-17.622c1.323-3.784 2.691-7.696 3.821-11.337a2.463 2.463 0 0 1 4.303-.774c.454.55.962 1.05 1.517 1.496 1.577 1.362 3.96 3.42 2.36 7.772-6.893 18.752-1.669 34.731.841 42.41.311.951.58 1.772.796 2.498.11.37.241.75.373 1.13l14.8-5.277a54.385 54.385 0 0 1-1.33-7.832c-2.833-29.566 18.838-55.828 48.404-58.66a54.568 54.568 0 0 1 5.224-.25c29.703.054 53.737 24.177 53.681 53.88a53.777 53.777 0 0 1-12.299 34.13z" fill="#555"/>
        <path d="M369.978 374.411c-2.08-21.437-21.145-37.13-42.582-35.05-21.401 2.075-37.085 21.081-35.061 42.487.139 1.424.355 2.84.646 4.241l22.189-7.91c-.046-8.874 7.11-16.106 15.984-16.153 8.874-.047 16.105 7.11 16.152 15.984.047 8.874-7.11 16.106-15.983 16.152a16.072 16.072 0 0 1-12.483-5.847l-21.847 8.646a39.066 39.066 0 0 0 34.093 20.172c1.257 0 2.52-.06 3.789-.182 21.44-2.054 37.157-21.1 35.103-42.54h0zM182.764 209.992c-2.037-21.45-21.076-37.187-42.526-35.15-21.45 2.037-37.186 21.076-35.15 42.526 1.902 20.02 18.71 35.314 38.82 35.324 2.837 0 5.665-.308 8.436-.917l-23.618-25.197 2.398-3.338c-5.274-7.076-3.813-17.087 3.263-22.36 7.076-5.274 17.087-3.813 22.36 3.263a15.997 15.997 0 0 1 1.89 3.29l19.952 24.188a38.724 38.724 0 0 0 4.175-21.629h0zm-8.741 28.54c.294-.358.573-.724.854-1.088l-15.668-18.995a15.785 15.785 0 0 1-5.948 8.234l15.576 17.035a38.984 38.984 0 0 0 5.186-5.187h0zm12.347 24.362c.465.071.944.162 1.448.288a50.322 50.322 0 0 1 11.433 5.174c.22-.195.439-.383.656-.568l-15.454-18.736a53.896 53.896 0 0 1-5.637 5.58l7.554 8.262zm-23.983 28.245a598.887 598.887 0 0 1 12.709 7.87c2.382-3.624 5.602-8.372 9.15-13.198l-4.453-4.752c-2.84 5.431-7.555 9.83-17.406 10.08zm44.322 113.53c-6.074-2.13-11.551-5.048-15.3-8.757-5.166 5.014-9.206 8.693-10.302 10.675.406.018.797.154 1.127.39 1.737 1.268.192 4.357 2.409 6.063 3.627 2.792 10.052-3.705 14.23-1.134 1.898 1.167 2.969 3.983 2.96 6.678l10.636-3.792-5.76-10.124zm40.225-2.318l-.004.155.059-.02c-.02-.045-.036-.09-.055-.135zm125.7 10.006c-18.926 22.91-52.84 26.141-75.75 7.216a53.803 53.803 0 0 1-13.718-17.14l-12.985 5.137a96.784 96.784 0 0 0 13.388 15.264c10.924 10.174 22.923 17.025 32.92 18.797a2.465 2.465 0 0 1 1.626 1.067 29.091 29.091 0 0 0 2.642 3.18c2.024 2.222 3.936 4.321 2.104 6.391a2.466 2.466 0 0 1-1.994.826c-17.359-1.058-42.005-9.2-59.125-28.882-3.135-3.604-5.807-6.934-8.068-10.11L203.09 434.12c-2.862 3.676-6.883 6.475-9.257 6.687a3.43 3.43 0 0 1-1.47-.328 57.972 57.972 0 0 1 3.271 11.298c1.504 8.323 1.702 15.302 4.09 15.851 4.41 1.013 3.93-1.24 4.814 1.985 1.317 4.81-4.975 10.505-3.14 14.641a37.406 37.406 0 0 0 3.886 6.91c4.462-.85 8.384-1.56 12.214-4.066 4.027 3.731 7.392 9.286 6.642 13.466-.773 4.306-9.1 4.1-7.383 11.848 1.128 5.091 8.324 6.64 12.882 6.545 2.528-.052 1.705 10.901-1.314 12.638-3.81 2.191-37.235 13.79-48.506 2.367-6.302-6.388-9.326-23.395-2.13-29.556a79.28 79.28 0 0 1 2.405-1.972 8.888 8.888 0 0 0-3.925-1.298c-3.914-.394-6.088 1.317-7.779-.068-1.714-1.405 1.23-3.143-.095-5.432-2.419-4.182-4.646 1.542-12.59-6.322-3.694-3.654-4.617-10.652-8.265-19.419-5.862-14.087-11.004-11.378-17.752-33.074-1.654-5.316 5.402-2.703 18.49-9.113-6.38-12.08-10.515-23.525-8.562-30.683 2.403-8.812 19.47-22.55 28.325-30.378a20.634 20.634 0 0 0 1.901-1.977c-24.37-23.72-66.832-41.15-123.482-83.479-2.669-4.31 2.95-11.455 5.453-11.957 33.331 28.122 73.422 37.163 114.894 34.188a649.222 649.222 0 0 0-14.212-8.62l2.087 5.335-14.236-4.404-65.806-20.695-7.853-9.06 3.777-10.593 11.814-2.048 64.01 25.598.608 1.555c20.694 5.856 24.526.38 26.826-5.909l-10.149-10.827c-27.626 10.804-58.78-2.834-69.583-30.46-10.803-27.627 2.835-58.78 30.461-69.584 27.627-10.802 58.78 2.835 69.583 30.461a53.707 53.707 0 0 1-5.464 49.551l16.984 20.591a4.817 4.817 0 0 1 2.142-.202c2.417.387 6.011 3.094 10.118 7.141a4.246 4.246 0 0 1 4.136-2.285 4.314 4.314 0 0 1 3.812 4.76 4.457 4.457 0 0 1-.85 2.215c7.695-1.196 13.945-1.448 14.462.3 2.123 7.171-1.866 10.268-6.688 12.371a244.319 244.319 0 0 1 7.662 10.67c8.526 7.987 14.834 15.408 15.842 19.951 2.098 9.458-5.807 24.32-13.374 32.868.551 5.682 1.217 12.2 1.852 18.692a160.484 160.484 0 0 1 5.476-17.622c1.323-3.784 2.691-7.696 3.821-11.337a2.463 2.463 0 0 1 4.303-.774c.454.55.962 1.05 1.517 1.496 1.577 1.362 3.96 3.42 2.36 7.772-6.893 18.752-1.669 34.731.841 42.41.311.951.58 1.772.796 2.498.11.37.241.75.373 1.13l14.8-5.277a54.385 54.385 0 0 1-1.33-7.832c-2.833-29.566 18.838-55.828 48.404-58.66a54.568 54.568 0 0 1 5.224-.25c29.703.054 53.737 24.177 53.681 53.88a53.777 53.777 0 0 1-12.299 34.13h0z" fill="none" stroke="#555" stroke-miterlimit="10"/>
        <path d="M415.263 594.525h-396C8.623 594.525 0 585.9 0 575.262v-556C0 8.625 8.624 0 19.263 0h396c10.638 0 19.263 8.625 19.263 19.262v556c0 10.639-8.625 19.263-19.263 19.263m0-575.263h-396v556h396v-556z" fill="#c95228"/>
        <path d="M110.822 113.86a21.59 21.59 0 0 1-12.578 3.723c-6.05 0-11.83-2.417-17.339-7.251a30.894 30.894 0 0 1-10.332-17.333l-9.792-47.617h-17.07l16.98 83.058h17.07l-2.695-13.261c8.265 9.874 18.536 14.812 30.815 14.813a67.813 67.813 0 0 0 9.793-1.086l-4.852-15.045z" fill="#c95228"/>
        <path d="M110.822 113.86a21.59 21.59 0 0 1-12.578 3.723c-6.05 0-11.83-2.417-17.339-7.251a30.894 30.894 0 0 1-10.332-17.333l-9.792-47.617h-17.07l16.98 83.058h17.07l-2.695-13.261c8.265 9.874 18.536 14.812 30.815 14.813a67.813 67.813 0 0 0 9.793-1.086l-4.852-15.045z" fill="none" stroke="#c95228" stroke-width="6.613" stroke-linejoin="round"/>
        <path d="M151.16 128.44l-11.23-52.968a30.587 30.587 0 0 1-.718-6.282c0-8.635 5.21-12.951 15.633-12.951a31.707 31.707 0 0 1 18.462 6.204c5.898 4.136 9.446 9.073 10.646 14.812l10.96 51.185h17.968l-17.61-83.06h-17.966l2.515 11.712c-6.71-8.841-18.328-13.261-34.858-13.261-7.488 0-13.327 1.913-17.52 5.738-4.192 3.826-6.29 9.255-6.288 16.286.025 2.712.326 5.415.899 8.065l11.14 54.52h17.968z" fill="#c95228"/>
        <path d="M151.16 128.44l-11.23-52.968a30.587 30.587 0 0 1-.718-6.282c0-8.635 5.21-12.951 15.633-12.951a31.707 31.707 0 0 1 18.462 6.204c5.898 4.136 9.446 9.073 10.646 14.812l10.96 51.185h17.968l-17.61-83.06h-17.966l2.515 11.712c-6.71-8.841-18.328-13.261-34.858-13.261-7.488 0-13.327 1.913-17.52 5.738-4.192 3.826-6.29 9.255-6.288 16.286.025 2.712.326 5.415.899 8.065l11.14 54.52h17.968z" fill="none" stroke="#c95228" stroke-width="6.613" stroke-linejoin="round"/>
        <path d="M215.666 50.344l8.895 13.96a34.308 34.308 0 0 1 10.061-5.545 32.267 32.267 0 0 1 11.231-2.52c5.33 0 9.731 1.241 13.206 3.722a11.765 11.765 0 0 1 5.211 10.082 7.792 7.792 0 0 1-2.741 5.817c-1.827 1.706-4.987 3.671-9.478 5.893l-12.667 6.05a21.67 21.67 0 0 0-8.76 7.251 16.55 16.55 0 0 0-2.92 9.345c0 7.703 3.474 13.894 10.422 18.574 6.947 4.68 15.481 7.018 25.604 7.018 7.008 0 15.453-1.913 25.335-5.739l-7.636-13.649a29.935 29.935 0 0 1-18.956 6.98c-4.08.107-8.11-.927-11.634-2.986-3.266-1.99-4.899-4.615-4.897-7.872a8.034 8.034 0 0 1 2.786-6.126c1.855-1.706 5.059-3.619 9.612-5.739l12.578-5.894a20.677 20.677 0 0 0 8.714-6.98 16.324 16.324 0 0 0 2.875-9.306c0-8.894-3.729-15.925-11.185-21.095-7.457-5.17-16.935-7.756-28.434-7.755a56.265 56.265 0 0 0-27.222 6.514" fill="#c95228"/>
        <path d="M215.666 50.344l8.895 13.96a34.308 34.308 0 0 1 10.061-5.545 32.267 32.267 0 0 1 11.231-2.52c5.33 0 9.731 1.241 13.206 3.722a11.765 11.765 0 0 1 5.211 10.082 7.792 7.792 0 0 1-2.741 5.817c-1.827 1.706-4.987 3.671-9.478 5.893l-12.667 6.05a21.67 21.67 0 0 0-8.76 7.251 16.55 16.55 0 0 0-2.92 9.345c0 7.703 3.474 13.894 10.422 18.574 6.947 4.68 15.481 7.018 25.604 7.018 7.008 0 15.453-1.913 25.335-5.739l-7.636-13.649a29.935 29.935 0 0 1-18.956 6.98c-4.08.107-8.11-.927-11.634-2.986-3.266-1.99-4.899-4.615-4.897-7.872a8.034 8.034 0 0 1 2.786-6.126c1.855-1.706 5.059-3.619 9.612-5.739l12.578-5.894a20.677 20.677 0 0 0 8.714-6.98 16.324 16.324 0 0 0 2.875-9.306c0-8.894-3.729-15.925-11.185-21.095-7.457-5.17-16.935-7.756-28.434-7.755a56.265 56.265 0 0 0-27.222 6.514z" fill="none" stroke="#c95228" stroke-width="6.613" stroke-linejoin="round"/>
        <path d="M355.457 45.381l10.691 52.193c.397 1.863.607 3.758.629 5.661 0 9.565-5.39 14.347-16.171 14.347a31.47 31.47 0 0 1-13.072-3.14 38.049 38.049 0 0 1-11.096-7.329l-12.667-61.732h-17.428l23.448 117.104h16.979l-7.906-43.196c2.935 3.05 7.142 5.597 12.623 7.64a46.452 46.452 0 0 0 16.306 3.062c8.504 0 15.106-2.093 19.81-6.282 4.701-4.187 7.051-10.08 7.052-17.682a43.277 43.277 0 0 0-.898-8.453l-10.691-52.193h-17.609z" fill="#c95228"/>
        <path d="M355.457 45.381l10.691 52.193c.397 1.863.607 3.758.629 5.661 0 9.565-5.39 14.347-16.171 14.347a31.47 31.47 0 0 1-13.072-3.14 38.049 38.049 0 0 1-11.096-7.329l-12.667-61.732h-17.428l23.448 117.104h16.979l-7.906-43.196c2.935 3.05 7.142 5.597 12.623 7.64a46.452 46.452 0 0 0 16.306 3.062c8.504 0 15.106-2.093 19.81-6.282 4.701-4.187 7.051-10.08 7.052-17.682a43.277 43.277 0 0 0-.898-8.453l-10.691-52.193h-17.609z" fill="none" stroke="#c95228" stroke-width="6.613" stroke-linejoin="round"/>
    </g>
</svg>
