<svg viewBox="0 0 1348 235" xmlns="http://www.w3.org/2000/svg" fill-rule="evenodd" clip-rule="evenodd"
     stroke-linejoin="round" stroke-miterlimit="2">
    <path d="M417.868 45.251H310.526v19.932h42.228v124.766h22.443V65.183h42.671V45.251zM486.378 163.962c-5.906 6.054-13.141 9.007-21.557 9.007-9.006 0-16.389-3.101-22.148-9.007-5.61-6.053-8.563-13.732-8.563-23.181 0-9.892 2.953-18.013 8.859-24.067 5.906-6.054 13.288-9.155 22-9.155 8.711 0 15.946 3.248 21.705 9.598 5.758 6.349 8.563 14.322 8.563 23.624 0 9.449-2.953 17.128-8.859 23.181zm8.121-61.127h-2.362l-.591-.443c-2.511-2.953-5.168-5.316-8.268-7.235l-2.215-1.329-1.772-.886c-.591-.295-1.329-.591-2.067-.886-.296-.147-.738-.295-1.034-.443-2.362-.885-4.725-1.476-7.234-1.919-.739-.148-1.477-.295-2.216-.295-1.919-.148-3.838-.296-5.758-.296-6.792 0-13.14 1.329-18.9 3.839-5.905 2.51-10.925 6.201-15.207 10.631-4.282 4.429-7.53 10.04-10.041 16.389-2.51 6.349-3.69 13.437-3.69 20.819 0 7.53 1.18 14.618 3.69 20.966 2.511 6.349 5.759 11.812 10.041 16.095 4.134 4.281 9.302 7.677 15.207 10.188a51.673 51.673 0 0 0 19.195 3.69c13.437 0 23.92-5.019 31.45-14.764l.443-.591h2.363v13.732h19.636V90.58h-20.67v12.255zM632.7 90.58h-24.067l-41.637 46.657h-2.363V39.049l-20.671 16.98v133.92h20.671v-23.034l17.866-19.932h1.772l26.429 42.966h23.181l-36.617-59.651L632.7 90.58zM663.707 130.888l.443-1.771c1.772-6.792 5.02-12.256 10.04-15.947 4.873-3.691 10.779-5.61 17.571-5.61 6.791 0 12.55 1.919 17.128 5.906 4.429 3.838 7.53 9.154 9.006 15.798l.443 1.772-54.631-.148zm52.269-35.289c-7.383-4.281-15.947-6.496-25.396-6.496-6.792 0-13.289 1.181-19.195 3.691-5.906 2.511-11.074 5.907-15.355 10.336-4.283 4.43-7.679 9.893-10.188 16.241-2.511 6.349-3.692 13.437-3.692 20.819 0 10.188 2.215 19.195 6.644 27.02 4.43 7.826 10.484 13.88 18.162 18.014 7.677 4.134 16.389 6.201 25.986 6.201 9.302 0 17.571-1.771 24.658-5.02 6.644-3.101 12.107-7.382 16.537-12.698l-14.322-12.255c-6.497 7.678-15.208 11.517-25.544 11.517-7.825 0-14.47-2.215-19.933-6.497-5.463-4.282-9.007-10.335-10.483-17.866l-.295-1.624h74.859c.294-2.215.443-4.872.443-7.973 0-9.597-1.92-18.309-5.906-25.839-3.987-7.383-9.597-13.288-16.98-17.571zM855.358 129.855c-1.033-2.215-2.805-4.43-5.019-6.645-2.364-2.214-4.578-4.134-6.35-5.463-1.771-1.329-4.429-2.953-8.12-4.725-3.692-1.771-6.645-3.1-8.86-3.986-2.362-1.033-5.906-2.362-10.188-3.987-1.033-.442-1.771-.737-2.362-.886h-.147c-.148 0-.148-.146-.296-.146h-.148c-2.805-1.035-4.429-1.625-5.61-2.068-1.329-.443-2.953-1.182-4.873-2.067-2.067-.886-3.543-1.624-4.577-2.067-1.033-.591-2.215-1.182-3.691-2.067-1.624-.887-2.658-1.625-3.396-2.363-.738-.591-1.476-1.477-2.363-2.362-1.033-1.034-1.623-2.067-2.067-2.953-.443-.887-.738-1.919-1.033-3.101a14.852 14.852 0 0 1-.443-3.692c0-5.758 2.215-10.483 6.496-13.879 4.135-3.248 9.45-5.02 15.652-5.02 10.483 0 22 4.873 33.959 14.617l13.289-17.57c-14.913-11.221-30.712-16.98-46.953-16.98h-.295c-8.121 0-15.8 1.772-22.739 5.315-6.94 3.544-12.55 8.417-16.537 14.618-3.986 6.054-6.053 12.994-6.053 20.228 0 3.692.442 7.088 1.329 10.188a41.37 41.37 0 0 0 3.396 8.564c1.328 2.363 3.248 4.725 5.463 6.939a75.361 75.361 0 0 0 6.939 5.76c2.214 1.623 5.02 3.248 8.269 4.872a150.66 150.66 0 0 0 9.006 4.134c2.806 1.033 5.906 2.362 9.597 3.543a432.84 432.84 0 0 1 7.531 2.806c1.919.738 3.987 1.624 6.349 2.657 2.361 1.035 4.134 1.92 5.611 2.806 1.328.886 2.805 1.919 4.133 3.101 1.477 1.181 2.658 2.51 3.397 3.839.738 1.328 1.328 2.805 1.772 4.429.443 1.624.738 3.544.738 5.463 0 6.054-2.363 10.926-6.792 14.47-4.43 3.396-10.926 5.168-19.194 5.168-6.793 0-13.733-1.772-20.672-5.168-6.497-3.248-12.256-7.825-17.422-13.732l-14.175 17.425c7.235 7.085 15.355 12.548 24.066 16.092 9.007 3.692 18.457 5.611 28.055 5.611 4.724 0 9.449-.59 14.026-1.625 4.578-1.032 9.155-2.805 13.437-5.019 4.281-2.363 8.121-5.168 11.369-8.417 3.248-3.248 5.906-7.234 7.825-12.107 1.92-4.724 2.953-10.04 2.953-15.799 0-3.691-.443-7.234-1.181-10.483-1.034-3.248-1.919-6.054-3.101-8.268zM965.211 98.553c-3.249-3.249-7.087-5.611-11.517-7.088-4.43-1.476-9.45-2.362-15.061-2.362-6.644 0-12.993 1.182-18.751 3.543-5.758 2.363-10.631 5.759-14.765 10.336l-.443.443h-2.363V38.901L881.64 56.029v133.919h20.671v-50.496c0-10.188 2.51-18.161 7.678-23.624 5.168-5.463 12.256-8.269 21.114-8.269 7.678 0 13.732 2.215 17.571 6.792 3.987 4.43 5.905 11.812 5.905 21.852v53.745h20.672V130.15c0-7.235-.886-13.584-2.657-19.047-1.477-5.168-3.987-9.45-7.383-12.55zM1078.02 140.781c0 9.45-2.96 17.128-8.86 23.181-5.91 6.054-13.14 9.007-21.56 9.007-9.01 0-16.39-3.101-22.15-9.007-5.61-6.053-8.56-13.731-8.56-23.181 0-9.893 2.95-18.014 8.86-24.067 5.9-6.054 13.29-9.154 22-9.154s15.94 3.248 21.7 9.597c5.61 6.349 8.57 14.322 8.57 23.624zm-.89-37.946h-2.36l-.59-.444c-7.39-8.859-17.72-13.288-30.57-13.288-6.79 0-13.14 1.329-18.9 3.839-5.9 2.51-10.92 6.201-15.2 10.631-4.29 4.429-7.53 10.04-10.044 16.389-2.51 6.349-3.691 13.437-3.691 20.819 0 7.531 1.181 14.617 3.691 20.967 2.514 6.348 5.754 11.812 10.044 16.093 4.13 4.282 9.3 7.678 15.2 10.188a51.696 51.696 0 0 0 19.2 3.691c13.43 0 23.92-5.02 31.45-14.764l.44-.591h2.36v13.731h19.64V90.58h-20.67v12.255zM1206.03 140.928c0 9.45-2.95 17.128-8.56 23.182-5.76 5.906-13.14 9.006-22.15 9.006-8.86 0-16.39-3.1-22.3-9.006-6.05-5.906-9-13.732-9-23.182v-.076-.071c0-9.45 2.95-17.423 8.71-23.772 5.76-6.349 13.29-9.597 22.44-9.597 8.71 0 16.09 3.1 22 9.154 5.91 6.053 8.86 14.174 8.86 24.067 0 .051-.01.098-.01.149 0 .05.01.097.01.146zm7.23-37.356c-4.28-4.428-9.3-8.12-15.2-10.63a48.078 48.078 0 0 0-18.9-3.839c-13.14 0-23.77 4.577-31.3 13.436l-.45.443h-2.36V90.579h-20.67v140.712h20.67v-53.893h2.36l.45.443c7.38 9.155 18.01 13.732 31.15 13.732 6.79 0 13.29-1.181 19.19-3.692 5.91-2.361 11.08-5.758 15.21-10.187 4.28-4.282 7.53-9.745 10.04-16.094 2.51-6.35 3.69-13.436 3.69-20.967-.14-7.235-1.32-14.174-3.83-20.671-2.51-6.349-5.76-11.959-10.05-16.39z"
          fill="#5539d2" fill-rule="nonzero"/>
    <path d="M1196.88 163.372c-5.47 5.906-12.85 8.859-21.56 8.859-8.56 0-15.8-2.953-21.71-8.712-5.75-5.758-8.71-13.436-8.71-22.738s2.81-16.98 8.42-23.181c5.61-6.202 12.99-9.302 21.85-9.302 8.56 0 15.65 2.952 21.41 8.859 5.76 5.906 8.56 13.879 8.56 23.476 0 9.302-2.8 16.98-8.26 22.739zm-21.71-55.813c-9.01 0-16.68 3.249-22.44 9.598-5.74 6.331-8.69 14.279-8.71 23.695.02 9.417 3.11 17.219 9 23.11 6.06 6.054 13.44 9.007 22.3 9.007 9.01 0 16.39-2.953 22.15-9.007 5.58-5.874 8.52-13.652 8.55-23.18-.03-9.825-2.97-17.898-8.85-23.921-5.9-6.201-13.29-9.302-22-9.302z"
          fill="#5539d2" fill-rule="nonzero"/>
    <path d="M1347.38 106.249h-.01v.001l.01-.001z" fill="#5539d2"/>
    <path d="M1266.57 128.969l.44-1.772c1.77-6.792 5.02-12.255 10.04-15.946 4.87-3.692 10.78-5.611 17.57-5.611 6.79 0 12.55 1.919 17.13 5.906 4.43 3.839 7.53 9.155 9.01 15.798l.44 1.772-54.63-.147zm75.15 8.121c-.15-9.45-2.21-18.162-6.05-25.692-3.84-7.53-9.6-13.436-16.83-17.718-7.39-4.282-15.95-6.496-25.4-6.496-6.79 0-13.29 1.18-19.2 3.691-5.9 2.51-11.07 5.906-15.35 10.335-4.28 4.43-7.68 9.893-10.19 16.242s-3.69 13.437-3.69 20.819c0 10.188 2.21 19.195 6.64 27.02 4.43 7.826 10.49 13.879 18.17 18.014 7.67 4.134 16.38 6.201 25.98 6.201 9.3 0 17.57-1.772 24.66-5.021 6.64-3.1 12.11-7.382 16.54-12.697l-14.33-12.255c-6.49 7.677-15.21 11.516-25.54 11.516-7.83 0-14.47-2.215-19.93-6.497-5.46-4.281-9.01-10.335-10.49-17.865l-.29-1.624h74.86c.29-2.215.44-4.873.44-7.973z"
          fill="#5539d2" fill-rule="nonzero"/>
    <path d="M276.22 117.64L159.392 234.47 42.562 117.641 159.39.812 276.22 117.64z" fill="#5edeb3"/>
    <path d="M276.22 117.64L159.392 234.47 42.562 117.641 159.39.812 276.22 117.64z" fill="none" stroke="#69ffcd"
          stroke-width=".75"/>
    <path d="M15.208 188.472V46.58h81.799l15.207-15.357H1.5L0 204.566h111.476l-16.094-16.094H15.208zM128.914 31.224L113.707 46.58h49.02v141.892h-49.315l16.094 16.095h48.429V31.224h-49.021z"
          fill="#5539d2" fill-rule="nonzero"/>
</svg>
