<svg version="1.1" xmlns="http://www.w3.org/2000/svg" viewBox="0 0 300 202">
  <style>
    .font { font-family: sans-serif; }
    .s3 { font-size: 3px; }
    .s4 { font-size: 4px; }
    .s5 { font-size: 5px; }
    .line { stroke: #cacaca; }
    .width { stroke-width: 0.5; }
    .text { fill: #888; }
  </style>
  <rect x="0" y="0" width="300" height="202" fill="#fff"></rect>
  <circle cx="44" cy="6" r="4" fill="#fbae00"></circle>
  <text x="44" y="14" class="font s4" text-anchor="middle">pnpm</text>
  <text x="44" y="18" class="font s3" text-anchor="middle">v11.2.2</text>
  <circle cx="60" cy="6" r="4" fill="#fbae00"></circle>
  <text x="60" y="14" class="font s4" text-anchor="middle">pnpm 🦀</text>
  <text x="60" y="18" class="font s3" text-anchor="middle">v12</text>
  <text x="40" y="28" class="font s5 text" text-anchor="middle">0</text>
  <text x="40" y="193" class="font s5 text" text-anchor="middle">0</text>
  <line x1="90" y1="31" x2="90" y2="188" class="line width"></line>
  <text x="90" y="28" class="font s5 text" text-anchor="middle">6</text>
  <text x="90" y="193" class="font s5 text" text-anchor="middle">6</text>
  <line x1="140" y1="31" x2="140" y2="188" class="line width"></line>
  <text x="140" y="28" class="font s5 text" text-anchor="middle">12</text>
  <text x="140" y="193" class="font s5 text" text-anchor="middle">12</text>
  <line x1="190" y1="31" x2="190" y2="188" class="line width"></line>
  <text x="190" y="28" class="font s5 text" text-anchor="middle">18</text>
  <text x="190" y="193" class="font s5 text" text-anchor="middle">18</text>
  <line x1="240.00000000000003" y1="31" x2="240.00000000000003" y2="188" class="line width"></line>
  <text x="240.00000000000003" y="28" class="font s5 text" text-anchor="middle">24</text>
  <text x="240.00000000000003" y="193" class="font s5 text" text-anchor="middle">24</text>
  <line x1="290" y1="31" x2="290" y2="188" class="line width"></line>
  <text x="290" y="28" class="font s5 text" text-anchor="middle">30</text>
  <text x="290" y="193" class="font s5 text" text-anchor="middle">30</text>
  <text x="290" y="20" class="font s4 text" font-style="italic" text-anchor="end">Installation time in seconds (lower is better)</text>
  <rect x="40" y="35" width="63" height="6" fill="#fbae00" rx="1" ry="1"></rect>
  <rect x="40" y="41.5" width="96" height="6" fill="#fbae00" rx="1" ry="1"></rect>
  <text x="138" y="44.5" class="font" font-size="7" dominant-baseline="central">🦀</text>
  <rect x="40" y="52" width="4" height="6" fill="#fbae00" rx="1" ry="1"></rect>
  <rect x="40" y="58.5" width="3" height="6" fill="#fbae00" rx="1" ry="1"></rect>
  <text x="45" y="61.5" class="font" font-size="7" dominant-baseline="central">🦀</text>
  <rect x="40" y="69" width="15" height="6" fill="#fbae00" rx="1" ry="1"></rect>
  <rect x="40" y="75.5" width="6" height="6" fill="#fbae00" rx="1" ry="1"></rect>
  <text x="48" y="78.5" class="font" font-size="7" dominant-baseline="central">🦀</text>
  <rect x="40" y="86" width="30" height="6" fill="#fbae00" rx="1" ry="1"></rect>
  <rect x="40" y="92.5" width="203" height="6" fill="#fbae00" rx="1" ry="1"></rect>
  <text x="245" y="95.5" class="font" font-size="7" dominant-baseline="central">🦀</text>
  <rect x="40" y="103" width="58" height="6" fill="#fbae00" rx="1" ry="1"></rect>
  <rect x="40" y="109.5" width="33" height="6" fill="#fbae00" rx="1" ry="1"></rect>
  <text x="75" y="112.5" class="font" font-size="7" dominant-baseline="central">🦀</text>
  <rect x="40" y="120" width="43" height="6" fill="#fbae00" rx="1" ry="1"></rect>
  <rect x="40" y="126.5" width="193" height="6" fill="#fbae00" rx="1" ry="1"></rect>
  <text x="235" y="129.5" class="font" font-size="7" dominant-baseline="central">🦀</text>
  <rect x="40" y="137" width="3" height="6" fill="#fbae00" rx="1" ry="1"></rect>
  <rect x="40" y="143.5" width="2" height="6" fill="#fbae00" rx="1" ry="1"></rect>
  <text x="44" y="146.5" class="font" font-size="7" dominant-baseline="central">🦀</text>
  <rect x="40" y="154" width="65" height="6" fill="#fbae00" rx="1" ry="1"></rect>
  <rect x="40" y="160.5" width="237" height="6" fill="#fbae00" rx="1" ry="1"></rect>
  <text x="279" y="163.5" class="font" font-size="7" dominant-baseline="central">🦀</text>
  <rect x="40" y="171" width="30" height="6" fill="#fbae00" rx="1" ry="1"></rect>
  <rect x="40" y="177.5" width="198" height="6" fill="#fbae00" rx="1" ry="1"></rect>
  <text x="240" y="180.5" class="font" font-size="7" dominant-baseline="central">🦀</text>
  <line x1="40" y1="31" x2="40" y2="188" class="line"></line>
  <text x="38" y="44.5" class="font s4" dominant-baseline="middle" text-anchor="end">clean install</text>
  <text x="38" y="57.5" class="font s4" dominant-baseline="middle" text-anchor="end">with cache</text>
  <text x="38" y="61.5" class="font s4" dominant-baseline="middle" text-anchor="end">with lockfile</text>
  <text x="38" y="65.5" class="font s4" dominant-baseline="middle" text-anchor="end">with node_modules</text>
  <text x="38" y="76.5" class="font s4" dominant-baseline="middle" text-anchor="end">with cache</text>
  <text x="38" y="80.5" class="font s4" dominant-baseline="middle" text-anchor="end">with lockfile</text>
  <text x="38" y="95.5" class="font s4" dominant-baseline="middle" text-anchor="end">with cache</text>
  <text x="38" y="112.5" class="font s4" dominant-baseline="middle" text-anchor="end">with lockfile</text>
  <text x="38" y="127.5" class="font s4" dominant-baseline="middle" text-anchor="end">with cache</text>
  <text x="38" y="131.5" class="font s4" dominant-baseline="middle" text-anchor="end">with node_modules</text>
  <text x="38" y="144.5" class="font s4" dominant-baseline="middle" text-anchor="end">with node_modules</text>
  <text x="38" y="148.5" class="font s4" dominant-baseline="middle" text-anchor="end">with lockfile</text>
  <text x="38" y="163.5" class="font s4" dominant-baseline="middle" text-anchor="end">with node_modules</text>
  <text x="38" y="180.5" class="font s4" dominant-baseline="middle" text-anchor="end">update</text>
  <text x="290" y="200" class="font s4 text" text-anchor="end">Tests were run using Node.js v24.15.0 at: May 22, 2026, 12:43 AM</text>
</svg>
