<svg version="1.1" xmlns="http://www.w3.org/2000/svg" viewBox="0 0 300 385.5">
  <style>
    .font { font-family: sans-serif; }
    .s3 { font-size: 3px; }
    .s4 { font-size: 4px; }
    .s5 { font-size: 5px; }
    .line { stroke: #cacaca; }
    .width { stroke-width: 0.5; }
    .text { fill: #888; }
  </style>
  <rect x="0" y="0" width="300" height="385.5" fill="#fff"></rect>
  <circle cx="44" cy="6" r="4" fill="#cd3731"></circle>
  <text x="44" y="14" class="font s4" text-anchor="middle">npm</text>
  <text x="44" y="18" class="font s3" text-anchor="middle">v12.0.2</text>
  <circle cx="80" cy="6" r="4" fill="#fbae00"></circle>
  <text x="80" y="14" class="font s4" text-anchor="middle">pnpm 🦀</text>
  <text x="80" y="18" class="font s3" text-anchor="middle">v12</text>
  <circle cx="116" cy="6" r="4" fill="#cccccc"></circle>
  <text x="116" y="14" class="font s4" text-anchor="middle">pnpm 11 extra</text>
  <circle cx="152" cy="6" r="4" fill="#248ebd"></circle>
  <text x="152" y="14" class="font s4" text-anchor="middle">Yarn</text>
  <text x="152" y="18" class="font s3" text-anchor="middle">v6.0.0-rc.19</text>
  <circle cx="188" cy="6" r="4" fill="#40a9ff"></circle>
  <text x="188" y="14" class="font s4" text-anchor="middle">Yarn PnP</text>
  <text x="188" y="18" class="font s3" text-anchor="middle">v6.0.0-rc.19</text>
  <circle cx="224" cy="6" r="4" fill="#e0709a"></circle>
  <text x="224" y="14" class="font s4" text-anchor="middle">Bun</text>
  <text x="224" y="18" class="font s3" text-anchor="middle">v1.3.14</text>
  <text x="40" y="36" class="font s5 text" text-anchor="middle">0</text>
  <text x="40" y="376.5" class="font s5 text" text-anchor="middle">0</text>
  <line x1="90" y1="39" x2="90" y2="371.5" class="line width"></line>
  <text x="90" y="36" class="font s5 text" text-anchor="middle">12</text>
  <text x="90" y="376.5" class="font s5 text" text-anchor="middle">12</text>
  <line x1="140" y1="39" x2="140" y2="371.5" class="line width"></line>
  <text x="140" y="36" class="font s5 text" text-anchor="middle">24</text>
  <text x="140" y="376.5" class="font s5 text" text-anchor="middle">24</text>
  <line x1="190" y1="39" x2="190" y2="371.5" class="line width"></line>
  <text x="190" y="36" class="font s5 text" text-anchor="middle">36</text>
  <text x="190" y="376.5" class="font s5 text" text-anchor="middle">36</text>
  <line x1="240.00000000000003" y1="39" x2="240.00000000000003" y2="371.5" class="line width"></line>
  <text x="240.00000000000003" y="36" class="font s5 text" text-anchor="middle">48</text>
  <text x="240.00000000000003" y="376.5" class="font s5 text" text-anchor="middle">48</text>
  <line x1="290" y1="39" x2="290" y2="371.5" class="line width"></line>
  <text x="290" y="36" class="font s5 text" text-anchor="middle">60</text>
  <text x="290" y="376.5" class="font s5 text" text-anchor="middle">60</text>
  <text x="290" y="28" class="font s4 text" font-style="italic" text-anchor="end">Installation time in seconds (lower is better)</text>
  <rect x="40" y="43" width="244" height="6" fill="#cd3731" rx="1" ry="1"></rect>
  <rect x="40" y="49.5" width="34" height="6" fill="#cccccc" rx="1" ry="1"></rect>
  <rect x="40" y="49.5" width="9" height="6" fill="#fbae00" rx="1" ry="1"></rect>
  <rect x="40" y="56" width="29" height="6" fill="#248ebd" rx="1" ry="1"></rect>
  <rect x="40" y="62.5" width="15" height="6" fill="#40a9ff" rx="1" ry="1"></rect>
  <rect x="40" y="69" width="18" height="6" fill="#e0709a" rx="1" ry="1"></rect>
  <rect x="40" y="79.5" width="231" height="6" fill="#cd3731" rx="1" ry="1"></rect>
  <rect x="40" y="86" width="19" height="6" fill="#cccccc" rx="1" ry="1"></rect>
  <rect x="40" y="86" width="5" height="6" fill="#fbae00" rx="1" ry="1"></rect>
  <rect x="40" y="92.5" width="23" height="6" fill="#248ebd" rx="1" ry="1"></rect>
  <rect x="40" y="99" width="15" height="6" fill="#40a9ff" rx="1" ry="1"></rect>
  <rect x="40" y="105.5" width="3" height="6" fill="#e0709a" rx="1" ry="1"></rect>
  <rect x="40" y="116" width="56" height="6" fill="#cd3731" rx="1" ry="1"></rect>
  <rect x="40" y="122.5" width="29" height="6" fill="#cccccc" rx="1" ry="1"></rect>
  <rect x="40" y="122.5" width="10" height="6" fill="#fbae00" rx="1" ry="1"></rect>
  <rect x="40" y="129" width="19" height="6" fill="#248ebd" rx="1" ry="1"></rect>
  <rect x="40" y="135.5" width="5" height="6" fill="#40a9ff" rx="1" ry="1"></rect>
  <rect x="40" y="142" width="8" height="6" fill="#e0709a" rx="1" ry="1"></rect>
  <rect x="40" y="152.5" width="43" height="6" fill="#cd3731" rx="1" ry="1"></rect>
  <rect x="40" y="159" width="10" height="6" fill="#cccccc" rx="1" ry="1"></rect>
  <rect x="40" y="159" width="3" height="6" fill="#fbae00" rx="1" ry="1"></rect>
  <rect x="40" y="165.5" width="9" height="6" fill="#248ebd" rx="1" ry="1"></rect>
  <rect x="40" y="172" width="0" height="6" fill="#40a9ff" rx="1" ry="1"></rect>
  <rect x="40" y="178.5" width="3" height="6" fill="#e0709a" rx="1" ry="1"></rect>
  <rect x="40" y="189" width="8" height="6" fill="#cd3731" rx="1" ry="1"></rect>
  <rect x="40" y="195.5" width="3" height="6" fill="#cccccc" rx="1" ry="1"></rect>
  <rect x="40" y="202" width="16" height="6" fill="#248ebd" rx="1" ry="1"></rect>
  <rect x="40" y="208.5" width="0" height="6" fill="#40a9ff" rx="1" ry="1"></rect>
  <rect x="40" y="215" width="8" height="6" fill="#e0709a" rx="1" ry="1"></rect>
  <rect x="40" y="225.5" width="8" height="6" fill="#cd3731" rx="1" ry="1"></rect>
  <rect x="40" y="232" width="3" height="6" fill="#cccccc" rx="1" ry="1"></rect>
  <rect x="40" y="238.5" width="31" height="6" fill="#248ebd" rx="1" ry="1"></rect>
  <rect x="40" y="245" width="0" height="6" fill="#40a9ff" rx="1" ry="1"></rect>
  <rect x="40" y="251.5" width="15" height="6" fill="#e0709a" rx="1" ry="1"></rect>
  <rect x="40" y="262" width="6" height="6" fill="#cd3731" rx="1" ry="1"></rect>
  <rect x="40" y="268.5" width="2" height="6" fill="#cccccc" rx="1" ry="1"></rect>
  <rect x="40" y="275" width="5" height="6" fill="#248ebd" rx="1" ry="1"></rect>
  <rect x="40" y="281.5" width="0" height="6" fill="#40a9ff" rx="1" ry="1"></rect>
  <rect x="40" y="288" width="0" height="6" fill="#e0709a" rx="1" ry="1"></rect>
  <rect x="40" y="298.5" width="6" height="6" fill="#cd3731" rx="1" ry="1"></rect>
  <rect x="40" y="305" width="2" height="6" fill="#cccccc" rx="1" ry="1"></rect>
  <rect x="40" y="311.5" width="21" height="6" fill="#248ebd" rx="1" ry="1"></rect>
  <rect x="40" y="318" width="0" height="6" fill="#40a9ff" rx="1" ry="1"></rect>
  <rect x="40" y="324.5" width="0" height="6" fill="#e0709a" rx="1" ry="1"></rect>
  <rect x="40" y="335" width="42" height="6" fill="#cd3731" rx="1" ry="1"></rect>
  <rect x="40" y="341.5" width="35" height="6" fill="#cccccc" rx="1" ry="1"></rect>
  <rect x="40" y="341.5" width="5" height="6" fill="#fbae00" rx="1" ry="1"></rect>
  <rect x="40" y="348" width="11" height="6" fill="#248ebd" rx="1" ry="1"></rect>
  <rect x="40" y="354.5" width="11" height="6" fill="#40a9ff" rx="1" ry="1"></rect>
  <rect x="40" y="361" width="3" height="6" fill="#e0709a" rx="1" ry="1"></rect>
  <line x1="40" y1="39" x2="40" y2="371.5" class="line"></line>
  <text x="38" y="59" class="font s4" dominant-baseline="middle" text-anchor="end">clean</text>
  <text x="38" y="95.5" class="font s4" dominant-baseline="middle" text-anchor="end">cache</text>
  <text x="38" y="132" class="font s4" dominant-baseline="middle" text-anchor="end">lockfile</text>
  <text x="38" y="166.5" class="font s4" dominant-baseline="middle" text-anchor="end">cache</text>
  <text x="38" y="170.5" class="font s4" dominant-baseline="middle" text-anchor="end">lockfile</text>
  <text x="38" y="203" class="font s4" dominant-baseline="middle" text-anchor="end">cache</text>
  <text x="38" y="207" class="font s4" dominant-baseline="middle" text-anchor="end">node_modules</text>
  <text x="38" y="241.5" class="font s4" dominant-baseline="middle" text-anchor="end">node_modules</text>
  <text x="38" y="274" class="font s4" dominant-baseline="middle" text-anchor="end">cache</text>
  <text x="38" y="278" class="font s4" dominant-baseline="middle" text-anchor="end">lockfile</text>
  <text x="38" y="282" class="font s4" dominant-baseline="middle" text-anchor="end">node_modules</text>
  <text x="38" y="312.5" class="font s4" dominant-baseline="middle" text-anchor="end">lockfile</text>
  <text x="38" y="316.5" class="font s4" dominant-baseline="middle" text-anchor="end">node_modules</text>
  <text x="38" y="351" class="font s4" dominant-baseline="middle" text-anchor="end">update</text>
  <text x="290" y="383.5" class="font s4 text" text-anchor="end">Tests were run using Node.js v24.19.0 at: Aug 14, 2026, 8:47 AM</text>
</svg>
