<svg version="1.1" xmlns="http://www.w3.org/2000/svg" viewBox="0 0 300 180">
  <style>
    .font { font-family: sans-serif; }
    .s3 { font-size: 3px; }
    .s4 { font-size: 4px; }
    .s5 { font-size: 5px; }
    .line { stroke: #cacaca; }
    .width { stroke-width: 0.5; }
    .text { fill: #888; }
  </style>
  <rect x="0" y="0" width="300" height="180" fill="#fff"></rect>
  <circle cx="44" cy="6" r="4" fill="#fbae00"></circle>
  <text x="50" y="7" class="font s4" dominant-baseline="middle" text-anchor="start">pnpm 12</text>
  <circle cx="124" cy="6" r="4" fill="#cccccc"></circle>
  <text x="130" y="7" class="font s4" dominant-baseline="middle" text-anchor="start">additional time pnpm 11 takes</text>
  <text x="40" y="28" class="font s5 text" text-anchor="middle">0</text>
  <text x="40" y="170" class="font s5 text" text-anchor="middle">0</text>
  <line x1="90" y1="30" x2="90" y2="165" class="line width"></line>
  <text x="90" y="28" class="font s5 text" text-anchor="middle">2</text>
  <text x="90" y="170" class="font s5 text" text-anchor="middle">2</text>
  <line x1="140" y1="30" x2="140" y2="165" class="line width"></line>
  <text x="140" y="28" class="font s5 text" text-anchor="middle">4</text>
  <text x="140" y="170" class="font s5 text" text-anchor="middle">4</text>
  <line x1="190" y1="30" x2="190" y2="165" class="line width"></line>
  <text x="190" y="28" class="font s5 text" text-anchor="middle">6</text>
  <text x="190" y="170" class="font s5 text" text-anchor="middle">6</text>
  <line x1="240" y1="30" x2="240" y2="165" class="line width"></line>
  <text x="240" y="28" class="font s5 text" text-anchor="middle">8</text>
  <text x="240" y="170" class="font s5 text" text-anchor="middle">8</text>
  <line x1="290" y1="30" x2="290" y2="165" class="line width"></line>
  <text x="290" y="28" class="font s5 text" text-anchor="middle">10</text>
  <text x="290" y="170" class="font s5 text" text-anchor="middle">10</text>
  <text x="290" y="20" class="font s4 text" font-style="italic" text-anchor="end">Installation time in seconds (lower is better)</text>
  <rect x="40" y="35" width="200" height="10" fill="#cccccc" rx="1" ry="1"></rect>
  <rect x="40" y="35" width="55" height="10" fill="#fbae00" rx="1" ry="1"></rect>
  <rect x="40" y="50" width="160" height="10" fill="#cccccc" rx="1" ry="1"></rect>
  <rect x="40" y="50" width="48" height="10" fill="#fbae00" rx="1" ry="1"></rect>
  <rect x="40" y="65" width="115" height="10" fill="#cccccc" rx="1" ry="1"></rect>
  <rect x="40" y="65" width="35" height="10" fill="#fbae00" rx="1" ry="1"></rect>
  <rect x="40" y="80" width="55" height="10" fill="#cccccc" rx="1" ry="1"></rect>
  <rect x="40" y="80" width="15" height="10" fill="#fbae00" rx="1" ry="1"></rect>
  <rect x="40" y="95" width="15" height="10" fill="#cccccc" rx="1" ry="1"></rect>
  <rect x="40" y="95" width="3" height="10" fill="#fbae00" rx="1" ry="1"></rect>
  <rect x="40" y="110" width="15" height="10" fill="#cccccc" rx="1" ry="1"></rect>
  <rect x="40" y="110" width="25" height="10" fill="#fbae00" rx="1" ry="1"></rect>
  <rect x="40" y="125" width="13" height="10" fill="#cccccc" rx="1" ry="1"></rect>
  <rect x="40" y="125" width="1" height="10" fill="#fbae00" rx="1" ry="1"></rect>
  <rect x="40" y="140" width="13" height="10" fill="#cccccc" rx="1" ry="1"></rect>
  <rect x="40" y="140" width="1" height="10" fill="#fbae00" rx="1" ry="1"></rect>
  <rect x="40" y="155" width="210" height="10" fill="#cccccc" rx="1" ry="1"></rect>
  <rect x="40" y="155" width="50" height="10" fill="#fbae00" rx="1" ry="1"></rect>
  <line x1="40" y1="30" x2="40" y2="165" class="line"></line>
  <text x="38" y="40" class="font s4" dominant-baseline="middle" text-anchor="end">clean</text>
  <text x="38" y="55" class="font s4" dominant-baseline="middle" text-anchor="end">lockfile</text>
  <text x="38" y="70" class="font s4" dominant-baseline="middle" text-anchor="end">cache</text>
  <text x="38" y="83" class="font s4" dominant-baseline="middle" text-anchor="end">cache</text>
  <text x="38" y="87" class="font s4" dominant-baseline="middle" text-anchor="end">lockfile</text>
  <text x="38" y="100" class="font s4" dominant-baseline="middle" text-anchor="end">node_modules</text>
  <text x="38" y="113" class="font s4" dominant-baseline="middle" text-anchor="end">cache</text>
  <text x="38" y="117" class="font s4" dominant-baseline="middle" text-anchor="end">node_modules</text>
  <text x="38" y="128" class="font s4" dominant-baseline="middle" text-anchor="end">lockfile</text>
  <text x="38" y="132" class="font s4" dominant-baseline="middle" text-anchor="end">node_modules</text>
  <text x="38" y="141" class="font s4" dominant-baseline="middle" text-anchor="end">cache</text>
  <text x="38" y="145" class="font s4" dominant-baseline="middle" text-anchor="end">lockfile</text>
  <text x="38" y="149" class="font s4" dominant-baseline="middle" text-anchor="end">node_modules</text>
  <text x="38" y="160" class="font s4" dominant-baseline="middle" text-anchor="end">update</text>
  <text x="290" y="178" class="font s4 text" text-anchor="end">Tests were run using Node.js v24.16.0 at: Jun 18, 2026, 7:23 PM</text>
</svg>
