<svg version="1.1" xmlns="http://www.w3.org/2000/svg" viewBox="0 0 300 319">
  <style>
    .font { font-family: sans-serif; }
    .s3 { font-size: 3px; }
    .s4 { font-size: 4px; }
    .s5 { font-size: 5px; }
    .line { stroke: #cacaca; }
    .width { stroke-width: 0.5; }
    .text { fill: #888; }
  </style>
  <rect x="0" y="0" width="300" height="319" fill="#fff"></rect>
  <circle cx="44" cy="6" r="4" fill="#cd3731"></circle>
  <text x="44" y="14" class="font s4" text-anchor="middle">npm</text>
  <text x="44" y="18" class="font s3" text-anchor="middle">v11.15.0</text>
  <circle cx="80" cy="6" r="4" fill="#fbae00"></circle>
  <text x="80" y="14" class="font s4" text-anchor="middle">pnpm 🦀</text>
  <text x="80" y="18" class="font s3" text-anchor="middle">v12</text>
  <circle cx="116" cy="6" r="4" fill="#cccccc"></circle>
  <text x="116" y="14" class="font s4" text-anchor="middle">pnpm 11 extra</text>
  <circle cx="152" cy="6" r="4" fill="#248ebd"></circle>
  <text x="152" y="14" class="font s4" text-anchor="middle">Yarn</text>
  <text x="152" y="18" class="font s3" text-anchor="middle">v4.15.0</text>
  <circle cx="188" cy="6" r="4" fill="#40a9ff"></circle>
  <text x="188" y="14" class="font s4" text-anchor="middle">Yarn PnP</text>
  <text x="188" y="18" class="font s3" text-anchor="middle">v4.15.0</text>
  <text x="40" y="28" class="font s5 text" text-anchor="middle">0</text>
  <text x="40" y="310" class="font s5 text" text-anchor="middle">0</text>
  <line x1="90" y1="31" x2="90" y2="305" class="line width"></line>
  <text x="90" y="28" class="font s5 text" text-anchor="middle">6</text>
  <text x="90" y="310" class="font s5 text" text-anchor="middle">6</text>
  <line x1="140" y1="31" x2="140" y2="305" class="line width"></line>
  <text x="140" y="28" class="font s5 text" text-anchor="middle">12</text>
  <text x="140" y="310" class="font s5 text" text-anchor="middle">12</text>
  <line x1="190" y1="31" x2="190" y2="305" class="line width"></line>
  <text x="190" y="28" class="font s5 text" text-anchor="middle">18</text>
  <text x="190" y="310" class="font s5 text" text-anchor="middle">18</text>
  <line x1="240.00000000000003" y1="31" x2="240.00000000000003" y2="305" class="line width"></line>
  <text x="240.00000000000003" y="28" class="font s5 text" text-anchor="middle">24</text>
  <text x="240.00000000000003" y="310" class="font s5 text" text-anchor="middle">24</text>
  <line x1="290" y1="31" x2="290" y2="305" class="line width"></line>
  <text x="290" y="28" class="font s5 text" text-anchor="middle">30</text>
  <text x="290" y="310" class="font s5 text" text-anchor="middle">30</text>
  <text x="290" y="20" class="font s4 text" font-style="italic" text-anchor="end">Installation time in seconds (lower is better)</text>
  <rect x="40" y="35" width="231" height="6" fill="#cd3731" rx="1" ry="1"></rect>
  <rect x="40" y="41.5" width="61" height="6" fill="#cccccc" rx="1" ry="1"></rect>
  <rect x="40" y="41.5" width="39" height="6" fill="#fbae00" rx="1" ry="1"></rect>
  <rect x="40" y="48" width="59" height="6" fill="#248ebd" rx="1" ry="1"></rect>
  <rect x="40" y="54.5" width="24" height="6" fill="#40a9ff" rx="1" ry="1"></rect>
  <rect x="40" y="65" width="91" height="6" fill="#cd3731" rx="1" ry="1"></rect>
  <rect x="40" y="71.5" width="29" height="6" fill="#cccccc" rx="1" ry="1"></rect>
  <rect x="40" y="71.5" width="11" height="6" fill="#fbae00" rx="1" ry="1"></rect>
  <rect x="40" y="78" width="58" height="6" fill="#248ebd" rx="1" ry="1"></rect>
  <rect x="40" y="84.5" width="21" height="6" fill="#40a9ff" rx="1" ry="1"></rect>
  <rect x="40" y="95" width="82" height="6" fill="#cd3731" rx="1" ry="1"></rect>
  <rect x="40" y="101.5" width="54" height="6" fill="#cccccc" rx="1" ry="1"></rect>
  <rect x="40" y="101.5" width="28" height="6" fill="#fbae00" rx="1" ry="1"></rect>
  <rect x="40" y="108" width="43" height="6" fill="#248ebd" rx="1" ry="1"></rect>
  <rect x="40" y="114.5" width="9" height="6" fill="#40a9ff" rx="1" ry="1"></rect>
  <rect x="40" y="125" width="59" height="6" fill="#cd3731" rx="1" ry="1"></rect>
  <rect x="40" y="131.5" width="17" height="6" fill="#cccccc" rx="1" ry="1"></rect>
  <rect x="40" y="131.5" width="5" height="6" fill="#fbae00" rx="1" ry="1"></rect>
  <rect x="40" y="138" width="43" height="6" fill="#248ebd" rx="1" ry="1"></rect>
  <rect x="40" y="144.5" width="9" height="6" fill="#40a9ff" rx="1" ry="1"></rect>
  <rect x="40" y="155" width="13" height="6" fill="#cd3731" rx="1" ry="1"></rect>
  <rect x="40" y="161.5" width="60" height="6" fill="#cccccc" rx="1" ry="1"></rect>
  <rect x="40" y="161.5" width="45" height="6" fill="#fbae00" rx="1" ry="1"></rect>
  <rect x="40" y="168" width="53" height="6" fill="#248ebd" rx="1" ry="1"></rect>
  <rect x="40" y="174.5" width="0" height="6" fill="#40a9ff" rx="1" ry="1"></rect>
  <rect x="40" y="185" width="13" height="6" fill="#cd3731" rx="1" ry="1"></rect>
  <rect x="40" y="191.5" width="42" height="6" fill="#cccccc" rx="1" ry="1"></rect>
  <rect x="40" y="191.5" width="8" height="6" fill="#fbae00" rx="1" ry="1"></rect>
  <rect x="40" y="198" width="54" height="6" fill="#248ebd" rx="1" ry="1"></rect>
  <rect x="40" y="204.5" width="0" height="6" fill="#40a9ff" rx="1" ry="1"></rect>
  <rect x="40" y="215" width="8" height="6" fill="#cd3731" rx="1" ry="1"></rect>
  <rect x="40" y="221.5" width="3" height="6" fill="#cccccc" rx="1" ry="1"></rect>
  <rect x="40" y="221.5" width="1" height="6" fill="#fbae00" rx="1" ry="1"></rect>
  <rect x="40" y="228" width="38" height="6" fill="#248ebd" rx="1" ry="1"></rect>
  <rect x="40" y="234.5" width="0" height="6" fill="#40a9ff" rx="1" ry="1"></rect>
  <rect x="40" y="245" width="8" height="6" fill="#cd3731" rx="1" ry="1"></rect>
  <rect x="40" y="251.5" width="3" height="6" fill="#cccccc" rx="1" ry="1"></rect>
  <rect x="40" y="251.5" width="1" height="6" fill="#fbae00" rx="1" ry="1"></rect>
  <rect x="40" y="258" width="38" height="6" fill="#248ebd" rx="1" ry="1"></rect>
  <rect x="40" y="264.5" width="0" height="6" fill="#40a9ff" rx="1" ry="1"></rect>
  <rect x="40" y="275" width="55" height="6" fill="#cd3731" rx="1" ry="1"></rect>
  <rect x="40" y="281.5" width="26" height="6" fill="#cccccc" rx="1" ry="1"></rect>
  <rect x="40" y="281.5" width="10" height="6" fill="#fbae00" rx="1" ry="1"></rect>
  <rect x="40" y="288" width="43" height="6" fill="#248ebd" rx="1" ry="1"></rect>
  <rect x="40" y="294.5" width="21" height="6" fill="#40a9ff" rx="1" ry="1"></rect>
  <line x1="40" y1="31" x2="40" y2="305" class="line"></line>
  <text x="38" y="47.75" class="font s4" dominant-baseline="middle" text-anchor="end">clean</text>
  <text x="38" y="77.75" class="font s4" dominant-baseline="middle" text-anchor="end">cache</text>
  <text x="38" y="107.75" class="font s4" dominant-baseline="middle" text-anchor="end">lockfile</text>
  <text x="38" y="135.75" class="font s4" dominant-baseline="middle" text-anchor="end">cache</text>
  <text x="38" y="139.75" class="font s4" dominant-baseline="middle" text-anchor="end">lockfile</text>
  <text x="38" y="167.75" class="font s4" dominant-baseline="middle" text-anchor="end">node_modules</text>
  <text x="38" y="195.75" class="font s4" dominant-baseline="middle" text-anchor="end">cache</text>
  <text x="38" y="199.75" class="font s4" dominant-baseline="middle" text-anchor="end">node_modules</text>
  <text x="38" y="223.75" class="font s4" dominant-baseline="middle" text-anchor="end">cache</text>
  <text x="38" y="227.75" class="font s4" dominant-baseline="middle" text-anchor="end">lockfile</text>
  <text x="38" y="231.75" class="font s4" dominant-baseline="middle" text-anchor="end">node_modules</text>
  <text x="38" y="255.75" class="font s4" dominant-baseline="middle" text-anchor="end">lockfile</text>
  <text x="38" y="259.75" class="font s4" dominant-baseline="middle" text-anchor="end">node_modules</text>
  <text x="38" y="287.75" class="font s4" dominant-baseline="middle" text-anchor="end">update</text>
  <text x="290" y="317" class="font s4 text" text-anchor="end">Tests were run using Node.js v24.15.0 at: May 26, 2026, 12:46 AM</text>
</svg>
