<?xml version="1.0" encoding="iso-8859-1"?>
<!-- Generator: Adobe Illustrator 19.0.0, SVG Export Plug-In . SVG Version: 6.00 Build 0)  -->
<svg version="1.1" id="Layer_1" xmlns="http://www.w3.org/2000/svg" xmlns:xlink="http://www.w3.org/1999/xlink" x="0px" y="0px"
	 viewBox="0 0 512 512" style="enable-background:new 0 0 512 512;" xml:space="preserve">
<circle style="fill:#88C5CC;" cx="256" cy="256" r="256"/>
<path style="fill:#263740;" d="M376,404c0,8.8-7.2,16-16,16H152c-8.8,0-16-7.2-16-16V116c0-8.8,7.2-16,16-16h208c8.8,0,16,7.2,16,16
	V404z"/>
<path style="fill:#CCCCCC;" d="M152,412c-4.416,0-8-3.584-8-8V116c0-4.412,3.584-8,8-8h208c4.416,0,8,3.588,8,8v288
	c0,4.416-3.584,8-8,8H152z"/>
<g>
	<circle style="fill:#F5F5F5;" cx="356" cy="121.332" r="4"/>
	<circle style="fill:#F5F5F5;" cx="156" cy="121.332" r="4"/>
	<circle style="fill:#F5F5F5;" cx="356" cy="401.32" r="4"/>
	<circle style="fill:#F5F5F5;" cx="156" cy="401.32" r="4"/>
	<circle style="fill:#F5F5F5;" cx="256" cy="234" r="92"/>
</g>
<circle style="fill:#263740;" cx="256" cy="234" r="40"/>
<path style="fill:#E6E6E6;" d="M256,270c-19.852,0-36-16.152-36-36s16.148-36,36-36s36,16.152,36,36S275.852,270,256,270z"/>
<g>
	<circle style="fill:#263740;" cx="256" cy="234" r="12"/>
	<circle style="fill:#263740;" cx="256" cy="210" r="4"/>
	<circle style="fill:#263740;" cx="256" cy="262" r="4"/>
	<circle style="fill:#263740;" cx="230" cy="236" r="4"/>
	<circle style="fill:#263740;" cx="282" cy="236" r="4"/>
	<circle style="fill:#263740;" cx="237.6" cy="217.6" r="4"/>
	<circle style="fill:#263740;" cx="274.4" cy="254.4" r="4"/>
	<circle style="fill:#263740;" cx="237.6" cy="254.4" r="4"/>
	<circle style="fill:#263740;" cx="274.4" cy="217.6" r="4"/>
</g>
<path style="fill:#F5F5F5;" d="M256,354c-34.744,0-66.072-14.856-88-38.528V372c0,8.8,7.2,16,16,16h72V354z"/>
<path style="fill:#406A80;" d="M205.536,376.548c-6.456,6.024-16.584,5.672-22.612-0.788c-6.024-6.464-5.672-16.588,0.796-22.612
	c6.456-6.024,81.124-53.76,81.124-53.76S212,370.52,205.536,376.548z"/>
<path style="fill:#263740;" d="M271.9,292.1c2.336,2.328,1.704,6.788-1.416,9.9L262,310.484c-3.108,3.108-7.572,3.752-9.9,1.416
	c-2.336-2.328-1.696-6.788,1.416-9.9l8.484-8.488C265.108,290.408,269.572,289.764,271.9,292.1z"/>
<g>
</g>
<g>
</g>
<g>
</g>
<g>
</g>
<g>
</g>
<g>
</g>
<g>
</g>
<g>
</g>
<g>
</g>
<g>
</g>
<g>
</g>
<g>
</g>
<g>
</g>
<g>
</g>
<g>
</g>
</svg>
