<svg xmlns="http://www.w3.org/2000/svg" viewBox="0 0 512 512">
    <circle cx="256" cy="256" r="256" fill="#88c5cc"/>
    <path d="M376 404c0 8.8-7.2 16-16 16H152c-8.8 0-16-7.2-16-16V116c0-8.8 7.2-16 16-16h208c8.8 0 16 7.2 16 16v288z" fill="#263740"/>
    <path d="M152 412c-4.416 0-8-3.584-8-8V116c0-4.412 3.584-8 8-8h208c4.416 0 8 3.588 8 8v288c0 4.416-3.584 8-8 8H152z" fill="#ccc"/>
    <g fill="#f5f5f5">
        <circle cx="356" cy="121.332" r="4"/>
        <circle cx="156" cy="121.332" r="4"/>
        <circle cx="356" cy="401.32" r="4"/>
        <circle cx="156" cy="401.32" r="4"/>
        <circle cx="256" cy="234" r="92"/>
    </g>
    <circle cx="256" cy="234" r="40" fill="#263740"/>
    <path d="M256 270c-19.852 0-36-16.152-36-36s16.148-36 36-36 36 16.152 36 36-16.148 36-36 36z" fill="#e6e6e6"/>
    <g fill="#263740">
        <circle cx="256" cy="234" r="12"/>
        <circle cx="256" cy="210" r="4"/>
        <circle cx="256" cy="262" r="4"/>
        <circle cx="230" cy="236" r="4"/>
        <circle cx="282" cy="236" r="4"/>
        <circle cx="237.6" cy="217.6" r="4"/>
        <circle cx="274.4" cy="254.4" r="4"/>
        <circle cx="237.6" cy="254.4" r="4"/>
        <circle cx="274.4" cy="217.6" r="4"/>
    </g>
    <path d="M256 354c-34.744 0-66.072-14.856-88-38.528V372c0 8.8 7.2 16 16 16h72v-34z" fill="#f5f5f5"/>
    <path d="M205.536 376.548c-6.456 6.024-16.584 5.672-22.612-.788-6.024-6.464-5.672-16.588.796-22.612 6.456-6.024 81.124-53.76 81.124-53.76S212 370.52 205.536 376.548z" fill="#406a80"/>
    <path d="M271.9 292.1c2.336 2.328 1.704 6.788-1.416 9.9L262 310.484c-3.108 3.108-7.572 3.752-9.9 1.416-2.336-2.328-1.696-6.788 1.416-9.9l8.484-8.488c3.108-3.104 7.572-3.748 9.9-1.412z" fill="#263740"/>
</svg>
