<svg enable-background="new 0 0 256 256" height="512" viewBox="0 0 256 256" width="512" xmlns="http://www.w3.org/2000/svg"><g fill="#fcb1b1"><path d="m92.989 186.154c-1.024-4.636-6.167-7.028-10.526-5.147-1.401.605-2.79 1.246-4.166 1.926-7.378 3.651-14.616 7.959-22.695 9.9-9.088 2.183-20.256 2.106-29.303-1.83 5.35 6.508 23.584 21.296 66.791-4.212-.018-.123-.021-.247-.045-.369-.017-.09-.036-.179-.056-.268z"/><path d="m199.496 192.594c-7.727-2.042-14.689-6.134-21.793-9.661-1.365-.678-2.745-1.316-4.136-1.918-4.381-1.895-9.551.52-10.566 5.184-.021.097-.041.194-.061.294-.019.098-.02.198-.035.296 43.161 25.482 61.403 10.756 66.776 4.237-9.323 4.054-20.915 4.017-30.185 1.568z"/><path d="m199.539 142.828c-6.377 6.491-13.087 12.932-21.712 15.953-1.509.529-2.549 1.958-2.517 3.557.001.057.003.114.006.171.067 1.406 1.039 2.601 2.341 3.135 1.915.786 3.742 1.609 5.508 2.44 12.429-6.861 18.115-21.408 20.3-28.881-1.731 1.475-3.14 2.825-3.926 3.625z"/><path d="m72.888 168.063c1.752-.825 3.561-1.64 5.455-2.418 1.302-.534 2.274-1.729 2.341-3.135.003-.057.005-.114.006-.17.032-1.599-1.008-3.03-2.518-3.558-8.628-3.021-15.336-9.462-21.715-15.954-.768-.782-2.127-2.086-3.8-3.518 2.206 7.496 7.887 21.915 20.231 28.753z"/><path d="m153.146 212.526c-4.792-10.857-8.418-32.316-22.595-34.531-18.556-2.458-22.1 21.855-27.694 34.531-8.506 19.272-20.568 30.901-32.829 36.616 13.322-3.153 36.178-13.655 48.017-48.548 1.387-4.088 5.175-6.875 9.492-6.875s8.105 2.787 9.492 6.875c12.395 36.533 36.869 46.329 49.83 48.946-12.564-5.559-25.004-17.28-33.713-37.014z"/></g><path d="m234.427 145.256c-13.19-7.548-30.449 1.818-29.247 17.539.773 10.104 16.626 10.188 15.847 0-.186-2.431.494-4.653 3.361-4.514 3.335.161 5.251 3.653 5.638 6.575 1.211 9.146-6.841 12.698-14.54 13.435-13.688 1.31-23.327-6.693-37.829-12.646-1.302-.534-2.275-1.729-2.341-3.135-.003-.057-.005-.114-.006-.171-.031-1.599 1.008-3.029 2.517-3.557 8.626-3.022 15.335-9.462 21.712-15.953 3.501-3.564 19.312-18.017 21.273-5.923.683 4.214 5.944 6.599 9.747 5.534 4.49-1.257 6.224-5.49 5.534-9.747-2.619-16.155-21.875-19.084-34.16-12.355-9.854 5.397-16.181 16.758-26.013 21.986-5.712 3.037-12.638.165-13.003-7.572-.285-6.039 3.111-10.315 7.272-14.709 39.677-41.899 13.569-117.543-42.189-117.543-55.639 0-81.926 75.581-42.188 117.542 4.121 4.352 7.505 8.562 7.278 14.573-.291 7.717-7.163 10.761-12.817 7.809-9.952-5.196-16.216-16.711-26.208-22.087-12.322-6.63-31.526-3.889-34.16 12.355-.69 4.253 1.105 8.48 5.534 9.747 3.772 1.079 9.063-1.316 9.747-5.534 1.961-12.094 17.767 2.354 21.272 5.923 6.379 6.492 13.087 12.933 21.715 15.954 1.51.529 2.55 1.959 2.518 3.558-.001.056-.003.113-.006.17-.067 1.406-1.039 2.601-2.341 3.135-14.404 5.913-24.128 13.956-37.827 12.645-7.699-.737-15.752-4.289-14.54-13.435.387-2.922 2.303-6.414 5.637-6.575 2.867-.139 3.547 2.084 3.361 4.514-.778 10.171 15.073 10.121 15.847 0 1.183-15.473-15.424-24.75-28.615-17.848-13.256 6.935-15.638 25.949-7.084 37.437 8.91 11.965 26.99 13.689 40.481 10.449 8.08-1.941 15.318-6.248 22.695-9.9 1.376-.681 2.765-1.322 4.166-1.926 4.359-1.881 9.501.511 10.526 5.147.02.089.039.178.057.269.285 1.415.122 2.884-.396 4.232-3.101 8.062-5.514 16.514-9.949 23.929-16.676 27.878-40.771 24.097-44.034 16.107-1.998-4.892 2.06-5.587 5.427-4.171 4.271 1.796 9.329-1.936 10.477-5.949 1.402-4.898-1.727-8.701-5.948-10.477-17.123-7.202-33.022 11.549-25.338 27.784 11 23.239 57.384 24.917 79.571-25.353 5.594-12.676 9.139-36.989 27.694-34.531 14.177 2.215 17.803 23.674 22.595 34.531 22.187 50.272 68.583 48.567 79.571 25.353 7.685-16.235-8.207-34.989-25.338-27.784-4.221 1.775-7.303 5.639-5.948 10.477 1.117 3.987 6.195 7.749 10.477 5.949 3.167-1.332 7.083-1.054 5.585 3.746-2.581 8.267-27.207 12.71-44.191-15.683-4.434-7.412-6.864-15.825-9.959-23.87-.517-1.343-.68-2.808-.402-4.22.019-.099.04-.197.061-.294 1.015-4.664 6.185-7.079 10.566-5.184 1.392.602 2.771 1.24 4.136 1.918 7.104 3.527 14.065 7.619 21.793 9.661 13.643 3.604 32.319 1.993 41.384-10.21 8.396-11.306 6.266-29.848-6.455-37.127z" fill="#f98080"/><path d="m51.143 256c-13.616 0-25.122-6.499-30.117-17.052-4.139-8.743-2.423-18.979 4.369-26.076 6.423-6.711 15.696-8.658 24.197-5.082 6.093 2.562 8.991 7.849 7.383 13.469-.859 3.002-3.265 5.764-6.279 7.208-2.537 1.217-5.228 1.342-7.569.357-1.149-.483-2.104-.507-2.489-.408.003.216.069.653.345 1.329.721 1.763 3.724 3.831 8.613 4.201 4.173.315 18.751-.236 30.961-20.647 3.17-5.3 5.342-11.362 7.441-17.224.744-2.075 1.513-4.221 2.319-6.318.365-.951.462-1.933.279-2.839l-.048-.228c-.312-1.413-1.215-2.566-2.541-3.245-1.419-.727-3.08-.779-4.552-.144-1.381.596-2.743 1.226-4.048 1.872-1.51.747-3.013 1.521-4.52 2.298-5.896 3.039-11.994 6.181-18.701 7.792-14.605 3.51-33.587 1.349-43.069-11.387-4.911-6.595-6.691-15.581-4.761-24.037 1.737-7.616 6.196-13.662 12.562-17.041-2.796-2.391-4.171-6.261-3.482-10.507 1.119-6.901 4.962-12.153 11.113-15.187 7.734-3.816 18.464-3.4 26.699 1.03 5.305 2.854 9.546 7.244 13.648 11.489 4.053 4.194 7.882 8.155 12.532 10.583 2.066 1.079 4.37 1.104 6.161.064 1.835-1.065 2.901-3.108 3.001-5.751.177-4.686-2.182-8.099-6.596-12.759-20.277-21.413-25.52-53.52-13.355-81.796 10.766-25.024 32.21-39.964 57.361-39.964 25.161 0 46.605 14.925 57.361 39.925 12.172 28.292 6.929 60.415-13.357 81.837-4.446 4.694-6.813 8.136-6.591 12.872.123 2.607 1.188 4.611 2.996 5.641 1.826 1.039 4.194.98 6.337-.158 4.605-2.449 8.425-6.387 12.468-10.557 4.079-4.206 8.297-8.555 13.518-11.415 8.128-4.451 18.813-4.887 26.591-1.088 6.141 3 10.131 8.411 11.238 15.235.699 4.319-.625 8.14-3.413 10.504.175.094.349.191.521.29 6.211 3.554 10.505 9.689 12.091 17.276 1.731 8.283-.09 17.073-4.873 23.512-9.714 13.078-29.633 14.941-44.029 11.137-6.39-1.688-12.238-4.701-17.894-7.613-1.457-.75-2.911-1.5-4.372-2.225-1.293-.642-2.645-1.269-4.017-1.863-1.483-.641-3.152-.587-4.581.146-1.334.685-2.24 1.848-2.55 3.274l-.051.246c-.18.911-.082 1.893.281 2.839.79 2.053 1.545 4.152 2.275 6.183 2.116 5.883 4.305 11.966 7.496 17.302 6.573 10.988 18.354 22.157 31.75 20.575 4.673-.555 7.376-2.646 7.909-4.354.191-.614.221-.981.216-1.169-.396-.071-1.312-.004-2.444.473-2.355.99-5.056.858-7.607-.374-3.017-1.457-5.41-4.218-6.246-7.206-1.552-5.537 1.417-10.944 7.387-13.455 8.504-3.577 17.777-1.63 24.198 5.08 6.793 7.098 8.507 17.334 4.368 26.079-5.062 10.692-16.826 17.199-30.687 17.038-8.187-.108-36.236-3.49-53.432-42.451-1.092-2.474-2.106-5.42-3.181-8.54-3.532-10.262-7.929-23.033-17.513-24.53-11.853-1.569-16.464 9.031-21.695 24.175-1.113 3.221-2.164 6.263-3.326 8.895-17.2 38.971-45.247 42.353-53.434 42.461-.187.002-.377.003-.565.003zm-10.172-44.992c-4.403 0-8.613 1.821-11.964 5.321-5.347 5.587-6.706 13.626-3.462 20.48 4.157 8.783 13.936 14.191 25.599 14.191.166 0 .333-.001.501-.003 7.433-.098 32.928-3.236 48.925-39.48 1.078-2.442 2.096-5.39 3.174-8.509 4.335-12.544 10.273-29.722 27.136-27.491 12.618 1.97 17.558 16.32 21.527 27.851 1.038 3.017 2.02 5.868 3.026 8.148 15.992 36.235 41.49 39.372 48.924 39.471 11.887.119 21.887-5.275 26.101-14.177 3.245-6.855 1.887-14.895-3.461-20.482-5.029-5.255-12.001-6.725-18.647-3.927-2.859 1.202-5.546 3.803-4.511 7.498.447 1.598 1.896 3.226 3.606 4.051.878.424 2.196.814 3.493.268 3.149-1.327 6.083-1.163 7.843.437 1.096.996 2.176 2.907 1.099 6.358-1.279 4.096-5.913 7.095-12.094 7.829-15.757 1.871-29.252-10.641-36.63-22.974-3.44-5.752-5.713-12.068-7.91-18.176-.721-2.005-1.467-4.078-2.236-6.08-.703-1.827-.883-3.764-.521-5.601l.068-.329c.627-2.885 2.506-5.312 5.155-6.673 2.764-1.418 5.988-1.524 8.849-.287 1.453.628 2.885 1.292 4.256 1.974 1.482.736 2.959 1.496 4.438 2.258 5.417 2.79 11.018 5.675 16.881 7.225 12.819 3.386 30.41 1.926 38.738-9.284 3.943-5.31 5.437-12.602 3.992-19.508-1.289-6.168-4.727-11.125-9.679-13.959-5.662-3.24-12.6-3.093-18.105.387-5.177 3.272-7.876 8.663-7.407 14.792.322 4.218 4.115 5.47 6.546 5.28 1.094-.083 4.638-.684 4.314-4.899-.187-2.454.355-4.353 1.611-5.645.751-.771 2.108-1.661 4.364-1.558 4.727.229 7.457 4.693 7.995 8.744.508 3.836-.321 7.147-2.465 9.842-2.798 3.518-7.882 5.794-14.316 6.41-10.531 1.007-18.549-2.985-27.837-7.608-3.52-1.752-7.16-3.563-11.18-5.213-2.253-.926-3.779-3.018-3.889-5.33l-.009-.247c-.052-2.666 1.633-5.063 4.191-5.959 7.997-2.802 14.381-8.858 20.755-15.346 2.212-2.25 13.608-13.362 20.754-11.09 1.786.568 4.062 2.16 4.77 6.519.225 1.384 1.326 2.273 1.963 2.68 1.419.907 3.243 1.238 4.643.847 3.431-.961 4.182-4.215 3.74-6.94-1.076-6.635-5.215-9.939-8.497-11.543-6.39-3.121-15.227-2.727-21.994.981-4.56 2.497-8.334 6.389-12.33 10.51-4.135 4.264-8.41 8.672-13.71 11.491-3.662 1.946-7.833 1.98-11.157.088-3.303-1.879-5.313-5.434-5.518-9.75-.337-7.162 3.745-12.101 7.954-16.545 18.912-19.97 23.777-49.968 12.396-76.422-9.942-23.109-29.668-36.904-52.769-36.904-23.09 0-42.816 13.81-52.768 36.94-11.375 26.438-6.51 56.42 12.395 76.382 4.175 4.408 8.228 9.305 7.961 16.386-.164 4.354-2.164 7.958-5.487 9.887-3.283 1.906-7.389 1.921-10.985.044-5.369-2.804-9.661-7.246-13.813-11.542-4.013-4.153-7.803-8.075-12.422-10.561-6.879-3.701-15.766-4.082-22.119-.949-3.234 1.595-7.316 4.886-8.389 11.502-.419 2.588.312 5.959 3.754 6.943 1.381.396 3.187.066 4.606-.837.645-.409 1.76-1.303 1.985-2.694.707-4.36 2.984-5.952 4.77-6.52 7.143-2.275 18.542 8.84 20.753 11.091 6.376 6.489 12.761 12.546 20.759 15.347 2.561.896 4.245 3.294 4.19 5.968l-.008.248c-.109 2.302-1.636 4.394-3.888 5.319-3.984 1.636-7.608 3.44-11.113 5.186-8.928 4.445-17.359 8.645-27.903 7.636-6.435-.616-11.519-2.893-14.316-6.41-2.143-2.695-2.972-6.006-2.464-9.842.538-4.051 3.269-8.515 7.995-8.744 2.259-.105 3.615.787 4.363 1.558 1.257 1.292 1.799 3.191 1.612 5.645-.14 1.817.423 3.171 1.672 4.025 1.595 1.091 4.094 1.191 6.074.241 1.307-.626 2.907-1.941 3.114-4.648.459-6-2.129-11.321-7.101-14.596-5.32-3.503-12.164-3.829-17.862-.846-5.117 2.676-8.716 7.574-10.135 13.791-1.608 7.048-.151 14.501 3.896 19.938 5.853 7.859 19.838 13.848 37.892 9.512 6.121-1.47 11.946-4.472 17.579-7.375 1.53-.788 3.058-1.575 4.591-2.334 1.383-.684 2.824-1.351 4.284-1.981 2.847-1.228 6.058-1.125 8.812.283 2.64 1.35 4.515 3.763 5.146 6.62l.069.333c.368 1.819.19 3.765-.518 5.605-.785 2.043-1.544 4.161-2.278 6.209-2.181 6.088-4.437 12.384-7.857 18.104-13.681 22.871-30.72 23.436-35.63 23.066-6.291-.477-11.221-3.273-12.864-7.297-1.54-3.771-.233-5.855.683-6.761 2.109-2.089 5.529-1.711 8.028-.66 1.292.544 2.601.16 3.471-.257 1.71-.82 3.171-2.458 3.634-4.075 1.323-4.626-3.12-6.898-4.514-7.484-2.219-.93-4.476-1.388-6.683-1.388zm-9.105-50.234c-.041 0-.085.001-.132.003-1.977.096-3.062 2.754-3.28 4.407-.328 2.472.137 4.458 1.421 6.072 2.624 3.3 7.942 4.264 10.879 4.545 9.116.871 16.57-2.838 25.198-7.134 3.584-1.785 7.291-3.631 11.442-5.335.456-.188.775-.565.793-.94 0-.002.003-.1.004-.103.01-.499-.337-.971-.845-1.148-9.013-3.156-15.867-9.635-22.673-16.562-5.355-5.452-12.938-10.702-15.671-9.83-.815.259-1.184 1.532-1.35 2.555-.193 1.192-.646 2.316-1.327 3.326 2.689.574 5.287 1.644 7.651 3.202 6.438 4.241 9.929 11.401 9.337 19.153-.3 3.91-2.464 7.108-5.938 8.775-3.623 1.738-7.966 1.495-11.06-.623-2.75-1.881-4.111-4.912-3.835-8.534.092-1.199-.142-1.706-.21-1.777-.002.001-.112-.052-.404-.052zm184.446-26.119c-3.165 0-10.029 4.876-14.989 9.924-6.804 6.926-13.657 13.404-22.668 16.561-.508.178-.854.65-.845 1.149 0 .003.003.099.003.102.018.375.337.753.794.941 4.187 1.718 7.908 3.571 11.508 5.363 8.602 4.28 16.021 7.979 25.133 7.106 2.937-.281 8.255-1.245 10.88-4.544 1.283-1.614 1.748-3.601 1.421-6.073-.219-1.652-1.304-4.311-3.28-4.407-.409-.021-.545.055-.546.056-.059.063-.293.571-.201 1.771.429 5.61-3.238 9.831-8.919 10.266-5.369.424-11.38-2.913-11.914-9.884-.604-7.917 3.029-15.169 9.722-19.399 2.265-1.432 4.72-2.425 7.247-2.976-.673-1.005-1.12-2.122-1.312-3.305-.166-1.022-.534-2.295-1.349-2.554-.204-.065-.434-.097-.685-.097z"/><path d="m50.452 203.775c-14.54 0-22.478-6.797-26.084-11.184-.733-.893-.76-2.171-.063-3.093s1.935-1.248 2.992-.787c7.744 3.368 18.108 4 27.722 1.691 6.121-1.47 11.946-4.472 17.579-7.375 1.53-.788 3.058-1.575 4.591-2.334 1.383-.684 2.824-1.351 4.284-1.981 2.848-1.229 6.059-1.125 8.812.283 2.639 1.35 4.514 3.763 5.146 6.62v.003l.064.303c.032.156.053.319.068.483.152 1.008-.322 2.023-1.201 2.542-18.839 11.12-33.174 14.829-43.91 14.829zm-12.479-7.289c9.521 3.906 25.771 4.312 52.194-10.883-.452-.917-1.193-1.663-2.159-2.157-1.421-.728-3.081-.779-4.554-.144-1.38.596-2.742 1.226-4.047 1.872-1.51.747-3.013 1.521-4.52 2.298-5.896 3.039-11.994 6.181-18.701 7.792-6.006 1.443-12.3 1.836-18.213 1.222z"/><path d="m205.545 203.772c-10.736 0-25.068-3.706-43.91-14.83-.877-.517-1.352-1.514-1.202-2.52.01-.127.027-.272.056-.417l.067-.324c.627-2.885 2.506-5.312 5.155-6.673 2.764-1.418 5.988-1.524 8.849-.287 1.453.628 2.885 1.292 4.256 1.974 1.482.736 2.959 1.496 4.438 2.258 5.417 2.79 11.018 5.675 16.881 7.225 9.827 2.597 20.5 2.056 28.549-1.444 1.061-.46 2.299-.135 2.993.788.696.923.668 2.203-.066 3.094-3.608 4.376-11.548 11.155-26.066 11.156zm-39.707-18.167c26.321 15.137 42.554 14.785 52.085 10.922-6.201.629-12.802.139-19.065-1.516-6.39-1.688-12.238-4.701-17.894-7.613-1.457-.75-2.911-1.5-4.372-2.225-1.293-.642-2.645-1.269-4.017-1.863-1.483-.641-3.152-.587-4.581.146-.963.495-1.702 1.238-2.156 2.149z"/><path d="m183.165 170.585c-.363 0-.727-.079-1.064-.238-1.962-.923-3.727-1.705-5.394-2.39-2.253-.924-3.779-3.016-3.889-5.329l-.009-.247c-.052-2.666 1.633-5.063 4.191-5.959 7.997-2.802 14.381-8.858 20.755-15.346.414-.421 1.933-1.938 4.088-3.774.841-.718 2.054-.794 2.98-.195.928.601 1.351 1.739 1.04 2.8-2.41 8.241-8.406 23.145-21.491 30.368-.374.206-.79.31-1.207.31zm13.938-21.816c-5.492 5.259-11.29 9.863-18.448 12.372-.508.178-.854.65-.845 1.149 0 .003.003.099.003.102.018.375.336.753.793.94 1.399.575 2.858 1.212 4.433 1.937 6.608-4.04 11.093-10.461 14.064-16.5z"/><path d="m72.888 170.563c-.418 0-.835-.105-1.211-.313-13.018-7.211-19.007-22.038-21.418-30.235-.312-1.062.11-2.203 1.04-2.804.927-.602 2.141-.521 2.984.199 2.021 1.73 3.44 3.139 3.958 3.665 6.375 6.49 12.759 12.546 20.758 15.348 2.561.896 4.245 3.294 4.19 5.968l-.008.249c-.109 2.302-1.636 4.395-3.889 5.319-1.657.68-3.403 1.454-5.34 2.366-.337.159-.701.238-1.064.238zm-13.812-21.621c2.963 5.97 7.414 12.3 13.94 16.303 1.55-.714 2.991-1.343 4.378-1.912.457-.188.775-.565.793-.941 0-.002.003-.1.004-.102.01-.499-.338-.971-.845-1.148-7.081-2.48-12.83-7.012-18.27-12.2z"/><path d="m186.86 252.04c-.164 0-.33-.016-.497-.05-13.847-2.796-38.977-13.086-51.701-50.593-1.052-3.097-3.915-5.178-7.126-5.178-3.21 0-6.073 2.081-7.125 5.179-12.321 36.317-36.495 47.026-49.808 50.177-1.251.298-2.517-.401-2.938-1.612s.143-2.544 1.306-3.086c9.185-4.28 22.121-13.889 31.598-35.359 1.078-2.442 2.096-5.39 3.174-8.509 4.335-12.544 10.273-29.722 27.136-27.491 12.617 1.97 17.558 16.32 21.527 27.851 1.038 3.017 2.02 5.868 3.026 8.149 9.694 21.965 22.99 31.558 32.438 35.737 1.166.516 1.758 1.828 1.371 3.044-.336 1.052-1.312 1.741-2.381 1.741zm-59.324-60.821c5.354 0 10.12 3.445 11.86 8.571 6.956 20.502 17.766 32.302 28.105 39.089-5.877-6.003-11.72-14.189-16.644-25.344-1.092-2.474-2.106-5.421-3.181-8.541-3.532-10.262-7.929-23.033-17.513-24.53-11.853-1.569-16.464 9.031-21.695 24.175-1.113 3.221-2.164 6.263-3.326 8.895-4.445 10.071-9.643 17.712-14.919 23.508 14.451-10.766 21.906-26.801 25.452-37.252 1.742-5.126 6.508-8.571 11.861-8.571z"/><path d="m128.318 136.538c-4.33 0-8.475-1.848-11.372-5.068-.923-1.027-.839-2.607.188-3.531 1.026-.924 2.606-.84 3.531.187 1.949 2.168 4.739 3.412 7.653 3.412 2.913 0 5.703-1.244 7.654-3.412.922-1.026 2.504-1.111 3.53-.187 1.026.923 1.11 2.504.187 3.53-2.897 3.222-7.042 5.069-11.371 5.069z"/><path d="m142.294 109.915c-1.377 0-2.495-1.114-2.5-2.492-.008-2.444.937-4.745 2.659-6.479s4.018-2.693 6.462-2.701h.031c2.433 0 4.721.943 6.447 2.659 1.734 1.723 2.693 4.018 2.701 6.462.004 1.38-1.111 2.503-2.492 2.508-.003 0-.005 0-.008 0-1.377 0-2.495-1.114-2.5-2.492-.004-1.108-.438-2.149-1.225-2.93-.783-.778-1.821-1.206-2.925-1.206-.005 0-.01 0-.014 0-2.289.007-4.145 1.875-4.138 4.164.004 1.38-1.111 2.503-2.492 2.508-.001-.001-.003-.001-.006-.001z"/><path d="m114.353 109.894c-1.381 0-2.5-1.119-2.5-2.5 0-2.288-1.861-4.15-4.149-4.15s-4.15 1.862-4.15 4.15c0 1.381-1.119 2.5-2.5 2.5s-2.5-1.119-2.5-2.5c0-5.045 4.104-9.15 9.15-9.15 5.045 0 9.149 4.104 9.149 9.15 0 1.38-1.12 2.5-2.5 2.5z"/></svg>