<svg xmlns="http://www.w3.org/2000/svg" viewBox="0 0 53.325 53.325">
    <path d="M47.162 28.325a20.385 20.385 0 0 0-.57-2.325H6.733c-.228.758-.43 1.528-.57 2.325-1.663.661-3 2.602-3 4.5 0 1.978 1.284 3.639 3.058 4.242 2.153 9.31 10.478 16.258 20.442 16.258s18.29-6.948 20.442-16.258c1.774-.604 3.058-2.265 3.058-4.242-.001-1.898-1.338-3.839-3.001-4.5z" fill="#ffd581"/>
    <circle cx="20.162" cy="34.325" r="2" fill="#414141"/>
    <path d="M26.88 41.729a7.707 7.707 0 0 0-10.252 3.72 7.708 7.708 0 0 0 10.252-3.72zm.03 0a7.707 7.707 0 0 1 10.252 3.72 7.708 7.708 0 0 1-10.252-3.72z" fill="#414141"/>
    <path d="M45.162 43.325c-4.71 0-8-3.701-8-9a1 1 0 1 1 2 0c0 3.484 1.855 7 6 7a1 1 0 1 1 0 2zm3-17.325h-42c-1.1 0-2-.9-2-2s.9-2 2-2h42c1.1 0 2 .9 2 2s-.9 2-2 2z" fill="#3d324c"/>
    <path d="M46.162 22h-39l.7-1.679A24.428 24.428 0 0 0 7.162 0h39a24.432 24.432 0 0 0-.7 20.321l.7 1.679z" fill="#556080"/>
    <path d="M43.591 11H9.734a24.752 24.752 0 0 1-.087 2h34.031a24.302 24.302 0 0 1-.087-2z" fill="#8697cb"/>
    <circle cx="34.162" cy="34.325" r="4" fill="#d0e8f9"/>
    <path d="M34.162 39.325c-2.757 0-5-2.243-5-5s2.243-5 5-5 5 2.243 5 5-2.243 5-5 5zm0-8c-1.654 0-3 1.346-3 3s1.346 3 3 3 3-1.346 3-3-1.345-3-3-3z" fill="#556080"/>
</svg>
