<svg width="118" height="26" viewBox="0 0 118 26" fill="none" xmlns="http://www.w3.org/2000/svg">
<g clip-path="url(#clip0)">
<path d="M22.9187 13.1827C18.8739 5.9734 16.5719 1.92426 15.8805 0.799916C15.7471 0.559677 15.5496 0.359048 15.3089 0.219235C15.0682 0.0794216 14.7932 0.00561523 14.5131 0.00561523C14.2329 0.00561523 13.958 0.0794216 13.7173 0.219235C13.4766 0.359048 13.2791 0.559677 13.1457 0.799916C12.4543 1.92052 10.1523 5.97526 6.10749 13.1845C0.00390515 24.0992 0.00390625 24.2244 0.00390625 24.4709C0.00390625 25.2572 0.599514 25.7652 1.5207 25.7652C1.78336 25.7711 2.04275 25.7075 2.27135 25.5812C2.49996 25.455 2.68926 25.2707 2.81917 25.048L6.74906 18.0573L8.22947 15.4183L14.5207 4.2626L20.7948 15.4183H12.347C12.0753 15.4135 11.8073 15.4804 11.5713 15.6119C11.3354 15.7434 11.1402 15.9346 11.0064 16.1653C10.5296 17.0431 11.2477 18.0629 12.347 18.0629H22.2771L26.2166 25.0742C26.3477 25.2925 26.5365 25.4725 26.7631 25.5957C26.9897 25.7189 27.2461 25.7806 27.5055 25.7746C28.4266 25.7746 29.0222 25.2666 29.0222 24.4803C29.0222 24.2206 29.0222 24.0974 22.9187 13.1827Z" fill="#C30D23"/>
<path d="M51.0064 0C50.1082 0 49.5298 0.51548 49.5298 1.30738V10.3712C48.8618 9.77766 48.1145 9.27504 47.3082 8.87709C45.7679 8.10584 44.0602 7.70679 42.3288 7.71352C39.5346 7.71352 37.1177 8.60254 35.1432 10.3563C33.1687 12.1101 32.1689 14.256 32.1689 16.7382C32.1689 19.2203 33.1706 21.3663 35.1432 23.12C37.1158 24.8738 39.5346 25.7628 42.3288 25.7628C44.0603 25.77 45.7681 25.371 47.3082 24.5992C48.1153 24.2016 48.8633 23.699 49.5317 23.1051V24.4536C49.5317 25.2492 50.1062 25.7609 51.0083 25.7609C51.9103 25.7609 52.4829 25.2455 52.4829 24.4536V1.31111C52.481 0.515478 51.9026 0 51.0064 0ZM42.3212 10.3526C44.3321 10.3526 46.0002 10.9652 47.4212 12.2202C48.8422 13.4753 49.5279 14.9545 49.5279 16.7344C49.5279 18.5143 48.8384 19.9917 47.4212 21.2505C46.004 22.5093 44.334 23.1182 42.3212 23.1182C40.3083 23.1182 38.6441 22.5056 37.223 21.2505C35.802 19.9954 35.1164 18.5143 35.1164 16.7344C35.1164 14.9545 35.8077 13.4772 37.223 12.2202C38.6383 10.9633 40.3122 10.3526 42.3212 10.3526Z" fill="#172A88"/>
<path d="M67.8347 7.71345C66.1033 7.70665 64.3956 8.1057 62.8554 8.87701C62.0486 9.27514 61.3007 9.77774 60.6319 10.3712V1.31104C60.6319 0.515407 60.0573 0.00366211 59.1553 0.00366211C58.2532 0.00366211 57.6787 0.519142 57.6787 1.31104V16.7381C57.6787 19.2184 58.6803 21.3662 60.6548 23.12C62.6294 24.8737 65.0463 25.7627 67.8405 25.7627C70.6347 25.7627 73.0516 24.8737 75.0242 23.12C76.9968 21.3662 78.0003 19.2184 78.0003 16.7381C78.0003 14.2578 77.0006 12.11 75.0242 10.3562C73.0478 8.60247 70.6289 7.71345 67.8347 7.71345ZM67.8347 23.1237C65.8238 23.1237 64.1557 22.5111 62.7366 21.256C61.3175 20.0009 60.6299 18.5199 60.6299 16.74C60.6299 14.9601 61.3194 13.4827 62.7366 12.2258C64.1538 10.9688 65.8238 10.3581 67.8347 10.3581C69.8456 10.3581 71.5137 10.9707 72.9329 12.2258C74.352 13.4809 75.0395 14.9601 75.0395 16.74C75.0395 18.5199 74.3501 19.9972 72.9329 21.256C71.5157 22.5148 69.8456 23.1237 67.8347 23.1237Z" fill="#172A88"/>
<path d="M101.616 13.9795C101.122 12.9212 100.462 11.944 99.6606 11.0828C98.892 10.2954 97.9959 9.63667 97.0081 9.13291C94.6357 7.91548 91.8804 7.61344 89.2901 8.28686C86.5993 8.94801 84.5367 10.3787 83.1616 12.5377C81.7865 14.6967 81.4648 17.0033 82.204 19.394C82.9433 21.7846 84.5596 23.6149 86.9919 24.8383C88.5754 25.6181 90.3275 26.0168 92.1014 26.0009C93.8754 25.985 95.6196 25.5549 97.1881 24.7467C97.3957 24.6278 97.5721 24.4635 97.7033 24.2667C98.1381 23.5813 97.9102 22.8828 97.1288 22.485C96.9113 22.3808 96.6729 22.3247 96.4306 22.3205C96.1883 22.3163 95.9481 22.3642 95.7269 22.4607C95.07 22.7371 94.5778 22.9407 94.3058 23.049C93.3476 23.3601 92.3339 23.4754 91.3279 23.3877C90.322 23.3 89.3453 23.0111 88.4589 22.5391C86.5131 21.5605 85.3583 20.1821 84.9446 18.3425L100.668 18.2229C100.921 18.2361 101.174 18.183 101.399 18.0691C101.624 17.9551 101.814 17.7845 101.949 17.5748C102.487 16.7381 102.374 15.5633 101.616 13.9795ZM84.9273 15.7221C85.0838 15.0519 85.3551 14.4123 85.7298 13.8301C86.7161 12.28 88.1352 11.2976 90.0695 10.8232C91.9058 10.3393 93.862 10.5549 95.5411 11.4264C97.4831 12.4032 98.6398 13.7797 99.0573 15.6156L84.9273 15.7221Z" fill="#172A88"/>
<path d="M117.782 10.304C116.748 8.58573 115.051 7.71352 112.741 7.71352C111.657 7.69656 110.588 7.96634 109.648 8.49421C109.571 8.32868 109.461 8.17957 109.324 8.05531C109.072 7.83056 108.741 7.70829 108.399 7.71352C107.503 7.71352 106.923 8.229 106.923 9.0209V24.448C106.923 25.2436 107.497 25.7553 108.399 25.7553C109.301 25.7553 109.876 25.2399 109.876 24.448V12.8945C109.873 12.5536 109.948 12.2163 110.094 11.9067C110.24 11.5971 110.455 11.3228 110.723 11.1034C111.27 10.6079 111.994 10.3399 112.741 10.3563C113.472 10.3435 114.18 10.6118 114.71 11.1034C115.888 12.1567 116.11 12.2725 116.485 12.2725C117.406 12.2725 118 11.7645 118 10.9782C117.996 10.7375 117.92 10.5032 117.782 10.304Z" fill="#172A88"/>
</g>
<defs>
<clipPath id="clip0">
<rect width="118" height="26" fill="white"/>
</clipPath>
</defs>
</svg>
