<svg width="20" height="20" viewBox="0 0 20 20" fill="none"
  xmlns="http://www.w3.org/2000/svg">
  <path fill-rule="evenodd" clip-rule="evenodd" d="M2.72698 14.545H5.45498V17.273C5.45478 17.8123 5.2947 18.3394 4.99498 18.7877C4.69526 19.236 4.26935 19.5853 3.77109 19.7916C3.27284 19.9979 2.72461 20.0518 2.19572 19.9466C1.66683 19.8413 1.18102 19.5816 0.799698 19.2003C0.41838 18.819 0.158679 18.3332 0.0534251 17.8043C-0.0518287 17.2754 0.00209075 16.7272 0.208367 16.2289C0.414643 15.7306 0.764015 15.3047 1.21231 15.005C1.66061 14.7053 2.18771 14.5452 2.72698 14.545V14.545Z" fill="#D1E1FA"/>
  <path fill-rule="evenodd" clip-rule="evenodd" d="M4.53999 7.27301H12.727V10.005C12.727 10.7269 12.4402 11.4193 11.9297 11.9298C11.4193 12.4402 10.7269 12.727 10.005 12.727H4.53999C3.81807 12.727 3.12572 12.4402 2.61525 11.9298C2.10477 11.4193 1.81799 10.7269 1.81799 10.005V9.99501C1.81799 9.27309 2.10477 8.58074 2.61525 8.07027C3.12572 7.55979 3.81807 7.27301 4.53999 7.27301V7.27301Z" fill="#83B1FD"/>
  <path fill-rule="evenodd" clip-rule="evenodd" d="M6.35799 0H20V2.733C20 3.45492 19.7132 4.14727 19.2027 4.65774C18.6923 5.16822 17.9999 5.455 17.278 5.455H6.35799C5.63607 5.455 4.94372 5.16822 4.43324 4.65774C3.92277 4.14727 3.63599 3.45492 3.63599 2.733V2.722C3.63599 2.00008 3.92277 1.30773 4.43324 0.797255C4.94372 0.286781 5.63607 0 6.35799 0V0Z" fill="#3381FF"/>
</svg>
