<svg xmlns="http://www.w3.org/2000/svg" fill="none" width="1846.494" height="395.636" viewBox="0 0 1846.5 395.6"><defs><linearGradient x1="1" y1=".976" x2=".784" y2=".432" id="a"><stop offset="0%" stop-color="#70BFFC"/><stop offset="100%" stop-color="#248EFF"/></linearGradient><linearGradient x1="1.093" y1=".141" x2="0" y2=".778" id="b"><stop offset="0%" stop-color="#9ED3FF"/><stop offset="100%" stop-color="#008DFF"/></linearGradient><linearGradient x1=".937" x2=".094" y2=".928" id="c"><stop offset="0%" stop-color="#8E89FF"/><stop offset="99.286%" stop-color="#3666D6"/></linearGradient><linearGradient x1="1" y1=".967" x2=".495" y2=".419" id="d"><stop offset="0%" stop-color="#6861FF"/><stop offset="100%" stop-color="#32D8D8"/></linearGradient><linearGradient x1="1" y1=".298" x2="-.079" y2=".83" id="e"><stop offset="0%" stop-color="#56EDFD"/><stop offset="100%" stop-color="#0094FF"/></linearGradient><linearGradient y1=".975" x2="1" y2=".176" id="f"><stop offset="0%" stop-color="#1A9199"/><stop offset="100%" stop-color="#6FBFFC"/></linearGradient></defs><path d="M106.7 167.6l61.3-61.4c9.1-9.1 24.6-2.7 24.6 10.1V370c0 10.3-12.4 15.4-19.6 8.1L10 215c-13.4-13.4-13.4-35.2 0-48.7L173 3.4c7.2-7.2 19.6-2.1 19.6 8.1v23.2c0 3.1-1.2 6-3.4 8.1L41.8 190.6l95.2 95.2c5.8 5.9 15.8 1.7 15.8-6.6V177.7L123 207.3c-7.3 7.2-19.6 2.1-19.6-8.1v-23.5c0-3.1 1.2-6 3.3-8.1z" fill-rule="evenodd" fill="url(#a)"/><path d="M103.4 213c0 5 6.1 7.6 9.8 4l39.6-39.3q23.6-22.7 34.3-17.7 3.4 1.5 5.5 5.7v-49.4c0-12.8-15.5-19.2-24.6-10.1l-61.3 61.4c-2.1 2.1-3.3 5-3.3 8.1V213z" fill="url(#b)"/><path d="M30.8 145.9q-11.9 11.9 11 44.7L189.2 42.8c2.2-2.1 3.4-5 3.4-8.1V11.5c0-10.2-12.4-15.3-19.6-8.1L30.8 145.9z" fill="url(#c)"/><g><path d="M526.7 549.1l61.3-61.4c9.1-9 24.6-2.7 24.6 10.1v253.8c0 10.2-12.4 15.4-19.6 8.1L430 596.6c-13.4-13.5-13.4-35.3 0-48.7L593 385c7.2-7.3 19.6-2.2 19.6 8v23.3c0 3-1.2 5.9-3.4 8.1L461.8 572.1l95.2 95.2c5.8 5.9 15.8 1.7 15.8-6.6V559.2L543 588.9c-7.3 7.1-19.6 2.1-19.6-8.2v-23.5c0-3 1.2-5.9 3.3-8.1z" fill-rule="evenodd" fill="url(#d)" transform="rotate(180 420 381.548)"/><path d="M523.4 594.5c0 5.1 6.1 7.7 9.8 4.1l39.6-39.4q23.6-22.7 34.3-17.7 3.4 1.5 5.5 5.8v-49.5c0-12.8-15.5-19.1-24.6-10.1l-61.3 61.4c-2.1 2.2-3.3 5.1-3.3 8.1v37.3z" fill="url(#e)" transform="rotate(180 420 381.548)"/><path d="M450.8 527.4q-11.9 12 11 44.7l147.4-147.7c2.2-2.2 3.4-5.1 3.4-8.1V393c0-10.2-12.4-15.3-19.6-8L450.8 527.4z" fill="url(#f)" transform="rotate(180 420 381.548)"/></g><g><path d="M549.4 322h-50.6L591 60.2h58.5L741.8 322h-50.6l-69.9-208.1h-2L549.4 322zm1.6-102.7h138.1v38.2H551v-38.2zM820.6 60.2V322h-46.3V60.2h46.3zm133.2 265.7q-28.8 0-49.8-12.7-21.1-12.7-32.7-35.5-11.6-22.7-11.6-53.1 0-30.4 11.6-53.3t32.7-35.5q21-12.8 49.8-12.8 28.7 0 49.9 12.8 21.1 12.6 32.6 35.5 11.6 22.9 11.6 53.3t-11.6 53.1q-11.5 22.8-32.6 35.5-21.2 12.7-49.9 12.7zm.2-37.1q15.7 0 26.1-8.7 10.5-8.6 15.7-23.1 5.2-14.6 5.2-32.6t-5.2-32.6q-5.2-14.6-15.7-23.3-10.4-8.7-26.1-8.7-15.9 0-26.4 8.7-10.6 8.7-15.8 23.3-5.1 14.6-5.1 32.6t5.1 32.6q5.2 14.5 15.8 23.1 10.5 8.7 26.4 8.7zm301.7-163.2l-70 196.4h-51.1l-70-196.4h49.4l45.1 145.9h2.1l45.2-145.9h49.3zm82.7 200.4q-18.8 0-33.6-6.7-14.9-6.8-23.6-19.9-8.6-13.2-8.6-32.5 0-16.6 6.2-27.5 6.2-10.9 16.8-17.4 10.6-6.5 23.9-9.9 13.4-3.3 27.6-4.8 17.4-1.9 28.1-3.4 10.8-1.5 15.6-4.6 4.9-3.1 4.9-9.7v-.9q0-14.4-8.5-22.3t-24.7-7.9q-17 0-26.9 7.5-9.9 7.3-13.4 17.4l-43.2-6.1q5.1-17.9 17-30 11.7-12.1 28.7-18.1 17-6.2 37.6-6.2 14.1 0 28.2 3.4 14.1 3.3 25.7 10.9 11.7 7.7 18.8 20.7 7 13 7 32.6V322h-44.4v-27h-1.6q-4.2 8.2-11.8 15.3-7.6 7.1-19.1 11.4-11.4 4.3-26.7 4.3zm11.9-34q14 0 24.2-5.6 10.3-5.6 15.8-14.7 5.7-9.2 5.7-20.2v-23.1q-2.3 1.9-7.5 3.4-5.1 1.5-11.5 2.7l-12.7 2-10.9 1.5q-10.4 1.5-18.5 4.7-8.2 3.1-12.9 8.8-4.7 5.7-4.7 14.7 0 12.7 9.3 19.2 9.4 6.6 23.7 6.6zm166.9 32.9q-11.6 0-19.9-8.3-8.3-8.2-8.3-19.9 0-11.5 8.3-19.7t19.9-8.2q11.3 0 19.7 8.2 8.4 8.2 8.4 19.7 0 7.8-3.9 14.2-3.9 6.4-10.3 10.1-6.3 3.9-13.9 3.9zm76-199.3h46.3v207.6q0 21.3-8 35.1-8 13.7-23.3 20.6-15.2 6.7-37 6.7h-4.7l-4.7-.2v-37.7l3.5.1 3.2.1q13.3 0 19-6.4 5.7-6.5 5.7-18.9v-207zm23-27.8q-11 0-18.9-7.4-7.9-7.4-7.9-17.7 0-10.4 7.9-17.8t18.9-7.4q11.1 0 19 7.4 7.8 7.4 7.8 17.8 0 10.3-7.8 17.7-7.9 7.4-19 7.4zm226.1 79.8l-42.3 4.6q-1.7-6.5-6.1-12.1-4.4-5.6-11.9-9.1-7.3-3.5-18-3.5-14.5 0-24.3 6.3-9.7 6.3-9.7 16.3 0 8.5 6.4 13.9 6.5 5.4 21.4 8.9l33.5 7.1q27.8 6 41.5 19.1 13.6 13.1 13.7 34.1-.1 18.5-10.8 32.6-10.7 14.2-29.6 22.2-18.8 7.9-43.5 7.9-36 0-58-15.2-21.9-15.2-26.2-42.3l45.2-4.3q3 13.3 13 20 10 6.9 25.9 6.9 16.5 0 26.5-6.8 10.1-6.8 10.1-16.8 0-8.4-6.5-13.9-6.4-5.5-19.9-8.5l-33.6-7q-28.1-5.9-41.7-19.9-13.6-13.9-13.5-35.4-.1-18.1 9.9-31.5 10-13.4 28-20.8 17.9-7.4 41.5-7.4 34.6 0 54.4 14.8 19.9 14.7 24.6 39.8z" fill="#333"/></g></svg>