<svg xmlns="http://www.w3.org/2000/svg" fill="none" height="20" viewBox="0 0 115 20" width="115"><g fill="#000"><path d="m42.7615.0836069-7.3792 16.9837931c-.5414 1.2138-.9583 1.9574-1.3129 2.2453-.4887.4126-1.404.6189-2.7456.6189h-2.8175l-8.5004-19.8479931h2.8127c.882-.0334549 1.7617.1100961 2.5875.4221981.6181.364623 1.2075 1.280985 1.7777 2.749075l4.1735 11.03462 4.5952-12.02775c.22-.6801.6536-1.270795 1.2363-1.683983.7667-.377804 1.6203-.5434484 2.4725-.4797676z"/><path d="m84.9428 19.9317h-2.9373c-1.3416 0-2.2632-.1232-2.7647-.3694-.5016-.2463-1.1405-.9356-1.9167-2.0678l-6.9575-9.86886v12.30606c-2.4438 0-3.9531-.1679-4.5186-.5038-.6708-.387-1.0062-1.3673-1.0062-2.941v-16.4032011h2.8223c.9341-.0512939 1.8709.0261991 2.7839.2302931.5894.259075 1.2746.930748 2.0461 2.010228l6.9191 9.90718v-9.01482c0-1.47449.3466-2.378045 1.0398-2.710684.5655-.281463 2.0605-.4221971 4.485-.4221971z"/><path d="m114.986 19.9318c-2.45 0-3.957-.1679-4.519-.5038-.671-.3646-1.006-1.3449-1.006-2.941v-16.364808c2.418 0 3.945.167913 4.581.50375.635.335837.955 1.276188.958 2.821038z"/><path d="m14.3079.0834961h-2.99c-1.38957 0-2.30957.1407339-2.75999.4221979-.45042.28786-.92 1.031496-1.40875 2.245306l-7.14916 17.1805c2.96125 0 4.62236-.0656 4.98333-.1967.77306-.2815 1.52055-1.377 2.2425-3.2864h6.83767l-1.4614-3.9149c-.1246-.3647-.3354-1.1179-1.1213-1.1179h-2.32393l2.16103-5.60848 4.1352 10.64128c.3056.8298.6807 1.6322 1.1213 2.3988.4887.6397 1.3129.9883 2.4725 1.0459.3593 0 1.586.0384 3.6704.0384z"/><path d="m53.8718.0837402h-2.9756c-1.3896 0-2.3096.1407338-2.76.4221978-.4504.28786-.9248 1.031492-1.4135 2.245312l-7.1348 17.18045c2.966 0 4.624-.0672 4.9881-.1967.7731-.2815 1.519-1.3769 2.2377-3.2864h6.8425l-1.4614-3.9149c-.1246-.3646-.3355-1.1179-1.1213-1.1179h-2.3239l2.161-5.62283 4.1352 10.64123c.3056.8298.6807 1.6323 1.1213 2.3989.4887.6396 1.3129.9883 2.4725 1.0458.3593 0 1.586.0384 3.6704.0384z"/><path d="m100.803 1.23041c.001-.29691.12-.581242.33-.790744.21-.209503.494-.32712.791-.327117h4.399v3.890921c-.002.29736-.12.58217-.33.79243-.21.21027-.495.32896-.792.33022h-4.398z"/><path d="m99.7337 1.23037c.001-.20824.044-.414146.1264-.605387.0823-.191241.2019-.3639.3529-.507673h-10.4843c-.2966-.000003-.581.117614-.7912.327116-.2101.209503-.3288.49382-.3301.790734v3.90051h6.119v13.66383c-.0006.1472.0278.293.0836.4292s.138.26.2417.3643.227.1871.3628.2436c.1358.0564.2813.0855.4283.0855h3.8909z"/></g></svg>
