<?xml version="1.0" standalone="no"?>
<!DOCTYPE svg PUBLIC "-//W3C//DTD SVG 20010904//EN"
 "http://www.w3.org/TR/2001/REC-SVG-20010904/DTD/svg10.dtd">
<svg version="1.0" xmlns="http://www.w3.org/2000/svg"
 width="1082.000000pt" height="686.000000pt" viewBox="0 0 1082.000000 686.000000"
 preserveAspectRatio="xMidYMid meet">

<g transform="translate(0.000000,686.000000) scale(0.100000,-0.100000)"
fill="#000000" stroke="none">
<path d="M0 3430 l0 -3430 5410 0 5410 0 0 3430 0 3430 -5410 0 -5410 0 0
-3430z m5391 1050 c18 -10 19 -23 19 -194 l0 -183 -50 -27 -50 -27 0 33 c0 25
-6 37 -26 49 -25 15 -29 15 -55 0 -23 -13 -29 -23 -29 -51 0 -28 6 -39 28 -52
24 -14 30 -15 55 -1 l28 14 -3 -56 -3 -57 -153 -89 c-146 -85 -154 -88 -176
-73 -34 21 -51 93 -51 209 0 126 24 209 67 231 22 11 28 22 28 46 0 42 36 87
113 142 66 47 92 60 167 81 57 17 67 17 91 5z m180 -6 c84 -25 142 -58 208
-120 54 -50 61 -61 61 -94 0 -32 4 -39 30 -50 90 -37 97 -399 9 -449 -24 -13
-33 -10 -180 75 l-154 90 -3 58 -3 57 28 -14 c25 -14 31 -13 55 1 22 13 28 24
28 53 0 29 -5 38 -25 47 -14 7 -32 12 -39 12 -21 0 -56 -40 -56 -65 l0 -24
-45 26 -45 25 0 183 c0 165 2 185 18 194 24 15 50 13 113 -5z m-200 -596 c44
-24 48 -34 19 -43 -31 -10 -28 -77 5 -99 23 -15 28 -15 55 -1 40 21 43 74 4
102 l-26 19 51 23 50 24 156 -89 c148 -85 155 -90 155 -120 0 -66 -163 -183
-299 -214 -48 -11 -58 -11 -86 5 -30 15 -35 16 -63 1 -27 -14 -36 -14 -88 0
-82 21 -169 70 -236 134 -89 85 -88 88 90 192 81 47 153 86 161 87 7 1 31 -9
52 -21z m-2525 -885 c53 -28 74 -61 87 -139 15 -86 -1 -166 -42 -208 l-30 -31
32 -19 c24 -14 51 -19 107 -19 65 0 67 -1 17 -4 -32 -2 -57 -7 -54 -11 2 -4
10 -22 17 -39 8 -18 20 -33 27 -33 7 0 13 -4 13 -10 0 -5 -15 -10 -34 -10 -19
0 -38 5 -41 10 -3 6 -42 10 -86 10 -78 0 -79 0 -79 25 0 26 0 26 -82 23 l-83
-3 -3 -127 -3 -128 39 0 c22 0 60 3 86 6 l46 7 0 88 0 89 80 0 80 0 1 -77 c1
-43 4 -68 6 -55 9 45 18 12 15 -52 -4 -66 -4 -66 -34 -66 -37 0 -33 -24 5 -28
15 -2 27 -10 27 -18 0 -11 -20 -14 -105 -14 -63 0 -105 -4 -105 -10 0 -6 -45
-10 -115 -10 -70 0 -115 4 -115 10 0 6 -9 10 -20 10 -18 0 -20 7 -20 65 l0 65
30 0 c23 0 30 4 30 20 0 15 -7 20 -29 20 -34 0 -41 17 -41 108 0 48 -3 62 -15
62 -9 0 -15 9 -15 24 0 13 -6 27 -12 29 -7 3 -1 6 15 6 15 1 27 -3 27 -9 0 -5
-5 -10 -12 -10 -6 0 -8 -3 -5 -6 4 -4 12 -2 19 4 7 6 31 12 53 15 l40 4 -43 1
c-35 2 -45 6 -49 22 -3 11 -9 20 -14 20 -5 0 -9 95 -9 211 l0 211 178 -4 c158
-3 181 -6 218 -25z m1163 -3 c71 -40 86 -80 86 -225 0 -100 -3 -127 -20 -160
-17 -35 -25 -40 -58 -43 -29 -3 -37 -7 -37 -23 0 -16 7 -19 50 -19 l50 0 0
-105 0 -105 -30 0 c-20 0 -30 -5 -30 -15 0 -11 12 -15 45 -15 l45 0 0 -60 0
-60 -90 0 -90 0 0 100 0 100 -35 0 -35 0 0 60 0 60 -65 0 -65 0 0 -110 c0 -91
3 -110 15 -110 12 0 15 -13 15 -60 l0 -60 -85 0 -85 0 0 175 0 175 35 0 c24 0
35 5 35 15 0 10 -11 15 -35 15 l-35 0 0 251 0 251 188 -4 c178 -3 189 -4 231
-28z m537 8 c18 -10 44 -32 59 -50 23 -27 36 -34 79 -38 61 -6 64 -24 4 -28
l-43 -3 0 -112 c0 -94 -4 -120 -22 -159 -20 -44 -25 -48 -57 -48 -29 0 -36 -4
-36 -20 0 -17 7 -20 50 -20 l51 0 -3 -102 -3 -103 -27 -3 c-49 -6 -34 -32 17
-32 l45 0 0 -60 0 -60 -95 0 -95 0 0 100 0 100 -35 0 -35 0 0 60 0 60 -60 0
-60 0 0 -110 c0 -67 4 -110 10 -110 6 0 10 -27 10 -60 l0 -60 -85 0 -85 0 0
175 0 175 40 0 c29 0 40 4 40 15 0 11 -11 15 -40 15 l-40 0 0 251 0 251 193
-4 c157 -3 198 -6 223 -20z m348 6 c3 -9 6 -33 6 -53 0 -42 11 -80 68 -229
l39 -103 51 143 c28 79 54 169 57 201 l6 57 79 0 79 0 -6 -37 c-13 -91 -35
-165 -81 -268 -46 -104 -50 -110 -80 -113 l-32 -3 0 -75 0 -74 -45 0 c-33 0
-45 -4 -45 -15 0 -11 12 -15 45 -15 l45 0 0 -140 0 -140 -85 0 -85 0 0 70 c0
40 -4 70 -10 70 -6 0 -10 47 -10 120 l0 120 25 0 c37 0 32 28 -6 32 -29 3 -34
10 -86 128 -30 69 -61 142 -68 163 l-14 37 34 0 c50 0 47 28 -2 32 -38 3 -38
3 -43 56 l-6 52 82 0 c65 0 83 -3 88 -16z m709 -176 c42 -106 79 -201 83 -210
5 -15 0 -18 -35 -18 -30 0 -41 -4 -41 -15 0 -11 12 -15 49 -15 l48 0 21 -52
21 -53 0 53 1 52 35 0 c24 0 35 5 35 15 0 11 -11 15 -40 15 -30 0 -40 -4 -40
-16 0 -9 -7 -14 -17 -12 -25 5 -28 28 -4 28 21 0 21 4 21 210 l0 210 80 0 80
0 0 -250 c0 -160 4 -250 10 -250 6 0 10 -38 10 -94 l0 -95 -32 -3 c-22 -2 -34
-9 -36 -20 -3 -15 4 -18 32 -18 l36 0 0 -60 0 -61 -117 3 -118 3 -3 73 c-2 62
-5 72 -21 72 -15 0 -31 29 -72 128 -46 111 -54 138 -58 216 -4 59 -10 91 -18
94 -10 3 -13 -47 -13 -227 0 -199 -2 -231 -15 -231 -12 0 -15 -15 -15 -75 l0
-75 -75 0 -75 0 0 165 c0 140 2 165 15 165 13 0 15 37 15 270 l0 270 88 0 88
0 77 -192z m852 168 c91 -38 130 -105 145 -247 5 -52 10 -97 10 -101 0 -5 -16
-8 -35 -8 -28 0 -35 -4 -35 -20 0 -16 7 -20 35 -20 l35 0 0 -154 c0 -153 0
-155 -22 -158 -20 -3 -23 -10 -26 -60 l-3 -58 -39 0 c-29 0 -40 -4 -40 -15 0
-13 -23 -15 -150 -15 -121 0 -150 3 -150 14 0 7 -9 16 -20 19 -17 4 -20 14
-20 61 l0 56 -35 0 c-34 0 -35 1 -35 40 0 33 3 40 20 40 15 0 20 7 20 25 0 20
-5 25 -25 25 -18 0 -25 -5 -25 -20 0 -17 -7 -20 -50 -20 -43 0 -50 3 -50 20 0
17 7 20 39 20 l39 0 4 198 c4 181 6 202 29 256 43 105 127 149 269 142 42 -2
93 -11 115 -20z m656 -2 c93 -43 133 -117 151 -278 7 -58 16 -106 20 -106 4 0
8 -7 8 -15 0 -11 12 -15 43 -16 l42 -2 -40 -6 -40 -6 -3 -82 -3 -83 -124 0
c-77 0 -125 4 -125 10 0 6 18 10 40 10 l40 0 0 94 c0 74 -3 95 -15 100 -12 4
-15 23 -15 81 0 133 -33 175 -137 175 l-63 0 0 -130 c0 -80 4 -130 10 -130 6
0 10 -42 10 -105 l0 -105 -85 0 -85 0 0 100 c0 60 -4 100 -10 100 -6 0 -10 77
-10 211 l0 211 173 -4 c150 -3 178 -6 218 -24z m1192 -6 c48 -27 83 -82 93
-147 8 -53 -1 -61 -71 -61 -49 0 -50 1 -67 40 -19 47 -54 64 -110 55 -46 -8
-68 -36 -68 -85 0 -54 24 -78 124 -125 50 -24 100 -50 111 -59 19 -14 15 -15
-52 -16 -42 0 -73 -4 -73 -10 0 -6 39 -10 98 -10 132 0 132 0 132 -165 l0
-125 -25 0 c-24 0 -25 -2 -25 -70 l0 -70 -195 0 -195 0 0 70 0 70 -45 0 -45 0
0 45 c0 43 -1 45 -30 45 -20 0 -30 5 -30 15 0 10 10 15 30 15 17 0 30 5 30 10
0 6 37 10 90 10 l90 0 0 -70 0 -70 90 0 90 0 0 110 0 110 -70 0 -70 0 0 35 0
35 -87 2 c-49 1 -69 3 -45 5 23 2 42 7 42 10 0 3 -11 14 -24 24 -42 33 -76
115 -76 183 1 99 31 160 93 193 76 39 220 40 290 1z m-4785 -45 l-3 -68 -127
-3 -128 -3 0 -94 0 -95 113 0 112 0 1 -70 1 -70 -99 0 -98 0 0 -90 c0 -89 0
-90 -25 -90 -14 0 -25 -4 -25 -10 0 -5 11 -10 24 -10 19 0 25 -6 28 -27 l3
-28 115 -6 c63 -3 109 -6 103 -7 -9 -1 -13 -21 -13 -57 l0 -55 -135 0 c-83 0
-135 -4 -135 -10 0 -6 -28 -10 -65 -10 l-65 0 0 128 c0 70 -3 164 -7 210 l-6
82 37 0 c20 0 36 5 36 10 0 6 -16 10 -35 10 l-35 0 0 215 0 215 215 0 216 0
-3 -67z m4282 -3 l0 -70 -130 0 -130 0 0 -95 0 -95 115 0 115 0 0 -39 c0 -21
3 -53 6 -70 l7 -31 -102 0 -101 0 0 -90 c0 -89 0 -90 -25 -90 -14 0 -25 -4
-25 -10 0 -5 11 -10 25 -10 21 0 25 -5 25 -30 l0 -30 118 -1 c64 0 111 -3 105
-6 -8 -3 -13 -25 -13 -59 l0 -54 -135 0 c-83 0 -135 -4 -135 -10 0 -6 -28 -10
-65 -10 l-65 0 0 115 0 115 -45 0 c-33 0 -45 4 -45 15 0 11 12 15 45 15 41 0
45 2 45 24 0 14 -4 28 -10 31 -5 3 -10 28 -10 56 l0 49 34 0 c48 0 55 18 9 22
l-38 3 -3 213 -2 212 215 0 215 0 0 -70z m-1876 -205 c-4 -8 -8 -15 -10 -15
-2 0 -4 7 -4 15 0 8 4 15 10 15 5 0 7 -7 4 -15z m1 -95 c3 -5 1 -10 -4 -10 -6
0 -11 5 -11 10 0 6 2 10 4 10 3 0 8 -4 11 -10z m785 -20 c0 -5 -22 -10 -50
-10 -27 0 -50 5 -50 10 0 6 23 10 50 10 28 0 50 -4 50 -10z m-780 -20 c0 -5
-2 -10 -4 -10 -3 0 -8 5 -11 10 -3 6 -1 10 4 10 6 0 11 -4 11 -10z m2518 -27
c-10 -2 -26 -2 -35 0 -10 3 -2 5 17 5 19 0 27 -2 18 -5z m-2512 -15 c4 -6 3
-8 -4 -4 -5 3 -13 0 -15 -6 -3 -8 -6 -6 -6 5 -1 19 14 23 25 5z m-3166 -78 c0
-5 -16 -10 -35 -10 -19 0 -35 5 -35 10 0 6 16 10 35 10 19 0 35 -4 35 -10z
m200 -35 c0 -8 -4 -15 -10 -15 -5 0 -7 7 -4 15 4 8 8 15 10 15 2 0 4 -7 4 -15z
m2190 -10 c0 -10 -11 -15 -35 -15 -24 0 -35 5 -35 15 0 10 11 15 35 15 24 0
35 -5 35 -15z m-2203 -47 c-3 -7 -5 -2 -5 12 0 14 2 19 5 13 2 -7 2 -19 0 -25z
m3761 0 c-3 -7 -21 -14 -41 -16 -28 -2 -37 1 -37 12 0 12 11 16 41 16 28 0 39
-4 37 -12z m312 -3 c0 -12 -13 -15 -55 -15 -42 0 -55 3 -55 15 0 12 13 15 55
15 42 0 55 -3 55 -15z m-118 -42 c3 -27 5 -28 63 -28 58 0 60 1 63 28 l3 27
125 0 124 0 0 -25 c0 -25 -1 -25 -85 -25 l-85 0 0 -80 0 -80 -105 0 c-63 0
-105 -4 -105 -10 0 -6 -38 -10 -95 -10 l-95 0 0 115 0 115 94 0 95 0 3 -27z
m-4145 -9 c-3 -3 -12 -4 -19 -1 -8 3 -5 6 6 6 11 1 17 -2 13 -5z m-2 -24 c3
-5 -1 -10 -10 -10 -9 0 -13 5 -10 10 3 6 8 10 10 10 2 0 7 -4 10 -10z m2905
-10 c0 -5 -4 -10 -10 -10 -5 0 -10 5 -10 10 0 6 5 10 10 10 6 0 10 -4 10 -10z
m-177 -25 c-3 -9 -8 -14 -10 -11 -3 3 -2 9 2 15 9 16 15 13 8 -4z m174 -70 c0
-8 -4 -12 -9 -9 -5 3 -6 10 -3 15 9 13 12 11 12 -6z m236 -62 c-40 -2 -107 -2
-150 0 -43 1 -10 3 72 3 83 0 118 -2 78 -3z"/>
<path d="M2620 2759 l0 -112 51 5 c76 8 94 31 94 119 0 85 -13 99 -92 99 l-53
0 0 -111z"/>
<path d="M3760 2756 l0 -126 69 0 c62 0 72 3 89 25 14 17 30 25 51 25 24 0 31
4 31 20 0 15 -7 20 -29 20 -16 0 -31 -6 -35 -15 -3 -10 -19 -15 -46 -15 -29 0
-40 4 -40 15 0 11 12 15 45 15 l45 0 0 54 c0 81 -19 99 -109 104 l-71 4 0
-126z"/>
<path d="M4300 2756 l0 -126 70 0 c63 0 74 3 94 25 15 16 34 25 55 25 24 0 31
4 31 20 0 15 -7 20 -29 20 -28 0 -29 2 -33 60 -6 82 -19 94 -113 98 l-75 4 0
-126z m180 -51 c0 -11 -11 -15 -40 -15 -29 0 -40 4 -40 15 0 11 11 15 40 15
29 0 40 -4 40 -15z"/>
<path d="M6245 2850 c-13 -14 -21 -48 -29 -115 l-10 -95 -28 0 c-21 0 -28 -5
-28 -20 0 -16 7 -20 30 -20 l29 0 3 -157 3 -158 73 -3 c71 -3 72 -3 72 23 0
22 4 25 35 25 l35 0 0 204 c0 317 -6 336 -109 336 -45 0 -62 -4 -76 -20z"/>
<path d="M7890 2385 c0 -9 9 -15 25 -15 16 0 25 6 25 15 0 9 -9 15 -25 15 -16
0 -25 -6 -25 -15z"/>
</g>
</svg>
