<svg xmlns="http://www.w3.org/2000/svg" xmlns:xlink="http://www.w3.org/1999/xlink" viewBox="0 0 150 150"><defs><style>.cls-1{fill:url(#linear-gradient);}.cls-2{fill:#fff;}</style><linearGradient id="linear-gradient" x1="75" y1="150" x2="75" gradientUnits="userSpaceOnUse"><stop offset="0" stop-color="#594b96"/><stop offset="1" stop-color="#743a8d"/></linearGradient></defs><title>Asset 2</title><g id="Layer_2" data-name="Layer 2"><g id="Layer_1-2" data-name="Layer 1"><circle class="cls-1" cx="75" cy="75" r="75"/><path class="cls-2" d="M105.63,88.1a5.48,5.48,0,0,0-1.37.24,8.32,8.32,0,0,1-1.84.3,2.24,2.24,0,0,1-2.19-1.19,8.45,8.45,0,0,1-.53-3.61v-8.9h5c2.13,0,3.2-1.07,3.2-3.32s-1.07-3.32-3.2-3.32h-5V63.08c0-2.13-1.31-3.2-4-3.2s-4,1.07-4,3.2V68.3H89.68c-2.14,0-3.21,1.07-3.21,3.32s1.07,3.32,3.21,3.32h2.07v8.9c0,2.72.12,5.27,1.31,7.41,1.3,2.37,3.85,4.09,8.12,4.09A12.47,12.47,0,0,0,107.05,94a2.49,2.49,0,0,0,1.42-2.31C108.47,90.42,107.82,88.1,105.63,88.1Z"/><path class="cls-2" d="M81.58,71c0-2.14-1.3-3.2-4-3.2s-4,1.06-4,3.2V92c0,2.13,1.3,3.2,4,3.2s4-1.07,4-3.2Z"/><path class="cls-2" d="M82.29,59.94a4.69,4.69,0,0,0-9.37,0,4.69,4.69,0,0,0,9.37,0Z"/><path class="cls-2" d="M55.17,67.77a10.05,10.05,0,0,0-5.7,1.48V57.86c0-2.13-1.3-3.2-4-3.2s-4,1.07-4,3.2v30c0,2,0,4,2.72,5.51a17.75,17.75,0,0,0,8.78,2c9.25,0,14.41-5.58,14.41-14.23S62.4,67.77,55.17,67.77ZM53.09,88.93a7.16,7.16,0,0,1-3.62-.88V75.36a6.08,6.08,0,0,1,3.74-1.19c3.67,0,6.11,2.73,6.11,7.47S56.94,88.93,53.09,88.93Z"/></g></g></svg>