<svg width="112" height="112" viewBox="0 0 112 112" fill="none" xmlns="http://www.w3.org/2000/svg">
<g clip-path="url(#clip0_1630_1232)">
<path d="M56.0515 104.184C82.6302 104.184 104.176 82.6381 104.176 56.0595C104.176 29.4808 82.6302 7.93457 56.0515 7.93457C29.4729 7.93457 7.92664 29.4808 7.92664 56.0595C7.92664 82.6381 29.4729 104.184 56.0515 104.184Z" fill="url(#paint0_linear_1630_1232)" fill-opacity="0.6"/>
<path d="M56.0515 104.184C82.6302 104.184 104.176 82.6381 104.176 56.0595C104.176 29.4808 82.6302 7.93457 56.0515 7.93457C29.4729 7.93457 7.92664 29.4808 7.92664 56.0595C7.92664 82.6381 29.4729 104.184 56.0515 104.184Z" fill="url(#paint1_linear_1630_1232)"/>
<path fill-rule="evenodd" clip-rule="evenodd" d="M0.112183 56.0561C0.112183 25.1591 25.1591 0.112183 56.0561 0.112183C86.9531 0.112183 112 25.1591 112 56.0561C112 86.9531 86.9531 112 56.0561 112C25.1591 112 0.112183 86.9531 0.112183 56.0561ZM56.0561 4.15632C27.3926 4.15632 4.15632 27.3926 4.15632 56.0561C4.15632 84.7195 27.3926 107.956 56.0561 107.956C84.7195 107.956 107.956 84.7195 107.956 56.0561C107.956 27.3926 84.7195 4.15632 56.0561 4.15632Z" fill="url(#paint2_linear_1630_1232)"/>
<path fill-rule="evenodd" clip-rule="evenodd" d="M39.7705 17.1532C40.2869 18.1434 39.9027 19.3647 38.9125 19.8811C30.2512 24.3978 24.7278 29.3573 19.8725 38.4346C19.3458 39.4193 18.1205 39.7906 17.1358 39.2639C16.151 38.7371 15.7797 37.5119 16.3065 36.5271C21.5886 26.652 27.7453 21.1435 37.0426 16.2952C38.0328 15.7789 39.2541 16.163 39.7705 17.1532Z" fill="white"/>
<path fill-rule="evenodd" clip-rule="evenodd" d="M51.2595 60.5365C51.2595 66.0257 47.9886 69.5598 42.1235 69.5598C40.018 69.5598 38.063 69.1462 36.5591 68.2815C34.8297 67.304 34.8297 66.0633 34.8297 64.785V45.7985C34.8297 44.4451 35.6568 43.7683 37.3486 43.7683C39.0405 43.7683 39.8676 44.4451 39.8676 45.7985V53.0172C40.8076 52.378 42.0483 52.0772 43.4769 52.0772C48.0638 52.0772 51.2595 55.1226 51.2595 60.5365ZM39.8676 64.9354C40.5068 65.3113 41.2963 65.4993 42.1611 65.4993C44.6049 65.4993 46.1087 63.8451 46.1087 60.8749C46.1087 57.8672 44.5673 56.1377 42.2362 56.1377C41.3339 56.1377 40.5068 56.4009 39.8676 56.8896V64.9354ZM60.6775 47.1144C60.6775 48.8439 59.4369 50.047 57.7074 50.047C55.9779 50.047 54.7372 48.8439 54.7372 47.1144C54.7372 45.385 55.9779 44.2195 57.7074 44.2195C59.4369 44.2195 60.6775 45.385 60.6775 47.1144ZM60.2264 54.1075V67.4544C60.2264 68.8079 59.3993 69.4846 57.7074 69.4846C56.0155 69.4846 55.1884 68.8079 55.1884 67.4544V54.1075C55.1884 52.754 56.0155 52.0772 57.7074 52.0772C59.3993 52.0772 60.2264 52.754 60.2264 54.1075ZM75.4719 64.973C76.863 64.973 77.2766 66.4393 77.2766 67.2664C77.2766 67.7927 77.0886 68.3191 76.3743 68.7327C75.5471 69.2214 74.1185 69.5598 72.6522 69.5598C69.9452 69.5598 68.3285 68.4695 67.5014 66.9656C66.7495 65.6121 66.6743 63.9955 66.6743 62.266V56.6265H65.3584C64.0049 56.6265 63.3281 55.9497 63.3281 54.521C63.3281 53.0923 64.0049 52.4156 65.3584 52.4156H66.6743V49.1071C66.6743 47.7536 67.5014 47.0768 69.1933 47.0768C70.8851 47.0768 71.7123 47.7536 71.7123 49.1071V52.4156H74.8704C76.2239 52.4156 76.9006 53.0923 76.9006 54.521C76.9006 55.9497 76.2239 56.6265 74.8704 56.6265H71.7123V62.266C71.7123 62.9427 71.7123 63.9203 72.0506 64.5594C72.3138 65.0858 72.8026 65.3114 73.4417 65.3114C73.8553 65.3114 74.2688 65.1986 74.6072 65.1234C74.908 65.0482 75.1712 64.973 75.4719 64.973Z" fill="white"/>
</g>
<defs>
<linearGradient id="paint0_linear_1630_1232" x1="2.50662" y1="-42.7574" x2="104.176" y2="88.8893" gradientUnits="userSpaceOnUse">
<stop offset="0.338542" stop-color="#FA72A1" stop-opacity="0"/>
<stop offset="1" stop-color="#FA72A1"/>
</linearGradient>
<linearGradient id="paint1_linear_1630_1232" x1="34.7225" y1="34.8355" x2="107.572" y2="124.405" gradientUnits="userSpaceOnUse">
<stop offset="0.015625" stop-color="#2A00BB"/>
<stop offset="1" stop-color="#861D89"/>
</linearGradient>
<linearGradient id="paint2_linear_1630_1232" x1="92.9533" y1="105.255" x2="14.4357" y2="10.0924" gradientUnits="userSpaceOnUse">
<stop stop-color="#BE51A6"/>
<stop offset="1" stop-color="#3400EA"/>
</linearGradient>
<clipPath id="clip0_1630_1232">
<rect width="112" height="112" rx="56" fill="white"/>
</clipPath>
</defs>
</svg>
