<svg xmlns="http://www.w3.org/2000/svg" xml:space="preserve" viewBox="0 0 746.9 280.1">
<style>
@media (prefers-color-scheme: dark) {
  path {
    fill: #FFFFFF;
  }
}
</style>
<path fill="#040302" d="M203.9 198c-1.5-4.5-5.4-8.3-7.8-12.2-4.5-7.3-2.8-15.9-1.1-23.8 2-9.2 2-13.8 2.8-23.2 1.5-17.9.8-35.9-2.1-53.5-2.8-17.3-8.5-34-11.7-51.3-1.9-10-5.4-18.7-9.3-28-1.2-2.8-2-2.4-3.5-.3-6.2 9.2-11.7 18.8-16.4 28.8-1.3 2.6-13.7 29.4-12.3 29.8-7.1-2.1-17.5-5.5-38.5-5.5-19.6 0-29.3 2.8-36.5 5.5 0 0-3-7.3-3.3-7.8-7-14.1-14.1-28.2-22.2-41.6-1-1.7-4.7-10.5-7.2-9.1-4.7 2.6-6.5 13.5-7.8 18.3-5.5 20.1-11 41.3-13.7 62-3.4 26.4-4.8 52.9-1.8 79.4.5 4.1 1.2 8.9.2 12.9-1.6 6.3-7.6 10.3-9.8 16.4-2.1 5.9 1.8 10.6 7.3 11 1.4.1 13.5-3.2 13.1-5.2.6 2.9 1 5.1 1.5 7.2 3.2 13.6 16.1 54.5 27.4 61 7.3 4.2 13.3-.1 13.4-8.9 0-1.4-.1-2.9-.2-4.7 12.7 4.7 26.1 7.1 39.6 7.2 14.1-.1 28.2-2.5 41.5-7.2-.1 1.8-.3 3.3-.2 4.7.1 8.8 6.1 13 13.4 8.9 6.8-3.9 10.3-13.5 13-20.6 3.9-10.4 8-26 10.6-36.9.5-2.1.9-4.3 1.5-7.2-.2 1.1 10.1 4.9 11.3 5 4.1.6 8.6-.7 9.3-5.7.3-1.7.1-3.6-.5-5.4zM73.5 121.1c6.4-.1 11.6 5 11.7 11.4.1 6.4-5 11.6-11.4 11.7-6.4.1-11.6-5-11.7-11.4v-.2c0-6.3 5.1-11.4 11.4-11.5zm-27.3 60.3-3.7-1.4s1.4-4.9 1.9-6.7l5.2-15.8 9.2 27c-4.3-.7-8.5-1.8-12.6-3.1zm15.1 3.4c3.9-7.6 11.5-18.8 15-25l2.5 6.9c2.2 6.5 5.1 13.9 6.9 20.7-8.9-.5-17.2-1.4-24.4-2.6zm45.3 3.3c-6 0-11.9-.1-17.5-.4l16.4-27.7c4.4 9.3 8.7 18.6 13 28-4 0-7.9.1-11.9.1zm15.5-.4c4.6-9.7 8.1-19.6 12.3-27.8 4.3 9.9 6.6 15.8 11.1 25.8-7.1 1-15 1.7-23.4 2zm15.5-43.5c-6.4.1-11.6-5-11.7-11.4-.1-6.4 5-11.6 11.4-11.7 6.4-.1 11.6 5 11.7 11.4v.1c0 6.4-5 11.6-11.4 11.6zm31.2 36.8c-6.4 1.9-12.9 3.3-19.6 4.2l16.1-27.8 3.8 23c0 .3-.1.4-.3.6zM332.7 143.3c2.7 3.2 6.5 4.9 11.5 4.9 3.3.1 6.5-.9 9.2-2.7 4.8-3.2 6.2-9.7 3-14.5-.8-1.2-1.8-2.2-3-3-2.7-1.9-5.9-2.8-9.2-2.7h-43.9c-3.3-.1-6.6.9-9.3 2.7-3 1.9-4.8 5.2-4.7 8.8v53.5c0 3.5 1.8 6.8 4.8 8.7 2.7 1.9 5.9 2.9 9.2 2.8h43.9c3.3.1 6.5-.9 9.2-2.8 3-1.9 4.8-5.2 4.7-8.7 0-3.5-1.7-6.8-4.7-8.8-2.7-1.9-5.9-3-9.2-2.9-4.9 0-8.8 1.7-11.5 5h-18.4v-40.3h18.4zM431.9 128.1c-2.7-1.9-5.9-2.9-9.2-2.8h-44c-3.3 0-6.6 1-9.4 2.8-2.9 2-4.6 5.3-4.5 8.8v53.3c-.1 3.6 1.7 6.9 4.7 8.8 2.7 1.9 5.9 2.9 9.2 2.8h44c3.3.1 6.5-.9 9.1-2.8 3.1-1.9 4.9-5.2 4.8-8.8 0-3.5-1.8-6.8-4.8-8.7-2.7-1.9-5.9-2.9-9.2-2.8-4.9 0-8.8 1.7-11.4 5h-18.5v-13.6h29.9c3.3.1 6.4-.9 9.1-2.8 3-1.8 4.9-5.1 4.8-8.6v-21.8c.2-3.6-1.6-6.9-4.6-8.8zm-23.2 24h-15.8v-8.8h15.8v8.8zM500.9 128c-2.7-1.8-6-2.8-9.3-2.7h-32.5c-3.3-.1-6.6.9-9.3 2.7-3 1.9-4.8 5.2-4.7 8.8v53.5c0 3.5 1.8 6.8 4.8 8.7 5.6 3.8 12.9 3.8 18.5 0 3-1.9 4.8-5.2 4.7-8.7v-47h7.2c2.7 3.2 6.6 4.9 11.4 4.9 3.3.1 6.5-.9 9.2-2.7 3-1.9 4.8-5.2 4.8-8.7 0-3.6-1.8-6.9-4.8-8.8zM578.8 128c-2.7-1.9-5.9-2.8-9.2-2.7h-29.9v-12.8c0-3.5-1.7-6.8-4.7-8.8-2.7-1.9-5.9-2.9-9.2-2.8-3.3-.1-6.6.9-9.3 2.8-3 1.9-4.7 5.3-4.7 8.8v77.9c0 3.5 1.8 6.8 4.8 8.7 2.7 1.9 5.9 2.9 9.2 2.8h43.9c3.3.1 6.5-.9 9.2-2.8 3-1.9 4.8-5.2 4.7-8.7v-53.5c0-3.7-1.8-7-4.8-8.9zm-23.2 55.6h-15.9v-40.2h15.9v40.2zM659.5 128c-2.7-1.9-5.9-2.8-9.2-2.7h-43.9c-3.3-.1-6.6.9-9.3 2.7-3 1.9-4.8 5.2-4.7 8.8v53.5c0 3.5 1.8 6.8 4.8 8.7 2.7 1.9 5.9 2.9 9.2 2.8h43.9c3.3.1 6.5-.9 9.2-2.8 3-1.9 4.8-5.2 4.7-8.7v-53.5c.1-3.6-1.7-6.9-4.7-8.8zm-23.3 55.6h-15.9v-40.2h15.9v40.2zM740.2 157.2c-2.7-1.9-5.9-3-9.2-2.9h-30v-11h18c2.9 4.9 6.9 7.4 12 7.4 7.6-.3 13.6-6.4 13.9-13.9.1-3.5-1.7-6.9-4.7-8.8-2.7-1.9-5.9-2.8-9.2-2.7h-43.9c-3.3-.1-6.6.9-9.3 2.7-3 1.9-4.8 5.2-4.7 8.8v24.3c0 3.5 1.8 6.8 4.8 8.7 2.7 1.8 5.9 2.8 9.2 2.7H717v11h-18.5c-2.6-3.3-6.5-5-11.4-5-3.3-.1-6.6.9-9.3 2.8-2.9 2-4.7 5.3-4.7 8.8 0 3.5 1.8 6.8 4.8 8.7 2.7 1.9 5.9 2.9 9.2 2.8H731c3.3.1 6.5-.9 9.2-2.8 3-1.9 4.8-5.2 4.7-8.7V166c.1-3.5-1.7-6.8-4.7-8.8z"/>
</svg>