<?xml version="1.0" encoding="UTF-8" standalone="no"?>
<svg
   viewBox="0 0 746.89 280.13"
   version="1.1"
   id="svg66"
   sodipodi:docname="Cerbos_horizontal_ornage.svg"
   inkscape:version="1.1 (c68e22c387, 2021-05-23)"
   xmlns:inkscape="http://www.inkscape.org/namespaces/inkscape"
   xmlns:sodipodi="http://sodipodi.sourceforge.net/DTD/sodipodi-0.dtd"
   xmlns="http://www.w3.org/2000/svg"
   xmlns:svg="http://www.w3.org/2000/svg">
  <sodipodi:namedview
     id="namedview68"
     pagecolor="#505050"
     bordercolor="#eeeeee"
     borderopacity="1"
     inkscape:pageshadow="0"
     inkscape:pageopacity="0"
     inkscape:pagecheckerboard="0"
     showgrid="true"
     inkscape:zoom="1.9025559"
     inkscape:cx="373.1822"
     inkscape:cy="182.12343"
     inkscape:window-width="2560"
     inkscape:window-height="1369"
     inkscape:window-x="0"
     inkscape:window-y="0"
     inkscape:window-maximized="1"
     inkscape:current-layer="svg66">
    <inkscape:grid
       type="xygrid"
       id="grid2746" />
  </sodipodi:namedview>
  <defs
     id="defs4">
    <style
       id="style2">.cls-1{isolation:isolate;}.cls-2{fill:#e6e6e6;mix-blend-mode:multiply;}.cls-3{fill:#ef8d2b;}</style>
    <mask
       maskUnits="userSpaceOnUse"
       id="mask980">
      <path
         d="m 674.16,226.42 h 3.07 c 0.08,1.62 1.44,2.46 3.28,2.46 1.84,0 3,-0.72 3,-2 0,-1.45 -1.64,-1.78 -3.51,-2.1 -2.55,-0.44 -5.55,-1 -5.55,-4.56 0,-2.74 2.37,-4.62 5.93,-4.62 3.56,0 5.85,1.94 5.92,4.9 h -3 c -0.06,-1.45 -1.17,-2.23 -3,-2.23 -1.83,0 -2.81,0.74 -2.81,1.85 0,1.35 1.56,1.62 3.41,1.92 2.58,0.43 5.72,0.93 5.72,4.7 0,3 -2.48,4.89 -6.2,4.89 -3.72,0 -6.18,-2.04 -6.26,-5.21 z"
         id="path982" />
    </mask>
    <mask
       maskUnits="userSpaceOnUse"
       id="mask984">
      <path
         d="m 674.16,226.42 h 3.07 c 0.08,1.62 1.44,2.46 3.28,2.46 1.84,0 3,-0.72 3,-2 0,-1.45 -1.64,-1.78 -3.51,-2.1 -2.55,-0.44 -5.55,-1 -5.55,-4.56 0,-2.74 2.37,-4.62 5.93,-4.62 3.56,0 5.85,1.94 5.92,4.9 h -3 c -0.06,-1.45 -1.17,-2.23 -3,-2.23 -1.83,0 -2.81,0.74 -2.81,1.85 0,1.35 1.56,1.62 3.41,1.92 2.58,0.43 5.72,0.93 5.72,4.7 0,3 -2.48,4.89 -6.2,4.89 -3.72,0 -6.18,-2.04 -6.26,-5.21 z"
         id="path986" />
    </mask>
    <mask
       maskUnits="userSpaceOnUse"
       id="mask988">
      <path
         d="m 674.16,226.42 h 3.07 c 0.08,1.62 1.44,2.46 3.28,2.46 1.84,0 3,-0.72 3,-2 0,-1.45 -1.64,-1.78 -3.51,-2.1 -2.55,-0.44 -5.55,-1 -5.55,-4.56 0,-2.74 2.37,-4.62 5.93,-4.62 3.56,0 5.85,1.94 5.92,4.9 h -3 c -0.06,-1.45 -1.17,-2.23 -3,-2.23 -1.83,0 -2.81,0.74 -2.81,1.85 0,1.35 1.56,1.62 3.41,1.92 2.58,0.43 5.72,0.93 5.72,4.7 0,3 -2.48,4.89 -6.2,4.89 -3.72,0 -6.18,-2.04 -6.26,-5.21 z"
         id="path990" />
    </mask>
    <mask
       maskUnits="userSpaceOnUse"
       id="mask992">
      <path
         d="m 674.16,226.42 h 3.07 c 0.08,1.62 1.44,2.46 3.28,2.46 1.84,0 3,-0.72 3,-2 0,-1.45 -1.64,-1.78 -3.51,-2.1 -2.55,-0.44 -5.55,-1 -5.55,-4.56 0,-2.74 2.37,-4.62 5.93,-4.62 3.56,0 5.85,1.94 5.92,4.9 h -3 c -0.06,-1.45 -1.17,-2.23 -3,-2.23 -1.83,0 -2.81,0.74 -2.81,1.85 0,1.35 1.56,1.62 3.41,1.92 2.58,0.43 5.72,0.93 5.72,4.7 0,3 -2.48,4.89 -6.2,4.89 -3.72,0 -6.18,-2.04 -6.26,-5.21 z"
         id="path994" />
    </mask>
    <mask
       maskUnits="userSpaceOnUse"
       id="mask996">
      <path
         d="m 674.16,226.42 h 3.07 c 0.08,1.62 1.44,2.46 3.28,2.46 1.84,0 3,-0.72 3,-2 0,-1.45 -1.64,-1.78 -3.51,-2.1 -2.55,-0.44 -5.55,-1 -5.55,-4.56 0,-2.74 2.37,-4.62 5.93,-4.62 3.56,0 5.85,1.94 5.92,4.9 h -3 c -0.06,-1.45 -1.17,-2.23 -3,-2.23 -1.83,0 -2.81,0.74 -2.81,1.85 0,1.35 1.56,1.62 3.41,1.92 2.58,0.43 5.72,0.93 5.72,4.7 0,3 -2.48,4.89 -6.2,4.89 -3.72,0 -6.18,-2.04 -6.26,-5.21 z"
         id="path998" />
    </mask>
    <mask
       maskUnits="userSpaceOnUse"
       id="mask1000">
      <path
         d="m 674.16,226.42 h 3.07 c 0.08,1.62 1.44,2.46 3.28,2.46 1.84,0 3,-0.72 3,-2 0,-1.45 -1.64,-1.78 -3.51,-2.1 -2.55,-0.44 -5.55,-1 -5.55,-4.56 0,-2.74 2.37,-4.62 5.93,-4.62 3.56,0 5.85,1.94 5.92,4.9 h -3 c -0.06,-1.45 -1.17,-2.23 -3,-2.23 -1.83,0 -2.81,0.74 -2.81,1.85 0,1.35 1.56,1.62 3.41,1.92 2.58,0.43 5.72,0.93 5.72,4.7 0,3 -2.48,4.89 -6.2,4.89 -3.72,0 -6.18,-2.04 -6.26,-5.21 z"
         id="path1002" />
    </mask>
    <mask
       maskUnits="userSpaceOnUse"
       id="mask1004">
      <path
         d="m 674.16,226.42 h 3.07 c 0.08,1.62 1.44,2.46 3.28,2.46 1.84,0 3,-0.72 3,-2 0,-1.45 -1.64,-1.78 -3.51,-2.1 -2.55,-0.44 -5.55,-1 -5.55,-4.56 0,-2.74 2.37,-4.62 5.93,-4.62 3.56,0 5.85,1.94 5.92,4.9 h -3 c -0.06,-1.45 -1.17,-2.23 -3,-2.23 -1.83,0 -2.81,0.74 -2.81,1.85 0,1.35 1.56,1.62 3.41,1.92 2.58,0.43 5.72,0.93 5.72,4.7 0,3 -2.48,4.89 -6.2,4.89 -3.72,0 -6.18,-2.04 -6.26,-5.21 z"
         id="path1006" />
    </mask>
    <mask
       maskUnits="userSpaceOnUse"
       id="mask1008">
      <path
         d="m 674.16,226.42 h 3.07 c 0.08,1.62 1.44,2.46 3.28,2.46 1.84,0 3,-0.72 3,-2 0,-1.45 -1.64,-1.78 -3.51,-2.1 -2.55,-0.44 -5.55,-1 -5.55,-4.56 0,-2.74 2.37,-4.62 5.93,-4.62 3.56,0 5.85,1.94 5.92,4.9 h -3 c -0.06,-1.45 -1.17,-2.23 -3,-2.23 -1.83,0 -2.81,0.74 -2.81,1.85 0,1.35 1.56,1.62 3.41,1.92 2.58,0.43 5.72,0.93 5.72,4.7 0,3 -2.48,4.89 -6.2,4.89 -3.72,0 -6.18,-2.04 -6.26,-5.21 z"
         id="path1010" />
    </mask>
    <mask
       maskUnits="userSpaceOnUse"
       id="mask1012">
      <path
         d="m 674.16,226.42 h 3.07 c 0.08,1.62 1.44,2.46 3.28,2.46 1.84,0 3,-0.72 3,-2 0,-1.45 -1.64,-1.78 -3.51,-2.1 -2.55,-0.44 -5.55,-1 -5.55,-4.56 0,-2.74 2.37,-4.62 5.93,-4.62 3.56,0 5.85,1.94 5.92,4.9 h -3 c -0.06,-1.45 -1.17,-2.23 -3,-2.23 -1.83,0 -2.81,0.74 -2.81,1.85 0,1.35 1.56,1.62 3.41,1.92 2.58,0.43 5.72,0.93 5.72,4.7 0,3 -2.48,4.89 -6.2,4.89 -3.72,0 -6.18,-2.04 -6.26,-5.21 z"
         id="path1014" />
    </mask>
    <mask
       maskUnits="userSpaceOnUse"
       id="mask1016">
      <path
         d="m 674.16,226.42 h 3.07 c 0.08,1.62 1.44,2.46 3.28,2.46 1.84,0 3,-0.72 3,-2 0,-1.45 -1.64,-1.78 -3.51,-2.1 -2.55,-0.44 -5.55,-1 -5.55,-4.56 0,-2.74 2.37,-4.62 5.93,-4.62 3.56,0 5.85,1.94 5.92,4.9 h -3 c -0.06,-1.45 -1.17,-2.23 -3,-2.23 -1.83,0 -2.81,0.74 -2.81,1.85 0,1.35 1.56,1.62 3.41,1.92 2.58,0.43 5.72,0.93 5.72,4.7 0,3 -2.48,4.89 -6.2,4.89 -3.72,0 -6.18,-2.04 -6.26,-5.21 z"
         id="path1018" />
    </mask>
    <mask
       maskUnits="userSpaceOnUse"
       id="mask1020">
      <path
         d="m 674.16,226.42 h 3.07 c 0.08,1.62 1.44,2.46 3.28,2.46 1.84,0 3,-0.72 3,-2 0,-1.45 -1.64,-1.78 -3.51,-2.1 -2.55,-0.44 -5.55,-1 -5.55,-4.56 0,-2.74 2.37,-4.62 5.93,-4.62 3.56,0 5.85,1.94 5.92,4.9 h -3 c -0.06,-1.45 -1.17,-2.23 -3,-2.23 -1.83,0 -2.81,0.74 -2.81,1.85 0,1.35 1.56,1.62 3.41,1.92 2.58,0.43 5.72,0.93 5.72,4.7 0,3 -2.48,4.89 -6.2,4.89 -3.72,0 -6.18,-2.04 -6.26,-5.21 z"
         id="path1022" />
    </mask>
    <mask
       maskUnits="userSpaceOnUse"
       id="mask1024">
      <path
         d="m 674.16,226.42 h 3.07 c 0.08,1.62 1.44,2.46 3.28,2.46 1.84,0 3,-0.72 3,-2 0,-1.45 -1.64,-1.78 -3.51,-2.1 -2.55,-0.44 -5.55,-1 -5.55,-4.56 0,-2.74 2.37,-4.62 5.93,-4.62 3.56,0 5.85,1.94 5.92,4.9 h -3 c -0.06,-1.45 -1.17,-2.23 -3,-2.23 -1.83,0 -2.81,0.74 -2.81,1.85 0,1.35 1.56,1.62 3.41,1.92 2.58,0.43 5.72,0.93 5.72,4.7 0,3 -2.48,4.89 -6.2,4.89 -3.72,0 -6.18,-2.04 -6.26,-5.21 z"
         id="path1026" />
    </mask>
    <mask
       maskUnits="userSpaceOnUse"
       id="mask1028">
      <path
         d="m 674.16,226.42 h 3.07 c 0.08,1.62 1.44,2.46 3.28,2.46 1.84,0 3,-0.72 3,-2 0,-1.45 -1.64,-1.78 -3.51,-2.1 -2.55,-0.44 -5.55,-1 -5.55,-4.56 0,-2.74 2.37,-4.62 5.93,-4.62 3.56,0 5.85,1.94 5.92,4.9 h -3 c -0.06,-1.45 -1.17,-2.23 -3,-2.23 -1.83,0 -2.81,0.74 -2.81,1.85 0,1.35 1.56,1.62 3.41,1.92 2.58,0.43 5.72,0.93 5.72,4.7 0,3 -2.48,4.89 -6.2,4.89 -3.72,0 -6.18,-2.04 -6.26,-5.21 z"
         id="path1030" />
    </mask>
    <mask
       maskUnits="userSpaceOnUse"
       id="mask1032">
      <path
         d="m 674.16,226.42 h 3.07 c 0.08,1.62 1.44,2.46 3.28,2.46 1.84,0 3,-0.72 3,-2 0,-1.45 -1.64,-1.78 -3.51,-2.1 -2.55,-0.44 -5.55,-1 -5.55,-4.56 0,-2.74 2.37,-4.62 5.93,-4.62 3.56,0 5.85,1.94 5.92,4.9 h -3 c -0.06,-1.45 -1.17,-2.23 -3,-2.23 -1.83,0 -2.81,0.74 -2.81,1.85 0,1.35 1.56,1.62 3.41,1.92 2.58,0.43 5.72,0.93 5.72,4.7 0,3 -2.48,4.89 -6.2,4.89 -3.72,0 -6.18,-2.04 -6.26,-5.21 z"
         id="path1034" />
    </mask>
    <mask
       maskUnits="userSpaceOnUse"
       id="mask1036">
      <path
         d="m 674.16,226.42 h 3.07 c 0.08,1.62 1.44,2.46 3.28,2.46 1.84,0 3,-0.72 3,-2 0,-1.45 -1.64,-1.78 -3.51,-2.1 -2.55,-0.44 -5.55,-1 -5.55,-4.56 0,-2.74 2.37,-4.62 5.93,-4.62 3.56,0 5.85,1.94 5.92,4.9 h -3 c -0.06,-1.45 -1.17,-2.23 -3,-2.23 -1.83,0 -2.81,0.74 -2.81,1.85 0,1.35 1.56,1.62 3.41,1.92 2.58,0.43 5.72,0.93 5.72,4.7 0,3 -2.48,4.89 -6.2,4.89 -3.72,0 -6.18,-2.04 -6.26,-5.21 z"
         id="path1038" />
    </mask>
    <mask
       maskUnits="userSpaceOnUse"
       id="mask1040">
      <path
         d="m 674.16,226.42 h 3.07 c 0.08,1.62 1.44,2.46 3.28,2.46 1.84,0 3,-0.72 3,-2 0,-1.45 -1.64,-1.78 -3.51,-2.1 -2.55,-0.44 -5.55,-1 -5.55,-4.56 0,-2.74 2.37,-4.62 5.93,-4.62 3.56,0 5.85,1.94 5.92,4.9 h -3 c -0.06,-1.45 -1.17,-2.23 -3,-2.23 -1.83,0 -2.81,0.74 -2.81,1.85 0,1.35 1.56,1.62 3.41,1.92 2.58,0.43 5.72,0.93 5.72,4.7 0,3 -2.48,4.89 -6.2,4.89 -3.72,0 -6.18,-2.04 -6.26,-5.21 z"
         id="path1042" />
    </mask>
    <mask
       maskUnits="userSpaceOnUse"
       id="mask1044">
      <path
         d="m 674.16,226.42 h 3.07 c 0.08,1.62 1.44,2.46 3.28,2.46 1.84,0 3,-0.72 3,-2 0,-1.45 -1.64,-1.78 -3.51,-2.1 -2.55,-0.44 -5.55,-1 -5.55,-4.56 0,-2.74 2.37,-4.62 5.93,-4.62 3.56,0 5.85,1.94 5.92,4.9 h -3 c -0.06,-1.45 -1.17,-2.23 -3,-2.23 -1.83,0 -2.81,0.74 -2.81,1.85 0,1.35 1.56,1.62 3.41,1.92 2.58,0.43 5.72,0.93 5.72,4.7 0,3 -2.48,4.89 -6.2,4.89 -3.72,0 -6.18,-2.04 -6.26,-5.21 z"
         id="path1046" />
    </mask>
    <mask
       maskUnits="userSpaceOnUse"
       id="mask1048">
      <path
         d="m 674.16,226.42 h 3.07 c 0.08,1.62 1.44,2.46 3.28,2.46 1.84,0 3,-0.72 3,-2 0,-1.45 -1.64,-1.78 -3.51,-2.1 -2.55,-0.44 -5.55,-1 -5.55,-4.56 0,-2.74 2.37,-4.62 5.93,-4.62 3.56,0 5.85,1.94 5.92,4.9 h -3 c -0.06,-1.45 -1.17,-2.23 -3,-2.23 -1.83,0 -2.81,0.74 -2.81,1.85 0,1.35 1.56,1.62 3.41,1.92 2.58,0.43 5.72,0.93 5.72,4.7 0,3 -2.48,4.89 -6.2,4.89 -3.72,0 -6.18,-2.04 -6.26,-5.21 z"
         id="path1050" />
    </mask>
    <mask
       maskUnits="userSpaceOnUse"
       id="mask1052">
      <path
         d="m 674.16,226.42 h 3.07 c 0.08,1.62 1.44,2.46 3.28,2.46 1.84,0 3,-0.72 3,-2 0,-1.45 -1.64,-1.78 -3.51,-2.1 -2.55,-0.44 -5.55,-1 -5.55,-4.56 0,-2.74 2.37,-4.62 5.93,-4.62 3.56,0 5.85,1.94 5.92,4.9 h -3 c -0.06,-1.45 -1.17,-2.23 -3,-2.23 -1.83,0 -2.81,0.74 -2.81,1.85 0,1.35 1.56,1.62 3.41,1.92 2.58,0.43 5.72,0.93 5.72,4.7 0,3 -2.48,4.89 -6.2,4.89 -3.72,0 -6.18,-2.04 -6.26,-5.21 z"
         id="path1054" />
    </mask>
  </defs>
  <g
     class="cls-1"
     id="g64"
     transform="translate(0,4)">
    <g
       id="Layer_2"
       data-name="Layer 2">
      <g
         id="Layer_1-2"
         data-name="Layer 1">
        <path
           style="color:#000000;fill:#000000;stroke:none;stroke-opacity:1;-inkscape-stroke:none"
           d="m 203.9,194.05 c -1.51,-4.52 -5.4,-8.27 -7.8,-12.17 -4.48,-7.3 -2.81,-15.92 -1.11,-23.77 2,-9.22 2,-13.79 2.8,-23.19 a 219.23,219.23 0 0 0 -2.1,-53.55 C 192.85,64 187.25,47.26 184,30 182.09,20 178.58,11.33 174.65,2 c -1.17,-2.8 -2,-2.37 -3.47,-0.32 a 214.17,214.17 0 0 0 -16.37,28.81 c -1.26,2.6 -13.66,29.39 -12.34,29.78 -7.07,-2.06 -17.45,-5.5 -38.46,-5.5 -19.56,0 -29.3,2.83 -36.5,5.5 0.05,0 -3,-7.33 -3.26,-7.82 C 57.23,38.34 50.12,24.26 42,10.85 41,9.19 37.35,0.37 34.81,1.78 c -4.7,2.61 -6.49,13.47 -7.8,18.29 -5.51,20.13 -11,41.26 -13.65,62 -3.36,26.4 -4.84,52.93 -1.79,79.42 0.47,4.08 1.2,8.89 0.16,12.88 -1.63,6.26 -7.59,10.34 -9.76,16.4 -2.11,5.86 1.76,10.63 7.35,11 1.41,0.09 13.49,-3.17 13.07,-5.19 0.6,2.91 1,5.08 1.51,7.22 3.23,13.59 16.11,54.55 27.42,61 7.29,4.18 13.28,-0.07 13.36,-8.87 0,-1.43 -0.15,-2.87 -0.25,-4.7 a 118,118 0 0 0 39.57,7.24 127.52,127.52 0 0 0 41.52,-7.21 c -0.1,1.83 -0.27,3.27 -0.25,4.7 0.08,8.8 6.07,13 13.36,8.87 6.75,-3.88 10.32,-13.48 13,-20.59 3.92,-10.38 8,-26.05 10.59,-36.89 0.51,-2.14 0.9,-4.31 1.51,-7.22 -0.24,1.15 10.11,4.86 11.32,5 4.11,0.57 8.58,-0.72 9.34,-5.66 a 11.37,11.37 0 0 0 -0.49,-5.42 z M 73.53,117.12 A 11.55,11.55 0 1 1 62.17,128.66 11.45,11.45 0 0 1 73.53,117.12 Z M 46.18,177.44 42.52,176 c 0,0 1.4,-4.89 1.9,-6.72 l 5.17,-15.82 9.24,27 a 90.69,90.69 0 0 1 -12.65,-3.02 z m 15.13,3.38 c 3.91,-7.63 11.47,-18.82 15,-25 l 2.55,6.93 c 2.21,6.53 5.07,13.93 6.94,20.69 -8.99,-0.56 -17.25,-1.44 -24.49,-2.62 z m 45.29,3.24 c -6,0 -11.91,-0.15 -17.54,-0.44 l 16.35,-27.7 c 4.42,9.27 8.7,18.61 13,28 -3.86,0.08 -7.8,0.14 -11.81,0.14 z m 15.46,-0.34 c 4.59,-9.73 8.1,-19.57 12.34,-27.8 4.29,9.9 6.57,15.83 11.14,25.82 -7.14,0.93 -15.05,1.61 -23.48,1.98 z M 137.6,140.21 A 11.55,11.55 0 1 1 149,128.66 11.46,11.46 0 0 1 137.6,140.21 Z M 168.84,177 a 131.77,131.77 0 0 1 -19.55,4.21 l 16.09,-27.77 3.77,23.05 a 2.32,2.32 0 0 1 -0.31,0.51 z"
           id="path8" />
        <path
           class="cls-3"
           d="m 332.74,139.35 c 2.69,3.25 6.55,4.9 11.48,4.9 a 15.78,15.78 0 0 0 9.22,-2.73 10.49,10.49 0 0 0 0,-17.51 15.73,15.73 0 0 0 -9.22,-2.74 H 300.34 A 16.14,16.14 0 0 0 291,124 a 10.22,10.22 0 0 0 -4.71,8.79 v 53.5 a 10.1,10.1 0 0 0 4.78,8.71 15.71,15.71 0 0 0 9.23,2.82 h 43.88 a 15.72,15.72 0 0 0 9.22,-2.81 10.15,10.15 0 0 0 4.71,-8.72 10.36,10.36 0 0 0 -4.68,-8.77 15.41,15.41 0 0 0 -9.25,-2.91 c -4.94,0 -8.8,1.67 -11.49,5 h -18.41 v -40.26 z"
           id="path10"
           style="fill:#040302;fill-opacity:1" />
        <path
           class="cls-3"
           d="m 422.72,166.07 a 15.28,15.28 0 0 0 9.1,-2.79 9.84,9.84 0 0 0 4.83,-8.58 v -21.82 a 10.3,10.3 0 0 0 -4.77,-8.78 15.37,15.37 0 0 0 -9.16,-2.83 h -44 a 16.4,16.4 0 0 0 -9.35,2.85 10.47,10.47 0 0 0 -4.5,8.76 v 53.35 a 10.07,10.07 0 0 0 4.7,8.78 15.55,15.55 0 0 0 9.15,2.82 h 44 a 15.28,15.28 0 0 0 9.13,-2.81 10,10 0 0 0 4.8,-8.79 10.23,10.23 0 0 0 -4.77,-8.7 15.32,15.32 0 0 0 -9.16,-2.83 c -4.94,0 -8.78,1.67 -11.42,5 h -18.45 v -13.6 z m -29.87,-26.8 h 15.85 v 8.8 h -15.85 z"
           id="path12"
           style="fill:#040302;fill-opacity:1" />
        <path
           class="cls-3"
           d="m 500.92,124 a 16.15,16.15 0 0 0 -9.29,-2.73 h -32.47 a 16.12,16.12 0 0 0 -9.3,2.74 10.23,10.23 0 0 0 -4.72,8.79 v 53.5 a 10.09,10.09 0 0 0 4.79,8.71 16.52,16.52 0 0 0 18.45,0 10.18,10.18 0 0 0 4.71,-8.72 v -47 h 7.15 c 2.73,3.25 6.56,4.9 11.39,4.9 a 15.79,15.79 0 0 0 9.21,-2.72 10.12,10.12 0 0 0 4.8,-8.73 10.24,10.24 0 0 0 -4.72,-8.74 z"
           id="path14"
           style="fill:#040302;fill-opacity:1" />
        <path
           class="cls-3"
           d="m 578.8,124 a 15.76,15.76 0 0 0 -9.23,-2.74 h -29.94 v -12.84 a 10.37,10.37 0 0 0 -4.69,-8.78 15.45,15.45 0 0 0 -9.25,-2.83 15.62,15.62 0 0 0 -9.32,2.82 10.38,10.38 0 0 0 -4.69,8.79 v 77.88 a 10.1,10.1 0 0 0 4.78,8.71 15.71,15.71 0 0 0 9.23,2.82 h 43.88 a 15.7,15.7 0 0 0 9.22,-2.81 10.16,10.16 0 0 0 4.72,-8.72 V 132.8 A 10.24,10.24 0 0 0 578.8,124 Z m -23.24,55.58 h -15.93 v -40.23 h 15.93 z"
           id="path16"
           style="fill:#040302;fill-opacity:1" />
        <path
           class="cls-3"
           d="m 659.49,124 a 15.73,15.73 0 0 0 -9.22,-2.74 h -43.88 a 16.12,16.12 0 0 0 -9.3,2.74 10.22,10.22 0 0 0 -4.71,8.79 v 53.5 a 10.08,10.08 0 0 0 4.78,8.71 15.69,15.69 0 0 0 9.23,2.82 h 43.88 a 15.72,15.72 0 0 0 9.22,-2.81 10.18,10.18 0 0 0 4.71,-8.72 V 132.8 a 10.24,10.24 0 0 0 -4.71,-8.8 z m -23.24,55.58 h -15.93 v -40.23 h 15.93 z"
           id="path18"
           style="fill:#040302;fill-opacity:1" />
        <path
           class="cls-3"
           d="m 740.21,153.23 a 15.33,15.33 0 0 0 -9.25,-2.92 H 701 v -11 h 18 c 2.87,4.9 6.89,7.38 12,7.38 a 14.59,14.59 0 0 0 13.93,-13.93 10.23,10.23 0 0 0 -4.7,-8.79 15.76,15.76 0 0 0 -9.23,-2.74 h -43.92 a 16.14,16.14 0 0 0 -9.3,2.74 10.24,10.24 0 0 0 -4.71,8.79 v 24.31 a 10.11,10.11 0 0 0 4.79,8.71 15.8,15.8 0 0 0 9.22,2.73 H 717 v 11 h -18.5 c -2.64,-3.3 -6.48,-5 -11.42,-5 a 15.81,15.81 0 0 0 -9.34,2.84 10.56,10.56 0 0 0 -4.67,8.84 10.1,10.1 0 0 0 4.78,8.71 15.71,15.71 0 0 0 9.23,2.82 H 731 a 15.7,15.7 0 0 0 9.22,-2.81 10.15,10.15 0 0 0 4.71,-8.72 V 162 a 10.33,10.33 0 0 0 -4.72,-8.77 z"
           id="path20"
           style="fill:#040302;fill-opacity:1" />
        <path
           d="m 361.74,231.64 a 8,8 0 1 1 0,-16 7.52,7.52 0 0 1 7.58,5.82 h -3.11 a 4.87,4.87 0 0 0 -9.29,2.18 4.84,4.84 0 0 0 4.82,5 4.73,4.73 0 0 0 4.45,-2.93 h 3.17 a 7.6,7.6 0 0 1 -7.62,5.93 z"
           id="path22"
           mask="url(#mask1052)" />
        <path
           d="m 386.35,222.06 v 9.21 h -3.14 v -8.56 c 0,-2.77 -1.19,-4.25 -3.51,-4.25 -2.32,0 -4.11,1.92 -4.11,4.63 v 8.18 h -3.14 v -20.76 h 3.14 v 7.21 a 6.58,6.58 0 0 1 5,-2.08 c 3.53,0 5.76,2.48 5.76,6.42 z"
           id="path24"
           mask="url(#mask1048)" />
        <path
           d="m 405.14,223.67 c 0,0.34 0,0.68 -0.06,1 h -12.41 a 4.5,4.5 0 0 0 4.68,4 4.59,4.59 0 0 0 4.11,-2.24 h 3.31 a 7.92,7.92 0 1 1 -7.42,-10.85 c 4.68,0 7.79,3.61 7.79,8.06 z m -12.39,-1.53 H 402 a 4.56,4.56 0 0 0 -4.64,-3.69 4.52,4.52 0 0 0 -4.61,3.69 z"
           id="path26"
           mask="url(#mask1044)" />
        <path
           d="m 415.36,231.64 a 8,8 0 1 1 0,-16 7.52,7.52 0 0 1 7.58,5.82 h -3.11 a 4.92,4.92 0 1 0 -4.48,7.2 4.76,4.76 0 0 0 4.46,-2.93 H 423 a 7.6,7.6 0 0 1 -7.63,5.93 z"
           id="path28"
           mask="url(#mask1040)" />
        <path
           d="m 431.44,224.75 h -1.9 v 6.52 h -3.14 v -20.76 h 3.14 v 11.39 h 1.92 l 4.13,-5.91 h 3.72 l -5.17,7.33 5.72,8 H 436 Z"
           id="path30"
           mask="url(#mask1036)" />
        <path
           d="m 462.89,216 -7,15.56 c -1.72,3.84 -3.24,5.2 -6.36,5.2 H 448 v -2.83 h 1.31 c 2,0 2.64,-0.59 3.76,-3 l 0.35,-0.72 -6.71,-14.21 h 3.42 L 455,226.65 459.54,216 Z"
           id="path32"
           mask="url(#mask1032)" />
        <path
           d="m 463.7,223.63 a 8.17,8.17 0 1 1 8.17,8 7.88,7.88 0 0 1 -8.17,-8 z m 13.14,0 a 5,5 0 1 0 -5,5 4.81,4.81 0 0 0 5,-5 z"
           id="path34"
           mask="url(#mask1028)" />
        <path
           d="m 490.1,231.64 c -4.2,0 -7,-2.71 -7,-6.82 V 216 h 3.14 v 8.39 c 0,2.65 1.45,4.26 3.81,4.26 2.36,0 3.8,-1.64 3.8,-4.26 V 216 H 497 v 8.83 c 0,4.11 -2.72,6.82 -6.94,6.82 z"
           id="path36"
           mask="url(#mask1024)" />
        <path
           d="m 510,215.9 v 3 h -1.66 c -2.6,0 -3.9,1.48 -3.9,4.25 v 8.15 H 501.3 V 216 h 2.13 l 0.53,2.08 a 5.43,5.43 0 0 1 4.68,-2.17 z"
           id="path38"
           mask="url(#mask1020)" />
        <path
           d="m 527,215.61 a 8,8 0 0 1 0,16 7.63,7.63 0 0 1 -5.08,-1.85 v 6.95 h -3.14 V 216 h 2.12 l 0.59,1.87 a 7.62,7.62 0 0 1 5.51,-2.24 z m 4.74,8 a 5,5 0 1 0 -5,5 4.86,4.86 0 0 0 5.01,-4.98 z"
           id="path40"
           mask="url(#mask1016)" />
        <path
           d="m 552.81,223.67 a 9.06,9.06 0 0 1 -0.07,1 h -12.4 a 4.49,4.49 0 0 0 4.68,4 4.6,4.6 0 0 0 4.11,-2.24 h 3.31 A 7.92,7.92 0 1 1 545,215.61 c 4.67,0 7.79,3.61 7.79,8.06 z m -12.39,-1.53 h 9.24 a 4.58,4.58 0 0 0 -4.64,-3.69 4.51,4.51 0 0 0 -4.6,3.69 z"
           id="path42"
           mask="url(#mask1012)" />
        <path
           d="m 564.84,215.9 v 3 h -1.66 c -2.6,0 -3.89,1.48 -3.89,4.25 v 8.15 h -3.15 V 216 h 2.13 l 0.53,2.08 a 5.43,5.43 0 0 1 4.68,-2.17 z"
           id="path44"
           mask="url(#mask1008)" />
        <path
           d="m 589.78,221.55 v 9.72 h -3.14 v -9 c 0,-2.46 -1.07,-3.86 -3,-3.86 -1.93,0 -3.59,1.85 -3.59,4.45 v 8.36 H 577 v -9 c 0,-2.46 -1.06,-3.86 -3,-3.86 -1.94,0 -3.6,1.85 -3.6,4.45 v 8.36 h -3.15 V 216 h 2.23 l 0.54,2 a 6.13,6.13 0 0 1 4.75,-2.32 5,5 0 0 1 4.59,2.68 6,6 0 0 1 5,-2.68 c 3.25,-0.04 5.42,2.41 5.42,5.87 z"
           id="path46"
           mask="url(#mask1004)" />
        <path
           d="m 594,210.38 h 3.24 v 3.24 H 594 Z m 0,5.61 h 3.14 v 15.28 H 594 Z"
           id="path48"
           mask="url(#mask1000)" />
        <path
           d="m 600.49,226.42 h 3.07 c 0.08,1.62 1.44,2.46 3.28,2.46 1.69,0 3,-0.72 3,-2 0,-1.45 -1.64,-1.78 -3.51,-2.1 -2.55,-0.44 -5.55,-1 -5.55,-4.56 0,-2.74 2.37,-4.62 5.92,-4.62 3.55,0 5.86,1.94 5.92,4.9 h -3 c -0.07,-1.45 -1.17,-2.23 -3,-2.23 -1.83,0 -2.81,0.74 -2.81,1.85 0,1.35 1.56,1.62 3.4,1.92 2.59,0.43 5.72,0.93 5.72,4.7 0,3 -2.47,4.89 -6.2,4.89 -3.73,0 -6.16,-2.04 -6.24,-5.21 z"
           id="path50"
           mask="url(#mask996)" />
        <path
           d="m 615.15,226.42 h 3.07 c 0.08,1.62 1.44,2.46 3.28,2.46 1.84,0 3,-0.72 3,-2 0,-1.45 -1.64,-1.78 -3.51,-2.1 -2.55,-0.44 -5.55,-1 -5.55,-4.56 0,-2.74 2.37,-4.62 5.92,-4.62 3.55,0 5.86,1.94 5.92,4.9 h -3 c -0.06,-1.45 -1.16,-2.23 -3,-2.23 -1.84,0 -2.81,0.74 -2.81,1.85 0,1.35 1.56,1.62 3.4,1.92 2.59,0.43 5.72,0.93 5.72,4.7 0,3 -2.47,4.89 -6.2,4.89 -3.73,0 -6.16,-2.04 -6.24,-5.21 z"
           id="path52"
           mask="url(#mask992)" />
        <path
           d="m 630.92,210.38 h 3.24 v 3.24 h -3.24 z M 631,216 h 3.14 v 15.28 H 631 Z"
           id="path54"
           mask="url(#mask988)" />
        <path
           d="m 637.46,223.63 a 8.17,8.17 0 1 1 8.17,8 7.88,7.88 0 0 1 -8.17,-8 z m 13.14,0 a 5,5 0 1 0 -5,5 4.81,4.81 0 0 0 5,-5 z"
           id="path56"
           mask="url(#mask984)" />
        <path
           d="m 665.24,215.64 c 3.57,0 5.8,2.66 5.8,6.43 v 9.2 h -3.14 v -8.56 c 0,-2.78 -1.21,-4.25 -3.51,-4.25 -2.3,0 -4.1,1.93 -4.1,4.63 v 8.18 h -3.14 V 216 h 2.19 l 0.61,2.13 a 6.45,6.45 0 0 1 5.29,-2.48 z"
           id="path58"
           mask="url(#mask980)" />
      </g>
    </g>
  </g>
</svg>
