<svg width="43" height="37" viewBox="0 0 43 37" fill="none" xmlns="http://www.w3.org/2000/svg">
<path fill-rule="evenodd" clip-rule="evenodd" d="M42.4264 21.0508C42.4264 27.1669 39.7954 32.696 35.576 36.5416H30.4847C30.5937 36.0475 30.3291 35.7076 29.9866 35.476C29.2704 34.9819 28.819 34.1633 28.9279 33.3138C29.2081 31.0743 30.5781 28.2171 35.576 25.5915C38.9546 23.7999 39.5772 20.1087 39.8109 19.5682C40.1534 18.6724 40.06 17.9156 39.3438 17.1897C38.0516 15.8769 36.6502 14.6877 34.9532 13.9155C32.5712 12.8035 30.1423 12.8653 27.729 13.761C27.3087 13.9155 27.4021 13.5912 27.3709 13.4522C27.0441 11.8768 26.4991 10.3633 25.7206 8.94237C24.148 6.13147 21.9528 4.06191 18.6832 3.3669C18.2006 3.25879 17.7024 3.22791 17.2041 3.16612C16.9706 3.13524 16.846 3.197 16.9083 3.475C17.3443 5.54457 17.9515 7.53691 19.2749 9.23581C19.8821 10.0235 20.7073 10.5486 21.5169 11.0891C22.3731 11.676 23.2761 12.2166 24.0857 12.8807C24.8487 13.5294 25.4715 14.2862 25.7672 15.3673C25.6583 15.2592 25.6116 15.2283 25.5805 15.1819C23.0893 11.259 18.2161 9.52925 13.3118 10.9502C12.8603 11.0737 12.9226 11.2282 13.1405 11.5525C14.5573 13.7147 16.5035 15.2592 18.8078 16.4484C20.5203 17.3287 22.2952 18.0546 24.2258 18.3017C25.0977 18.4098 24.6774 18.9967 24.8175 19.6917C25.0043 20.7729 25.4559 21.1126 25.3003 21.0199C22.3419 19.8462 19.8821 19.3828 17.8425 19.3828C9.41946 19.3828 8.04936 27.3522 8.11164 27.4448C7.98707 27.3985 5.96306 26.6571 5.51155 28.6651C5.04447 30.7037 7.80024 32.0318 7.80024 32.0318C8.15834 29.6226 10.3381 29.0974 10.6027 29.0356C10.3848 29.1592 8.96795 29.9777 8.532 32.2173C8.15834 34.1942 9.73084 35.9394 10.3225 36.5416H6.83495C2.63123 32.696 0 27.1669 0 21.0508C0 9.42114 9.48174 0 21.2054 0C32.9292 0 42.4264 9.42114 42.4264 21.0508ZM27.0129 36.5416H24.7708C24.8798 36.4335 24.9576 36.2791 24.9888 36.1093C25.1757 35.0282 24.2416 34.8118 24.2416 34.8118H19.0725C19.0725 34.8118 21.1276 34.7192 23.0115 33.9469C24.8798 33.1594 26.3901 31.7848 26.6547 31.4142C25.7828 33.4528 26.2033 35.1672 26.5613 36.0321C26.6391 36.2482 26.8104 36.4335 27.0129 36.5416Z" fill="#FF8B53"/>
</svg>
