<svg width="9678" height="2111" viewBox="0 0 9678 2111" fill="none" xmlns="http://www.w3.org/2000/svg">
<path fill-rule="evenodd" clip-rule="evenodd" d="M2071.46 1036.11C2071.46 1337.14 1943 1609.28 1736.99 1798.56H1488.41C1493.73 1774.24 1480.81 1757.51 1464.09 1746.11C1429.12 1721.79 1407.08 1681.5 1412.4 1639.69C1426.08 1529.46 1492.97 1388.83 1736.99 1259.6C1901.95 1171.42 1932.35 989.742 1943.76 963.136C1960.48 919.046 1955.92 881.798 1920.95 846.07C1857.86 781.455 1789.44 722.922 1706.58 684.914C1590.28 630.182 1471.69 633.222 1353.86 677.312C1333.34 684.914 1337.9 668.95 1336.38 662.109C1320.42 584.571 1293.81 510.075 1255.8 440.139C1179.02 301.788 1071.84 199.925 912.204 165.717C888.639 160.396 864.314 158.876 839.988 155.835C828.586 154.315 822.504 157.355 825.545 171.038C846.83 272.901 876.476 370.963 941.091 454.582C970.738 493.35 1011.03 519.196 1050.56 545.802C1092.36 574.689 1136.45 601.295 1175.98 633.982C1213.23 665.909 1243.64 703.158 1258.08 756.37C1252.76 751.048 1250.48 749.528 1248.96 747.247C1127.33 554.164 889.399 469.025 649.946 538.961C627.901 545.042 630.941 552.644 641.584 568.607C710.759 675.031 805.781 751.048 918.286 809.581C1001.9 852.911 1088.56 888.639 1182.82 900.802C1225.39 906.123 1204.87 935.01 1211.71 969.217C1220.83 1022.43 1242.88 1039.15 1235.28 1034.59C1090.84 976.819 970.737 954.014 871.155 954.014C459.903 954.014 393.008 1346.26 396.049 1350.82C389.967 1348.54 291.145 1312.05 269.1 1410.88C246.295 1511.22 380.845 1576.59 380.845 1576.59C398.329 1458.01 504.753 1432.16 517.676 1429.12C507.033 1435.2 437.858 1475.49 416.573 1585.72C398.329 1683.02 475.106 1768.92 503.993 1798.56H333.715C128.469 1609.28 0 1337.14 0 1036.11C0 463.704 462.944 0 1035.35 0C1607.76 0 2071.46 463.704 2071.46 1036.11ZM1318.9 1798.56H1209.43C1214.75 1793.24 1218.55 1785.64 1220.07 1777.28C1229.2 1724.07 1183.59 1713.42 1183.59 1713.42H931.209C931.209 1713.42 1031.55 1708.86 1123.53 1670.85C1214.75 1632.09 1288.49 1564.43 1301.41 1546.19C1258.84 1646.53 1279.37 1730.91 1296.85 1773.48C1300.65 1784.12 1309.01 1793.24 1318.9 1798.56Z" fill="#FF8B53"/>
<path d="M2911.17 1564.89C2813.6 1564.89 2727.28 1543.31 2652.22 1500.15C2578.1 1456.05 2519.46 1396.01 2476.31 1320.01C2434.09 1243.08 2412.98 1154.88 2412.98 1055.43C2412.98 955.982 2434.09 868.258 2476.31 792.262C2519.46 715.328 2578.1 655.282 2652.22 612.123C2727.28 568.027 2813.6 545.979 2911.17 545.979C2982.48 545.979 3047.68 558.645 3106.79 583.977C3166.84 608.37 3218.44 643.085 3261.6 688.119C3305.69 733.154 3339.47 785.225 3362.93 844.333L3150.42 916.107C3136.34 883.269 3117.11 854.654 3092.72 830.26C3069.26 805.866 3042.05 787.102 3011.09 773.967C2981.07 760.832 2947.76 754.264 2911.17 754.264C2859.57 754.264 2813.6 766.93 2773.25 792.262C2732.91 817.594 2701.48 853.246 2678.96 899.219C2656.44 944.254 2645.19 996.325 2645.19 1055.43C2645.19 1114.54 2656.44 1167.08 2678.96 1213.05C2702.42 1258.09 2734.32 1293.74 2774.66 1320.01C2815.94 1345.34 2862.85 1358.01 2915.39 1358.01C2953.86 1358.01 2988.11 1350.97 3018.13 1336.9C3048.15 1322.83 3073.95 1303.12 3095.53 1277.79C3118.05 1252.46 3137.28 1223.38 3153.23 1190.54L3365.74 1262.31C3343.22 1322.36 3309.92 1375.37 3265.82 1421.34C3221.72 1466.37 3169.65 1501.56 3109.61 1526.89C3049.56 1552.22 2983.41 1564.89 2911.17 1564.89ZM3749.33 1564.89C3675.21 1564.89 3610 1549.41 3553.71 1518.45C3497.41 1486.55 3452.85 1442.92 3420.01 1387.56C3388.11 1332.21 3372.16 1268.41 3372.16 1196.17C3372.16 1123.92 3387.64 1060.12 3418.6 1004.77C3450.5 949.414 3494.6 906.256 3550.89 875.295C3608.12 843.395 3672.86 827.445 3745.1 827.445C3819.22 827.445 3884.43 843.395 3940.72 875.295C3997.96 906.256 4042.05 949.414 4073.01 1004.77C4104.91 1060.12 4120.86 1123.92 4120.86 1196.17C4120.86 1268.41 4104.91 1332.21 4073.01 1387.56C4042.05 1442.92 3998.42 1486.55 3942.13 1518.45C3885.84 1549.41 3821.57 1564.89 3749.33 1564.89ZM3749.33 1362.23C3777.47 1362.23 3802.34 1355.2 3823.91 1341.12C3846.43 1327.05 3863.79 1307.82 3875.99 1283.42C3889.12 1258.09 3895.69 1229 3895.69 1196.17C3895.69 1163.33 3889.12 1134.71 3875.99 1110.32C3863.79 1084.99 3846.43 1065.28 3823.91 1051.21C3801.4 1037.14 3775.6 1030.1 3746.51 1030.1C3717.43 1030.1 3691.63 1037.14 3669.11 1051.21C3646.59 1065.28 3628.76 1084.99 3615.63 1110.32C3603.43 1134.71 3597.33 1163.33 3597.33 1196.17C3597.33 1229 3603.43 1258.09 3615.63 1283.42C3628.76 1307.82 3646.59 1327.05 3669.11 1341.12C3692.56 1355.2 3719.3 1362.23 3749.33 1362.23ZM4662.73 1548L4652.88 1417.12V562.867H4872.42V1548H4662.73ZM4453.04 1564.89C4387.36 1564.89 4330.6 1550.35 4282.75 1521.26C4235.84 1491.24 4199.25 1448.55 4172.98 1393.19C4147.65 1337.84 4134.98 1272.16 4134.98 1196.17C4134.98 1119.23 4147.65 1053.56 4172.98 999.14C4199.25 943.785 4235.84 901.565 4282.75 872.48C4330.6 842.457 4387.36 827.445 4453.04 827.445C4511.21 827.445 4559.99 842.457 4599.4 872.48C4639.74 901.565 4669.77 943.785 4689.47 999.14C4709.17 1053.56 4719.02 1119.23 4719.02 1196.17C4719.02 1272.16 4709.17 1337.84 4689.47 1393.19C4669.77 1448.55 4639.74 1491.24 4599.4 1521.26C4559.99 1550.35 4511.21 1564.89 4453.04 1564.89ZM4510.74 1362.23C4537.95 1362.23 4562.34 1355.2 4583.92 1341.12C4605.5 1327.05 4622.39 1307.82 4634.58 1283.42C4646.78 1258.09 4652.88 1229 4652.88 1196.17C4652.88 1163.33 4646.78 1134.71 4634.58 1110.32C4622.39 1084.99 4605.5 1065.28 4583.92 1051.21C4562.34 1037.14 4537.48 1030.1 4509.33 1030.1C4481.18 1030.1 4456.32 1037.14 4434.74 1051.21C4413.16 1065.28 4395.81 1084.99 4382.67 1110.32C4370.47 1134.71 4363.91 1163.33 4362.97 1196.17C4363.91 1229 4370.47 1258.09 4382.67 1283.42C4395.81 1307.82 4413.16 1327.05 4434.74 1341.12C4457.26 1355.2 4482.59 1362.23 4510.74 1362.23ZM5296.89 1564.89C5223.71 1564.89 5158.97 1549.41 5102.68 1518.45C5046.38 1487.48 5002.29 1444.33 4970.39 1388.97C4938.49 1333.62 4922.54 1269.35 4922.54 1196.17C4922.54 1122.99 4938.49 1058.72 4970.39 1003.36C5002.29 948.007 5046.38 904.849 5102.68 873.887C5159.91 842.926 5225.58 827.445 5299.7 827.445C5366.32 827.445 5426.36 843.395 5479.84 875.295C5533.32 907.194 5575.54 955.043 5606.5 1018.84C5638.4 1081.7 5654.35 1159.58 5654.35 1252.46H5125.19L5149.12 1225.72C5149.12 1257.62 5155.68 1285.77 5168.82 1310.16C5181.95 1334.55 5200.25 1353.32 5223.71 1366.45C5247.16 1378.65 5273.43 1384.75 5302.52 1384.75C5337.23 1384.75 5366.32 1377.24 5389.77 1362.23C5413.23 1346.28 5429.65 1326.58 5439.03 1303.12L5634.65 1369.27C5615.88 1414.3 5589.14 1451.36 5554.43 1480.45C5520.65 1509.53 5481.72 1531.11 5437.62 1545.19C5393.52 1558.32 5346.61 1564.89 5296.89 1564.89ZM5154.75 1135.65L5132.23 1106.1H5447.47L5426.36 1135.65C5426.36 1100 5419.33 1072.32 5405.25 1052.62C5391.18 1031.98 5373.82 1016.97 5353.18 1007.58C5333.48 998.202 5313.31 993.511 5292.67 993.511C5272.02 993.511 5250.91 998.202 5229.34 1007.58C5208.69 1016.97 5190.87 1031.98 5175.86 1052.62C5161.78 1072.32 5154.75 1100 5154.75 1135.65ZM5714.26 1548V562.867H6101.28C6172.58 562.867 6235.91 576.94 6291.27 605.087C6346.62 632.295 6389.78 670.762 6420.74 720.488C6452.64 769.276 6468.59 825.569 6468.59 889.368C6468.59 953.167 6452.64 1009.93 6420.74 1059.66C6388.84 1109.38 6344.75 1148.32 6288.45 1176.46C6233.1 1203.67 6169.3 1217.28 6097.06 1217.28H5940.84V1548H5714.26ZM6249.05 1548L6026.69 1156.76L6196.98 1031.51L6508 1548H6249.05ZM5940.84 1008.99H6094.24C6120.51 1008.99 6143.97 1003.83 6164.61 993.511C6185.25 983.19 6201.2 969.117 6212.46 951.291C6224.65 932.526 6230.75 911.885 6230.75 889.368C6230.75 854.654 6217.62 826.038 6191.35 803.521C6166.01 781.003 6132.24 769.745 6090.02 769.745H5940.84V1008.99ZM6972.83 1548L6965.8 1396.01V1197.57C6965.8 1160.05 6962.51 1127.21 6955.95 1099.06C6950.32 1070.91 6938.59 1049.33 6920.76 1034.32C6903.87 1018.37 6879.01 1010.4 6846.17 1010.4C6819.9 1010.4 6796.92 1016.5 6777.21 1028.69C6757.51 1040.89 6740.62 1057.31 6726.55 1077.95L6533.75 1014.62C6550.63 979.906 6572.68 948.476 6599.89 920.329C6628.04 892.183 6662.28 869.665 6702.63 852.777C6742.97 835.889 6789.88 827.445 6843.36 827.445C6916.54 827.445 6978.46 841.05 7029.13 868.258C7079.79 895.466 7117.79 933.464 7143.12 982.252C7168.45 1031.04 7181.12 1088.74 7181.12 1155.35L7178.3 1548H6972.83ZM6780.03 1564.89C6697.47 1564.89 6633.2 1546.59 6587.22 1510C6541.25 1472.47 6518.27 1418.99 6518.27 1349.57C6518.27 1275.45 6542.19 1220.09 6590.04 1183.5C6637.89 1146.91 6704.97 1128.61 6791.29 1128.61H6984.09V1270.76H6872.91C6826.94 1270.76 6793.63 1277.32 6772.99 1290.46C6752.35 1302.65 6742.03 1320.48 6742.03 1343.94C6742.03 1360.82 6749.54 1374.43 6764.55 1384.75C6780.5 1394.13 6802.08 1398.82 6829.29 1398.82C6856.49 1398.82 6879.95 1393.19 6899.65 1381.93C6920.29 1369.74 6936.24 1353.79 6947.5 1334.09C6959.7 1314.38 6965.8 1293.27 6965.8 1270.76H7022.09C7022.09 1363.64 7001.92 1435.88 6961.58 1487.48C6922.17 1539.09 6861.65 1564.89 6780.03 1564.89ZM7258.58 1548V562.867H7478.12V1417.12L7466.86 1548H7258.58ZM7677.96 1564.89C7619.79 1564.89 7571.01 1550.35 7531.6 1521.26C7492.2 1491.24 7462.64 1448.55 7442.94 1393.19C7423.24 1337.84 7413.38 1272.16 7413.38 1196.17C7413.38 1119.23 7423.24 1053.56 7442.94 999.14C7462.64 943.785 7492.2 901.565 7531.6 872.48C7571.01 842.457 7619.79 827.445 7677.96 827.445C7743.64 827.445 7800.4 842.457 7848.25 872.48C7896.1 901.565 7932.69 943.785 7958.02 999.14C7983.35 1053.56 7996.02 1119.23 7996.02 1196.17C7996.02 1272.16 7983.35 1337.84 7958.02 1393.19C7932.69 1448.55 7896.1 1491.24 7848.25 1521.26C7800.4 1550.35 7743.64 1564.89 7677.96 1564.89ZM7621.67 1362.23C7649.82 1362.23 7674.68 1355.2 7696.26 1341.12C7717.84 1327.05 7735.19 1307.82 7748.33 1283.42C7761.47 1258.09 7768.03 1229 7768.03 1196.17C7768.03 1163.33 7761.93 1134.71 7749.74 1110.32C7737.54 1084.99 7720.18 1065.28 7697.67 1051.21C7676.09 1037.14 7651.22 1030.1 7623.08 1030.1C7594.93 1030.1 7569.6 1037.14 7547.08 1051.21C7525.5 1065.28 7508.61 1084.99 7496.42 1110.32C7484.22 1135.65 7478.12 1164.27 7478.12 1196.17C7478.12 1229 7484.22 1258.09 7496.42 1283.42C7508.61 1307.82 7525.5 1327.05 7547.08 1341.12C7568.66 1355.2 7593.52 1362.23 7621.67 1362.23ZM8046.13 1548V562.867H8265.68V1417.12L8254.42 1548H8046.13ZM8465.52 1564.89C8407.35 1564.89 8358.56 1550.35 8319.16 1521.26C8279.75 1491.24 8250.2 1448.55 8230.5 1393.19C8210.79 1337.84 8200.94 1272.16 8200.94 1196.17C8200.94 1119.23 8210.79 1053.56 8230.5 999.14C8250.2 943.785 8279.75 901.565 8319.16 872.48C8358.56 842.457 8407.35 827.445 8465.52 827.445C8531.2 827.445 8587.96 842.457 8635.81 872.48C8683.66 901.565 8720.25 943.785 8745.58 999.14C8770.91 1053.56 8783.58 1119.23 8783.58 1196.17C8783.58 1272.16 8770.91 1337.84 8745.58 1393.19C8720.25 1448.55 8683.66 1491.24 8635.81 1521.26C8587.96 1550.35 8531.2 1564.89 8465.52 1564.89ZM8409.23 1362.23C8437.37 1362.23 8462.24 1355.2 8483.82 1341.12C8505.39 1327.05 8522.75 1307.82 8535.89 1283.42C8549.02 1258.09 8555.59 1229 8555.59 1196.17C8555.59 1163.33 8549.49 1134.71 8537.29 1110.32C8525.1 1084.99 8507.74 1065.28 8485.22 1051.21C8463.64 1037.14 8438.78 1030.1 8410.63 1030.1C8382.49 1030.1 8357.16 1037.14 8334.64 1051.21C8313.06 1065.28 8296.17 1084.99 8283.97 1110.32C8271.78 1135.65 8265.68 1164.27 8265.68 1196.17C8265.68 1229 8271.78 1258.09 8283.97 1283.42C8296.17 1307.82 8313.06 1327.05 8334.64 1341.12C8356.22 1355.2 8381.08 1362.23 8409.23 1362.23ZM8846.36 1548V844.333H9065.9V1548H8846.36ZM8956.13 754.264C8923.29 754.264 8894.21 742.067 8868.88 717.673C8844.48 692.341 8832.28 663.256 8832.28 630.419C8832.28 595.704 8844.48 566.619 8868.88 543.164C8894.21 518.77 8923.29 506.573 8956.13 506.573C8989.91 506.573 9018.99 518.77 9043.38 543.164C9067.78 566.619 9079.98 595.704 9079.98 630.419C9079.98 663.256 9067.78 692.341 9043.38 717.673C9018.99 742.067 8989.91 754.264 8956.13 754.264ZM9468.92 1564.89C9385.41 1564.89 9323.02 1545.19 9281.74 1505.78C9241.4 1465.44 9221.23 1408.2 9221.23 1334.09V624.789H9440.77V1279.2C9440.77 1307.35 9445.93 1327.99 9456.25 1341.12C9466.57 1354.26 9482.52 1360.82 9504.1 1360.82C9512.54 1360.82 9522.39 1358.95 9533.65 1355.2C9544.91 1350.5 9555.23 1344.87 9564.61 1338.31L9640.61 1498.74C9618.09 1517.51 9590.88 1533.46 9558.99 1546.59C9528.02 1558.79 9498 1564.89 9468.92 1564.89ZM9111.45 1028.69V844.333H9601.21V1028.69H9111.45Z" fill="#FF8B53"/>
</svg>
