<svg viewBox="11 0 64 41" xmlns="http://www.w3.org/2000/svg"><path d="M64.818 29.074c0 6.384-5.128 11.559-11.454 11.559-6.327 0-11.455-5.175-11.455-11.56 0-6.384 5.128-11.56 11.455-11.56 6.326 0 11.454 5.176 11.454 11.56zm-11.465-4.666c-2.554 0-4.623 2.09-4.623 4.666 0 2.577 2.07 4.662 4.623 4.662 2.55 0 4.62-2.085 4.62-4.662s-2.07-4.666-4.62-4.666z" fill="#92d0e1"/><path d="M75 8.888c0 3.952-3.174 7.158-7.093 7.158-3.915 0-7.089-3.206-7.089-7.158 0-3.95 3.174-7.154 7.089-7.154C71.826 1.734 75 4.938 75 8.888zm-7.103-2.884c-1.577 0-2.857 1.291-2.857 2.884 0 1.597 1.28 2.888 2.857 2.888a2.874 2.874 0 0 0 2.865-2.888 2.874 2.874 0 0 0-2.865-2.884z" fill="#b1deea"/><path d="M29.18 11.642c-4.015 0-7.27 3.284-7.27 7.336 0 4.055 3.255 7.343 7.27 7.343 4.019 0 7.275-3.288 7.275-7.343 0-4.052-3.256-7.336-7.275-7.336zm18.184 7.34c0 10.136-8.141 18.348-18.181 18.348C19.14 37.33 11 29.118 11 18.982 11 8.848 19.14.633 29.183.633c10.04 0 18.18 8.215 18.18 18.349z" fill="#64bdd4"/></svg>