<svg width="59" height="55" viewBox="0 0 59 55" fill="none" xmlns="http://www.w3.org/2000/svg">
<g clip-path="url(#clip0_1116_185)">
<path d="M39.5825 45.8571C40.9179 44.8556 42.1497 43.7217 43.2593 42.4725C43.5889 42.1011 43.3793 41.2167 43.6879 40.8262C44.0689 40.3361 44.97 40.3361 45.3187 39.8173C48.0312 35.7762 49.5037 31.0239 49.5535 26.1498C49.6032 21.2756 48.2281 16.4939 45.5987 12.3978C42.9692 8.30162 39.201 5.07117 34.7615 3.10702C30.3219 1.14287 25.4063 0.531437 20.6241 1.34853C15.842 2.16563 11.4037 4.37532 7.85966 7.70357C4.31563 11.0318 1.82177 15.3322 0.687344 20.0715C-0.447086 24.8108 -0.172181 29.7804 1.47797 34.3641C3.12812 38.9478 6.08092 42.944 9.97019 45.8571H39.5825Z" fill="#FFCC3E"/>
<path d="M16.4836 13.1695C19.4555 13.1695 21.9588 12.0209 22.7894 14.7297C23.3118 14.3293 23.9507 14.1125 24.6078 14.1125C25.2648 14.1125 25.9037 14.3293 26.4261 14.7297C27.2606 12.019 29.7772 11.9654 32.7452 11.9654C34.8103 11.9654 36.6563 11.0082 37.8699 12.4938V11.0963H37.8603V5.41833C34.3901 8.36513 30.0434 10.0689 25.5041 10.2616V11.1116C25.5092 11.213 25.4937 11.3143 25.4587 11.4095C25.4236 11.5046 25.3696 11.5916 25.3 11.6652C25.2304 11.7387 25.1467 11.7973 25.0539 11.8373C24.9611 11.8773 24.8612 11.898 24.7602 11.898C24.6592 11.898 24.5592 11.8773 24.4664 11.8373C24.3736 11.7973 24.2899 11.7387 24.2203 11.6652C24.1507 11.5916 24.0968 11.5046 24.0617 11.4095C24.0266 11.3143 24.0111 11.213 24.0162 11.1116V10.2693C19.3669 10.1465 14.8976 8.437 11.3438 5.42216V12.4861C12.5573 10.991 14.4185 13.1695 16.4836 13.1695Z" fill="#45B3DD"/>
<path d="M29.8552 29.2424V41.7929H35.2447C35.9426 41.7919 36.6117 41.5128 37.1052 41.0169C37.5987 40.5209 37.8764 39.8486 37.8774 39.1473V32.0642C37.8783 30.866 38.1574 29.6845 38.6925 28.6137C39.2276 27.543 40.004 26.6124 40.9598 25.8961H33.1872C32.3041 25.8971 31.4575 26.2499 30.8329 26.8772C30.2083 27.5045 29.8567 28.355 29.8552 29.2424Z" fill="#45B3DD"/>
<path d="M38.2109 20.4134C36.1305 16.6785 35.0142 20.4134 32.7452 20.4134C31.0878 20.4134 31.3545 20.4134 30.1925 19.4045L24.8373 26.2809L20.4842 20.5512C19.3183 21.583 18.3106 20.5091 16.6379 20.5091C14.369 20.5091 12.5058 20.756 11.0027 20.4134C10.5069 22.0189 9.5037 23.4182 8.14514 24.3991H16.0264C17.3042 24.4006 18.5293 24.9113 19.4328 25.8193C20.3364 26.7273 20.8447 27.9583 20.8462 29.2424V39.4286H28.3674V29.2424C28.3689 27.9583 28.8772 26.7273 29.7808 25.8193C30.6843 24.9113 31.9094 24.4006 33.1872 24.3991H41.0627C39.7063 23.4173 38.7052 22.0181 38.2109 20.4134Z" fill="#469BC3"/>
<path d="M16.0263 25.8961H8.2594C9.21664 26.613 9.99399 27.5447 10.5295 28.6169C11.065 29.6891 11.3438 30.8722 11.3437 32.0718V39.1549C11.3447 39.8563 11.6224 40.5286 12.1159 41.0245C12.6095 41.5205 13.2785 41.7995 13.9765 41.8005H19.3583V29.2424C19.3568 28.355 19.0052 27.5045 18.3806 26.8772C17.756 26.2499 16.9094 25.8971 16.0263 25.8961Z" fill="#45B3DD"/>
<path d="M11.3438 5.42212L14.8072 12.6411L11.3438 12.4842V5.42212Z" fill="white"/>
<path d="M37.8699 5.42212L34.8408 11.7376L37.8699 12.4842V5.42212Z" fill="white"/>
<path d="M9.3968 27.1615H15.674C16.1579 27.1613 16.6371 27.2569 17.0842 27.4429C17.5314 27.6288 17.9376 27.9015 18.2798 28.2454C18.622 28.5892 18.8934 28.9975 19.0784 29.4468C19.2635 29.8961 19.3586 30.3776 19.3584 30.8639V31.2468H19.9299V26.9548C19.9299 26.9548 17.4724 25.0806 17.2228 25.0404C16.9732 25.0002 11.4657 24.8337 10.8961 24.9256C10.3265 25.0175 7.20978 25.2223 7.20978 25.2223L6.86877 25.3372" fill="white"/>
<path d="M39.8169 27.1615H33.5302C32.5542 27.1631 31.6187 27.5539 30.9293 28.2481C30.2398 28.9423 29.8529 29.8831 29.8534 30.8639V31.2468H29.2819V26.9548C29.2819 26.9548 31.7394 25.0806 31.989 25.0404C32.2385 25.0002 37.7461 24.8337 38.3157 24.9256C38.8853 25.0175 42.002 25.2223 42.002 25.2223L42.343 25.3372" fill="white"/>
<path d="M44.208 14.7297C44.157 15.4058 43.8667 16.0411 43.3896 16.5205C42.9126 16.9999 42.2803 17.2917 41.6075 17.3428C42.28 17.3931 42.9122 17.6841 43.3893 18.1628C43.8665 18.6416 44.1569 19.2764 44.208 19.9521C44.2597 19.2767 44.5505 18.6423 45.0275 18.1637C45.5044 17.6851 46.1362 17.3939 46.8084 17.3428C46.1359 17.2909 45.5041 16.9989 45.0271 16.5197C44.5502 16.0404 44.2596 15.4055 44.208 14.7297Z" fill="white"/>
<path d="M5.05127 15.9319C4.98278 16.8307 4.59619 17.6751 3.96154 18.3121C3.32689 18.9491 2.48617 19.3367 1.59167 19.4045C2.48704 19.4717 3.32869 19.8595 3.96357 20.4975C4.59846 21.1355 4.98442 21.9812 5.05127 22.881C5.11889 21.9815 5.5051 21.1362 6.13983 20.4984C6.77456 19.8606 7.61577 19.4725 8.51087 19.4045C7.61679 19.3355 6.7767 18.9476 6.14228 18.3108C5.50786 17.674 5.1209 16.8302 5.05127 15.9319Z" fill="white"/>
<path d="M43.8175 31.4976C43.7683 32.1458 43.4898 32.7549 43.0324 33.2145C42.5749 33.6742 41.9688 33.9541 41.3237 34.0034C41.9688 34.0528 42.5749 34.3327 43.0324 34.7923C43.4898 35.252 43.7683 35.8611 43.8175 36.5093C43.8666 35.8611 44.1451 35.252 44.6025 34.7923C45.06 34.3327 45.6661 34.0528 46.3112 34.0034C45.6661 33.9541 45.06 33.6742 44.6025 33.2145C44.1451 32.7549 43.8666 32.1458 43.8175 31.4976Z" fill="white"/>
<path d="M24.6068 28.2374C24.5572 28.8853 24.2785 29.4939 23.8211 29.9532C23.3637 30.4125 22.7578 30.6921 22.113 30.7414C22.7581 30.7908 23.3642 31.0706 23.8217 31.5303C24.2791 31.99 24.5576 32.5991 24.6068 33.2473C24.6559 32.5991 24.9344 31.99 25.3918 31.5303C25.8493 31.0706 26.4554 30.7908 27.1005 30.7414C26.4557 30.6921 25.8498 30.4125 25.3924 29.9532C24.935 29.4939 24.6563 28.8853 24.6068 28.2374Z" fill="white"/>
<path d="M24.784 15.6123C24.7301 15.6094 24.676 15.6094 24.6221 15.6123C24.3653 15.6106 24.1123 15.6741 23.8865 15.7969C23.6607 15.9197 23.4694 16.0979 23.3305 16.3149V19.0103C23.3307 19.4114 23.2412 19.8075 23.0688 20.1693C22.8964 20.5311 22.6453 20.8494 22.3341 21.1007L24.784 23.9301V15.6123Z" fill="#FFA840"/>
<path d="M39.5101 46.5615H36.8964V45.0817H39.5101C40.1884 45.0807 40.8385 44.8095 41.3181 44.3276C41.7977 43.8456 42.0676 43.1923 42.0686 42.5107H43.5412C43.5402 43.5848 43.1152 44.6145 42.3594 45.3739C41.6037 46.1334 40.5789 46.5605 39.5101 46.5615Z" fill="#205160"/>
<path d="M43.5412 42.505H42.0686C42.0701 41.4305 42.4958 40.4004 43.2523 39.641C44.0088 38.8815 45.0342 38.4547 46.1035 38.4542H48.7135V39.9359H46.1035C45.7674 39.9354 45.4344 40.0015 45.1237 40.1304C44.813 40.2592 44.5306 40.4483 44.2926 40.6869C44.0546 40.9255 43.8658 41.2089 43.7369 41.5208C43.608 41.8328 43.5415 42.1672 43.5412 42.505Z" fill="#205160"/>
<path d="M50.3386 41.7603C49.8337 41.7603 49.3401 41.6099 48.9203 41.328C48.5005 41.0462 48.1733 40.6455 47.9801 40.1768C47.7869 39.7081 47.7363 39.1923 47.8348 38.6947C47.9333 38.1971 48.1764 37.74 48.5335 37.3812C48.8905 37.0225 49.3453 36.7782 49.8405 36.6792C50.3357 36.5802 50.849 36.631 51.3155 36.8252C51.7819 37.0193 52.1806 37.3481 52.4611 37.7699C52.7416 38.1918 52.8913 38.6878 52.8913 39.1951C52.8908 39.8753 52.6217 40.5275 52.1431 41.0084C51.6645 41.4894 51.0154 41.7598 50.3386 41.7603ZM50.3386 38.1116C50.1248 38.1112 49.9157 38.1746 49.7377 38.2937C49.5598 38.4128 49.4211 38.5823 49.3391 38.7808C49.2571 38.9792 49.2355 39.1976 49.2771 39.4083C49.3188 39.619 49.4217 39.8126 49.5729 39.9645C49.724 40.1165 49.9167 40.2199 50.1264 40.2617C50.3361 40.3035 50.5534 40.2819 50.7509 40.1995C50.9483 40.1171 51.117 39.9777 51.2356 39.7989C51.3541 39.6201 51.4172 39.41 51.4168 39.1951C51.4163 38.9079 51.3026 38.6326 51.1004 38.4295C50.8983 38.2264 50.6244 38.1121 50.3386 38.1116Z" fill="#205160"/>
<path d="M34.3265 49.1249H32.8538C32.8513 48.4439 32.5802 47.7916 32.0999 47.3111C31.6196 46.8306 30.9693 46.5611 30.2915 46.5616H27.6797V45.0818H30.2915C31.3597 45.0818 32.3843 45.5074 33.1406 46.2653C33.897 47.0232 34.3234 48.0515 34.3265 49.1249Z" fill="#205160"/>
<path d="M39.4986 53.1756H36.883C35.8145 53.1741 34.7902 52.7468 34.0349 51.9874C33.2795 51.228 32.8548 50.1986 32.8538 49.1249H34.3264C34.3269 49.8063 34.5963 50.4596 35.0756 50.9416C35.5549 51.4236 36.2049 51.6948 36.883 51.6959H39.4986V53.1756Z" fill="#205160"/>
<path d="M41.3143 55C40.8094 55 40.3158 54.8495 39.896 54.5676C39.4762 54.2858 39.149 53.8851 38.9558 53.4164C38.7626 52.9477 38.712 52.4319 38.8105 51.9343C38.909 51.4367 39.1522 50.9796 39.5092 50.6208C39.8662 50.2621 40.321 50.0178 40.8162 49.9188C41.3114 49.8198 41.8247 49.8706 42.2912 50.0648C42.7576 50.2589 43.1563 50.5877 43.4368 51.0096C43.7173 51.4314 43.867 51.9274 43.867 52.4347C43.8665 53.1149 43.5974 53.7671 43.1188 54.2481C42.6402 54.729 41.9911 54.9995 41.3143 55ZM41.3143 51.3512C41.1005 51.3512 40.8916 51.4149 40.714 51.5343C40.5363 51.6536 40.3978 51.8233 40.3161 52.0217C40.2344 52.2202 40.2132 52.4385 40.255 52.6491C40.2968 52.8597 40.3999 53.0531 40.5511 53.2048C40.7024 53.3566 40.895 53.4598 41.1047 53.5015C41.3144 53.5431 41.5316 53.5214 41.7289 53.4389C41.9263 53.3565 42.0949 53.217 42.2133 53.0383C42.3318 52.8595 42.3948 52.6495 42.3944 52.4347C42.3947 52.292 42.3669 52.1507 42.3128 52.0188C42.2586 51.8869 42.1791 51.767 42.0787 51.666C41.9784 51.565 41.8592 51.4849 41.7281 51.4302C41.5969 51.3755 41.4563 51.3474 41.3143 51.3474V51.3512Z" fill="#205160"/>
<path d="M56.0536 48.2098C55.5487 48.2098 55.055 48.0593 54.6352 47.7774C54.2153 47.4954 53.8881 47.0947 53.695 46.6258C53.5018 46.157 53.4514 45.6411 53.55 45.1434C53.6487 44.6458 53.892 44.1887 54.2492 43.83C54.6064 43.4713 55.0615 43.2272 55.5568 43.1284C56.0521 43.0296 56.5654 43.0807 57.0319 43.2752C57.4983 43.4696 57.8969 43.7987 58.1771 44.2208C58.4574 44.6429 58.6068 45.1391 58.6064 45.6465C58.6054 46.3263 58.3361 46.978 57.8575 47.4586C57.3789 47.9391 56.7302 48.2093 56.0536 48.2098ZM56.0536 44.5611C55.84 44.5611 55.6312 44.6247 55.4535 44.744C55.2759 44.8633 55.1374 45.0328 55.0557 45.2311C54.9739 45.4295 54.9525 45.6477 54.9942 45.8582C55.0359 46.0688 55.1388 46.2622 55.2898 46.414C55.4409 46.5658 55.6334 46.6692 55.8429 46.7111C56.0524 46.753 56.2696 46.7315 56.467 46.6493C56.6644 46.5672 56.8331 46.428 56.9518 46.2495C57.0705 46.071 57.1338 45.8612 57.1338 45.6465C57.1338 45.3586 57.02 45.0825 56.8174 44.879C56.6149 44.6754 56.3401 44.5611 56.0536 44.5611Z" fill="#205160"/>
<path d="M34.1664 45.076H54.2362V46.5558H34.1664V45.076Z" fill="#205160"/>
<path d="M26.1461 17.1438C26.1459 16.7637 26.006 16.3971 25.7531 16.1144C25.5003 15.8317 25.1524 15.6529 24.7764 15.6123V23.934L27.0796 20.9744C26.8112 20.7233 26.5972 20.4193 26.451 20.0813C26.3048 19.7434 26.2296 19.3788 26.2299 19.0103V17.7813C26.1925 17.5703 26.1658 17.3575 26.1499 17.1438H26.1461Z" fill="white"/>
<path d="M20.8462 40.9238H28.3674V45.0837H20.8462V40.9238Z" fill="white"/>
<path d="M16.0265 25.8961H8.25952C9.21676 26.613 9.99411 27.5447 10.5296 28.6169C11.0651 29.6891 11.3439 30.8722 11.3438 32.0718V39.1549C11.3448 39.8563 11.6225 40.5286 12.1161 41.0245C12.6096 41.5205 13.2787 41.7995 13.9766 41.8005H19.3584V29.2424C19.3569 28.355 19.0053 27.5045 18.3807 26.8772C17.7561 26.2499 16.9095 25.8971 16.0265 25.8961Z" fill="white"/>
<path d="M26.2299 14.5919V13.2519C26.2309 12.5363 26.5143 11.8503 27.0178 11.3443C27.5213 10.8383 28.204 10.5536 28.9161 10.5526H37.8603V5.41833C34.3901 8.36513 30.0434 10.0689 25.5041 10.2616V11.1116C25.5092 11.213 25.4937 11.3143 25.4587 11.4095C25.4236 11.5046 25.3696 11.5916 25.3 11.6652C25.2304 11.7387 25.1467 11.7973 25.0539 11.8373C24.9611 11.8773 24.8612 11.898 24.7602 11.898C24.6592 11.898 24.5592 11.8773 24.4664 11.8373C24.3736 11.7973 24.2899 11.7387 24.2203 11.6652C24.1507 11.5916 24.0968 11.5046 24.0617 11.4095C24.0266 11.3143 24.0111 11.213 24.0162 11.1116V10.2693C19.3669 10.1465 14.8976 8.437 11.3438 5.42216V10.5373H20.6367C21.3488 10.5383 22.0314 10.823 22.5349 11.329C23.0385 11.835 23.3218 12.521 23.3228 13.2365V14.4005C23.7822 14.1781 24.2907 14.0779 24.7997 14.1094C25.3087 14.1409 25.8011 14.3031 26.2299 14.5804V14.5919Z" fill="white"/>
<path d="M29.8552 29.2424V41.7929H35.2447C35.9426 41.7919 36.6117 41.5128 37.1052 41.0169C37.5987 40.5209 37.8764 39.8486 37.8774 39.1473V32.0642C37.8783 30.866 38.1574 29.6845 38.6925 28.6137C39.2276 27.543 40.004 26.6124 40.9598 25.8961H33.1872C32.3041 25.8971 31.4575 26.2499 30.8329 26.8772C30.2083 27.5045 29.8567 28.355 29.8552 29.2424Z" fill="white"/>
<path d="M41.0628 24.3991C40.0944 23.6976 39.3009 22.7803 38.7443 21.719H28.9161C28.7544 21.7184 28.593 21.7031 28.4341 21.6731L24.8373 26.2905L20.8653 21.7076C20.7891 21.7076 20.7129 21.719 20.6367 21.719H10.7608C10.6665 21.7156 10.5724 21.7073 10.4789 21.6942C9.92266 22.7654 9.12556 23.6916 8.15088 24.3991H16.0264C17.3042 24.4007 18.5293 24.9114 19.4329 25.8194C20.3364 26.7273 20.8447 27.9584 20.8462 29.2424V39.4287H28.3674V29.2424C28.3689 27.9584 28.8772 26.7273 29.7808 25.8194C30.6843 24.9114 31.9094 24.4007 33.1872 24.3991H41.0628Z" fill="white"/>
<path d="M10.7608 20.2278H20.6366C20.958 20.2278 21.2661 20.0995 21.4934 19.8712C21.7206 19.6428 21.8482 19.3332 21.8482 19.0103V13.2366C21.8482 12.9137 21.7206 12.604 21.4934 12.3756C21.2661 12.1473 20.958 12.019 20.6366 12.019H10.7608C10.4396 12.02 10.1318 12.1486 9.90445 12.3766C9.67715 12.6047 9.54875 12.9138 9.54724 13.2366V19.0103C9.54775 19.3333 9.67582 19.643 9.90335 19.8713C10.1309 20.0996 10.4392 20.2278 10.7608 20.2278Z" fill="white"/>
<path d="M16.0265 25.8961H8.25952C9.21676 26.613 9.99411 27.5447 10.5296 28.6169C11.0651 29.6891 11.3439 30.8722 11.3438 32.0718V39.1549C11.3448 39.8563 11.6225 40.5286 12.1161 41.0245C12.6096 41.5205 13.2787 41.7995 13.9766 41.8005H19.3584V29.2424C19.3569 28.355 19.0053 27.5045 18.3807 26.8772C17.7561 26.2499 16.9095 25.8971 16.0265 25.8961Z" fill="white"/>
<path d="M20.8462 40.9238H28.3674V45.0837H20.8462V40.9238Z" fill="white"/>
<path d="M29.8552 29.2424V41.7929H35.2447C35.9426 41.7919 36.6117 41.5128 37.1052 41.0169C37.5987 40.5209 37.8764 39.8486 37.8774 39.1473V32.0642C37.8783 30.866 38.1574 29.6845 38.6925 28.6137C39.2276 27.543 40.004 26.6124 40.9598 25.8961H33.1872C32.3041 25.8971 31.4575 26.2499 30.8329 26.8772C30.2083 27.5045 29.8567 28.355 29.8552 29.2424Z" fill="white"/>
<path d="M36.7687 12.019H28.916C28.5945 12.019 28.2861 12.1473 28.0586 12.3755C27.8311 12.6038 27.703 12.9135 27.7025 13.2366V19.0103C27.703 19.3333 27.8311 19.643 28.0586 19.8713C28.2861 20.0996 28.5945 20.2278 28.916 20.2278H38.7919C39.1134 20.2273 39.4217 20.099 39.6494 19.8708C39.8772 19.6427 40.0058 19.3334 40.0073 19.0103V13.2366C40.0068 12.9138 39.879 12.6044 39.6519 12.3762C39.4248 12.148 39.1169 12.0195 38.7957 12.019H36.7687Z" fill="white"/>
<path d="M26.2299 14.5919V13.2519C26.2309 12.5363 26.5143 11.8503 27.0178 11.3443C27.5213 10.8383 28.204 10.5536 28.9161 10.5526H37.8603V5.41833C34.3901 8.36513 30.0434 10.0689 25.5041 10.2616V11.1116C25.5092 11.213 25.4937 11.3143 25.4587 11.4095C25.4236 11.5046 25.3696 11.5916 25.3 11.6652C25.2304 11.7387 25.1467 11.7973 25.0539 11.8373C24.9611 11.8773 24.8612 11.898 24.7602 11.898C24.6592 11.898 24.5592 11.8773 24.4664 11.8373C24.3736 11.7973 24.2899 11.7387 24.2203 11.6652C24.1507 11.5916 24.0968 11.5046 24.0617 11.4095C24.0266 11.3143 24.0111 11.213 24.0162 11.1116V10.2693C19.3669 10.1465 14.8976 8.437 11.3438 5.42216V10.5373H20.6367C21.3488 10.5383 22.0314 10.823 22.5349 11.329C23.0385 11.835 23.3218 12.521 23.3228 13.2365V14.4005C23.7822 14.1781 24.2907 14.0779 24.7997 14.1094C25.3087 14.1409 25.8011 14.3031 26.2299 14.5804V14.5919Z" fill="white"/>
<path d="M41.0628 24.3991C40.0944 23.6976 39.3009 22.7803 38.7443 21.719H28.9161C28.7544 21.7184 28.593 21.7031 28.4341 21.6731L24.8373 26.2905L20.8653 21.7076C20.7891 21.7076 20.7129 21.719 20.6367 21.719H10.7608C10.6665 21.7156 10.5724 21.7073 10.4789 21.6942C9.92266 22.7654 9.12556 23.6916 8.15088 24.3991H16.0264C17.3042 24.4007 18.5293 24.9114 19.4329 25.8194C20.3364 26.7273 20.8447 27.9584 20.8462 29.2424V39.4287H28.3674V29.2424C28.3689 27.9584 28.8772 26.7273 29.7808 25.8194C30.6843 24.9114 31.9094 24.4007 33.1872 24.3991H41.0628Z" fill="white"/>
<path d="M27.0796 20.9743C26.8112 20.7232 26.5973 20.4192 26.4511 20.0812C26.3049 19.7433 26.2296 19.3787 26.23 19.0102V17.7812C26.1925 17.5702 26.1658 17.3574 26.15 17.1437C26.1577 16.8064 26.0544 16.476 25.8561 16.2037C25.6577 15.9315 25.3755 15.7327 25.0532 15.6382C24.7309 15.5437 24.3865 15.5588 24.0736 15.6811C23.7608 15.8035 23.4968 16.0262 23.3228 16.3148V19.0102C23.322 19.4114 23.2319 19.8073 23.0592 20.169C22.8865 20.5307 22.6355 20.849 22.3246 21.1007L24.7764 23.9301L27.0796 20.9743Z" fill="white"/>
<path d="M28.4341 21.6635C27.9261 21.5693 27.4558 21.33 27.0796 20.9744L24.7763 23.934L22.3245 21.1007C21.9086 21.4416 21.4 21.6484 20.8652 21.6942L24.8373 26.2771L28.4341 21.6635Z" fill="#205160"/>
<path d="M24.6144 15.6046C25.0186 15.6046 25.4062 15.766 25.6921 16.0532C25.9779 16.3404 26.1384 16.7299 26.1384 17.1361C26.1543 17.3498 26.181 17.5626 26.2185 17.7736V14.5919C25.792 14.3148 25.3021 14.1518 24.7953 14.1183C24.2886 14.0848 23.7817 14.1819 23.3228 14.4005V16.3148C23.4608 16.0965 23.6517 15.9168 23.8776 15.7926C24.1034 15.6684 24.3569 15.6037 24.6144 15.6046Z" fill="#205160"/>
<path d="M35.2447 43.288C35.7859 43.2882 36.3218 43.1813 36.8219 42.9733C37.3219 42.7653 37.7763 42.4603 38.159 42.0757C38.5417 41.6912 38.8452 41.2346 39.0522 40.7321C39.2592 40.2296 39.3656 39.6911 39.3653 39.1472V32.0641C39.3678 30.5309 39.9333 29.0526 40.9536 27.9126C41.9738 26.7726 43.3769 26.0511 44.8938 25.8865C45.074 25.8644 45.2397 25.7765 45.3595 25.6395C45.4793 25.5026 45.5448 25.3261 45.5435 25.1437C45.5435 25.1303 45.5435 25.1169 45.5435 25.1035C45.5435 25.0901 45.5435 25.0767 45.5435 25.0633C45.5452 24.8811 45.4798 24.7046 45.3599 24.5679C45.24 24.4311 45.074 24.3437 44.8938 24.3225C43.9328 24.219 43.0092 23.8911 42.1968 23.3649C41.3844 22.8387 40.7057 22.1288 40.215 21.2921C40.6006 21.05 40.9186 20.7134 41.1392 20.3139C41.3599 19.9144 41.4758 19.4651 41.4762 19.0082V13.2365C41.4753 12.6202 41.2647 12.0227 40.8794 11.5432C40.4941 11.0637 39.9571 10.731 39.3577 10.6004V4.5549H39.3482V3.7145C39.3487 3.56701 39.3058 3.42265 39.2248 3.29965C39.1438 3.17665 39.0284 3.08052 38.893 3.02338C38.7577 2.96624 38.6086 2.95067 38.4645 2.97861C38.3203 3.00655 38.1877 3.07677 38.0832 3.1804C34.733 6.55419 30.2478 8.54619 25.5098 8.76456V6.41756C25.514 6.22084 25.4438 6.02984 25.3133 5.88311C25.1828 5.73637 25.0018 5.64482 24.8068 5.62694C24.7058 5.62175 24.6047 5.63726 24.5098 5.67252C24.4149 5.70778 24.3281 5.76206 24.2547 5.83206C24.1813 5.90207 24.1228 5.98633 24.0828 6.07974C24.0428 6.17315 24.0221 6.27376 24.0219 6.37545V8.77221C19.1697 8.63568 14.5537 6.63672 11.1228 3.18614C11.0187 3.08117 10.886 3.0096 10.7414 2.98049C10.5968 2.95138 10.4469 2.96605 10.3106 3.02263C10.1743 3.07921 10.0578 3.17516 9.97587 3.29833C9.8939 3.42149 9.85016 3.56633 9.85017 3.7145V10.4415V10.6981C9.32958 10.8858 8.87924 11.2303 8.5605 11.6845C8.24176 12.1387 8.07011 12.6807 8.06894 13.2365V19.0102C8.07023 19.4158 8.16275 19.8159 8.33957 20.1805C8.51639 20.5452 8.77294 20.865 9.09005 21.1159C8.61012 21.9973 7.9251 22.749 7.09344 23.3067C6.26179 23.8644 5.3082 24.2116 4.31406 24.3187C4.13391 24.3399 3.96794 24.4273 3.84802 24.564C3.72811 24.7008 3.66273 24.8773 3.66443 25.0595V25.0997C3.66443 25.0997 3.66443 25.1265 3.66443 25.1399C3.66231 25.3238 3.72815 25.5019 3.84921 25.6399C3.97027 25.7778 4.13794 25.8657 4.31977 25.8865C5.83874 26.0494 7.24421 26.7707 8.26609 27.9117C9.28798 29.0527 9.85418 30.5329 9.85589 32.0679V39.151C9.85614 39.6946 9.96292 40.2327 10.1701 40.7348C10.3774 41.2368 10.681 41.6929 11.0636 42.0771C11.4462 42.4612 11.9004 42.7659 12.4002 42.9736C12.9 43.1814 13.4357 43.2882 13.9765 43.288H19.3584V45.0836H1.19166C0.994103 45.0836 0.80464 45.1625 0.664948 45.3029C0.525256 45.4432 0.446777 45.6336 0.446777 45.8321C0.446777 46.0306 0.525256 46.221 0.664948 46.3614C0.80464 46.5018 0.994103 46.5806 1.19166 46.5806H44.7567C44.9525 46.5848 45.1426 46.5139 45.2884 46.3823C45.4342 46.2508 45.5247 46.0685 45.5416 45.8723C45.547 45.7709 45.5318 45.6694 45.4969 45.574C45.4621 45.4786 45.4082 45.3914 45.3387 45.3176C45.2692 45.2438 45.1855 45.185 45.0926 45.1448C44.9997 45.1045 44.8997 45.0837 44.7986 45.0836H29.8553V43.288H35.2447ZM37.8775 32.0718V39.1549C37.8745 39.8549 37.5959 40.5253 37.1026 41.0196C36.6092 41.5138 35.9413 41.7918 35.2447 41.7929H29.8553V29.2424C29.8568 28.355 30.2084 27.5045 30.8329 26.8772C31.4575 26.2499 32.3042 25.8971 33.1872 25.8961H40.9599C40.0016 26.6123 39.2231 27.5438 38.6866 28.616C38.1501 29.6882 37.8704 30.8716 37.8699 32.0718H37.8775ZM38.7995 12.019C39.1201 12.0205 39.427 12.1494 39.6533 12.3775C39.8796 12.6056 40.0068 12.9144 40.0073 13.2365V19.0102C40.0058 19.3326 39.8777 19.6414 39.6508 19.8694C39.4239 20.0974 39.1166 20.2262 38.7957 20.2277H28.9161C28.5945 20.2277 28.2862 20.0995 28.0586 19.8712C27.8311 19.6429 27.703 19.3332 27.7025 19.0102V13.2365C27.703 12.9134 27.8311 12.6037 28.0586 12.3754C28.2862 12.1472 28.5945 12.019 28.9161 12.019H38.7919H38.7995ZM9.54727 13.2365C9.54878 12.9137 9.67717 12.6046 9.90448 12.3766C10.1318 12.1485 10.4396 12.02 10.7608 12.019H20.6366C20.958 12.019 21.2662 12.1472 21.4934 12.3756C21.7206 12.6039 21.8483 12.9136 21.8483 13.2365V19.0102C21.8483 19.3331 21.7206 19.6428 21.4934 19.8711C21.2662 20.0994 20.958 20.2277 20.6366 20.2277H10.7608C10.4393 20.2277 10.1309 20.0995 9.90338 19.8712C9.67585 19.6429 9.54777 19.3332 9.54727 19.0102V13.2365ZM19.3584 41.7929H13.9765C13.2786 41.7918 12.6095 41.5128 12.116 41.0168C11.6225 40.5209 11.3448 39.8486 11.3437 39.1472V32.0641C11.3438 30.8645 11.065 29.6814 10.5295 28.6092C9.99404 27.537 9.21669 26.6053 8.25945 25.8884H16.0264C16.9094 25.8894 17.7561 26.2423 18.3807 26.8695C19.0052 27.4968 19.3568 28.3474 19.3584 29.2347V41.7929ZM28.3674 45.0836H20.8462V40.9237H28.3674V45.0836ZM28.3674 29.2424V39.4286H20.8462V29.2424C20.8447 27.9583 20.3364 26.7273 19.4328 25.8193C18.5293 24.9113 17.3042 24.4006 16.0264 24.3991H8.15086C9.12554 23.6915 9.92264 22.7653 10.4788 21.6941C10.5725 21.7041 10.6666 21.7092 10.7608 21.7094H20.6366C20.7129 21.7094 20.7891 21.7094 20.8653 21.6979C21.5332 21.6384 22.1552 21.3308 22.6096 20.8352C23.064 20.3397 23.3183 19.6917 23.3228 19.0178V13.2365C23.3218 12.5209 23.0385 11.8349 22.5349 11.329C22.0314 10.823 21.3487 10.5383 20.6366 10.5372H11.3437V5.4221C14.8976 8.43694 19.3669 10.1464 24.0162 10.2692V11.1116C24.0111 11.2129 24.0266 11.3142 24.0617 11.4094C24.0967 11.5046 24.1507 11.5916 24.2203 11.6651C24.2899 11.7387 24.3736 11.7972 24.4664 11.8373C24.5592 11.8773 24.6592 11.8979 24.7602 11.8979C24.8611 11.8979 24.9611 11.8773 25.0539 11.8373C25.1467 11.7972 25.2304 11.7387 25.3 11.6651C25.3696 11.5916 25.4236 11.5046 25.4587 11.4094C25.4937 11.3142 25.5092 11.2129 25.5041 11.1116V10.2616C30.0434 10.0689 34.3901 8.36507 37.8603 5.41827V10.5372H28.9161C28.204 10.5383 27.5213 10.823 27.0178 11.329C26.5143 11.8349 26.2309 12.5209 26.2299 13.2365V19.0102C26.2334 19.725 26.5176 20.4095 27.0205 20.9149C27.5235 21.4204 28.2047 21.7059 28.9161 21.7094H38.7443C39.3009 22.7706 40.0944 23.6879 41.0627 24.3895H33.1872C31.9077 24.391 30.6812 24.9031 29.7774 25.8131C28.8736 26.7232 28.3664 27.9566 28.3674 29.2424Z" fill="#205160"/>
<path d="M36.7687 12.019H28.916C28.5945 12.019 28.2861 12.1473 28.0586 12.3755C27.8311 12.6038 27.703 12.9135 27.7025 13.2366V19.0103C27.703 19.3333 27.8311 19.643 28.0586 19.8713C28.2861 20.0996 28.5945 20.2278 28.916 20.2278H38.7919C39.1134 20.2273 39.4217 20.099 39.6494 19.8708C39.8772 19.6427 40.0058 19.3334 40.0073 19.0103V13.2366C40.0068 12.9138 39.879 12.6044 39.6519 12.3762C39.4248 12.148 39.1169 12.0195 38.7957 12.019H36.7687ZM33.854 19.1864C33.4173 19.1869 32.9857 19.0922 32.589 18.9088C32.7398 18.8348 32.8704 18.7249 32.9695 18.5888C33.0685 18.4526 33.1331 18.2942 33.1575 18.1274C33.1819 17.9605 33.1654 17.7901 33.1096 17.6311C33.0537 17.4721 32.9601 17.3291 32.8368 17.2146C32.7136 17.1001 32.5644 17.0175 32.4023 16.974C32.2401 16.9305 32.0698 16.9274 31.9062 16.9649C31.7425 17.0024 31.5905 17.0794 31.4631 17.1893C31.3358 17.2992 31.2371 17.4387 31.1754 17.5955C30.9208 17.1287 30.7917 16.6032 30.8008 16.0709C30.8098 15.5387 30.9568 15.0179 31.2272 14.5601C31.4976 14.1023 31.882 13.7232 32.3427 13.4603C32.8033 13.1973 33.3242 13.0595 33.854 13.0604C33.9321 13.0604 34.0083 13.0604 34.0845 13.0719C33.8738 13.4302 33.8004 13.8535 33.8781 14.2622C33.9557 14.671 34.1791 15.0373 34.5064 15.2924C34.8336 15.5475 35.2422 15.6738 35.6556 15.6478C36.0689 15.6218 36.4586 15.4451 36.7516 15.1509C36.9052 15.6121 36.9474 16.1033 36.8746 16.5841C36.8018 17.0648 36.6162 17.5213 36.333 17.9156C36.0499 18.31 35.6773 18.6309 35.2462 18.8519C34.8151 19.0729 34.3379 19.1875 33.854 19.1864Z" fill="white"/>
<path d="M35.5571 15.6334C35.2573 15.6341 34.9625 15.5552 34.7028 15.4047C34.4431 15.2542 34.2276 15.0373 34.0781 14.7762C33.9286 14.515 33.8505 14.2187 33.8516 13.9174C33.8527 13.6162 33.933 13.3205 34.0845 13.0605C34.0083 13.0605 33.9321 13.049 33.854 13.049C33.322 13.0465 32.7986 13.184 32.3359 13.4478C31.8732 13.7116 31.4873 14.0924 31.2165 14.5525C30.9456 15.0126 30.7993 15.536 30.7921 16.0705C30.785 16.605 30.9171 17.1321 31.1754 17.5994C31.2371 17.4425 31.3358 17.3031 31.4631 17.1932C31.5905 17.0833 31.7425 17.0062 31.9062 16.9687C32.0698 16.9312 32.2401 16.9343 32.4023 16.9778C32.5644 17.0214 32.7136 17.1039 32.8368 17.2184C32.9601 17.3329 33.0537 17.4759 33.1096 17.6349C33.1654 17.794 33.1819 17.9643 33.1575 18.1312C33.133 18.2981 33.0685 18.4564 32.9695 18.5926C32.8704 18.7288 32.7398 18.8386 32.589 18.9126C32.986 19.0947 33.4176 19.1881 33.854 19.1864C34.3394 19.1878 34.8181 19.0726 35.2503 18.8505C35.6824 18.6285 36.0556 18.3059 36.3387 17.9096C36.6217 17.5134 36.8065 17.0549 36.8777 16.5724C36.9488 16.0899 36.9043 15.5973 36.7478 15.1356C36.4315 15.4525 36.0037 15.6313 35.5571 15.6334Z" fill="#205160"/>
<path d="M10.7608 20.2278H20.6366C20.958 20.2278 21.2661 20.0995 21.4934 19.8712C21.7206 19.6428 21.8482 19.3332 21.8482 19.0103V13.2366C21.8482 12.9137 21.7206 12.604 21.4934 12.3756C21.2661 12.1473 20.958 12.019 20.6366 12.019H10.7608C10.4396 12.02 10.1318 12.1486 9.90445 12.3766C9.67715 12.6047 9.54875 12.9138 9.54724 13.2366V19.0103C9.54775 19.3333 9.67582 19.643 9.90335 19.8713C10.1309 20.0996 10.4392 20.2278 10.7608 20.2278ZM15.6987 13.0604C15.7768 13.0604 15.853 13.0604 15.9292 13.0719C15.7185 13.4302 15.6451 13.8535 15.7228 14.2622C15.8005 14.671 16.0239 15.0373 16.3511 15.2924C16.6783 15.5475 17.0869 15.6738 17.5003 15.6478C17.9136 15.6218 18.3033 15.4451 18.5963 15.1509C18.7499 15.6121 18.7921 16.1033 18.7193 16.5841C18.6466 17.0648 18.4609 17.5213 18.1777 17.9156C17.8946 18.31 17.5221 18.6309 17.091 18.8519C16.6599 19.0729 16.1826 19.1875 15.6987 19.1864C15.262 19.1867 14.8305 19.092 14.4337 18.9088C14.5846 18.8348 14.7151 18.7249 14.8142 18.5888C14.9133 18.4526 14.9778 18.2942 15.0022 18.1274C15.0266 17.9605 15.0102 17.7901 14.9543 17.6311C14.8984 17.4721 14.8048 17.3291 14.6816 17.2146C14.5583 17.1001 14.4092 17.0175 14.247 16.974C14.0848 16.9305 13.9146 16.9274 13.7509 16.9649C13.5873 17.0024 13.4352 17.0794 13.3079 17.1893C13.1805 17.2992 13.0818 17.4387 13.0202 17.5955C12.7655 17.1287 12.6364 16.6032 12.6455 16.0709C12.6546 15.5387 12.8015 15.0179 13.0719 14.5601C13.3423 14.1023 13.7268 13.7232 14.1874 13.4603C14.648 13.1973 15.1689 13.0595 15.6987 13.0604Z" fill="white"/>
<path d="M13.7975 16.9618C14.0433 16.9164 14.2971 16.9621 14.5119 17.0904C14.7267 17.2187 14.8879 17.421 14.9656 17.6597C15.0433 17.8983 15.0322 18.1572 14.9344 18.3883C14.8366 18.6194 14.6588 18.807 14.4338 18.9164C14.8311 19.097 15.2626 19.189 15.6987 19.1863C16.1832 19.1872 16.661 19.0721 17.0924 18.8505C17.5238 18.6288 17.8964 18.307 18.1793 17.9118C18.4622 17.5165 18.6472 17.0592 18.7191 16.5777C18.791 16.0962 18.7476 15.6044 18.5925 15.1432C18.299 15.4361 17.9092 15.6115 17.4963 15.6365C17.0834 15.6615 16.6755 15.5345 16.349 15.2792C16.0225 15.0239 15.7998 14.6578 15.7225 14.2493C15.6453 13.8409 15.7188 13.4182 15.9293 13.0604C15.853 13.0604 15.7768 13.0489 15.6987 13.0489C15.1662 13.046 14.6423 13.1835 14.179 13.4474C13.7158 13.7114 13.3295 14.0927 13.0585 14.5534C12.7876 15.0141 12.6415 15.538 12.6348 16.0731C12.628 16.6082 12.7609 17.1357 13.0202 17.6031C13.0843 17.4383 13.1895 17.2928 13.3255 17.1805C13.4616 17.0682 13.6241 16.9929 13.7975 16.9618Z" fill="#205160"/>
</g>
<defs>
<clipPath id="clip0_1116_185">
<rect width="59.001" height="55" fill="white"/>
</clipPath>
</defs>
</svg>
