<svg width="53" height="39" viewBox="0 0 53 39" fill="none" xmlns="http://www.w3.org/2000/svg">
<path d="M44.1407 3.21344C40.7172 1.69061 37.1029 0.610267 33.3904 0C32.8824 0.882356 32.4227 1.79018 32.0133 2.71968C28.0587 2.14071 24.0372 2.14071 20.0826 2.71968C19.673 1.79028 19.2133 0.882462 18.7055 0C14.9906 0.61542 11.374 1.69833 7.94694 3.22141C1.14344 13.0011 -0.700882 22.5379 0.221279 31.9393C4.20558 34.7994 8.66514 36.9745 13.4061 38.3702C14.4737 36.9752 15.4183 35.4953 16.23 33.9462C14.6883 33.3868 13.2002 32.6966 11.7831 31.8836C12.1561 31.6208 12.5209 31.35 12.8733 31.0872C16.9968 32.9712 21.4974 33.9481 26.0541 33.9481C30.6108 33.9481 35.1113 32.9712 39.2348 31.0872C39.5914 31.3699 39.9562 31.6407 40.325 31.8836C38.9052 32.6979 37.4144 33.3894 35.87 33.9502C36.6807 35.4986 37.6254 36.9772 38.6938 38.3702C43.4389 36.9801 47.9018 34.806 51.8869 31.9433C52.9689 21.0407 50.0385 11.5915 44.1407 3.21344ZM17.3981 26.1575C14.8283 26.1575 12.7053 23.8918 12.7053 21.1044C12.7053 18.317 14.7545 16.0314 17.3899 16.0314C20.0252 16.0314 22.1318 18.317 22.0867 21.1044C22.0417 23.8918 20.017 26.1575 17.3981 26.1575ZM34.7101 26.1575C32.1362 26.1575 30.0214 23.8918 30.0214 21.1044C30.0214 18.317 32.0707 16.0314 34.7101 16.0314C37.3495 16.0314 39.4398 18.317 39.3947 21.1044C39.3496 23.8918 37.329 26.1575 34.7101 26.1575Z" fill="#5865F2"/>
</svg>
