<svg width="2865" height="449" viewBox="0 0 2865 449" fill="none" xmlns="http://www.w3.org/2000/svg">
<path d="M749.615 321.047C752.909 321.347 756.651 321.646 760.843 321.945C765.334 321.945 770.573 321.945 776.561 321.945C811.59 321.945 837.487 313.115 854.253 295.454C871.319 277.794 879.852 253.398 879.852 222.267C879.852 189.64 871.768 164.945 855.601 148.182C839.433 131.42 813.835 123.038 778.806 123.038C774.016 123.038 769.076 123.188 763.986 123.487C760.134 123.487 756.454 123.659 752.944 124.002C751.035 124.188 749.615 125.818 749.615 127.737V321.047ZM952.155 222.267C952.155 249.207 947.964 272.705 939.581 292.76C931.198 312.816 919.222 329.429 903.653 342.599C888.384 355.77 869.672 365.648 847.517 372.233C825.362 378.819 800.512 382.111 772.968 382.111C760.394 382.111 745.723 381.513 728.957 380.315C712.191 379.417 695.725 377.322 679.557 374.029V74.1386C679.557 72.2933 680.873 70.7085 682.691 70.3887C697.888 67.7146 713.61 65.9575 729.855 65.1174C747.52 63.92 762.639 63.3214 775.214 63.3214C801.86 63.3214 825.961 66.3147 847.517 72.3014C869.373 78.2881 888.085 87.7171 903.653 100.588C919.222 113.46 931.198 129.923 939.581 149.978C947.964 170.034 952.155 194.13 952.155 222.267Z" fill="white"/>
<path d="M1093.08 222.267C1093.08 237.533 1094.88 251.303 1098.47 263.575C1102.36 275.848 1107.75 286.474 1114.64 295.454C1121.82 304.135 1130.51 310.87 1140.69 315.659C1150.86 320.449 1162.54 322.843 1175.71 322.843C1188.59 322.843 1200.12 320.449 1210.29 315.659C1220.77 310.87 1229.46 304.135 1236.34 295.454C1243.53 286.474 1248.92 275.848 1252.51 263.575C1256.4 251.303 1258.35 237.533 1258.35 222.267C1258.35 207.001 1256.4 193.232 1252.51 180.959C1248.92 168.387 1243.53 157.761 1236.34 149.08C1229.46 140.1 1220.77 133.216 1210.29 128.426C1200.12 123.637 1188.59 121.242 1175.71 121.242C1162.54 121.242 1150.86 123.787 1140.69 128.875C1130.51 133.665 1121.82 140.549 1114.64 149.529C1107.75 158.21 1102.36 168.836 1098.47 181.408C1094.88 193.681 1093.08 207.301 1093.08 222.267ZM1330.65 222.267C1330.65 248.908 1326.61 272.406 1318.53 292.76C1310.74 312.816 1299.96 329.728 1286.19 343.497C1272.42 356.967 1255.95 367.145 1236.79 374.029C1217.93 380.914 1197.57 384.356 1175.71 384.356C1154.46 384.356 1134.4 380.914 1115.54 374.029C1096.67 367.145 1080.21 356.967 1066.14 343.497C1052.06 329.728 1040.99 312.816 1032.9 292.76C1024.82 272.406 1020.78 248.908 1020.78 222.267C1020.78 195.627 1024.97 172.279 1033.35 152.223C1041.74 131.869 1052.96 114.807 1067.03 101.037C1081.41 87.268 1097.87 76.941 1116.43 70.0564C1135.3 63.1717 1155.06 59.7294 1175.71 59.7294C1196.97 59.7294 1217.03 63.1717 1235.89 70.0564C1254.75 76.941 1271.22 87.268 1285.29 101.037C1299.36 114.807 1310.44 131.869 1318.53 152.223C1326.61 172.279 1330.65 195.627 1330.65 222.267Z" fill="white"/>
<path d="M1506.04 63.3214C1552.44 63.3214 1588.07 71.5531 1612.92 88.0164C1637.77 104.18 1650.2 130.821 1650.2 167.938C1650.2 205.355 1637.62 232.445 1612.47 249.207C1587.32 265.671 1551.4 273.902 1504.69 273.902H1486.51C1484.4 273.902 1482.69 275.616 1482.69 277.73V374.239C1482.69 376.355 1480.97 378.07 1478.85 378.07H1412.63V74.5564C1412.63 72.7247 1413.92 71.147 1415.72 70.8109C1430.08 68.132 1445.21 66.2341 1461.13 65.1174C1478.19 63.92 1493.16 63.3214 1506.04 63.3214ZM1510.53 123.038C1505.44 123.038 1500.35 123.188 1495.26 123.487C1491.95 123.694 1488.93 123.901 1486.2 124.107C1484.21 124.257 1482.69 125.917 1482.69 127.908V214.185H1504.69C1528.94 214.185 1547.2 210.893 1559.48 204.307C1571.75 197.722 1577.89 185.449 1577.89 167.489C1577.89 158.809 1576.25 151.625 1572.95 145.937C1569.96 140.25 1565.47 135.76 1559.48 132.467C1553.79 128.875 1546.76 126.481 1538.37 125.283C1529.99 123.787 1520.71 123.038 1510.53 123.038Z" fill="white"/>
<path d="M1818.63 63.3214C1865.04 63.3214 1900.66 71.5531 1925.51 88.0164C1950.36 104.18 1962.79 130.821 1962.79 167.938C1962.79 205.355 1950.21 232.445 1925.06 249.207C1899.91 265.671 1863.99 273.902 1817.28 273.902H1799.1C1796.99 273.902 1795.28 275.616 1795.28 277.73V374.239C1795.28 376.355 1793.56 378.07 1791.45 378.07H1725.22V74.5537C1725.22 72.7235 1726.51 71.1472 1728.31 70.8114C1742.67 68.1322 1757.8 66.2342 1773.72 65.1174C1790.79 63.92 1805.76 63.3214 1818.63 63.3214ZM1823.12 123.038C1818.03 123.038 1812.94 123.188 1807.85 123.487C1804.54 123.694 1801.52 123.901 1798.79 124.107C1796.8 124.257 1795.28 125.917 1795.28 127.908V214.185H1817.28C1841.53 214.185 1859.8 210.893 1872.07 204.307C1884.35 197.722 1890.48 185.449 1890.48 167.489C1890.48 158.809 1888.84 151.625 1885.54 145.937C1882.55 140.25 1878.06 135.76 1872.07 132.467C1866.38 128.875 1859.35 126.481 1850.96 125.283C1842.58 123.787 1833.3 123.038 1823.12 123.038Z" fill="white"/>
<path d="M2236.06 317.904C2236.76 317.904 2237.33 318.476 2237.33 319.18V376.794C2237.33 377.499 2236.76 378.07 2236.06 378.07H2037.81V89.1415C2037.81 87.4192 2038.96 85.909 2040.62 85.4513L2107.87 66.9134V317.904H2236.06Z" fill="white"/>
<path d="M2314.44 378.07V70.7412C2314.44 68.6272 2316.15 66.9134 2318.27 66.9134H2533.24C2534.09 66.9134 2534.7 67.7304 2534.47 68.5471L2518.03 124.814C2517.87 125.358 2517.37 125.732 2516.81 125.732H2388.33C2386.21 125.732 2384.5 127.446 2384.5 129.56V186.796H2498.66C2499.51 186.796 2500.12 187.613 2499.89 188.429L2483.89 243.349C2483.73 243.894 2483.23 244.268 2482.66 244.268H2388.33C2386.21 244.268 2384.5 245.982 2384.5 248.096V319.251H2539.22C2540.07 319.251 2540.68 320.067 2540.45 320.883L2524.11 377.15C2523.95 377.695 2523.45 378.07 2522.88 378.07H2314.44Z" fill="white"/>
<path d="M2701.53 63.3214C2748.24 63.3214 2784.01 71.7027 2808.86 88.4654C2833.71 104.929 2846.14 130.671 2846.14 165.693C2846.14 187.545 2841.05 205.355 2830.87 219.124C2820.99 232.594 2806.62 243.221 2787.76 251.003C2794.04 258.786 2800.63 267.766 2807.52 277.943C2814.4 287.821 2821.14 298.298 2827.73 309.373C2834.61 320.149 2841.2 331.524 2847.49 343.497C2853.44 354.548 2858.99 365.465 2864.13 376.248C2864.54 377.094 2863.92 378.07 2862.98 378.07H2787.16C2786.7 378.07 2786.27 377.82 2786.04 377.417C2780.47 367.451 2774.75 357.342 2768.89 347.089C2763.21 336.613 2757.22 326.435 2750.93 316.557C2744.94 306.679 2738.96 297.4 2732.97 288.719C2726.98 279.739 2720.99 271.657 2715 264.473H2684.25C2682.14 264.473 2680.42 266.187 2680.42 268.301V374.239C2680.42 376.355 2678.71 378.07 2676.59 378.07H2610.37V74.5537C2610.37 72.7235 2611.66 71.1474 2613.46 70.8103C2627.76 68.1317 2642.44 66.234 2657.52 65.1174C2673.99 63.92 2688.66 63.3214 2701.53 63.3214ZM2705.57 123.038C2700.48 123.038 2695.84 123.188 2691.65 123.487C2689.01 123.691 2686.44 123.894 2683.93 124.097C2681.95 124.258 2680.42 125.917 2680.42 127.908V208.797H2700.18C2726.53 208.797 2745.39 205.505 2756.77 198.919C2768.15 192.334 2773.83 181.109 2773.83 165.244C2773.83 149.978 2768 139.202 2756.32 132.916C2744.94 126.331 2728.03 123.038 2705.57 123.038Z" fill="white"/>
<path fill-rule="evenodd" clip-rule="evenodd" d="M3.26032 0C1.84923 0 0.99666 1.55915 1.75648 2.74821L91.4603 143.126C94.0796 147.225 98.5715 149.706 103.436 149.706H224.381C264.296 149.706 289.248 184.991 289.102 224.5C288.956 264.009 262.365 298.943 224.381 298.943H100.766C98.1415 298.943 96.0625 301.07 96.0625 303.694V444.253C96.0625 446.875 98.1571 449 100.779 449H256.616C385.125 449 449.013 327.101 449.091 224.5C449.169 121.899 386.029 0 256.616 0H3.26032ZM63.0371 299.293H32.1565C14.397 299.293 0 316.043 0 336.705V396.003V447.664C0 448.369 0.571261 448.94 1.27595 448.94H32.1565C49.9161 448.94 64.3131 432.19 64.3131 411.528V300.569C64.3131 299.864 63.7418 299.293 63.0371 299.293Z" fill="url(#paint0_linear)"/>
<defs>
<linearGradient id="paint0_linear" x1="358.45" y1="-14.9323" x2="41.1697" y2="410.709" gradientUnits="userSpaceOnUse">
<stop stop-color="#33A9FF"/>
<stop offset="1" stop-color="#1673FF"/>
</linearGradient>
</defs>
</svg>
