<?xml version="1.0" encoding="utf-8"?>
<!-- Generator: Adobe Illustrator 24.0.1, SVG Export Plug-In . SVG Version: 6.00 Build 0)  -->
<svg version="1.1" id="图层_1" xmlns="http://www.w3.org/2000/svg" xmlns:xlink="http://www.w3.org/1999/xlink" x="0px" y="0px"
	 viewBox="0 0 153.7 38" style="enable-background:new 0 0 153.7 38;" xml:space="preserve">
<style type="text/css">
	.st0{fill-rule:evenodd;clip-rule:evenodd;fill:#409EFF;}
	.st1{fill:#409EFF;}
</style>
<path id="Shape-Copy" class="st0" d="M142,26.2c0,0,0.3,0,0.8,0c0.3,0,0.6,0.1,0.7,0.4c0,0,1.1,2,1.4,2.5s0,0.4-0.1,0.4l0,0
	c0,0-0.3,0-3.4,0c-2.4-0.2-4.4-2.1-4.5-4.5v-7h-2.5v-2.6c0-0.4,0.4-0.4,0.4-0.4h2.1v-2.6c0-0.3,0.2-0.5,0.4-0.6l2.3-0.7
	c0.3-0.1,0.6,0,0.6,0.4V15h3.6c0.3,0,0.4,0.4,0.4,0.4V18h-4v6.1C140.1,25.8,142,26.1,142,26.2L142,26.2z M131.4,29.2h-2.2
	c-0.4,0-0.4-0.5-0.4-0.5V18.5c0-0.6-0.8-0.8-0.8-0.8h-4.5c-0.7,0-0.7,0.8-0.7,0.8v10.3c0,0.2-0.2,0.4-0.4,0.4l0,0h-2.2
	c-0.5,0-0.4-0.5-0.4-0.5V15.8c0-1,1.2-1.2,1.2-1.2h9.6c1,0,1.2,1.2,1.2,1.2v12.7C131.8,29.2,131.4,29.2,131.4,29.2L131.4,29.2z
	 M115.7,23.4h-8.5v2.1c0,0.7,1,1,1,1h6.8c0.3,0,0.6,0.2,0.8,0.4c0,0,0.6,1.2,0.8,1.8s-0.4,0.5-0.4,0.5H106c-1.2,0-1.5-1.5-1.5-1.5
	V16c0-0.7,1-1,1-1h10.3c1,0,1.2,1.2,1.2,1.2v5.9C117,23.2,115.8,23.4,115.7,23.4L115.7,23.4z M114.2,18.5c0,0-0.1-0.7-0.7-0.7h-5.7
	c0,0-0.7,0.2-0.7,0.7V20c0,0.4,0.3,0.7,0.7,0.7h5.7c0.4-0.1,0.7-0.4,0.7-0.8V18.5z M101.3,29.2h-2.2c-0.3,0-0.4-0.4-0.4-0.4V18.5
	c0-0.6-0.8-0.8-0.8-0.8h-2.1c-0.6,0-0.7,0.8-0.7,0.8v10.3c0,0.4-0.4,0.4-0.4,0.4h-2.2c-0.3,0-0.4-0.4-0.4-0.4V18.5
	c0-0.7-0.8-0.8-0.8-0.8h-2.1c-0.6,0-0.7,0.8-0.7,0.8v10.3c0,0.2-0.1,0.4-0.4,0.4c0,0,0,0-0.1,0h-2.2c-0.2,0-0.4-0.2-0.4-0.4l0,0
	V15.7c0-0.8,1.1-1.1,1.1-1.1h13.8c1.1,0,1.4,1.4,1.4,1.4v12.8C101.7,29.2,101.3,29.2,101.3,29.2z M81.3,23.4h-8.5v2.1c0,0.7,1,1,1,1
	h6.9c0.3,0,0.6,0.2,0.8,0.4c0,0,0.6,1.2,0.8,1.8s-0.4,0.5-0.4,0.5H71.6c-1.2,0-1.5-1.5-1.5-1.5V16c0-0.7,1-1,1-1h10.3
	c1,0,1.2,1.2,1.2,1.2v5.9C82.6,23.2,81.3,23.4,81.3,23.4L81.3,23.4z M79.8,18.5c0,0-0.1-0.7-0.7-0.7h-5.6c0,0-0.7,0.2-0.7,0.7V20
	c0,0.4,0.3,0.7,0.7,0.7l0,0h5.6c0.4-0.1,0.7-0.4,0.7-0.8V18.5L79.8,18.5z M68,29.2h-5.2c-2.2-0.1-4-1.8-4.1-4c0-3.9,0-16.1,0-16.1
	h2.5c0.4,0,0.8,0.3,0.8,0.8c0,0,0,0,0,0.1v14.5c0.3,0.8,1,1.5,1.9,1.6h2.2c0,0,0.7-0.2,1.2,0.7l1.1,1.9C68.4,28.6,68.5,29.2,68,29.2
	L68,29.2z M41.4,28.4V10.2c0-0.5,0.3-0.9,0.7-1H55c0.7,0,0.4,0.8,0.4,0.8s-0.4,1.1-0.7,1.6c-0.2,0.3-0.5,0.5-0.8,0.6h-8.4
	c-0.4,0-0.8,0.3-0.8,0.7v4.5h9.5c0.5,0,0.3,0.7,0.3,0.7s-0.7,1.5-1,1.9c-0.2,0.3-0.5,0.4-0.8,0.4h-8v4.8c0,0.4,0.3,0.7,0.7,0.8h8.8
	c0.3,0,0.7,0.1,0.8,0.4l1.2,1.9c0.4,0.6-0.1,0.7-0.1,0.7H42.3C41.7,29.2,41.4,28.4,41.4,28.4L41.4,28.4z M33.3,27.2
	c0,1.6-0.8,1.9-0.8,1.9s-14.2,8.2-15.1,8.7c-0.5,0.2-1,0.2-1.5,0c0,0-14.8-8.6-15.3-9c-0.3-0.2-0.5-0.6-0.6-1c0,0,0-17,0-17.8
	s1-1.3,1-1.3l14.8-8.6c0.6-0.3,1.2-0.3,1.8,0c0,0,13.1,7.6,14.5,8.4c0.8,0.4,1.3,1.2,1.2,2.1C33.2,10.7,33.2,25.8,33.3,27.2
	L33.3,27.2z M27.4,10.2c-3-1.7-10.2-5.9-10.2-5.9c-0.4-0.2-1-0.2-1.4,0L4.2,11c0,0-0.8,0.5-0.8,1.1s0,13.9,0,13.9
	c0,0.3,0.2,0.6,0.4,0.8c0.4,0.3,12,7,12,7c0.4,0.2,0.8,0.2,1.2,0c0.7-0.4,11.8-6.8,11.8-6.8s0.6-0.3,0.6-1.5c0-0.4,0-1.7,0-3.5
	l-13,7.9v-3c0-0.8,0.4-1.5,1-2.1l11.6-7c0.3-0.4,0.5-0.9,0.5-1.5c0-1.3,0-2.4,0-3.1l-13.1,7.9V18c0-0.7,0.3-1.4,0.8-1.8L27.4,10.2z"
	/>
<path class="st1" d="M153.7,9.4c0-0.2-0.2-0.4-0.4-0.4h-3V5.9c0-0.1-0.2-0.3-0.5-0.2L148.4,6c-0.2,0-0.3,0.2-0.3,0.4V9h-3
	c-0.2,0-0.4,0.2-0.4,0.4v1.9h3.4v3c0,0.3,0.2,0.4,0.5,0.3l1.4-0.3c0.1,0,0.3-0.1,0.3-0.3v-2.7h3.4V9.4z"/>
</svg>
