<svg width="44" height="50" viewBox="0 0 44 50" fill="none" xmlns="http://www.w3.org/2000/svg">
<path d="M42.1054 11.3245C43.1673 11.7932 43.8182 12.8806 43.7297 14.038C43.7297 14.038 43.7297 33.838 43.7297 35.7623C43.7297 37.8353 42.6486 38.2974 42.6486 38.2974C42.6486 38.2974 24.0756 49.0299 22.8675 49.7028C21.681 50.2164 20.8702 49.7028 20.8702 49.7028C20.8702 49.7028 1.4351 38.4326 0.726989 37.9353C0.306735 37.6432 0.0398424 37.1779 -3.79322e-05 36.6677C-3.79322e-05 36.6677 0.018881 14.3515 -3.79322e-05 13.3164C-0.0189569 12.2812 1.27023 11.5055 1.27023 11.5055L20.6892 0.270408C21.4329 -0.096321 22.3049 -0.096321 23.0486 0.270408C23.0486 0.270408 40.2027 10.2515 42.1054 11.3245ZM38.8864 33.4164C38.8892 32.9488 38.8891 31.1326 38.8891 28.8407L21.7189 39.2434V35.265C21.7189 33.6434 22.9864 32.5623 22.9864 32.5623L38.1783 23.4109C38.7513 22.8109 38.8675 21.8542 38.8918 21.492V17.4623L21.7243 27.8623V23.7028C21.6864 22.791 22.0885 21.9163 22.8054 21.3515L35.9837 13.3623C32.0081 11.0812 22.6432 5.64608 22.6432 5.64608C22.0585 5.35932 21.3739 5.35932 20.7892 5.64608L5.54321 14.4299C5.54321 14.4299 4.52969 15.0353 4.54591 15.8461C4.56212 16.6569 4.54591 34.1245 4.54591 34.1245C4.57975 34.5232 4.78859 34.8865 5.11618 35.1163C5.67564 35.5028 20.9324 44.3191 20.9324 44.3191C21.4251 44.5685 22.0072 44.5685 22.5 44.3191C23.4486 43.7974 38.0297 35.4001 38.0297 35.4001C38.0297 35.4001 38.8864 35.038 38.8864 33.4164Z" fill="#409EFF"/>
</svg>
