<svg xmlns="http://www.w3.org/2000/svg" viewBox="0 0 153.7 38" style="enable-background:new 0 0 153.7 38" xml:space="preserve"><path d="M142 26.2h.8c.3 0 .6.1.7.4 0 0 1.1 2 1.4 2.5s0 .4-.1.4h-3.4c-2.4-.2-4.4-2.1-4.5-4.5v-7h-2.5v-2.6c0-.4.4-.4.4-.4h2.1v-2.6c0-.3.2-.5.4-.6l2.3-.7c.3-.1.6 0 .6.4V15h3.6c.3 0 .4.4.4.4V18h-4v6.1c-.1 1.7 1.8 2 1.8 2.1zm-10.6 3h-2.2c-.4 0-.4-.5-.4-.5V18.5c0-.6-.8-.8-.8-.8h-4.5c-.7 0-.7.8-.7.8v10.3c0 .2-.2.4-.4.4h-2.2c-.5 0-.4-.5-.4-.5V15.8c0-1 1.2-1.2 1.2-1.2h9.6c1 0 1.2 1.2 1.2 1.2v12.7c0 .7-.4.7-.4.7zm-15.7-5.8h-8.5v2.1c0 .7 1 1 1 1h6.8c.3 0 .6.2.8.4 0 0 .6 1.2.8 1.8s-.4.5-.4.5H106c-1.2 0-1.5-1.5-1.5-1.5V16c0-.7 1-1 1-1h10.3c1 0 1.2 1.2 1.2 1.2v5.9c0 1.1-1.2 1.3-1.3 1.3zm-1.5-4.9s-.1-.7-.7-.7h-5.7s-.7.2-.7.7V20c0 .4.3.7.7.7h5.7c.4-.1.7-.4.7-.8v-1.4zm-12.9 10.7h-2.2c-.3 0-.4-.4-.4-.4V18.5c0-.6-.8-.8-.8-.8h-2.1c-.6 0-.7.8-.7.8v10.3c0 .4-.4.4-.4.4h-2.2c-.3 0-.4-.4-.4-.4V18.5c0-.7-.8-.8-.8-.8h-2.1c-.6 0-.7.8-.7.8v10.3c0 .2-.1.4-.4.4H85.8c-.2 0-.4-.2-.4-.4V15.7c0-.8 1.1-1.1 1.1-1.1h13.8c1.1 0 1.4 1.4 1.4 1.4v12.8c0 .4-.4.4-.4.4zm-20-5.8h-8.5v2.1c0 .7 1 1 1 1h6.9c.3 0 .6.2.8.4 0 0 .6 1.2.8 1.8s-.4.5-.4.5H71.6c-1.2 0-1.5-1.5-1.5-1.5V16c0-.7 1-1 1-1h10.3c1 0 1.2 1.2 1.2 1.2v5.9c0 1.1-1.3 1.3-1.3 1.3zm-1.5-4.9s-.1-.7-.7-.7h-5.6s-.7.2-.7.7V20c0 .4.3.7.7.7h5.6c.4-.1.7-.4.7-.8v-1.4zM68 29.2h-5.2c-2.2-.1-4-1.8-4.1-4V9.1h2.5c.4 0 .8.3.8.8v14.6c.3.8 1 1.5 1.9 1.6h2.2s.7-.2 1.2.7l1.1 1.9c0-.1.1.5-.4.5zm-26.6-.8V10.2c0-.5.3-.9.7-1H55c.7 0 .4.8.4.8s-.4 1.1-.7 1.6c-.2.3-.5.5-.8.6h-8.4c-.4 0-.8.3-.8.7v4.5h9.5c.5 0 .3.7.3.7s-.7 1.5-1 1.9c-.2.3-.5.4-.8.4h-8v4.8c0 .4.3.7.7.8h8.8c.3 0 .7.1.8.4l1.2 1.9c.4.6-.1.7-.1.7H42.3c-.6.2-.9-.6-.9-.6zm-8.1-1.2c0 1.6-.8 1.9-.8 1.9s-14.2 8.2-15.1 8.7c-.5.2-1 .2-1.5 0 0 0-14.8-8.6-15.3-9-.3-.2-.5-.6-.6-1V10c0-.8 1-1.3 1-1.3L15.8.1c.6-.3 1.2-.3 1.8 0 0 0 13.1 7.6 14.5 8.4.8.4 1.3 1.2 1.2 2.1-.1.1-.1 15.2 0 16.6zm-5.9-17c-3-1.7-10.2-5.9-10.2-5.9-.4-.2-1-.2-1.4 0L4.2 11s-.8.5-.8 1.1V26c0 .3.2.6.4.8.4.3 12 7 12 7 .4.2.8.2 1.2 0 .7-.4 11.8-6.8 11.8-6.8s.6-.3.6-1.5V22l-13 7.9v-3c0-.8.4-1.5 1-2.1l11.6-7c.3-.4.5-.9.5-1.5v-3.1l-13.1 7.9V18c0-.7.3-1.4.8-1.8l10.2-6z" style="fill-rule:evenodd;clip-rule:evenodd;fill:#409eff"/><path d="M153.7 9.4c0-.2-.2-.4-.4-.4h-3V5.9c0-.1-.2-.3-.5-.2l-1.4.3c-.2 0-.3.2-.3.4V9h-3c-.2 0-.4.2-.4.4v1.9h3.4v3c0 .3.2.4.5.3l1.4-.3c.1 0 .3-.1.3-.3v-2.7h3.4V9.4z" style="fill:#409eff"/></svg>