<svg width="829" height="168" viewBox="0 0 829 168" fill="none" xmlns="http://www.w3.org/2000/svg">
<rect x="5.47632" y="5.24438" width="158.187" height="158.187" rx="45.1963" fill="url(#paint0_linear_1_13324)"/>
<rect x="3.2165" y="2.98457" width="162.707" height="162.707" rx="47.4561" stroke="#6B37FD" stroke-opacity="0.25" stroke-width="4.51963"/>
<path fill-rule="evenodd" clip-rule="evenodd" d="M112.553 42.4521C94.9228 63.2156 85.1811 72.4499 78.4653 74.7635C71.7983 77.0605 45.2803 80.7124 35.0639 80.7407C30.4098 80.7534 32.5763 81.3168 39.521 81.8999C59.8027 83.6024 70.6545 86.3072 70.6545 89.6602C70.6545 93.4861 62.0745 109.275 50.6162 126.534C49.4223 128.332 50.4874 127.15 56.767 119.704C69.6602 104.418 81.1942 92.5457 86.0005 89.6132C91.8695 86.0321 110.323 82.864 132.823 81.5739C136.817 81.3447 137.966 80.7527 134.44 80.7407C122.524 80.7 101.559 76.75 98.9817 74.0601C96.9226 71.9113 103.66 57.9581 115.224 40.4186C117.48 36.9973 117.551 36.882 117.405 36.882C117.338 36.882 115.154 39.3887 112.553 42.4521Z" fill="white"/>
<path d="M214.199 126.838V40.995H273.013V54.6835H229.975V79.0443H267.793V92.5007H229.975V126.838H214.199ZM286.08 126.838L286.196 38.675H301.509V126.838H286.08ZM340.653 64.1958C344.597 64.1958 347.845 64.8532 350.397 66.1679C352.949 67.4052 354.96 68.7973 356.43 70.344C357.899 71.8134 358.904 73.0121 359.446 73.9401H360.142V65.3558H375.57V126.838H360.142V118.254H359.446C358.904 119.182 357.899 120.419 356.43 121.966C354.96 123.512 352.949 124.904 350.397 126.142C347.845 127.379 344.597 127.998 340.653 127.998C336.09 127.998 332.107 127.109 328.705 125.33C325.302 123.474 322.44 121.038 320.12 118.022C317.878 114.928 316.176 111.487 315.016 107.697C313.933 103.908 313.392 100.041 313.392 96.0969C313.392 92.1527 313.933 88.2859 315.016 84.4965C316.176 80.707 317.878 77.3042 320.12 74.2881C322.44 71.1947 325.302 68.7586 328.705 66.9799C332.107 65.1238 336.09 64.1958 340.653 64.1958ZM344.713 76.8402C341.233 76.8402 338.294 77.8069 335.897 79.7403C333.577 81.5964 331.837 83.9938 330.677 86.9326C329.517 89.8713 328.937 92.9261 328.937 96.0969C328.937 99.2676 329.517 102.322 330.677 105.261C331.837 108.2 333.577 110.636 335.897 112.569C338.294 114.425 341.233 115.354 344.713 115.354C348.193 115.354 351.093 114.425 353.413 112.569C355.734 110.636 357.474 108.2 358.634 105.261C359.794 102.322 360.374 99.2676 360.374 96.0969C360.374 92.9261 359.794 89.8713 358.634 86.9326C357.474 83.9938 355.734 81.5964 353.413 79.7403C351.093 77.8069 348.193 76.8402 344.713 76.8402ZM412.499 127.998C407.472 127.998 403.335 127.341 400.087 126.026C396.839 124.634 394.248 122.932 392.315 120.922C390.459 118.834 389.066 116.784 388.138 114.773C387.21 112.763 386.592 111.1 386.282 109.785C386.05 108.393 385.934 107.697 385.934 107.697H400.551C400.551 107.697 400.667 108.123 400.899 108.973C401.208 109.824 401.75 110.829 402.523 111.989C403.374 113.072 404.65 114.039 406.351 114.889C408.052 115.74 410.295 116.166 413.079 116.166C416.405 116.166 418.802 115.47 420.272 114.077C421.741 112.608 422.476 110.984 422.476 109.205C422.476 107.504 421.818 106.151 420.504 105.145C419.266 104.062 417.41 103.25 414.935 102.709L406.467 100.969C403.064 100.273 399.894 99.2676 396.955 97.9529C394.016 96.5609 391.619 94.7048 389.763 92.3847C387.906 89.9873 386.978 86.9326 386.978 83.2204C386.978 77.7296 389.066 73.2054 393.243 69.648C397.419 66.0132 403.103 64.1958 410.295 64.1958C414.858 64.1958 418.609 64.8145 421.548 66.0519C424.564 67.2892 426.961 68.836 428.74 70.692C430.596 72.5481 431.949 74.4041 432.8 76.2602C433.728 78.1163 434.308 79.7017 434.54 81.0164C434.849 82.2537 435.004 82.8724 435.004 82.8724H420.852C420.852 82.8724 420.736 82.5244 420.504 81.8284C420.272 81.055 419.769 80.2043 418.995 79.2763C418.299 78.3483 417.217 77.5363 415.747 76.8402C414.355 76.0669 412.461 75.6802 410.063 75.6802C406.815 75.6802 404.495 76.3762 403.103 77.7683C401.788 79.1603 401.131 80.6297 401.131 82.1764C401.131 83.8778 401.866 85.1925 403.335 86.1205C404.804 87.0486 406.699 87.7446 409.019 88.2086L417.023 89.9487C422.746 91.1087 427.425 93.1194 431.06 95.9809C434.772 98.8423 436.628 102.98 436.628 108.393C436.628 112.028 435.661 115.354 433.728 118.37C431.872 121.308 429.126 123.667 425.492 125.446C421.934 127.147 417.603 127.998 412.499 127.998ZM447.235 126.838V38.675H462.664V74.1721H463.36C463.978 73.0894 464.945 71.7747 466.26 70.228C467.575 68.604 469.392 67.2119 471.712 66.0519C474.032 64.8145 476.971 64.1958 480.528 64.1958C485.246 64.1958 489.113 65.2785 492.129 67.4439C495.222 69.532 497.504 72.3161 498.973 75.7962C500.52 79.2763 501.293 83.0271 501.293 87.0486V126.838H485.864V89.1366C485.864 85.8112 484.936 82.9498 483.08 80.5524C481.224 78.1549 478.44 76.9562 474.728 76.9562C471.867 76.9562 469.547 77.6909 467.768 79.1603C465.989 80.5524 464.674 82.3697 463.824 84.6125C463.05 86.8552 462.664 89.214 462.664 91.6887V126.838H447.235ZM514.472 126.838V40.995H548.345C555.228 40.995 560.951 42.3871 565.514 45.1712C570.077 47.8779 573.479 51.4354 575.722 55.8435C578.042 60.1743 579.202 64.6985 579.202 69.416C579.202 74.1335 578.042 78.6963 575.722 83.1044C573.479 87.4352 570.077 90.9927 565.514 93.7768C560.951 96.5609 555.228 97.9529 548.345 97.9529H530.249V126.838H514.472ZM548.229 54.6835H530.249V84.2645H548.229C551.632 84.2645 554.455 83.5685 556.697 82.1764C558.94 80.707 560.603 78.851 561.686 76.6082C562.846 74.2881 563.426 71.9294 563.426 69.532C563.426 67.0572 562.846 64.6985 561.686 62.4558C560.603 60.213 558.94 58.3569 556.697 56.8876C554.455 55.4182 551.632 54.6835 548.229 54.6835ZM588.366 126.838V65.3558H603.678V73.8241H604.258C605.341 71.4267 607.12 69.2226 609.594 67.2119C612.069 65.2012 615.781 64.1958 620.731 64.1958C622.277 64.1958 623.553 64.3118 624.559 64.5438C625.564 64.6985 626.067 64.7758 626.067 64.7758V79.7403C626.067 79.7403 625.487 79.663 624.327 79.5083C623.244 79.3536 621.891 79.2763 620.267 79.2763C614.853 79.2763 610.754 80.7844 607.97 83.8005C605.186 86.8166 603.794 91.6887 603.794 98.4169V126.838H588.366ZM661.645 127.998C654.917 127.998 649.194 126.49 644.476 123.474C639.759 120.458 636.163 116.552 633.688 111.757C631.29 106.885 630.092 101.665 630.092 96.0969C630.092 90.5287 631.29 85.3472 633.688 80.5524C636.163 75.6802 639.759 71.7361 644.476 68.72C649.194 65.7039 654.917 64.1958 661.645 64.1958C668.45 64.1958 674.173 65.7039 678.813 68.72C683.531 71.7361 687.088 75.6802 689.486 80.5524C691.96 85.3472 693.198 90.5287 693.198 96.0969C693.198 101.665 691.96 106.885 689.486 111.757C687.088 116.552 683.531 120.458 678.813 123.474C674.173 126.49 668.45 127.998 661.645 127.998ZM661.645 115.122C665.125 115.122 668.025 114.232 670.345 112.453C672.742 110.675 674.56 108.355 675.797 105.493C677.035 102.554 677.653 99.4223 677.653 96.0969C677.653 92.6941 677.035 89.562 675.797 86.7006C674.56 83.8391 672.742 81.5191 670.345 79.7403C668.025 77.9616 665.125 77.0722 661.645 77.0722C658.242 77.0722 655.342 77.9616 652.944 79.7403C650.547 81.5191 648.73 83.8391 647.492 86.7006C646.255 89.562 645.636 92.6941 645.636 96.0969C645.636 99.4223 646.255 102.554 647.492 105.493C648.73 108.355 650.547 110.675 652.944 112.453C655.342 114.232 658.242 115.122 661.645 115.122ZM698.426 126.838L717.567 96.2129L698.31 65.3558H714.551L727.891 86.9326L741.464 65.3558H757.588L737.867 96.2129L757.588 126.838H741.348L727.891 105.261L714.551 126.838H698.426ZM771.256 149.459C769.245 149.459 767.582 149.381 766.268 149.227C765.03 149.072 764.411 148.995 764.411 148.995V136.35C764.411 136.35 764.991 136.389 766.152 136.466C767.312 136.621 768.665 136.698 770.212 136.698C774.156 136.698 777.404 136.041 779.956 134.726C782.585 133.489 784.789 131.13 786.568 127.65L763.483 65.3558H779.144L794.572 109.205L809.769 65.3558H825.43L802.925 125.33C799.831 133.527 795.849 139.598 790.976 143.542C786.104 147.487 779.531 149.459 771.256 149.459Z" fill="white"/>
<defs>
<linearGradient id="paint0_linear_1_13324" x1="84.5698" y1="5.24438" x2="84.5698" y2="163.431" gradientUnits="userSpaceOnUse">
<stop stop-color="#8766E4"/>
<stop offset="1" stop-color="#552CC9"/>
</linearGradient>
</defs>
</svg>
