<svg width="460.000000pt" height="460.000000pt" viewBox="0 0 460.000000 460.000000" xmlns="http://www.w3.org/2000/svg">
  <g transform="translate(0.000000,460.000000) scale(0.100000,-0.100000)" fill="#fefefe" stroke="none">
    <path d="M0 2300 l0 -2300 2300 0 2300 0 0 2300 0 2300 -2300 0 -2300 0 0
-2300z m2386 2114 l49 -17 968 -966 968 -966 27 -50 26 -50 0 -65 1 -65 -28
-50 -28 -50 -952 -951 -952 -952 -45 -23 -45 -23 -65 0 -65 0 -50 26 -50 27
-957 958 -956 958 -23 45 -23 45 0 65 0 65 23 45 23 45 592 593 c325 326 593
594 595 597 2 2 5 26 7 52 l4 47 -13 8 -12 7 13 13 c6 6 12 22 12 35 0 13 4
23 9 23 5 0 12 11 15 25 4 14 13 33 22 43 8 9 25 33 37 52 l23 35 56 3 57 3
30 -16 c17 -8 36 -15 43 -15 8 0 110 96 228 213 l215 214 45 16 c59 20 115 21
176 1z" />
    <path d="M2283 1943 c-15 -5 -18 -33 -4 -33 21 0 41 13 41 26 0 14 -14 17 -37
7z" />
    <path d="M2320 1905 l0 -15 -25 -6 -25 -6 0 -34 0 -34 21 0 20 0 -6 -10 c-3
-5 -15 -10 -25 -10 l-19 0 -3 -26 -3 -27 -20 -11 c-11 -6 -22 -14 -25 -17 -3
-4 -15 -9 -27 -13 -13 -4 -23 -12 -23 -17 0 -5 -9 -9 -20 -9 l-20 0 0 -25 0
-25 -20 0 -20 0 0 -24 c0 -14 -4 -27 -9 -30 -13 -9 -19 -115 -8 -160 5 -23 15
-46 21 -51 6 -6 19 -24 28 -40 l17 -30 53 -29 53 -29 61 1 c34 1 84 6 110 12
l49 11 33 32 c17 17 32 37 32 44 0 7 4 13 8 13 5 0 16 17 25 38 l17 39 0 66
c0 72 -13 110 -47 143 -13 12 -23 26 -23 33 0 6 -7 11 -14 11 -8 0 -27 11 -42
25 -15 14 -31 25 -35 25 -11 0 -29 67 -29 108 0 17 -5 32 -10 32 l-11 0 11 19
c16 32 12 41 -20 41 l-30 0 0 -15z" />
  </g>
  <g transform="translate(0.000000,460.000000) scale(0.100000,-0.100000)" fill="#f3f0f3" stroke="none">
    <path d="M2235 4430 l-6 -10 15 0 c9 0 16 5 16 10 0 6 -4 10 -9 10 -6 0 -13
-4 -16 -10z" />
    <path d="M2340 4430 c0 -5 7 -10 16 -10 l15 0 -6 10 c-3 6 -10 10 -16 10 -5 0
-9 -4 -9 -10z" />
    <path d="M2164 4405 c-10 -8 -14 -15 -7 -15 19 0 43 11 43 21 0 13 -14 11 -36
-6z" />
    <path d="M2400 4411 c0 -10 24 -21 43 -21 7 0 3 7 -7 15 -22 17 -36 19 -36 6z" />
    <path d="M1527 4003 c-3 -5 1 -28 9 -53 l13 -45 218 -220 c120 -121 228 -233
241 -249 l22 -29 0 -110 0 -110 23 -46 c12 -25 53 -77 90 -114 l69 -68 8 -30
9 -31 -5 -537 -6 -536 -19 -27 -19 -27 0 -34 0 -35 -30 -12 c-17 -7 -30 -16
-30 -20 0 -4 -16 -18 -35 -31 -19 -13 -42 -38 -50 -56 l-15 -31 0 -59 c0 -76
13 -121 53 -179 l32 -48 45 -28 45 -28 59 -11 59 -11 61 11 61 11 55 38 55 39
33 62 32 63 0 75 0 75 -16 27 c-9 15 -40 45 -70 66 l-54 39 0 35 0 34 -17 20
-18 19 -3 537 -2 536 13 25 12 25 29 3 28 4 180 -179 c99 -98 189 -191 201
-208 l22 -30 0 -105 0 -106 34 -68 c19 -37 47 -78 63 -91 36 -30 121 -55 190
-55 30 0 78 7 107 16 l52 15 41 37 41 37 30 65 29 65 -6 75 -6 75 -48 45 c-26
25 -70 56 -97 70 l-49 25 -104 -1 -105 0 -223 224 -224 224 0 19 c0 11 -8 34
-17 52 l-18 32 -5 97 -5 97 -21 28 c-11 15 -48 47 -83 71 l-63 42 -110 0 -110
0 -235 237 -236 238 -40 17 -39 18 -64 0 c-34 0 -65 -3 -67 -7z m823 -2097 c0
-3 -4 -8 -10 -11 -5 -3 -10 -1 -10 4 0 6 5 11 10 11 6 0 10 -2 10 -4z m-45
-46 c4 -6 11 -7 17 -4 l11 7 -7 -12 -8 -12 -16 13 c-10 7 -19 14 -21 15 -2 2
1 3 7 3 6 0 14 -5 17 -10z m62 -25 c0 -8 -4 -12 -9 -9 -4 3 -8 1 -8 -4 0 -17
-25 -20 -39 -5 l-14 15 22 -7 21 -6 6 15 c8 20 21 21 21 1z m8 -66 c6 -43 17
-69 26 -63 5 3 9 0 9 -7 0 -7 3 -10 6 -7 3 3 17 -5 31 -18 14 -13 30 -21 36
-17 l10 6 -6 -15 -5 -16 24 -21 c13 -11 24 -18 24 -13 1 4 8 -9 16 -28 l15
-35 -2 -59 c-3 -57 -25 -126 -41 -126 -4 0 -8 -6 -8 -13 0 -7 -15 -27 -32 -44
l-33 -32 -45 -10 c-58 -12 -127 -17 -136 -9 -3 4 -12 4 -20 1 l-14 -5 0 13 c0
7 -2 10 -6 7 -11 -11 -86 38 -102 67 -9 17 -23 34 -30 38 -7 5 -10 13 -6 18 3
5 0 16 -6 25 l-13 14 2 62 1 61 13 15 c6 8 11 23 9 34 l-3 18 20 0 c12 0 21 4
21 10 0 15 61 70 71 64 5 -3 12 2 15 11 4 9 12 14 19 11 8 -3 16 2 19 11 l6
15 28 -7 27 -6 -19 14 c-23 17 -30 47 -11 47 7 0 23 -8 36 -19 l23 -19 -12
-15 -13 -15 20 5 20 5 -6 16 c-4 10 -11 20 -17 24 l-11 8 13 0 13 0 -7 12 -7
11 11 -7 12 -7 0 12 c0 20 11 3 15 -22z" />
    <path d="M1482 3943 c-6 -2 -10 -9 -6 -14 3 -5 -2 -12 -10 -15 -9 -3 -16 -13
-16 -21 0 -8 -4 -11 -10 -8 l-10 6 7 -17 6 -16 -17 -10 c-9 -5 -14 -13 -11
-19 4 -5 1 -9 -4 -9 -6 0 -11 -5 -11 -11 l0 -10 13 7 12 7 -12 -14 c-17 -17
-17 -71 -1 -87 l13 -13 -14 -8 c-14 -9 -7 -31 10 -31 16 0 108 103 109 122 0
9 -10 33 -21 53 l-21 36 6 39 c3 22 5 40 4 39 -2 0 -9 -3 -16 -6z" />
    <path d="M220 2470 c0 -5 5 -10 10 -10 6 0 10 5 10 10 0 6 -4 10 -10 10 -5 0
-10 -4 -10 -10z" />
    <path d="M2460 230 c0 -5 5 -10 10 -10 6 0 10 5 10 10 0 6 -4 10 -10 10 -5 0
-10 -4 -10 -10z" />
  </g>
  <g transform="translate(0.000000,460.000000) scale(0.100000,-0.100000)" fill="#fb54a7" stroke="none">
    <path d="M1140 3239 l0 -11 -67 4 -68 5 -25 -13 c-14 -8 -105 -94 -204 -192
l-178 -179 71 2 c38 2 75 6 81 10 5 3 10 2 10 -2 0 -5 127 -10 283 -11 155 -2
296 -3 312 -3 17 1 131 2 255 3 l225 3 25 15 c33 20 60 50 60 67 0 7 4 13 10
13 5 0 14 9 20 20 l11 20 -12 40 -12 40 -14 0 c-7 0 -13 7 -13 15 0 8 -6 15
-14 15 -8 0 -17 8 -20 18 -6 17 -17 25 -72 51 -16 7 -37 17 -46 22 -10 5 -29
9 -43 9 -14 0 -25 4 -25 8 0 5 -21 14 -47 20 l-48 12 -132 -3 c-73 -2 -133 0
-133 5 0 4 -18 8 -40 8 -22 0 -40 -3 -40 -8 0 -4 -18 -8 -40 -8 -22 -1 -40 2
-40 7 0 5 -7 9 -15 9 -8 0 -15 -5 -15 -11z" />
    <path d="M2920 3239 l0 -11 -59 7 -58 7 -7 -26 c-3 -14 -11 -26 -16 -26 -13 0
-45 -32 -53 -53 -3 -9 -11 -17 -17 -17 l-10 0 0 -49 c0 -27 4 -60 9 -73 5 -13
25 -32 45 -42 20 -11 36 -22 36 -26 0 -4 8 -10 18 -14 9 -3 24 -9 32 -14 44
-26 63 -32 98 -32 21 0 42 -3 46 -7 6 -6 671 -17 801 -13 17 0 63 1 104 1 40
-1 80 3 87 7 l13 7 -183 183 c-101 100 -188 182 -194 182 -7 0 -12 5 -12 10 0
13 -27 13 -32 1 -1 -5 -41 -10 -88 -12 l-85 -2 -44 12 -44 13 -7 -12 -7 -12
-7 10 c-8 13 -84 14 -125 0 l-33 -10 -7 9 c-8 12 -84 12 -92 1 l-6 -9 -27 11
c-36 13 -76 13 -76 -1z" />
    <path d="M2630 3175 l0 -35 15 0 15 0 0 35 0 35 -15 0 -15 0 0 -35z" />
  </g>
  <g transform="translate(0.000000,460.000000) scale(0.100000,-0.100000)" fill="#cd2bcb" stroke="none">
    <path d="M3030 1785 l0 -15 -23 0 c-13 0 -34 -9 -46 -19 l-23 -20 -86 5 c-48
3 -106 1 -129 -4 l-42 -10 -12 14 c-6 8 -19 14 -28 14 -10 0 -26 7 -37 15 -10
8 -31 15 -47 15 l-27 0 2 -71 2 -72 27 -30 c16 -17 36 -54 45 -83 l16 -52 52
-18 51 -17 233 -1 c127 0 232 -4 232 -8 0 -5 28 -6 63 -3 57 4 266 7 361 6
l39 -1 -18 -20 c-9 -10 -15 -23 -14 -29 2 -5 87 73 188 174 l184 183 -214 -4
c-118 -3 -223 -5 -234 -5 -24 0 -103 16 -127 26 -10 4 -18 13 -18 21 0 17 -27
19 -33 2 l-5 -13 -1 18 -1 18 -52 -8 c-61 -9 -192 -8 -243 1 l-35 7 0 -16z" />
    <path d="M2070 1780 c0 -5 -12 -13 -27 -16 -16 -4 -31 -12 -35 -17 l-6 -10
-109 -2 c-60 0 -114 -4 -121 -9 l-12 -7 0 9 0 10 -435 -1 -435 -2 0 -9 0 -8
-12 9 -13 10 -102 0 -102 0 -5 -12 -4 -12 179 -179 c98 -98 179 -172 179 -165
0 8 -10 25 -22 38 l-21 23 34 1 c19 1 57 1 84 0 93 -1 105 -1 128 0 12 1 59
-1 105 -5 l82 -6 0 10 c0 5 9 10 20 10 11 0 20 -4 20 -8 0 -12 93 -10 102 3
l8 10 0 -14 0 -13 24 6 c13 3 61 5 107 5 136 -1 161 0 232 15 l67 14 20 24
c11 13 25 40 32 61 6 22 24 51 40 65 15 15 33 42 39 60 l11 33 -7 45 -6 44
-20 0 c-10 0 -19 -4 -19 -10z" />
    <path d="M2630 1435 c0 -8 7 -15 15 -15 8 0 15 7 15 15 0 8 -7 15 -15 15 -8 0
-15 -7 -15 -15z" />
    <path d="M2616 1298 c-9 -34 -8 -38 9 -38 8 0 15 3 15 8 0 4 3 17 6 30 l6 22
-15 0 c-8 0 -17 -10 -21 -22z" />
    <path d="M2040 1195 c0 -8 7 -15 15 -15 8 0 15 7 15 15 0 8 -7 15 -15 15 -8 0
-15 -7 -15 -15z" />
    <path d="M2460 1105 c0 -8 7 -15 15 -15 8 0 15 7 15 15 0 8 -7 15 -15 15 -8 0
-15 -7 -15 -15z" />
    <path d="M2360 1075 c0 -8 7 -15 15 -15 8 0 15 7 15 15 0 8 -7 15 -15 15 -8 0
-15 -7 -15 -15z" />
  </g>
  <g transform="translate(0.000000,460.000000) scale(0.100000,-0.100000)" fill="#de3abe" stroke="none">
    <path d="M2543 2294 l-6 -16 14 -9 14 -9 -13 0 -12 0 0 -27 c0 -45 -7 -115
-15 -154 l-7 -36 16 -16 c9 -8 16 -21 16 -27 l0 -12 25 6 25 6 0 -9 c0 -5 14
-14 31 -20 36 -12 109 -15 109 -3 0 4 16 8 35 9 19 1 43 9 52 18 l17 17 -12
66 c-6 37 -16 68 -22 70 -5 2 -10 12 -10 22 0 10 -10 41 -22 69 l-23 51 -30 0
c-17 0 -41 -7 -53 -16 l-22 -15 0 10 c0 6 -11 13 -25 17 -14 3 -25 10 -25 15
0 5 -11 9 -25 9 l-26 0 -6 -16z" />
    <path d="M2060 2290 c0 -5 -9 -10 -20 -10 -11 0 -20 -4 -20 -10 0 -5 -5 -10
-11 -10 -7 0 -17 -7 -23 -15 l-11 -16 -50 -4 c-64 -6 -50 -6 -192 -2 l-123 3
0 -9 0 -9 -32 8 c-44 9 -799 11 -805 1 -2 -4 -8 -5 -13 -2 -5 3 -89 5 -187 4
-98 0 -206 -1 -239 -1 -34 0 -66 2 -72 6 -10 6 -72 -3 -72 -11 0 -2 9 -20 19
-41 11 -20 61 -78 113 -129 l93 -91 788 0 787 -1 0 10 c0 5 7 9 15 9 31 0 95
25 95 37 0 7 5 13 12 13 l11 0 -7 109 c-3 61 -9 124 -12 140 l-6 31 -19 0
c-11 0 -19 -4 -19 -10z" />
    <path d="M3570 2287 c0 -9 5 -19 10 -22 l10 -6 -3 -67 c-2 -37 -12 -86 -22
-109 l-17 -43 30 -30 c17 -16 38 -30 46 -30 9 0 16 -4 16 -10 0 -12 0 -11 312
-15 l257 -3 90 94 c50 52 100 112 111 134 l20 40 -42 2 c-24 1 -52 1 -63 0
-31 -3 -33 -3 -172 0 l-133 4 0 -9 c0 -4 -5 -5 -10 -2 -6 4 -74 8 -151 10
l-141 3 -43 31 c-24 17 -57 34 -74 37 l-31 7 0 -16z" />
    <path d="M3510 2235 c0 -8 7 -15 15 -15 8 0 15 7 15 15 0 8 -7 15 -15 15 -8 0
-15 -7 -15 -15z" />
    <path d="M2902 2124 c2 -11 11 -20 22 -22 l18 -4 -4 18 c-2 11 -11 20 -22 22
l-18 4 4 -18z" />
    <path d="M3480 2125 c0 -8 7 -15 15 -15 8 0 15 7 15 15 0 8 -7 15 -15 15 -8 0
-15 -7 -15 -15z" />
    <path d="M2450 1951 c0 -165 8 -271 21 -271 l9 0 0 210 0 210 -15 0 -15 0 0
-149z" />
    <path d="M2972 2034 c2 -11 11 -20 22 -22 l18 -4 -4 18 c-2 11 -11 20 -22 22
l-18 4 4 -18z" />
    <path d="M3310 1975 c0 -8 7 -15 15 -15 8 0 15 7 15 15 0 8 -7 15 -15 15 -8 0
-15 -7 -15 -15z" />
    <path d="M3140 1955 l0 -15 60 0 60 0 0 15 0 15 -60 0 -60 0 0 -15z" />
    <path d="M2575 1590 c3 -5 8 -10 11 -10 3 0 2 5 -1 10 -3 6 -8 10 -11 10 -3 0
-2 -4 1 -10z" />
    <path d="M1970 1425 c0 -8 7 -15 15 -15 8 0 15 7 15 15 0 8 -7 15 -15 15 -8 0
-15 -7 -15 -15z" />
    <path d="M2630 1415 c0 -8 7 -15 15 -15 8 0 15 7 15 15 0 8 -7 15 -15 15 -8 0
-15 -7 -15 -15z" />
    <path d="M2580 1225 c0 -8 7 -15 15 -15 8 0 15 7 15 15 0 8 -7 15 -15 15 -8 0
-15 -7 -15 -15z" />
    <path d="M2500 1135 c0 -8 7 -15 15 -15 8 0 15 7 15 15 0 8 -7 15 -15 15 -8 0
-15 -7 -15 -15z" />
    <path d="M2250 1075 c0 -8 7 -15 15 -15 8 0 15 7 15 15 0 8 -7 15 -15 15 -8 0
-15 -7 -15 -15z" />
    <path d="M2350 1075 c0 -8 6 -15 13 -15 8 0 14 7 14 15 0 8 -6 15 -14 15 -7 0
-13 -7 -13 -15z" />
  </g>
  <g transform="translate(0.000000,460.000000) scale(0.100000,-0.100000)" fill="#d633c5" stroke="none">
    <path d="M2826 2042 c-4 -7 -5 -15 -3 -19 3 -5 -1 -14 -9 -21 l-14 -13 0 11 0
11 -16 -16 -17 -16 -7 11 -7 11 -17 -16 c-9 -9 -16 -12 -16 -7 0 6 -7 13 -16
16 l-17 6 12 -14 11 -13 -25 0 c-14 0 -25 3 -25 8 0 5 -7 6 -15 3 l-15 -6 0
12 c0 6 -4 8 -10 5 -5 -3 -10 -1 -10 6 l0 11 -25 -4 -25 -5 0 12 c0 13 -29 29
-37 21 -2 -2 0 -52 6 -110 5 -58 7 -114 4 -126 l-5 -20 18 -6 c11 -3 33 -12
49 -19 17 -8 37 -16 45 -20 8 -3 26 -12 40 -20 l24 -14 13 11 13 10 15 -12 15
-12 5 14 6 14 39 0 c22 -1 40 -4 40 -7 0 -4 9 -9 21 -12 l20 -5 -10 11 -10 12
37 -3 37 -4 24 21 25 21 7 -11 7 -11 3 11 c2 6 18 12 35 14 l31 2 -2 15 c-2 8
-4 18 -4 22 -1 4 -17 10 -36 14 l-34 6 -6 17 c-3 9 -23 28 -45 42 -22 13 -40
30 -40 37 0 7 -9 22 -20 34 -10 11 -28 39 -38 61 l-19 40 -7 -11z m-69 -329
c-4 -3 -7 0 -7 7 0 7 3 10 7 7 3 -4 3 -10 0 -14z" />
    <path d="M2097 2029 l-17 -10 6 -11 7 -11 -16 6 c-9 3 -19 2 -22 -4 -4 -5 -11
-7 -16 -4 -5 4 -9 1 -9 -5 0 -6 -6 -10 -12 -9 -27 3 -49 -1 -44 -9 l5 -9 -148
1 -149 1 6 9 5 9 -14 -9 c-18 -11 -389 -13 -395 -2 -3 5 -11 5 -17 1 -14 -8
-111 -8 -125 1 -5 3 -12 2 -16 -2 -4 -4 -29 -7 -54 -8 l-47 -1 -7 11 -8 11 0
-10 c0 -6 -14 -12 -32 -13 l-31 -3 -9 13 c-4 7 -8 8 -8 3 l0 -10 -86 1 c-47 1
-88 4 -91 7 -2 3 -18 1 -34 -5 l-29 -10 -17 13 -17 14 7 -12 7 -11 -130 2
c-71 1 -130 0 -130 -3 0 -4 55 -61 122 -128 l123 -121 47 1 c25 1 50 5 54 9 4
4 14 3 21 -4 l15 -12 6 10 c8 11 49 10 76 -1 l18 -8 9 14 9 14 10 -15 10 -15
0 14 0 13 17 -13 17 -14 -8 13 -7 12 10 0 c5 0 12 -4 16 -9 5 -9 38 -7 79 5
10 4 16 2 13 -2 -5 -9 40 -14 115 -13 l28 1 -6 10 -7 11 14 -5 c8 -3 13 -11
11 -18 l-3 -13 15 12 c20 16 106 21 125 6 l15 -10 -7 12 -7 11 20 -5 c11 -3
17 -9 14 -14 -3 -5 0 -9 5 -9 6 0 11 8 11 18 l0 17 8 -10 c8 -12 53 -15 46 -3
-3 4 0 8 5 8 6 0 11 -4 11 -8 0 -4 9 -8 20 -9 11 -1 20 2 20 7 0 9 26 7 36 -3
4 -4 11 -7 16 -7 l9 0 -7 13 -8 12 19 -15 c10 -8 16 -10 13 -5 l-7 11 70 -1
69 0 0 -10 c0 -5 5 -3 10 5 l10 15 0 -14 0 -13 28 7 c34 10 122 10 152 0 l23
-7 -7 10 -6 11 30 -9 30 -9 -5 10 c-4 5 1 9 9 9 9 0 16 5 16 10 0 6 9 10 19
10 11 0 26 7 35 15 8 8 19 15 24 15 l10 0 7 73 c4 39 5 98 3 129 l-3 57 -18
-10z" />
    <path d="M3534 1993 c-15 -27 -34 -54 -41 -61 -7 -7 -13 -20 -13 -28 0 -8 -3
-14 -7 -14 -5 0 -25 -16 -45 -35 -20 -19 -42 -35 -48 -35 -20 0 -37 -24 -32
-44 l5 -19 -13 8 -13 8 7 -11 7 -11 16 6 16 6 -7 -12 -8 -12 26 5 c14 3 32 -1
38 -7 7 -7 27 -12 43 -12 17 0 41 -5 55 -11 l26 -12 18 10 19 11 -8 -13 -7
-12 20 11 c11 6 28 8 38 4 l17 -6 -7 11 -7 12 10 0 c5 0 13 -5 16 -10 4 -6 11
-7 17 -4 14 9 109 11 114 2 3 -4 16 -3 29 2 14 5 25 6 25 2 0 -4 13 -7 29 -7
16 0 27 3 24 8 -2 4 1 7 6 7 6 0 11 -4 11 -8 0 -4 9 -8 20 -9 11 -1 20 3 20 8
0 6 5 7 10 4 l11 -7 119 119 c66 66 120 122 120 125 0 3 -22 4 -50 3 l-50 -3
7 11 6 10 -14 -8 c-7 -5 -32 -10 -56 -10 l-43 -2 0 11 0 11 -8 -10 -7 -11
-144 1 -144 0 -4 12 -4 12 -25 -9 -24 -10 0 10 c0 6 -9 10 -20 10 l-20 0 0 15
c0 8 -6 14 -12 13 -7 -2 -12 3 -10 10 1 6 -4 12 -12 12 -8 0 -27 -21 -42 -47z
m-147 -230 c-4 -3 -7 0 -7 7 0 7 3 10 7 7 3 -4 3 -10 0 -14z" />
    <path d="M3295 1780 c4 -6 11 -8 16 -5 14 9 11 15 -7 15 l-15 0 6 -10z" />
    <path d="M3028 1743 c7 -3 16 -2 19 1 4 3 -2 6 -13 5 l-19 -1 13 -5z" />
    <path d="M1980 1475 c0 -8 7 -15 15 -15 8 0 15 7 15 15 0 8 -7 15 -15 15 -8 0
-15 -7 -15 -15z" />
    <path d="M2630 1425 c0 -6 7 -12 15 -12 8 0 15 6 15 12 0 6 -7 12 -15 12 -8 0
-15 -6 -15 -12z" />
    <path d="M2630 1370 l0 -20 15 0 15 0 0 20 0 20 -15 0 -15 0 0 -20z" />
    <path d="M1970 1365 c0 -8 7 -15 15 -15 8 0 15 7 15 15 0 8 -7 15 -15 15 -8 0
-15 -7 -15 -15z" />
    <path d="M2020 1225 c0 -8 7 -15 15 -15 8 0 15 7 15 15 0 8 -7 15 -15 15 -8 0
-15 -7 -15 -15z" />
    <path d="M2560 1195 c0 -8 7 -15 15 -15 8 0 15 7 15 15 0 8 -7 15 -15 15 -8 0
-15 -7 -15 -15z" />
    <path d="M2100 1134 c0 -9 9 -18 20 -21 11 -3 20 -9 20 -14 0 -5 9 -9 20 -9
l20 0 0 15 0 15 -19 0 c-10 0 -21 7 -25 15 -7 20 -36 19 -36 -1z" />
    <path d="M2450 1105 c0 -8 6 -15 13 -15 8 0 14 7 14 15 0 8 -6 15 -14 15 -7 0
-13 -7 -13 -15z" />
  </g>
  <g transform="translate(0.000000,460.000000) scale(0.100000,-0.100000)" fill="#f34cae" stroke="none">
    <path d="M1600 3695 c0 -8 7 -15 15 -15 8 0 15 -7 15 -15 0 -8 7 -15 15 -15 8
0 15 7 15 15 0 8 -7 15 -15 15 -8 0 -15 7 -15 15 0 8 -7 15 -15 15 -8 0 -15
-7 -15 -15z" />
    <path d="M1770 3525 c0 -8 7 -15 15 -15 8 0 15 -7 15 -15 0 -8 7 -15 15 -15 8
0 15 7 15 15 0 8 -7 15 -15 15 -8 0 -15 7 -15 15 0 8 -7 15 -15 15 -8 0 -15
-7 -15 -15z" />
    <path d="M1940 3355 c0 -8 7 -15 15 -15 8 0 15 7 15 15 0 8 -7 15 -15 15 -8 0
-15 -7 -15 -15z" />
    <path d="M2000 3035 c0 -8 7 -15 15 -15 8 0 15 7 15 15 0 8 -7 15 -15 15 -8 0
-15 -7 -15 -15z" />
    <path d="M2030 2989 c0 -14 25 -39 39 -39 15 0 14 19 -3 36 -17 17 -36 18 -36
3z" />
    <path d="M1927 2966 c-9 -7 -17 -19 -17 -25 0 -7 -4 -9 -10 -6 l-10 6 6 -15 6
-16 -21 0 -20 0 -11 -20 c-6 -11 -15 -18 -21 -14 -5 3 -17 0 -25 -7 l-15 -12
-23 11 -24 10 -9 -9 -10 -10 -28 11 -28 11 -6 -9 c-3 -5 -15 -7 -26 -5 -31 6
-94 5 -104 -2 -5 -3 -12 -1 -16 5 l-6 10 -16 -9 -16 -9 -26 8 c-14 4 -35 4
-46 -1 -29 -11 -37 -11 -29 3 l7 11 -12 -8 c-17 -10 -261 -13 -289 -3 l-23 8
6 -10 c3 -6 1 -10 -4 -10 -6 0 -11 3 -11 8 0 7 -73 7 -143 -1 l-37 -4 0 9 c0
5 -4 7 -9 4 -15 -10 -91 -14 -91 -6 0 12 -70 7 -70 -5 l0 -10 -8 10 c-4 6 -20
10 -37 11 l-30 0 -119 -118 -120 -118 9 -9 c14 -13 74 -15 558 -13 l287 1 0
-10 c0 -5 7 -9 15 -9 8 0 15 5 15 11 l0 10 147 -4 c81 -2 160 -1 175 4 l28 8
14 -15 c17 -17 33 -18 38 -3 2 5 19 11 38 11 l34 1 4 -11 c5 -16 29 -15 35 1
l4 12 27 -15 27 -14 9 13 8 14 25 -7 25 -6 46 14 c25 8 57 25 71 38 25 24 33
48 15 48 -5 0 -10 12 -10 28 l0 27 -20 13 -20 12 0 23 c0 12 -7 35 -15 51 -8
15 -15 42 -15 60 0 17 -4 36 -8 43 l-7 11 -18 -12z m-50 -73 c-4 -3 -10 -3
-14 0 -3 4 0 7 7 7 7 0 10 -3 7 -7z m-520 -40 c-4 -3 -10 -3 -14 0 -3 4 0 7 7
7 7 0 10 -3 7 -7z" />
    <path d="M2750 2956 c0 -23 79 -112 162 -182 43 -36 78 -69 78 -73 0 -19 122
-59 187 -62 l28 -1 -17 -5 c-10 -2 -18 -9 -18 -14 0 -12 57 -12 62 0 4 11 71
13 178 6 41 -3 113 -6 160 -7 47 -1 88 -6 92 -11 l6 -10 29 12 28 11 148 -2
c81 -2 147 -6 147 -10 0 -13 28 -9 34 5 l6 12 6 -12 c6 -15 34 -18 34 -4 0 5
12 11 26 14 l25 4 14 -14 14 -14 26 7 c14 3 25 9 25 13 0 3 -56 62 -125 130
l-124 123 -15 -5 c-9 -4 -18 -2 -21 4 l-6 9 -16 -9 -16 -8 -32 7 -33 7 -13 -8
c-20 -12 -31 -11 -23 3 l7 11 -12 -8 c-14 -8 -321 -14 -321 -5 0 3 -21 4 -47
3 -46 -3 -101 -3 -133 -2 -8 1 -34 -1 -57 -4 -24 -3 -43 -1 -43 3 0 11 -64 7
-72 -5 l-8 -10 0 12 0 12 -27 -5 c-16 -2 -34 -7 -40 -9 -7 -2 -13 1 -13 7 l0
10 -15 -12 -15 -12 -13 10 c-7 6 -31 12 -55 14 -23 3 -45 7 -49 11 -3 4 -14 7
-23 7 -9 0 -25 9 -35 20 -10 11 -20 18 -23 16 -2 -3 -13 4 -25 15 -24 22 -37
24 -37 5z m1037 -103 c-4 -3 -10 -3 -14 0 -3 4 0 7 7 7 7 0 10 -3 7 -7z" />
    <path d="M2120 2895 c0 -8 7 -15 15 -15 8 0 15 7 15 15 0 8 -7 15 -15 15 -8 0
-15 -7 -15 -15z" />
    <path d="M2490 2805 c0 -8 7 -15 15 -15 8 0 15 7 15 15 0 8 -7 15 -15 15 -8 0
-15 -7 -15 -15z" />
    <path d="M3120 2610 c0 -5 7 -10 15 -10 8 0 15 5 15 10 0 6 -7 10 -15 10 -8 0
-15 -4 -15 -10z" />
    <path d="M3300 2606 c0 -2 7 -9 15 -16 l15 -12 0 16 c0 9 -7 16 -15 16 -8 0
-15 -2 -15 -4z" />
    <path d="M3370 2566 c0 -2 7 -9 15 -16 l15 -12 0 16 c0 9 -7 16 -15 16 -8 0
-15 -2 -15 -4z" />
    <path d="M3460 2486 c0 -2 7 -9 15 -16 l15 -12 0 16 c0 9 -7 16 -15 16 -8 0
-15 -2 -15 -4z" />
  </g>
  <g transform="translate(0.000000,460.000000) scale(0.100000,-0.100000)" fill="#e640b9" stroke="none">
    <path d="M2802 2484 c2 -11 11 -20 22 -22 l18 -4 -4 18 c-2 11 -11 20 -22 22
l-18 4 4 -18z" />
    <path d="M2038 2483 c-10 -2 -18 -8 -18 -13 0 -12 -88 -31 -115 -24 l-25 6 0
-9 0 -10 -70 1 c-38 1 -70 4 -70 9 0 4 -7 7 -15 7 -8 0 -15 -4 -15 -8 0 -4
-29 -8 -65 -7 -36 0 -65 3 -65 8 0 12 -28 8 -33 -5 l-5 -13 -11 15 -10 15 -20
-12 -20 -13 -25 12 -25 11 -13 -10 -13 -10 -110 5 c-60 2 -121 4 -135 3 -14 0
-64 -2 -112 -3 l-88 -3 -4 10 -3 10 -19 -11 c-20 -11 -59 -11 -113 1 l-31 7 0
-11 c0 -13 -27 -15 -32 -2 l-3 10 -65 -8 c-36 -4 -155 -6 -265 -5 l-200 2 -17
-9 c-33 -18 -48 -118 -28 -189 l10 -35 29 -1 30 -1 -6 11 -7 11 15 -11 14 -11
125 1 c69 1 132 6 139 11 l14 8 -6 -9 -5 -9 122 1 c67 0 127 4 134 8 l12 7 0
-11 0 -11 20 11 c11 6 20 7 20 3 0 -4 35 -8 78 -8 l77 -1 7 10 6 10 14 -10 c7
-6 30 -12 51 -13 l39 -2 -8 12 -7 12 12 -8 c18 -10 212 -13 233 -3 l17 8 6 -9
c6 -11 44 -11 60 -1 8 5 70 6 70 1 0 -1 28 -4 63 -6 l62 -4 0 12 0 12 8 -10
c9 -13 72 -16 72 -3 0 5 5 6 10 3 15 -9 100 -13 94 -4 -2 4 11 3 30 -2 38 -11
57 -9 68 6 l8 10 0 -12 0 -13 23 9 c12 5 25 9 30 10 35 4 57 16 62 32 l6 19
20 0 c10 0 19 5 19 10 0 6 6 10 14 10 l14 0 12 50 c6 27 9 53 6 59 -3 5 -2 11
4 13 l10 3 -7 38 -6 37 -31 -1 c-17 -1 -39 -3 -48 -6z" />
    <path d="M3480 2470 c0 -5 5 -31 11 -58 l10 -49 25 -12 c14 -6 31 -25 38 -41
7 -17 15 -28 18 -24 9 8 69 -22 101 -51 15 -14 27 -23 27 -20 0 3 9 1 20 -5
11 -6 20 -7 20 -2 0 10 30 9 46 0 12 -8 34 -5 53 7 l15 9 4 -12 3 -11 24 9
c12 5 25 6 28 4 3 -3 33 -7 66 -9 l61 -4 0 12 0 12 8 -10 7 -10 87 -1 c48 0
85 3 82 7 -2 4 11 3 30 -2 36 -10 57 -9 66 3 3 4 18 1 33 -7 15 -8 25 -10 22
-5 -9 14 9 12 24 -2 l14 -13 -7 12 c-3 6 0 13 6 15 l13 5 0 79 0 79 -17 31
-17 31 -43 6 -43 6 -5 -9 -6 -9 -79 8 -80 9 -5 -9 -6 -9 -74 9 -75 10 -7 -12
-8 -12 -10 15 -9 15 -20 -12 -20 -12 -31 10 -30 11 -13 -9 c-14 -11 -154 -8
-212 5 -22 5 -50 14 -62 20 -26 14 -83 16 -83 2z" />
    <path d="M2620 2390 c0 -5 -16 -12 -35 -16 l-35 -6 0 -30 0 -30 20 -5 20 -5
-17 -13 -17 -13 29 3 c16 2 36 -1 45 -6 l15 -11 -20 7 -20 6 12 -12 c18 -18
40 -19 54 -3 l12 14 15 -12 16 -13 -7 17 c-3 10 -3 17 1 17 22 -4 32 3 32 21
0 18 -21 43 -69 83 -23 18 -51 23 -51 7z" />
    <path d="M2450 2265 l0 -75 15 0 15 0 0 75 0 75 -15 0 -15 0 0 -75z" />
    <path d="M2860 2255 c0 -8 7 -15 15 -15 8 0 15 7 15 15 0 8 -7 15 -15 15 -8 0
-15 -7 -15 -15z" />
    <path d="M2675 2250 c-3 -5 -1 -10 4 -10 6 0 11 5 11 10 0 6 -2 10 -4 10 -3 0
-8 -4 -11 -10z" />
    <path d="M2450 2165 c0 -8 7 -15 15 -15 8 0 15 7 15 15 0 8 -7 15 -15 15 -8 0
-15 -7 -15 -15z" />
    <path d="M2890 2145 c0 -8 7 -15 15 -15 8 0 15 7 15 15 0 8 -7 15 -15 15 -8 0
-15 -7 -15 -15z" />
    <path d="M3480 2137 c0 -8 7 -14 15 -14 8 0 15 6 15 14 0 7 -7 13 -15 13 -8 0
-15 -6 -15 -13z" />
    <path d="M4363 2123 c4 -3 10 -3 14 0 3 4 0 7 -7 7 -7 0 -10 -3 -7 -7z" />
    <path d="M3450 2085 c0 -8 7 -15 15 -15 8 0 15 7 15 15 0 8 -7 15 -15 15 -8 0
-15 -7 -15 -15z" />
    <path d="M2940 2075 c0 -8 7 -15 15 -15 8 0 15 7 15 15 0 8 -7 15 -15 15 -8 0
-15 -7 -15 -15z" />
    <path d="M3390 2025 c0 -8 7 -15 15 -15 8 0 15 7 15 15 0 8 -7 15 -15 15 -8 0
-15 -7 -15 -15z" />
    <path d="M3010 2005 c0 -8 7 -15 15 -15 8 0 15 7 15 15 0 8 -7 15 -15 15 -8 0
-15 -7 -15 -15z" />
    <path d="M2630 1392 l0 -19 15 0 15 0 0 19 0 18 -15 0 -15 0 0 -18z" />
  </g>
  <g transform="translate(0.000000,460.000000) scale(0.100000,-0.100000)" fill="#ec46b4" stroke="none">
    <path d="M2090 2929 c0 -6 7 -17 16 -26 l15 -16 11 11 11 11 -16 15 c-18 18
-37 21 -37 5z" />
    <path d="M2505 2799 l-7 -10 73 -77 c41 -42 80 -78 87 -80 6 -2 12 4 12 12 0
16 -136 166 -151 166 -4 0 -11 -5 -14 -11z" />
    <path d="M2012 2670 c-11 -12 -40 -27 -64 -35 l-44 -13 -15 8 c-20 12 -55 5
-51 -10 l2 -11 -10 6 c-6 3 -8 9 -6 13 2 4 -32 7 -75 7 l-80 0 -8 -14 -9 -13
-4 13 -4 13 -35 2 c-18 1 -40 -2 -46 -8 l-13 -10 0 12 0 12 -14 -11 -14 -12
-6 9 c-3 6 -25 8 -48 6 -24 -3 -47 -4 -53 -4 -5 0 -56 2 -112 3 l-101 2 5 -9
6 -9 -13 8 c-7 5 -56 9 -109 10 l-96 1 -14 -10 -15 -11 8 13 7 12 -10 0 c-6 0
-11 -4 -11 -10 0 -5 -5 -10 -11 -10 -5 0 -7 5 -4 10 3 6 2 10 -4 10 -5 0 -13
-5 -16 -10 l-7 -11 -13 11 c-8 7 -19 8 -26 4 -17 -10 -89 -12 -95 -2 -3 4 -13
5 -22 0 -21 -9 -43 -9 -59 1 l-13 8 0 -11 0 -11 -12 7 c-16 10 -128 12 -160 3
-16 -4 -28 -4 -28 0 0 5 -18 8 -41 7 -22 -1 -43 2 -46 7 -3 5 -28 -13 -55 -40
-64 -61 -148 -161 -148 -174 l0 -11 31 7 31 7 9 -13 9 -14 0 13 c0 6 5 12 11
12 l10 0 -7 -12 -7 -11 12 8 c17 10 251 12 251 2 0 -5 4 -6 10 -2 17 10 115
13 128 3 l12 -10 0 13 0 13 12 -12 11 -11 14 17 c8 9 12 11 8 5 l-6 -13 36 0
36 0 -7 13 -8 12 17 -14 c10 -8 20 -11 24 -8 3 4 12 2 19 -4 l12 -10 6 10 c3
5 15 7 26 4 11 -3 27 0 35 7 l15 13 -6 -16 -6 -16 21 2 c12 1 21 4 21 7 0 8
83 6 97 -3 6 -4 23 -3 36 2 l25 10 13 -15 12 -15 8 13 c9 14 59 20 59 7 0 -5
12 -4 27 2 l26 10 7 -12 8 -11 6 11 c4 6 12 9 17 5 5 -3 27 -7 49 -8 l40 -3
11 13 c6 8 15 11 20 8 6 -3 23 -9 40 -14 l29 -9 -5 9 c-3 5 -1 12 5 15 l10 6
-2 -12 c-5 -19 18 -21 36 -4 l16 16 0 -11 0 -12 24 6 25 6 6 -10 7 -11 14 12
15 12 11 -11 c16 -16 24 -15 42 4 l16 15 0 -11 0 -11 29 4 30 5 4 -11 5 -12
12 11 12 12 34 -8 c33 -8 38 -6 35 15 -1 6 5 2 13 -8 l14 -18 6 9 c3 6 16 8
28 4 l21 -5 -6 10 c-3 5 0 10 8 10 8 0 15 -7 15 -14 l0 -14 14 13 14 13 -12 7
-11 8 17 0 c9 0 18 5 20 10 2 6 15 12 29 14 13 1 30 6 37 10 14 8 16 52 3 60
-5 3 -12 26 -16 51 l-6 46 -15 6 c-8 3 -14 11 -14 18 0 24 -18 26 -38 5z
m-845 -247 c-4 -3 -7 0 -7 7 0 7 3 10 7 7 3 -4 3 -10 0 -14z" />
    <path d="M3030 2664 l0 -26 20 5 20 5 14 -14 c8 -8 19 -14 25 -14 6 0 11 -4
11 -9 l0 -10 27 5 c15 3 30 7 35 10 9 6 131 -16 138 -25 3 -3 19 -13 35 -21
17 -8 32 -17 35 -20 3 -3 24 -22 48 -42 l42 -38 26 0 c14 0 38 -7 54 -15 32
-16 75 -26 128 -29 17 0 32 -5 32 -10 0 -5 6 -3 13 3 8 6 16 8 20 5 3 -3 22
-7 42 -8 l36 -1 11 12 11 13 13 -11 c8 -6 14 -9 14 -6 0 3 14 2 30 -3 l30 -9
-5 9 c-3 5 -1 12 5 15 l10 6 -2 -12 c-5 -19 18 -21 36 -4 l16 16 0 -11 0 -12
15 5 c8 4 17 2 20 -3 6 -9 31 -8 41 3 4 3 15 2 25 -3 20 -11 49 -3 49 12 l0
10 13 -9 c6 -5 21 -9 32 -9 11 1 23 -3 27 -9 l7 -10 11 11 12 12 34 -8 c33 -8
38 -5 35 14 l-2 9 13 -9 c18 -13 60 -11 65 3 2 6 -35 52 -83 102 l-87 91 -10
-7 -10 -6 7 11 c3 6 2 13 -4 17 -5 3 -10 2 -10 -2 0 -5 -23 -8 -51 -7 l-50 3
-6 -14 -5 -14 -15 15 -16 15 -26 -3 c-14 -1 -32 -6 -38 -11 l-13 -9 0 12 0 12
-14 -11 -14 -12 -6 10 -7 10 -32 -5 c-17 -3 -36 -5 -42 -5 -5 0 -39 2 -75 4
-36 2 -73 0 -82 -5 l-18 -9 0 9 c0 5 -13 9 -30 9 l-29 0 6 -11 7 -11 -15 11
c-8 5 -23 9 -34 8 -39 -4 -101 -3 -170 1 -38 3 -116 7 -172 9 -56 3 -107 7
-113 11 -9 5 -26 10 -75 19 -5 1 -16 5 -22 9 l-13 8 0 -27z" />
    <path d="M2772 2524 c4 -20 34 -41 45 -31 10 11 -11 41 -31 45 l-18 4 4 -18z" />
    <path d="M3480 2446 c0 -9 5 -16 10 -16 6 0 10 4 10 9 0 6 -4 13 -10 16 l-10
6 0 -15z" />
    <path d="M170 2350 c0 -7 3 -10 7 -7 3 4 3 10 0 14 -4 3 -7 0 -7 -7z" />
    <path d="M3510 2325 c0 -8 7 -15 15 -15 8 0 15 7 15 15 0 8 -7 15 -15 15 -8 0
-15 -7 -15 -15z" />
    <path d="M2860 2305 c0 -8 7 -15 15 -15 8 0 15 7 15 15 0 8 -7 15 -15 15 -8 0
-15 -7 -15 -15z" />
    <path d="M2860 2267 c0 -8 7 -14 15 -14 8 0 15 6 15 14 0 7 -7 13 -15 13 -8 0
-15 -6 -15 -13z" />
    <path d="M4430 2260 c0 -7 3 -10 7 -7 3 4 3 10 0 14 -4 3 -7 0 -7 -7z" />
    <path d="M3510 2247 c0 -8 7 -14 15 -14 8 0 15 6 15 14 0 7 -7 13 -15 13 -8 0
-15 -6 -15 -13z" />
    <path d="M3496 2188 c-9 -34 -8 -38 9 -38 8 0 15 3 15 8 0 4 3 17 6 30 l6 22
-15 0 c-8 0 -17 -10 -21 -22z" />
    <path d="M220 2146 c0 -2 8 -10 18 -17 l17 -14 -14 18 c-13 16 -21 21 -21 13z" />
    <path d="M3470 2116 c0 -9 7 -16 16 -16 17 0 14 22 -4 28 -7 2 -12 -3 -12 -12z" />
  </g>
  <g transform="translate(0.000000,460.000000) scale(0.100000,-0.100000)" fill="#c423d2" stroke="none">
    <path d="M1986 1489 l-14 -21 -13 7 -12 8 7 -11 6 -11 -17 1 c-10 0 -31 -3
-48 -7 -64 -15 -116 -22 -120 -15 -6 10 -187 6 -204 -4 l-14 -9 7 11 7 12 -20
0 c-12 0 -21 -6 -21 -12 l0 -13 -8 10 c-11 15 -30 17 -52 5 l-20 -11 0 13 0
14 -42 -4 c-24 -2 -47 -8 -52 -13 -17 -15 -29 -10 -16 6 l13 15 -17 -6 c-9 -3
-16 -11 -16 -18 l0 -11 -8 10 c-4 6 -37 11 -74 11 l-68 2 0 -10 0 -9 -19 10
-19 11 -98 -4 c-55 -3 -100 -5 -101 -5 -1 -1 71 -76 161 -168 l164 -168 53 2
c30 1 74 2 99 1 125 -5 540 -1 545 4 3 3 2 21 -2 39 l-9 33 8 66 c5 36 16 82
25 102 8 20 13 46 10 58 l-5 20 10 -6 11 -7 -5 31 c-2 17 -1 29 4 26 4 -3 8 4
8 15 0 12 -2 21 -4 21 -3 0 -12 -9 -20 -21z" />
    <path d="M2623 1488 c4 -12 7 -31 7 -41 0 -10 4 -16 9 -13 l9 6 0 -40 1 -40
-10 5 c-5 4 -9 0 -9 -8 0 -8 7 -17 15 -21 8 -3 15 -15 15 -26 0 -11 4 -20 9
-20 l9 0 -3 -52 c-1 -29 0 -68 3 -85 l5 -33 28 0 c15 0 31 -5 35 -11 l6 -11
157 7 c86 4 165 6 176 5 32 -3 196 -2 243 1 l42 3 148 151 c81 82 148 158 150
167 l3 17 -36 -2 c-19 -1 -35 -6 -35 -10 0 -4 -9 -3 -19 3 l-20 10 -113 -3
-113 -4 -14 11 -15 11 7 -11 6 -11 -29 -1 c-17 0 -30 4 -30 9 0 6 -5 7 -10 4
-6 -4 -7 -12 -3 -18 l7 -12 -15 12 -15 13 -14 -13 -13 -12 7 12 6 11 -232 0
c-128 0 -244 3 -257 6 -14 3 -29 10 -34 15 -5 5 -16 7 -25 4 l-15 -6 6 9 c3 6
-4 16 -15 23 l-21 13 6 -24z" />
    <path d="M2400 1085 c0 -8 7 -15 15 -15 8 0 15 7 15 15 0 8 -7 15 -15 15 -8 0
-15 -7 -15 -15z" />
    <path d="M2120 246 c0 -2 7 -9 15 -16 l15 -12 0 16 c0 9 -7 16 -15 16 -8 0
-15 -2 -15 -4z" />
    <path d="M2260 180 c0 -5 7 -10 15 -10 8 0 15 5 15 10 0 6 -7 10 -15 10 -8 0
-15 -4 -15 -10z" />
    <path d="M2330 180 c0 -5 7 -10 15 -10 8 0 15 5 15 10 0 6 -7 10 -15 10 -8 0
-15 -4 -15 -10z" />
  </g>
  <g transform="translate(0.000000,460.000000) scale(0.100000,-0.100000)" fill="#ba1ada" stroke="none">
    <path d="M1899 1135 c-15 -8 -58 -17 -97 -19 l-71 -5 -7 10 -6 11 -9 -13 -9
-14 0 14 0 13 -15 -12 -15 -12 0 11 c0 6 -7 11 -16 11 l-15 0 7 -12 7 -11 -12
8 c-20 11 -70 12 -75 1 l-4 -11 -1 14 -1 13 -15 -12 -15 -12 0 9 c0 11 -29 11
-48 -1 -6 -4 -12 -3 -12 1 0 11 -196 11 -206 0 -5 -4 82 -97 191 -207 l199
-199 7 10 6 10 134 1 c74 0 192 -3 262 -6 l128 -7 19 -12 20 -12 15 20 15 20
9 -14 9 -14 18 7 c11 4 162 9 337 11 l317 4 0 -16 0 -17 209 210 c115 115 207
212 205 216 -7 11 -94 5 -94 -6 l0 -10 -11 11 -12 12 -23 -9 -23 -9 -6 9 c-7
11 -48 9 -56 -2 l-6 -9 -24 10 c-28 10 -120 8 -140 -4 l-12 -8 8 14 9 14 -17
-14 -17 -13 0 13 0 14 -10 -15 c-5 -8 -10 -10 -10 -5 0 6 -11 10 -25 10 -14 0
-25 -3 -25 -7 0 -8 -43 -3 -60 7 l-13 8 7 -11 6 -11 -26 3 c-14 2 -29 7 -32
12 -4 5 -23 9 -42 9 l-35 1 -17 -21 c-9 -11 -20 -32 -23 -47 -4 -16 -11 -28
-16 -28 -5 0 -9 -6 -9 -14 0 -8 -13 -20 -30 -28 -16 -7 -30 -16 -30 -20 0 -5
-7 -8 -15 -8 -8 0 -15 -7 -15 -15 0 -8 -7 -15 -15 -15 -8 0 -23 -4 -33 -9 -27
-15 -107 -31 -152 -31 -23 0 -73 7 -111 16 l-71 16 -16 19 c-9 10 -22 19 -29
19 -7 0 -13 5 -13 10 0 6 -7 10 -15 10 -8 0 -22 12 -32 28 -10 15 -23 33 -30
40 -7 7 -13 22 -13 33 0 10 -5 19 -11 19 -7 0 -18 8 -26 18 -8 9 -12 13 -10 7
l5 -10 -24 -1 -25 -2 18 14 c23 17 15 17 -18 -1z" />
    <path d="M2451 234 c-21 -25 -3 -30 22 -6 l21 22 -14 0 c-8 -1 -21 -8 -29 -16z" />
    <path d="M2155 220 c3 -5 10 -10 16 -10 5 0 9 5 9 10 0 6 -7 10 -16 10 l-15 0
6 -10z" />
    <path d="M2400 200 c0 -5 4 -10 9 -10 6 0 13 5 16 10 l6 10 -15 0 c-9 0 -16
-4 -16 -10z" />
  </g>
  <g transform="translate(0.000000,460.000000) scale(0.100000,-0.100000)" fill="#f95b9c" stroke="none">
    <path d="M2580 3546 l0 -16 -19 0 c-11 0 -22 -6 -24 -12 l-5 -13 -1 18 c-1 19
-5 20 -38 11 -23 -6 -33 -34 -13 -34 l10 0 -6 -25 -6 -25 12 0 c35 0 140 -175
140 -233 l0 -28 10 6 10 6 -2 -25 c-1 -13 -6 -22 -10 -20 -14 9 -8 -34 7 -50
8 -8 15 -19 15 -25 0 -19 23 -61 34 -61 6 0 17 9 24 20 7 11 8 20 3 20 -5 0
-8 11 -7 24 0 13 4 22 7 20 7 -4 23 26 21 38 -1 4 10 11 24 14 l26 7 -14 8
-13 9 18 0 c9 0 17 4 17 9 0 5 11 12 25 15 14 4 24 10 21 14 -2 4 29 5 70 2
41 -3 74 -2 74 2 0 3 16 2 36 -4 l37 -10 8 14 9 13 0 -12 0 -13 35 5 c20 2 41
7 47 11 l11 7 -6 -9 c-3 -5 3 -10 14 -10 l19 0 -4 11 c-5 13 31 17 39 4 l6 -9
-15 6 c-9 3 -16 2 -16 -3 l0 -9 65 2 65 2 -7 -11 -6 -10 12 7 c6 4 8 12 5 18
l-7 11 19 -8 c10 -5 51 -8 89 -7 39 0 97 1 130 1 l60 1 -160 158 -160 159 -34
6 -34 7 -14 -12 -15 -12 -8 14 -9 14 -25 -12 -25 -11 -3 11 -4 11 -31 -10
c-16 -6 -57 -9 -90 -7 -34 2 -83 0 -111 -5 l-50 -8 -17 10 -17 9 -25 -13 -24
-13 -7 11 -7 11 -55 -2 c-30 -2 -57 0 -60 4 -3 4 -20 11 -37 15 l-33 7 0 -16z
m-63 -43 c-4 -3 -10 -3 -14 0 -3 4 0 7 7 7 7 0 10 -3 7 -7z m538 -273 c3 -5 1
-10 -4 -10 -6 0 -11 5 -11 10 0 6 2 10 4 10 3 0 8 -4 11 -10z m220 0 c3 -5 4
-10 1 -10 -3 0 -8 5 -11 10 -3 6 -4 10 -1 10 3 0 8 -4 11 -10z m42 -7 c-4 -3
-7 0 -7 7 0 7 3 10 7 7 3 -4 3 -10 0 -14z" />
    <path d="M1318 3540 l-37 -7 -163 -163 -163 -162 25 7 c14 3 30 6 35 6 6 0 51
0 100 0 50 0 102 0 118 -1 15 0 27 4 27 8 0 5 7 9 15 9 l15 0 -10 -12 -9 -11
20 0 19 0 0 16 0 15 10 -15 c11 -17 39 -20 58 -6 l14 10 8 -14 8 -14 16 13 16
13 17 -13 17 -14 -8 13 -7 12 10 0 c6 0 11 -4 11 -9 0 -6 10 -8 23 -5 12 3 32
7 45 9 l22 3 0 -11 0 -11 12 12 c7 7 17 12 23 12 5 0 3 -5 -5 -10 l-15 -10 18
0 c9 0 17 -4 17 -8 0 -5 7 -9 15 -9 l15 0 -11 13 -10 12 23 -6 c13 -3 29 -11
36 -18 7 -7 19 -11 28 -7 l15 5 19 -17 c10 -9 23 -14 29 -10 6 3 21 -5 34 -17
13 -13 29 -22 35 -20 5 1 13 -6 17 -17 3 -12 13 -21 21 -21 8 0 13 -4 10 -9
-7 -11 19 -33 28 -24 4 4 4 0 0 -10 l-6 -17 15 0 15 0 7 39 6 39 -10 18 c-5
11 -12 30 -15 44 -6 25 -65 100 -79 100 -4 0 -20 11 -35 25 -15 14 -52 37 -82
53 -30 15 -61 32 -67 39 -7 6 -26 17 -43 25 -16 7 -30 19 -30 25 l0 13 -25 0
c-14 0 -25 4 -25 9 0 5 -22 17 -50 27 -27 10 -50 21 -50 26 0 4 -16 10 -35 14
-19 3 -35 10 -35 15 0 10 -8 10 -62 -1z" />
    <path d="M1980 3255 c0 -8 7 -15 15 -15 8 0 15 7 15 15 0 8 -7 15 -15 15 -8 0
-15 -7 -15 -15z" />
    <path d="M1970 3195 c0 -8 7 -15 15 -15 8 0 15 7 15 15 0 8 -7 15 -15 15 -8 0
-15 -7 -15 -15z" />
    <path d="M1785 3150 c3 -5 8 -10 11 -10 3 0 2 5 -1 10 -3 6 -8 10 -11 10 -3 0
-2 -4 1 -10z" />
    <path d="M1970 3145 c0 -8 7 -15 15 -15 8 0 15 7 15 15 0 8 -7 15 -15 15 -8 0
-15 -7 -15 -15z" />
  </g>
  <g transform="translate(0.000000,460.000000) scale(0.100000,-0.100000)" fill="#f16b84" stroke="none">
    <path d="M2230 4431 c-14 -4 -43 -18 -65 -29 l-40 -21 -203 -205 -204 -204
118 -116 c64 -64 121 -116 125 -116 5 0 9 15 9 33 l0 32 43 19 42 19 90 3 90
2 33 -11 33 -11 7 9 c9 12 72 15 72 4 0 -5 7 -9 15 -9 8 0 15 5 15 10 l0 10
53 0 53 0 12 -12 11 -11 27 12 27 12 31 -11 31 -10 29 8 c16 4 57 5 90 1 58
-7 216 -2 225 7 3 2 -114 124 -260 270 l-264 265 -50 26 -50 26 -60 3 c-33 2
-71 0 -85 -5z" />
  </g>
  <g transform="translate(0.000000,460.000000) scale(0.100000,-0.100000)" fill="#ae10e5" stroke="none">
    <path d="M1861 755 l-1 -10 -114 0 -114 1 18 -26 c10 -14 126 -131 257 -260
l238 -236 45 -24 45 -24 75 0 75 0 38 22 c21 12 45 28 54 35 9 6 127 122 263
256 136 135 247 250 247 257 l0 13 -16 -8 c-9 -5 -32 -7 -51 -6 -19 1 -45 -2
-58 -6 l-23 -9 5 9 c3 5 -1 11 -9 15 -8 3 -15 1 -15 -5 l0 -10 -22 12 -23 12
14 -17 14 -16 -17 6 c-9 3 -16 11 -16 16 l0 10 -15 -12 -15 -12 0 13 0 14 -8
-10 c-4 -5 -22 -11 -39 -11 l-33 -2 6 10 6 10 -21 -11 c-11 -7 -21 -8 -21 -4
0 4 -5 1 -10 -7 -5 -8 -10 -10 -10 -5 0 6 -13 10 -30 10 -16 1 -30 -2 -30 -7
0 -8 -34 -3 -52 8 l-11 7 6 -10 6 -10 -44 1 c-25 1 -45 5 -45 9 0 5 -5 5 -11
1 -7 -4 -33 -7 -58 -7 -25 -1 -49 -6 -53 -11 l-8 -11 0 12 0 13 -34 -3 -34 -2
11 -15 12 -15 -21 18 -21 17 -18 -6 -18 -7 8 14 9 14 -17 -13 -16 -14 -68 14
-69 15 -17 -11 -16 -10 -40 10 c-22 6 -38 7 -35 3 3 -5 -1 -9 -10 -9 -8 0 -17
6 -19 13 -3 6 -6 8 -6 2z" />
  </g>
  <g transform="translate(0.000000,460.000000) scale(0.100000,-0.100000)" fill="#f56192" stroke="none">
    <path d="M2084 3858 c-3 -5 -9 -6 -14 -3 -5 3 -19 1 -31 -6 l-21 -11 7 14 c5
7 -3 3 -16 -8 -13 -12 -30 -19 -36 -17 -14 5 -15 1 -17 -57 l-2 -35 124 -124
123 -123 107 1 108 2 59 -38 c33 -21 69 -39 79 -41 l19 -4 -16 16 c-8 9 -21
16 -27 16 l-12 0 5 14 c8 20 -4 28 -20 14 l-13 -11 6 17 6 17 20 -7 21 -6 -8
12 -8 13 11 -7 12 -7 -10 -20 -11 -19 11 0 c5 0 10 6 10 14 0 8 7 17 17 20
l16 7 -19 15 -19 16 18 -6 19 -6 5 20 5 20 14 -11 c7 -6 18 -8 24 -4 l10 6 -2
-13 -3 -13 20 -1 c11 0 26 4 33 9 l13 10 11 -11 11 -11 20 10 19 11 -6 -11 -7
-11 28 0 c16 0 35 6 42 13 l14 12 -7 -12 -7 -13 41 4 40 4 0 -10 0 -10 13 10
13 11 23 -6 23 -6 9 14 9 14 0 -12 0 -12 20 4 c11 2 22 0 25 -5 3 -5 13 -6 21
-3 9 3 37 6 63 6 25 1 49 6 53 11 l8 11 0 -12 c0 -17 19 -16 52 1 l28 15 6
-11 7 -11 -13 8 -13 8 7 -12 8 -12 14 12 14 11 0 -12 0 -12 17 13 17 14 -8
-12 -7 -13 10 0 c6 0 11 3 11 8 0 12 -326 332 -339 332 l-12 0 7 13 8 12 -15
-12 c-8 -6 -29 -9 -46 -7 l-33 4 0 -11 0 -10 -18 10 -19 10 -13 -12 -13 -12 6
17 6 17 -14 -6 c-8 -3 -12 -10 -9 -17 3 -6 -2 -2 -10 8 l-16 20 0 -15 0 -14
-10 15 -10 15 0 -11 0 -12 -25 2 c-14 0 -25 5 -25 9 0 4 -10 2 -22 -4 l-22
-12 -4 12 -4 12 -15 -18 c-8 -10 -12 -13 -9 -6 l6 11 -17 4 c-10 2 -33 1 -50
-3 l-33 -7 0 10 c0 5 -5 6 -10 3 -6 -4 -7 -12 -3 -18 l7 -12 -16 13 -15 12
-58 1 -57 2 -9 -14 -9 -14 0 17 0 18 -22 -9 -23 -8 -22 8 -23 8 0 -15 0 -16
-16 6 c-9 3 -18 6 -20 6 -3 0 -3 3 -1 8 3 4 -10 7 -28 7 l-33 0 6 -9 5 -9 -19
7 c-28 11 -104 14 -110 4z m1113 -335 c-4 -3 -7 0 -7 7 0 7 3 10 7 7 3 -4 3
-10 0 -14z m-150 -10 c-4 -3 -7 0 -7 7 0 7 3 10 7 7 3 -4 3 -10 0 -14z" />
    <path d="M2280 3860 c0 -7 3 -10 7 -7 3 4 3 10 0 14 -4 3 -7 0 -7 -7z" />
    <path d="M1980 3850 c0 -5 5 -10 10 -10 6 0 10 5 10 10 0 6 -4 10 -10 10 -5 0
-10 -4 -10 -10z" />
    <path d="M1367 3621 c-53 -53 -97 -99 -97 -102 0 -8 32 -5 47 4 6 4 15 3 18
-3 l7 -11 20 7 21 6 -8 -12 -7 -12 21 11 21 12 0 -16 0 -15 23 -1 c12 -1 25
-1 30 0 4 0 7 -7 7 -16 l0 -18 10 15 10 15 0 -12 0 -12 15 5 15 6 0 -13 c0 -7
3 -10 6 -6 3 3 16 -3 27 -14 l21 -19 8 12 8 13 0 -15 c0 -8 14 -21 30 -28 17
-8 36 -19 43 -25 6 -7 37 -25 68 -40 31 -15 70 -41 87 -58 17 -16 32 -26 35
-22 9 16 -12 51 -45 74 -53 37 -308 296 -308 313 0 8 -6 21 -14 28 -8 8 -15
22 -17 30 l-4 16 -98 -97z" />
    <path d="M2595 3519 c-9 -14 -2 -20 14 -10 l13 9 -10 6 c-6 3 -14 1 -17 -5z" />
  </g>
  <g transform="translate(0.000000,460.000000) scale(0.100000,-0.100000)" fill="#f6d0f1" stroke="none">
    <path d="M2124 4378 l-7 -11 11 7 c12 7 16 16 8 16 -3 0 -8 -5 -12 -12z" />
    <path d="M1528 3999 c-10 -5 -22 -19 -28 -29 l-11 -20 17 -32 c9 -18 40 -58
70 -88 29 -30 131 -134 225 -230 95 -96 177 -188 184 -205 l11 -30 -3 -85 -2
-85 29 -63 29 -63 68 -66 68 -66 0 -589 0 -589 23 26 22 26 1 217 c0 119 3
359 5 532 3 173 2 334 -1 358 l-6 43 -72 72 c-40 40 -82 93 -95 119 l-23 46 2
106 2 105 -17 25 c-9 14 -117 128 -241 253 l-225 227 -11 34 c-6 18 -8 39 -5
47 6 17 6 17 -16 4z" />
    <path d="M1653 4003 c4 -3 10 -3 14 0 3 4 0 7 -7 7 -7 0 -10 -3 -7 -7z" />
    <path d="M1520 3785 c0 -8 5 -15 10 -15 6 0 10 7 10 15 0 8 -4 15 -10 15 -5 0
-10 -7 -10 -15z" />
    <path d="M2465 3460 c3 -5 8 -10 11 -10 3 0 2 5 -1 10 -3 6 -8 10 -11 10 -3 0
-2 -4 1 -10z" />
    <path d="M2580 3347 c5 -16 10 -62 10 -102 l0 -74 22 -46 c12 -25 25 -45 30
-45 12 0 -2 161 -18 205 -8 22 -23 51 -34 65 l-20 25 10 -28z" />
    <path d="M2630 3061 c0 -9 374 -389 437 -444 18 -16 37 -26 43 -22 l10 6 -29
25 c-16 13 -33 24 -37 25 -5 0 -31 27 -57 59 -27 33 -54 59 -60 57 -7 -1 -11
4 -9 11 1 6 -5 12 -13 12 -7 0 -18 6 -22 13 -4 8 -23 24 -40 37 -18 13 -33 28
-33 33 0 12 -90 117 -100 117 -12 0 -70 59 -70 71 0 5 -4 9 -10 9 -5 0 -10 -4
-10 -9z" />
    <path d="M2449 2931 l-24 -19 0 -561 0 -560 18 -18 17 -17 1 159 c1 88 1 325
0 527 l-3 367 12 36 c6 19 18 35 25 35 8 0 33 -17 57 -37 58 -51 274 -270 305
-310 l24 -31 0 -101 0 -100 16 -38 c8 -21 32 -61 52 -90 l36 -52 70 -33 70
-33 80 0 80 0 65 33 65 33 38 41 37 41 15 52 c16 53 18 145 3 145 -4 0 -8 8
-8 18 0 9 -5 24 -10 32 l-10 15 6 -65 6 -65 -29 -65 -30 -65 -41 -37 -41 -37
-52 -15 c-29 -9 -72 -16 -97 -16 -60 0 -146 26 -180 55 -16 13 -44 54 -63 91
l-34 68 2 100 3 99 -19 31 c-25 39 -383 396 -398 396 -6 0 -18 2 -26 5 -7 3
-25 -3 -38 -14z" />
    <path d="M2466 1692 c-3 -6 -1 -14 5 -17 15 -10 25 3 12 16 l-11 11 -6 -10z" />
    <path d="M2105 1659 c-4 -6 -5 -13 -2 -16 7 -7 27 6 27 18 0 12 -17 12 -25 -2z" />
    <path d="M2017 1534 c-10 -20 -20 -55 -24 -79 l-5 -42 27 -61 27 -61 60 -50
60 -51 51 -15 c63 -19 140 -19 200 -1 l47 14 64 51 64 51 22 47 c13 27 25 68
27 93 l4 45 -20 40 -19 40 -1 -67 -1 -66 -32 -63 -33 -62 -55 -39 -55 -38 -55
-10 -56 -10 -54 10 c-30 6 -75 23 -100 38 l-45 28 -32 48 c-41 61 -56 116 -51
188 2 32 4 58 3 58 -1 0 -9 -16 -18 -36z" />
  </g>
  <g transform="translate(0.000000,460.000000) scale(0.100000,-0.100000)" fill="#c731b4" stroke="none">
    <path d="M2870 2175 c0 -14 -4 -25 -8 -25 -12 0 -36 -80 -33 -105 4 -29 29
-79 51 -103 11 -12 20 -27 20 -34 0 -7 18 -24 40 -38 22 -13 40 -27 40 -30 0
-4 9 -17 20 -30 11 -13 20 -18 20 -12 l0 11 18 -6 c9 -4 20 -11 23 -15 3 -5
51 -11 105 -13 100 -4 204 10 204 27 0 5 4 7 9 4 5 -4 29 12 53 34 23 22 46
40 51 40 4 0 7 7 7 15 0 8 11 26 25 40 14 14 23 25 20 25 -3 0 6 18 20 40 14
22 21 40 16 40 -5 0 -7 9 -4 21 9 32 -33 99 -67 107 l-12 3 6 -25 6 -25 -12
-7 -11 -7 8 14 9 14 -18 -14 c-9 -8 -15 -20 -12 -28 3 -8 2 -12 -3 -9 -11 7
-63 -49 -54 -59 l8 -8 -12 7 c-13 7 -85 -32 -79 -42 2 -4 -12 -8 -32 -9 -20
-1 -38 -7 -40 -12 l-4 -11 -50 0 c-28 0 -48 3 -45 7 7 6 -85 44 -115 46 -9 1
-16 6 -15 12 1 5 -7 10 -18 10 l-20 1 3 13 c4 18 -18 42 -31 34 l-10 -6 6 9
c8 13 -9 39 -25 39 l-13 0 3 19 3 18 -9 -6 c-5 -3 -10 0 -9 7 1 33 -4 47 -18
47 l-15 0 0 -25z" />
    <path d="M2148 2136 c-15 -14 -30 -35 -32 -48 -3 -13 -8 -84 -12 -158 -7 -159
-7 -145 -1 -195 l5 -40 -10 -12 c-6 -7 -7 -13 -3 -13 4 0 2 -7 -5 -15 -23 -27
-2 -28 30 -2 16 14 38 28 48 31 l19 6 6 122 c4 67 7 172 7 235 l0 113 -12 0
c-7 0 -25 -11 -40 -24z" />
    <path d="M2464 2098 c3 -24 5 -127 5 -229 l1 -187 47 -38 c26 -21 44 -33 39
-26 -4 7 -9 43 -11 80 l-3 67 10 13 10 12 -13 0 -13 0 11 11 11 11 -9 33 c-5
18 -8 56 -6 84 l3 51 -11 5 -10 5 13 6 12 6 -7 11 c-4 6 -7 23 -8 38 -2 32
-41 89 -62 89 l-15 0 6 -42z" />
  </g>
  <g transform="translate(0.000000,460.000000) scale(0.100000,-0.100000)" fill="#d53cac" stroke="none">
    <path d="M2144 2573 c-3 -10 -11 -29 -17 -43 -20 -45 -24 -65 -15 -88 l8 -23
-12 7 -11 7 6 -31 6 -31 -9 -6 c-6 -4 -8 -11 -4 -16 3 -5 1 -15 -4 -22 -5 -7
-8 -21 -5 -32 2 -11 6 -47 8 -80 2 -33 5 -61 6 -62 1 -2 3 -16 4 -33 1 -16 3
-40 5 -52 l2 -23 5 15 c11 28 65 90 74 84 l9 -5 0 208 -1 208 -13 18 c-7 9
-18 17 -25 17 -6 0 -14 -8 -17 -17z" />
    <path d="M2530 2550 c-8 -5 -23 -11 -33 -14 -9 -3 -22 -18 -28 -33 l-11 -28 6
-108 6 -108 -10 6 c-6 3 -10 -1 -10 -10 l0 -16 10 6 10 6 0 -16 0 -16 -12 7
-13 8 14 -17 c7 -9 9 -17 4 -17 -5 0 -9 -9 -10 -20 l-2 -20 12 7 12 7 -12 -15
c-12 -15 -13 -69 -1 -69 4 0 8 10 10 23 l3 22 25 -37 c26 -40 36 -46 38 -25 6
40 14 126 15 150 0 15 4 27 8 27 5 0 9 7 9 15 0 8 -5 15 -11 15 l-11 0 12 15
12 14 -8 12 -7 12 11 -7 c16 -10 15 7 0 23 l-13 14 17 -6 c10 -3 20 -1 24 5
l7 10 7 -12 8 -13 7 22 c3 11 9 21 13 21 4 0 18 -13 32 -30 14 -16 30 -30 37
-30 7 0 15 -11 19 -25 3 -14 10 -25 16 -25 5 0 7 -4 3 -9 -3 -5 -1 -12 5 -16
13 -8 40 -72 40 -95 0 -10 5 -20 11 -22 6 -2 12 -18 13 -35 1 -17 5 -35 9 -39
8 -8 38 27 31 37 -2 4 3 12 11 19 8 7 15 21 15 32 l0 20 15 -12 c18 -15 18
-10 2 53 -7 26 -16 45 -19 42 -3 -3 -5 8 -4 24 1 16 4 27 9 24 11 -7 8 47 -5
84 -7 18 -18 33 -25 33 -7 0 -13 5 -13 10 0 6 -6 10 -14 10 -7 0 -16 9 -19 19
l-5 19 -41 7 -41 7 0 14 c0 8 -8 14 -18 14 -10 0 -22 4 -27 9 -11 9 -96 31
-117 30 -7 0 -20 -4 -28 -9z" />
    <path d="M3507 2388 c4 -7 6 -26 4 -42 -1 -15 1 -26 6 -23 4 3 8 -17 8 -43 l0
-48 -9 5 -9 6 5 -26 5 -26 -10 6 -10 6 7 -29 c4 -16 12 -34 19 -39 17 -15 37
-52 37 -71 l0 -15 16 16 c9 9 14 19 11 22 -4 3 -2 14 4 25 6 11 13 31 15 45
l5 25 -12 -8 -12 -7 8 14 c12 18 7 80 -7 96 -6 8 -8 16 -5 20 10 10 -60 103
-78 103 -3 0 -3 -6 2 -12z" />
    <path d="M2940 2090 c0 -5 5 -10 10 -10 6 0 10 5 10 10 0 6 -4 10 -10 10 -5 0
-10 -4 -10 -10z" />
    <path d="M3245 1960 c4 -6 11 -8 16 -5 14 9 11 15 -7 15 l-15 0 6 -10z" />
  </g>
  <g transform="translate(0.000000,460.000000) scale(0.100000,-0.100000)" fill="#ae1bc8" stroke="none">
    <path d="M1978 1394 c-4 -4 -2 -14 5 -22 l12 -16 -12 7 -12 8 -10 -20 c-6 -11
-11 -31 -11 -45 0 -14 -4 -26 -8 -26 -12 0 -6 -129 7 -163 l11 -28 10 6 10 6
-6 -14 c-3 -8 0 -18 5 -22 6 -3 9 -11 6 -16 -4 -5 0 -9 7 -9 7 0 21 -14 30
-30 9 -17 24 -30 31 -30 8 0 17 -7 21 -15 3 -8 11 -14 18 -13 7 2 12 -2 11 -8
l-2 -12 62 -18 c34 -10 67 -19 72 -20 6 -1 12 -3 15 -4 15 -7 131 -6 135 1 3
4 26 11 50 15 25 3 48 10 51 15 3 5 14 9 25 9 l19 0 0 16 c0 8 4 13 9 9 6 -3
14 2 19 11 5 9 12 15 15 15 14 -2 47 24 47 36 0 7 4 13 9 13 5 0 12 12 15 26
4 14 16 38 27 53 10 14 21 36 24 49 l4 22 -12 0 -12 0 10 8 c14 10 17 39 5 47
l-10 6 10 19 10 19 -13 13 c-8 7 -17 25 -20 39 l-7 26 -16 0 -16 0 4 -28 4
-28 -9 6 -10 6 5 -21 6 -22 -8 5 c-12 7 -33 -32 -25 -45 l6 -10 -13 2 -13 3 1
-17 c1 -10 -2 -16 -6 -13 -11 7 -61 -50 -53 -60 l8 -8 -13 7 -13 8 -14 -12
c-8 -7 -12 -17 -9 -22 l7 -10 -20 6 c-23 7 -55 -2 -48 -14 2 -4 -7 -5 -22 -2
l-26 5 6 -9 5 -9 -58 0 c-32 0 -56 2 -54 5 9 8 -81 30 -100 24 l-19 -6 7 11
c4 6 2 12 -3 12 -6 1 -15 2 -21 3 -5 0 -10 5 -9 9 1 13 -53 67 -61 62 -4 -3
-7 3 -6 13 l1 17 -13 -3 c-8 -1 -11 1 -8 6 3 5 -3 31 -14 58 -10 27 -22 64
-27 82 -4 19 -11 30 -15 26z" />
  </g>
  <g transform="translate(0.000000,460.000000) scale(0.100000,-0.100000)" fill="#fc7eea" stroke="none">
    <path d="M1480 3886 l0 -33 25 -37 c13 -20 21 -36 18 -36 -4 0 13 -20 37 -45
24 -24 47 -42 51 -40 3 3 6 -3 5 -13 l-1 -17 18 2 c10 0 16 -2 12 -5 -7 -8
126 -142 136 -137 4 3 6 -3 5 -13 l-1 -17 17 1 c10 1 16 -1 13 -5 -2 -4 26
-38 64 -75 l67 -67 9 8 8 8 -7 -13 -7 -12 15 -15 c19 -19 36 -19 36 0 0 8 -4
15 -10 15 -5 0 -10 11 -10 24 0 14 -4 36 -10 50 -5 14 -113 129 -240 255 -126
126 -230 234 -230 240 0 6 -4 11 -10 11 -5 0 -10 -15 -10 -34z" />
    <path d="M1990 3284 l0 -15 10 6 c6 3 10 10 10 16 0 5 -4 9 -10 9 -5 0 -10 -7
-10 -16z" />
    <path d="M2630 3250 c0 -7 3 -10 7 -7 3 4 3 10 0 14 -4 3 -7 0 -7 -7z" />
    <path d="M1970 3168 c0 -16 4 -27 9 -24 4 3 6 -5 4 -19 -6 -29 15 -97 28 -90
l9 6 -6 -16 c-7 -18 14 -48 27 -39 5 3 8 0 7 -8 -2 -7 2 -12 9 -11 l12 3 -5
-14 c-6 -16 21 -40 36 -31 l10 6 -2 -12 c-2 -7 2 -13 9 -14 6 0 15 -4 20 -9
l8 -9 -15 8 -15 9 14 -17 c7 -9 22 -17 33 -17 l20 0 -7 37 c-8 42 -24 65 -79
114 -50 43 -96 115 -96 149 l0 27 -15 0 -15 0 0 -29z" />
    <path d="M2630 3164 l0 -15 10 6 c6 4 8 11 5 16 -9 14 -15 11 -15 -7z" />
    <path d="M2640 3051 c0 -6 5 -13 10 -16 l10 -6 0 15 c0 9 -4 16 -10 16 -5 0
-10 -4 -10 -9z" />
    <path d="M2695 2990 c3 -5 10 -10 16 -10 5 0 9 5 9 10 0 6 -7 10 -16 10 l-15
0 6 -10z" />
    <path d="M2810 2880 c0 -7 3 -10 7 -7 3 4 3 10 0 14 -4 3 -7 0 -7 -7z" />
    <path d="M2460 2839 c0 -15 30 -43 37 -35 10 9 142 -125 137 -138 -5 -14 133
-153 142 -143 10 10 34 -12 28 -26 -5 -14 82 -104 92 -95 3 4 -1 21 -9 40 -8
18 -18 46 -21 61 l-7 28 -158 160 -159 159 -41 0 -41 0 0 -11z m195 -189 c3
-5 4 -10 1 -10 -3 0 -8 5 -11 10 -3 6 -4 10 -1 10 3 0 8 -4 11 -10z m170 -170
c3 -5 4 -10 1 -10 -3 0 -8 5 -11 10 -3 6 -4 10 -1 10 3 0 8 -4 11 -10z" />
    <path d="M2867 2819 c7 -7 15 -10 18 -7 3 3 -2 9 -12 12 l-18 7 12 -12z" />
    <path d="M2560 2735 c35 -36 67 -65 69 -65 3 0 -24 29 -59 65 -35 36 -67 65
-69 65 -3 0 24 -29 59 -65z" />
    <path d="M2980 2711 c0 -6 5 -13 10 -16 l10 -6 0 15 c0 9 -4 16 -10 16 -5 0
-10 -4 -10 -9z" />
    <path d="M3036 2648 c3 -4 9 -8 15 -8 5 0 9 4 9 8 0 5 -7 9 -15 9 -8 0 -12 -4
-9 -9z" />
    <path d="M2785 2510 c3 -5 8 -10 11 -10 3 0 2 5 -1 10 -3 6 -8 10 -11 10 -3 0
-2 -4 1 -10z" />
    <path d="M3490 2430 c0 -7 3 -10 7 -7 3 4 3 10 0 14 -4 3 -7 0 -7 -7z" />
    <path d="M3510 2360 c0 -7 3 -10 7 -7 3 4 3 10 0 14 -4 3 -7 0 -7 -7z" />
    <path d="M3510 2295 c0 -20 -11 -60 -25 -90 l-26 -54 -70 -45 -71 -45 -53 -12
-53 -12 -44 7 c-24 4 -71 19 -104 35 l-59 28 -43 47 c-23 25 -48 57 -54 71 -6
14 -15 25 -20 25 -16 0 -8 -47 18 -98 34 -68 108 -146 164 -171 l45 -21 88 0
88 0 50 26 c28 14 70 44 94 68 l42 43 22 57 c11 31 24 80 27 110 l6 53 -11 7
-11 7 0 -36z" />
    <path d="M2873 2294 c-3 -8 -1 -20 6 -27 l11 -11 0 27 c0 30 -7 35 -17 11z" />
    <path d="M1986 1418 c-12 -26 12 -127 41 -177 14 -25 45 -64 67 -86 l41 -40
55 -20 55 -20 70 0 70 0 50 19 c28 10 68 33 90 51 45 37 101 124 111 173 l7
32 -9 0 c-5 -1 -21 -18 -36 -40 -15 -21 -53 -60 -85 -85 l-58 -45 -49 -15
c-67 -20 -126 -19 -192 5 l-56 19 -54 46 c-29 25 -63 59 -75 76 -11 16 -24 51
-28 77 l-8 47 -7 -17z" />
    <path d="M2630 1404 l0 -15 10 6 c6 4 8 11 5 16 -9 14 -15 11 -15 -7z" />
  </g>
  <g transform="translate(0.000000,460.000000) scale(0.100000,-0.100000)" fill="#f9aaed" stroke="none">
    <path d="M2465 4380 c3 -5 8 -10 11 -10 3 0 2 5 -1 10 -3 6 -8 10 -11 10 -3 0
-2 -4 1 -10z" />
    <path d="M1487 3938 c-3 -12 -1 -31 5 -42 6 -12 114 -123 239 -248 l227 -226
7 -31 c3 -17 3 -40 0 -52 l-7 -22 16 6 17 7 -6 -10 c-3 -6 -2 -10 4 -10 5 0
12 13 16 29 l6 29 -14 33 -14 34 -172 175 c-94 96 -196 200 -225 230 -30 30
-61 70 -70 88 -9 17 -18 32 -20 32 -2 0 -6 -10 -9 -22z" />
    <path d="M2277 3493 c18 -2 50 -2 70 0 21 2 7 4 -32 4 -38 0 -55 -2 -38 -4z" />
    <path d="M1983 3191 c1 -38 4 -67 6 -65 2 2 16 -16 31 -39 15 -23 53 -66 84
-95 l56 -53 2 -22 c0 -12 1 -29 0 -37 0 -8 4 -17 9 -21 l10 -6 8 -504 8 -504
-1 551 -1 551 -68 66 -67 66 -30 63 c-17 35 -30 73 -30 85 0 12 -4 24 -9 28
l-10 5 2 -69z" />
    <path d="M2633 3200 c0 -30 2 -43 4 -27 2 15 2 39 0 55 -2 15 -4 2 -4 -28z" />
    <path d="M2464 2865 l-14 -35 2 -307 1 -308 8 65 c3 36 7 170 8 298 l1 232 10
0 c6 0 10 7 10 15 l0 15 21 0 21 0 159 -159 158 -160 7 -25 c3 -14 4 -32 1
-40 -3 -8 0 -20 8 -26 l13 -11 7 11 c4 6 7 27 7 46 l0 34 -25 33 c-13 17 -92
100 -176 184 l-151 151 -31 11 -30 10 -15 -34z m411 -425 c3 -5 4 -10 1 -10
-3 0 -8 5 -11 10 -3 6 -4 10 -1 10 3 0 8 -4 11 -10z" />
    <path d="M4375 2470 c3 -5 8 -10 11 -10 3 0 2 5 -1 10 -3 6 -8 10 -11 10 -3 0
-2 -4 1 -10z" />
    <path d="M2880 2303 l5 -68 22 -35 c55 -89 163 -156 267 -167 l54 -6 50 13
c28 6 83 32 121 57 l70 44 26 54 25 54 -1 58 -1 58 -13 -63 c-15 -67 -39 -114
-77 -149 -13 -11 -52 -36 -88 -54 l-64 -33 -71 -1 -70 0 -70 33 -70 33 -36 52
c-44 63 -69 120 -69 158 0 16 -3 29 -8 29 -4 0 -5 -30 -2 -67z" />
    <path d="M2450 2170 c0 -7 3 -10 7 -7 3 4 3 10 0 14 -4 3 -7 0 -7 -7z" />
    <path d="M2451 2134 l1 -19 5 13 c3 7 2 16 -1 19 -3 4 -6 -2 -5 -13z" />
    <path d="M1991 1417 l-1 -59 16 -34 c22 -45 117 -131 174 -156 l45 -20 66 -5
65 -5 55 16 54 15 58 46 c31 25 71 64 87 87 l30 41 -1 61 0 61 -13 -45 c-7
-25 -20 -62 -30 -83 l-18 -37 -64 -51 -64 -51 -47 -14 c-60 -18 -117 -18 -180
1 l-51 15 -57 48 -57 47 -25 49 c-13 26 -28 67 -33 90 l-8 41 -1 -58z" />
  </g>
  <g transform="translate(0.000000,460.000000) scale(0.100000,-0.100000)" fill="#e05589" stroke="none">
    <path d="M1492 3747 c-31 -32 -42 -72 -21 -79 5 -2 11 -11 13 -20 1 -10 13
-29 26 -43 13 -14 21 -25 18 -25 -3 0 10 -17 31 -38 20 -20 37 -37 38 -37 1 1
40 -35 86 -79 46 -45 100 -94 120 -109 20 -15 37 -32 37 -37 0 -4 17 -27 38
-49 21 -23 51 -68 67 -101 16 -33 35 -60 42 -60 l13 0 -7 28 c-11 37 -7 141 6
175 l11 28 -238 240 c-131 131 -241 239 -243 239 -3 0 -19 -15 -37 -33z" />
    <path d="M2630 3075 c0 -8 5 -15 10 -15 6 0 10 7 10 15 0 8 -4 15 -10 15 -5 0
-10 -7 -10 -15z" />
  </g>
  <g transform="translate(0.000000,460.000000) scale(0.100000,-0.100000)" fill="#d44399" stroke="none">
    <path d="M2034 2963 c4 -16 8 -37 9 -48 3 -19 20 -56 68 -148 10 -20 26 -74
33 -120 8 -45 14 -78 15 -73 1 6 8 1 16 -10 l14 -19 1 162 0 162 -22 7 c-12 3
-46 31 -76 60 -31 30 -58 54 -60 54 -2 0 -1 -12 2 -27z" />
    <path d="M2460 2657 c0 -103 2 -187 5 -187 3 0 10 11 15 25 5 14 18 28 27 31
10 3 26 10 36 15 l18 10 42 -13 c23 -6 45 -12 49 -12 3 -1 10 -4 14 -8 4 -5
16 -8 26 -8 l18 0 0 -15 c0 -8 3 -15 8 -16 40 -4 69 -12 77 -21 l10 -11 -15 8
-15 8 19 -21 c10 -12 23 -19 29 -15 l10 6 -7 -11 -7 -11 26 -17 c13 -9 22 -20
19 -25 -3 -5 1 -9 9 -9 8 0 17 10 20 22 l6 22 -219 220 -220 221 0 -188z" />
  </g>
  <g transform="translate(0.000000,460.000000) scale(0.100000,-0.100000)" fill="#e449a5" stroke="none">
    <path d="M1930 3155 c0 -17 5 -36 11 -42 l11 -11 -10 -34 -9 -33 8 -23 9 -23
-9 5 c-4 3 -8 -8 -7 -23 1 -16 4 -27 9 -24 4 2 7 -14 7 -36 0 -22 5 -43 11
-46 6 -4 8 -13 5 -20 -6 -16 19 -71 37 -82 7 -5 12 -14 13 -20 1 -7 2 -22 3
-34 0 -11 4 -18 9 -16 4 3 8 -6 8 -20 1 -13 9 -30 18 -36 8 -7 18 -29 20 -50
3 -21 10 -45 16 -52 l12 -14 -7 -21 -6 -20 11 0 c6 0 8 -4 5 -10 -3 -5 -4 -10
-2 -10 3 0 15 19 28 43 l23 42 0 65 c0 98 -14 148 -57 212 -10 14 -19 35 -20
47 -1 11 -7 23 -15 26 -7 3 -10 10 -7 16 4 5 1 25 -5 42 -21 53 -53 122 -60
127 -4 3 -19 28 -33 55 l-26 50 -1 -30z" />
    <path d="M2639 3113 c0 -10 -2 -25 -4 -35 -4 -19 25 -52 120 -139 39 -35 57
-49 41 -31 -17 17 -26 32 -21 32 5 0 -5 12 -22 28 -17 15 -34 37 -37 50 -4 12
-11 20 -15 17 -8 -4 -31 37 -31 56 0 6 -7 17 -15 25 l-15 15 -1 -18z" />
    <path d="M2840 2846 c0 -2 8 -10 18 -17 l17 -14 -14 18 c-13 16 -21 21 -21 13z" />
    <path d="M2475 2820 c3 -5 8 -10 11 -10 3 0 2 5 -1 10 -3 6 -8 10 -11 10 -3 0
-2 -4 1 -10z" />
    <path d="M2913 2783 c4 -3 10 -3 14 0 3 4 0 7 -7 7 -7 0 -10 -3 -7 -7z" />
    <path d="M2940 2767 c0 -12 92 -118 98 -113 2 3 15 -8 29 -25 14 -16 33 -29
43 -29 l18 0 5 19 5 19 -17 -3 c-9 -1 -24 7 -33 17 -9 11 -20 18 -23 17 -11
-3 -43 22 -86 66 -21 22 -39 36 -39 32z" />
    <path d="M2464 2525 c0 -110 2 -156 3 -103 2 53 2 143 0 200 -1 57 -3 13 -3
-97z" />
  </g>
  <g transform="translate(0.000000,460.000000) scale(0.100000,-0.100000)" fill="#b58eae" stroke="none">
    <path d="M245 2120 c3 -5 8 -10 11 -10 3 0 2 5 -1 10 -3 6 -8 10 -11 10 -3 0
-2 -4 1 -10z" />
    <path d="M415 1950 c3 -5 8 -10 11 -10 3 0 2 5 -1 10 -3 6 -8 10 -11 10 -3 0
-2 -4 1 -10z" />
    <path d="M585 1780 c3 -5 8 -10 11 -10 3 0 2 5 -1 10 -3 6 -8 10 -11 10 -3 0
-2 -4 1 -10z" />
    <path d="M755 1610 c3 -5 8 -10 11 -10 3 0 2 5 -1 10 -3 6 -8 10 -11 10 -3 0
-2 -4 1 -10z" />
    <path d="M925 1440 c3 -5 8 -10 11 -10 3 0 2 5 -1 10 -3 6 -8 10 -11 10 -3 0
-2 -4 1 -10z" />
    <path d="M1095 1270 c3 -5 8 -10 11 -10 3 0 2 5 -1 10 -3 6 -8 10 -11 10 -3 0
-2 -4 1 -10z" />
    <path d="M1265 1100 c3 -5 8 -10 11 -10 3 0 2 5 -1 10 -3 6 -8 10 -11 10 -3 0
-2 -4 1 -10z" />
    <path d="M1435 930 c3 -5 8 -10 11 -10 3 0 2 5 -1 10 -3 6 -8 10 -11 10 -3 0
-2 -4 1 -10z" />
    <path d="M1605 760 c3 -5 8 -10 11 -10 3 0 2 5 -1 10 -3 6 -8 10 -11 10 -3 0
-2 -4 1 -10z" />
    <path d="M1775 590 c3 -5 8 -10 11 -10 3 0 2 5 -1 10 -3 6 -8 10 -11 10 -3 0
-2 -4 1 -10z" />
    <path d="M1945 420 c3 -5 8 -10 11 -10 3 0 2 5 -1 10 -3 6 -8 10 -11 10 -3 0
-2 -4 1 -10z" />
    <path d="M2115 250 c3 -5 8 -10 11 -10 3 0 2 5 -1 10 -3 6 -8 10 -11 10 -3 0
-2 -4 1 -10z" />
  </g>
</svg>
