<?xml version="1.0" encoding="utf-8"?>
<svg xmlns="http://www.w3.org/2000/svg" fill="none" height="512" viewBox="0 0 1959 512" width="1959">
<path d="M585 431.4V93.48H667.944V431.4H585ZM626.472 311.08V243.496H798.504V311.08H626.472ZM626.472 162.6V93.48H815.912V162.6H626.472Z" fill="#4641D9"/>
<path d="M843.951 431.4V73H926.895V431.4H843.951Z" fill="#4641D9"/>
<path d="M1047.92 438.568C1018.57 438.568 996.72 428.328 982.384 407.848C968.389 387.368 961.392 355.965 961.392 313.64V161.064H1044.34V312.616C1044.34 332.413 1047.07 346.237 1052.53 354.088C1058.33 361.939 1066.52 365.864 1077.1 365.864C1084.61 365.864 1091.44 363.987 1097.58 360.232C1104.07 356.136 1109.7 350.163 1114.48 342.312C1119.26 334.12 1122.84 323.709 1125.23 311.08C1127.96 298.451 1129.33 283.261 1129.33 265.512V161.064H1212.27V431.4H1141.62V325.928H1138.03C1135.98 352.211 1131.38 373.715 1124.21 390.44C1117.04 406.824 1107.14 418.941 1094.51 426.792C1081.88 434.643 1066.35 438.568 1047.92 438.568Z" fill="#4641D9"/>
<path d="M1232.57 431.4L1317.56 295.72L1233.59 161.064H1329.85L1369.27 248.616H1371.83L1410.23 161.064H1505.46L1424.06 295.72L1506.49 431.4H1408.7L1371.32 345.384H1369.27L1327.8 431.4H1232.57Z" fill="#4641D9"/>
<path d="M1630.96 438.568C1605.36 438.568 1583.86 434.984 1566.45 427.816C1549.39 420.307 1535.56 410.237 1524.98 397.608C1514.4 384.637 1506.72 369.96 1501.94 353.576C1497.5 337.192 1495.28 319.955 1495.28 301.864C1495.28 282.408 1497.67 263.805 1502.45 246.056C1507.57 228.307 1515.25 212.605 1525.49 198.952C1536.07 184.957 1549.56 174.035 1565.94 166.184C1582.67 157.992 1602.63 153.896 1625.84 153.896C1649.05 153.896 1668.85 157.992 1685.24 166.184C1701.96 174.035 1715.27 185.128 1725.17 199.464C1735.07 213.8 1741.39 230.355 1744.12 249.128C1747.19 267.901 1746.85 288.211 1743.09 310.056L1547 313.128V268.072L1679.6 265.512L1668.85 291.624C1670.9 275.923 1670.56 262.781 1667.83 252.2C1665.44 241.277 1660.83 233.085 1654 227.624C1647.18 221.821 1637.79 218.92 1625.84 218.92C1613.21 218.92 1603.15 222.163 1595.64 228.648C1588.13 235.133 1582.84 244.349 1579.76 256.296C1576.69 267.901 1575.16 281.725 1575.16 297.768C1575.16 325.416 1579.76 345.555 1588.98 358.184C1598.2 370.813 1612.36 377.128 1631.48 377.128C1639.67 377.128 1646.49 376.104 1651.96 374.056C1657.42 372.008 1661.85 369.107 1665.27 365.352C1668.68 361.256 1671.07 356.477 1672.44 351.016C1673.8 345.213 1674.31 338.728 1673.97 331.56L1749.75 335.656C1750.77 346.92 1749.58 358.525 1746.16 370.472C1743.09 382.419 1737.12 393.512 1728.24 403.752C1719.37 413.992 1706.91 422.355 1690.87 428.84C1675.17 435.325 1655.2 438.568 1630.96 438.568Z" fill="#4641D9"/>
<path d="M1778.45 431.4V161.064H1850.13V268.584H1854.23C1856.28 239.912 1860.2 217.384 1866 201C1872.15 184.275 1879.66 172.499 1888.53 165.672C1897.75 158.504 1907.99 154.92 1919.25 154.92C1925.4 154.92 1931.71 155.773 1938.2 157.48C1945.02 159.187 1951.68 161.917 1958.16 165.672L1954.07 257.832C1946.56 253.395 1939.22 250.152 1932.05 248.104C1924.88 245.715 1918.06 244.52 1911.57 244.52C1900.65 244.52 1891.43 247.592 1883.92 253.736C1876.41 259.88 1870.61 268.925 1866.52 280.872C1862.76 292.819 1860.88 307.325 1860.88 324.392V431.4H1778.45Z" fill="#4641D9"/>
<path d="M256 0C397.385 0 512 114.615 512 256C512 397.385 397.385 512 256 512C114.615 512 0 397.385 0 256C0 114.615 114.615 0 256 0ZM187.53 266.057C171.987 266.057 157.206 269.562 143.187 276.571C129.321 283.581 118.044 294.781 109.359 310.171C103.743 320.3 100.041 332.574 98.2529 346.993C96.5986 360.334 107.829 371.2 121.271 371.2C135.049 371.2 145.336 359.626 148.673 346.259C150.564 338.68 153.612 332.67 157.815 328.229C165.891 319.695 176.101 315.429 188.444 315.429C196.673 315.429 204.216 317.486 211.073 321.6C217.93 325.562 226.844 332.343 237.815 341.943C254.577 356.724 269.359 367.467 282.159 374.171C294.959 380.724 309.13 384 324.673 384C340.216 384 354.997 380.495 369.016 373.486C383.035 366.476 394.387 355.276 403.073 339.886C408.811 329.718 412.521 317.389 414.202 302.899C415.745 289.597 404.498 278.857 391.106 278.857C377.243 278.858 366.904 290.561 363.218 303.927C361.421 310.442 358.706 315.952 355.073 320.457C347.454 329.905 337.016 334.629 323.759 334.629C315.53 334.629 308.063 332.647 301.359 328.686C294.806 324.571 285.816 317.714 274.387 308.114C257.473 293.943 242.615 283.429 229.815 276.571C217.168 269.562 203.073 266.057 187.53 266.057ZM187.53 128C171.987 128 157.206 131.505 143.187 138.514C129.321 145.524 118.044 156.724 109.359 172.114C103.743 182.243 100.041 194.517 98.2529 208.935C96.5985 222.276 107.829 233.142 121.271 233.143C135.049 233.143 145.336 221.569 148.673 208.202C150.564 200.623 153.612 194.613 157.815 190.171C165.891 181.638 176.101 177.371 188.444 177.371C196.673 177.371 204.216 179.429 211.073 183.543C217.93 187.505 226.844 194.286 237.815 203.886C254.577 218.667 269.359 229.41 282.159 236.114C294.959 242.667 309.13 245.943 324.673 245.943C340.216 245.943 354.997 242.438 369.016 235.429C383.035 228.419 394.387 217.219 403.073 201.829C408.811 191.661 412.521 179.332 414.202 164.842C415.745 151.539 404.498 140.8 391.106 140.8C377.243 140.8 366.904 152.504 363.218 165.87C361.421 172.385 358.706 177.895 355.073 182.4C347.454 191.848 337.016 196.571 323.759 196.571C315.53 196.571 308.063 194.59 301.359 190.629C294.806 186.514 285.816 179.657 274.387 170.057C257.473 155.886 242.615 145.371 229.815 138.514C217.168 131.505 203.073 128 187.53 128Z" fill="#4641D9"/>
</svg>