<svg version="1.1" xmlns="http://www.w3.org/2000/svg" xmlns:xlink="http://www.w3.org/1999/xlink" x="0px" y="0px" viewBox="375 275 3227 862" style="enable-background:new 0 0 4000 1500;" xml:space="preserve">
	<polygon points="375,1125 375,375 819,375 819,497 501,497 501,690 779,690 779,810 501,810 501,1125"/>
	<path d="M857,875c0-145,117-262,262-262s262,117,262,262s-117,262-262,262S857,1020,857,875z M975,875c0,79,65,144,144,144s144-65,144-144s-65-144-144-144S975,796,975,875z"/>
	<path d="M1467,1125V875c0-145,117-262,262-262s262,117,262,262v250h-118V875c0-79-65-144-144-144s-144,65-144,144v250H1467z"/>
	<polygon points="2087,1125 2087,275 2205,275 2205,841 2439,625 2595,625 2377,825 2603,1125 2459,1125 2287,895 2205,971 2205,1125 "/>
	<path d="M2617,875c0-145,117-262,262-262c141,0,258,117,258,262v50h-248c-28,0-50-22-50-50s22-50,50-50h126c-20-60-72-102-136-102c-79,0-144,68-144,152s65,152,144,152h100v106h-100C2734,1133,2617,1017,2617,875z"/>
	<polygon points="3227,1125 3227,275 3345,275 3345,1125 "/>
	<path d="M3434,1053c0-46,38-84,84-84s84,38,84,84c0,46-38,84-84,84S3434,1099,3434,1053z"/>
</svg>
