<?xml version="1.0" standalone="no"?>
<!DOCTYPE svg PUBLIC "-//W3C//DTD SVG 20010904//EN"
 "http://www.w3.org/TR/2001/REC-SVG-20010904/DTD/svg10.dtd">
<svg version="1.0" xmlns="http://www.w3.org/2000/svg"
 width="1080.000000pt" height="276.000000pt" viewBox="0 0 1080.000000 276.000000"
 preserveAspectRatio="xMidYMid meet">

<g transform="translate(0.000000,276.000000) scale(0.100000,-0.100000)"
fill="#000000" stroke="none">
<path d="M950 2690 l0 -70 305 0 c168 0 305 -2 305 -5 0 -3 -48 -101 -107
-219 l-107 -215 -496 -3 c-486 -3 -496 -4 -551 -26 -122 -49 -215 -139 -262
-252 -22 -55 -22 -55 -25 -784 -3 -806 -4 -797 61 -905 60 -100 175 -178 296
-201 35 -6 473 -10 1235 -10 1285 0 1262 -1 1366 56 60 33 149 124 179 183 49
94 51 130 51 847 0 443 -4 690 -11 730 -16 89 -55 162 -123 230 -72 72 -147
110 -243 124 -37 5 -269 10 -515 10 l-448 0 -105 210 c-58 115 -105 214 -105
220 0 6 105 10 300 10 l300 0 0 70 0 70 -650 0 -650 0 0 -70z m787 -976 c62
-30 107 -79 141 -152 32 -70 29 -173 -8 -245 -93 -184 -337 -218 -474 -66
-101 113 -103 282 -4 394 90 102 222 128 345 69z m258 -722 c63 -29 129 -92
163 -157 24 -44 27 -61 27 -145 0 -83 -3 -101 -27 -145 -32 -62 -103 -129
-166 -158 -45 -21 -60 -22 -392 -22 l-345 0 -63 34 c-116 63 -176 162 -177
291 0 66 5 85 33 143 45 91 122 154 217 178 17 4 176 7 355 6 316 -2 326 -3
375 -25z"/>
<path d="M3810 1570 l0 -70 75 0 75 0 0 70 0 70 -75 0 -75 0 0 -70z"/>
<path d="M5670 1582 c-50 -25 -73 -72 -80 -162 l-5 -75 -47 -3 -48 -3 0 -54 0
-54 48 -3 47 -3 0 -492 0 -493 78 0 77 0 0 495 0 495 65 0 65 0 0 55 0 55 -65
0 -65 0 0 53 c0 74 15 92 79 92 l51 0 0 51 c0 45 -3 52 -22 58 -47 12 -143 6
-178 -12z"/>
<path d="M6740 920 l0 -680 75 0 75 0 0 680 0 680 -75 0 -75 0 0 -680z"/>
<path d="M7127 1593 c-4 -3 -7 -309 -7 -680 l0 -673 80 0 80 0 0 680 0 680
-73 0 c-41 0 -77 -3 -80 -7z"/>
<path d="M4455 1382 c-40 -19 -83 -59 -103 -97 -9 -17 -11 -10 -12 38 l0 57
-75 0 -75 0 0 -570 0 -570 75 0 75 0 0 465 c0 484 2 509 43 543 23 19 83 26
115 13 58 -24 57 -13 60 -538 l3 -483 74 0 75 0 0 478 c0 504 -4 559 -48 617
-43 58 -138 80 -207 47z"/>
<path d="M5036 1388 c-54 -15 -119 -81 -135 -140 -8 -28 -12 -82 -10 -135 6
-126 32 -175 177 -326 72 -75 121 -136 134 -165 29 -65 35 -168 13 -215 -34
-72 -128 -69 -155 5 -7 18 -14 77 -17 130 l-6 98 -73 0 -74 0 0 -49 c0 -88 21
-204 46 -253 37 -73 88 -102 186 -107 96 -4 153 15 197 65 83 94 80 300 -6
437 -14 23 -72 87 -128 142 -56 55 -109 114 -117 130 -45 87 -46 198 -2 242
29 29 86 31 113 4 24 -24 41 -103 41 -191 l0 -70 70 0 70 0 0 88 c0 99 -19
185 -52 237 -47 72 -160 102 -272 73z"/>
<path d="M6189 1384 c-62 -19 -113 -76 -136 -151 -16 -51 -18 -101 -18 -428 0
-334 2 -375 18 -423 38 -108 103 -152 227 -152 127 0 193 46 227 158 16 50 18
102 18 422 0 413 -5 446 -72 520 -57 64 -162 86 -264 54z m149 -137 c38 -40
43 -104 40 -463 -3 -315 -4 -342 -23 -379 -35 -71 -109 -73 -149 -5 -20 33
-21 53 -24 370 -4 385 -1 428 35 470 32 39 88 42 121 7z"/>
<path d="M7666 1389 c-89 -22 -145 -99 -165 -229 -14 -83 -14 -603 -1 -695 15
-99 49 -167 101 -202 36 -24 55 -29 122 -32 99 -4 143 9 190 55 68 68 71 85
75 496 4 394 -1 448 -49 525 -44 71 -169 108 -273 82z m133 -138 c38 -38 42
-87 39 -465 -3 -329 -5 -364 -21 -389 -42 -64 -118 -60 -152 8 -19 38 -20 60
-20 410 0 334 2 373 17 402 10 18 26 37 35 42 29 17 81 13 102 -8z"/>
<path d="M10104 1390 c-46 -10 -91 -46 -114 -88 l-19 -37 -1 58 0 57 -80 0
-80 0 0 -570 0 -570 80 0 80 0 0 466 c0 297 4 472 10 484 15 28 88 68 138 76
l42 7 0 63 c0 68 0 68 -56 54z"/>
<path d="M10473 1391 c-93 -24 -146 -93 -168 -217 -17 -96 -20 -583 -4 -701
13 -103 49 -176 102 -211 35 -23 53 -27 129 -30 75 -3 94 -1 133 18 56 27 88
73 112 160 15 56 18 110 18 400 0 291 -2 344 -18 400 -23 84 -57 134 -107 160
-45 23 -147 34 -197 21z m117 -131 c10 -5 26 -29 35 -53 14 -37 16 -89 13
-414 -3 -360 -4 -372 -24 -400 -45 -60 -117 -52 -151 15 -16 34 -18 69 -18
397 0 383 4 419 48 450 25 17 70 20 97 5z"/>
<path d="M3883 1383 l-73 -4 0 -569 0 -570 75 0 75 0 0 575 c0 316 -1 574 -2
573 -2 -1 -36 -4 -75 -5z"/>
<path d="M8198 1382 c-50 -3 -58 -6 -58 -23 0 -23 117 -1039 125 -1086 l6 -33
64 0 c74 0 65 -15 90 150 9 58 36 235 60 394 25 158 45 299 45 312 0 13 5 24
10 24 6 0 10 -5 10 -11 0 -13 86 -688 100 -789 5 -36 10 -68 10 -72 0 -5 31
-8 69 -8 l70 0 6 42 c5 40 17 141 95 793 16 138 32 262 35 278 l5 27 -63 0
-63 0 -32 -342 c-18 -189 -35 -380 -38 -425 -4 -46 -10 -83 -14 -83 -3 0 -14
60 -23 133 -19 146 -95 671 -102 702 -4 18 -11 20 -69 17 l-64 -4 -10 -61 c-6
-34 -31 -215 -57 -402 -50 -371 -53 -390 -61 -382 -3 3 -12 77 -20 164 -26
300 -63 686 -66 687 -2 0 -29 0 -60 -2z"/>
<path d="M9100 710 l0 -680 75 0 75 0 0 143 1 142 20 -28 c29 -38 70 -57 124
-57 61 0 107 21 140 63 55 73 58 102 63 479 4 365 -3 459 -37 526 -32 61 -64
85 -125 90 -70 6 -120 -12 -154 -54 l-27 -34 -5 42 -5 43 -72 3 -73 3 0 -681z
m299 550 c43 -22 46 -56 46 -450 0 -342 -2 -378 -18 -408 -36 -66 -113 -67
-152 -2 -19 33 -20 54 -23 380 -4 380 1 435 45 470 27 21 73 26 102 10z"/>
</g>
</svg>
