<?xml version="1.0" encoding="UTF-8" standalone="no"?>
<!DOCTYPE svg PUBLIC "-//W3C//DTD SVG 1.1//EN" "http://www.w3.org/Graphics/SVG/1.1/DTD/svg11.dtd">
<svg
  xmlns="http://www.w3.org/2000/svg"
  xmlns:xlink="http://www.w3.org/1999/xlink"
  viewBox="0 0 40 40"
><defs><rect id="a" width="100%" height="100%" rx="20" /><linearGradient
      id="b"
      x1="90.374%"
      x2="78.604%"
      y1="68.198%"
      y2="68.198%"
    ><stop offset="0%" stop-color="#5EC1F9" /><stop
        offset="100%"
        stop-color="#5EB8F9"
      /></linearGradient></defs><g fill="none" fill-rule="evenodd"><use
      fill="#FFE411"
      xlink:href="#a"
    /><path
      fill="url(#b)"
      d="M.989 20.83a.52.52 0 0 1-.054.01l1.72 1.677c1.654-.152 3.273-.587 4.465-1.018 1.193-.432 2.174-.987 2.945-1.667a6.227 6.227 0 0 0 1.713-2.45c.37-.954.555-2.055.555-3.303V7.915c0-1.39.005-2.595.015-3.614.01-1.02.016-1.94.016-2.763L10.44.003c0 .821-.005 1.741-.015 2.76-.01 1.019-.015 2.224-.015 3.614v6.164c0 1.248-.185 2.349-.555 3.302a6.227 6.227 0 0 1-1.713 2.45c-.77.68-1.752 1.236-2.945 1.667-1.177.426-2.58.716-4.208.87z"
      transform="translate(12.949 9.359)"
    /><path
      fill="#FFF"
      d="M23.39 9.359c0 .822-.006 1.743-.016 2.762-.01 1.02-.015 2.225-.015 3.615V21.9c0 1.248-.185 2.349-.556 3.302a6.227 6.227 0 0 1-1.712 2.45c-.771.68-1.753 1.236-2.945 1.667-1.192.431-2.615.723-4.269.875l-.928-3.987a16.72 16.72 0 0 0 2.237-.404 4.66 4.66 0 0 0 1.674-.799c.507-.395.89-.892 1.15-1.491.258-.599.387-1.39.387-2.374 0-.792.003-1.626.008-2.504.005-.877.007-1.783.007-2.716 0-1.624-.007-2.915-.022-3.874-.016-.959-.028-1.854-.038-2.686h5.037z"
    /></g></svg>
