<svg xmlns="http://www.w3.org/2000/svg" width="158" height="25" viewBox="-1 -1 158 25" fill="none">
<path fill-rule="evenodd" clip-rule="evenodd" d="M0.000100543 16.1215C-0.00024775 16.1302 0.000448838 16.1393 0.000100545 16.148H3.86673C4.29864 9.29958 10.0075 3.87248 16.9576 3.87248C23.8992 3.87248 29.591 9.29824 30.0351 16.148H33.915C33.474 7.14851 26.0556 -3.98674e-07 16.9578 0C7.8688 3.98287e-07 0.453969 7.13432 0.000100543 16.1215Z" fill="#0080FF"/>
<path d="M33.9146 17.8389C33.8434 19.3177 33.5832 20.7455 33.1599 22.1001L0.754725 22.1001C0.3314 20.7455 0.0712728 19.3176 7.46404e-08 17.8389L33.9146 17.8389Z" fill="#030712"/>
<path fill-rule="evenodd" clip-rule="evenodd" d="M5.56869 16.1476H10.1874C10.606 12.78 13.4877 10.1746 16.9572 10.1746C20.4184 10.1746 23.2802 12.7915 23.7138 16.1476L28.3457 16.1476C27.9093 10.2126 22.9876 5.56321 16.9571 5.56321C10.9221 5.56321 5.99938 10.2223 5.56869 16.1476Z" fill="#E63948"/>
<path fill-rule="evenodd" clip-rule="evenodd" d="M11.9033 16.1476H21.9981C21.5843 13.712 19.4993 11.8529 16.9569 11.8529C14.4063 11.8529 12.308 13.7095 11.9033 16.1476Z" fill="#FEC61A"/>
<path d="M58.0497 22.5001H44.4297V1.23006H48.5697V18.5401H58.0497V22.5001Z" fill="#030712"/>
<path d="M59.8926 18.4801C59.8926 15.8401 61.8426 14.3701 64.3026 14.0101L67.9326 13.4701C68.7726 13.3501 69.0426 12.9301 69.0426 12.4201C69.0426 11.3701 68.2326 10.5001 66.5526 10.5001C64.8126 10.5001 63.8526 11.6101 63.7326 12.9001L60.1926 12.1501C60.4326 9.84006 62.5626 7.29006 66.5226 7.29006C71.2026 7.29006 72.9426 9.93006 72.9426 12.9001V20.1601C72.9426 20.9401 73.0326 21.9901 73.1226 22.5001H69.4626C69.3726 22.1101 69.3126 21.3001 69.3126 20.7301C68.5626 21.9001 67.1526 22.9201 64.9626 22.9201C61.8126 22.9201 59.8926 20.7901 59.8926 18.4801ZM65.8026 19.9501C67.4826 19.9501 69.0426 19.1401 69.0426 16.5301V15.8701L65.7126 16.3801C64.6926 16.5301 63.8826 17.1001 63.8826 18.2401C63.8826 19.1101 64.5126 19.9501 65.8026 19.9501Z" fill="#030712"/>
<path d="M81.4966 3.33006V7.74006H84.4666V11.2801H81.4966V17.4601C81.4966 18.7501 82.0966 19.1701 83.2366 19.1701C83.7166 19.1701 84.2566 19.1101 84.4666 19.0501V22.3501C84.1066 22.5001 83.3866 22.7101 82.2166 22.7101C79.3366 22.7101 77.5366 21.0001 77.5366 18.1501V11.2801H74.8666V7.74006H75.6166C77.1766 7.74006 77.8966 6.72006 77.8966 5.40006V3.33006H81.4966Z" fill="#030712"/>
<path d="M91.5459 22.5001H87.5559V7.74006H91.5459V22.5001ZM87.0759 2.91006C87.0759 1.53006 88.1859 0.420057 89.5359 0.420057C90.9159 0.420057 91.9959 1.53006 91.9959 2.91006C91.9959 4.23006 90.9159 5.34006 89.5359 5.34006C88.1859 5.34006 87.0759 4.23006 87.0759 2.91006Z" fill="#030712"/>
<path d="M100.438 3.33006V7.74006H103.408V11.2801H100.438V17.4601C100.438 18.7501 101.038 19.1701 102.178 19.1701C102.658 19.1701 103.198 19.1101 103.408 19.0501V22.3501C103.048 22.5001 102.328 22.7101 101.158 22.7101C98.2776 22.7101 96.4776 21.0001 96.4776 18.1501V11.2801H93.8076V7.74006H94.5576C96.1176 7.74006 96.8376 6.72006 96.8376 5.40006V3.33006H100.438Z" fill="#030712"/>
<path d="M116.245 22.5001C116.185 22.2001 116.125 21.5101 116.125 20.9101C115.315 22.2901 113.605 22.8901 112.045 22.8901C108.475 22.8901 106.435 20.2801 106.435 17.0701V7.74006H110.425V16.2601C110.425 17.9101 111.265 19.2301 113.125 19.2301C114.895 19.2301 115.915 18.0301 115.915 16.3201V7.74006H119.905V19.8301C119.905 20.9701 119.995 21.9901 120.055 22.5001H116.245Z" fill="#030712"/>
<path d="M137.874 0.780057V19.8301C137.874 20.8201 137.934 21.9001 137.994 22.5001H134.184C134.124 22.2001 134.034 21.4801 134.034 20.7901C133.374 21.9601 131.874 22.8601 129.894 22.8601C125.694 22.8601 122.694 19.5601 122.694 15.0901C122.694 10.7701 125.604 7.38006 129.774 7.38006C132.324 7.38006 133.524 8.43006 133.944 9.21006V0.780057H137.874ZM126.714 15.0901C126.714 17.7301 128.274 19.2901 130.374 19.2901C132.414 19.2901 134.004 17.7301 134.004 15.0601C134.004 12.4201 132.414 10.9501 130.374 10.9501C128.334 10.9501 126.714 12.4501 126.714 15.0901Z" fill="#030712"/>
<path d="M144.813 13.4401H151.413C151.353 11.9701 150.393 10.5301 148.113 10.5301C146.043 10.5301 144.903 12.0901 144.813 13.4401ZM151.803 17.2801L155.133 18.2701C154.383 20.8201 152.043 22.9501 148.413 22.9501C144.363 22.9501 140.793 20.0401 140.793 15.0601C140.793 10.3501 144.273 7.29006 148.053 7.29006C152.613 7.29006 155.343 10.2001 155.343 14.9401C155.343 15.5101 155.283 16.1101 155.283 16.1701H144.723C144.813 18.1201 146.463 19.5301 148.443 19.5301C150.303 19.5301 151.323 18.6001 151.803 17.2801Z" fill="#030712"/>
</svg>