<svg width="729" height="256" viewBox="0 0 729 256" fill="none" xmlns="http://www.w3.org/2000/svg">
<path d="M118.299 169.686H13L42.3371 23H85.8189L63.8161 133.224H125.529L118.299 169.686Z" fill="#FF0088"/>
<path d="M84.3913 86.6856L189.691 86.6856L160.353 233.371L116.872 233.371L138.875 123.147L77.1618 123.147L84.3913 86.6856Z" fill="#810045"/>
<path d="M303.232 179H241.492V76.3449H258.797V163.308H303.232V179Z" fill="white"/>
<path d="M351.666 179.587C339.836 179.587 330.084 176.116 322.409 169.174C314.735 162.233 310.897 152.456 310.897 139.844C310.897 127.624 314.686 117.994 322.263 110.954C329.84 103.915 339.641 100.396 351.666 100.396C363.594 100.396 373.346 103.94 380.923 111.028C388.5 118.116 392.288 127.721 392.288 139.844C392.288 145.662 391.433 150.843 389.722 155.389C388.06 159.887 385.738 163.773 382.756 167.048C379.823 170.274 376.377 172.89 372.417 174.894C366.307 178.022 359.39 179.587 351.666 179.587ZM351.666 165.508C358.314 165.508 363.936 163.26 368.531 158.762C373.126 154.265 375.423 148.057 375.423 140.138C375.423 132.219 373.126 126.01 368.531 121.513C363.936 117.016 358.314 114.767 351.666 114.767C345.214 114.767 339.616 116.918 334.875 121.22C330.133 125.522 327.762 131.828 327.762 140.138C327.762 148.448 330.084 154.754 334.728 159.056C339.372 163.357 345.018 165.508 351.666 165.508Z" fill="white"/>
<path d="M439.949 179.733C431.737 179.733 424.869 177.949 419.345 174.381C413.381 170.274 409.08 165.166 406.44 159.056C403.849 152.945 402.554 146.493 402.554 139.698C402.554 131.29 404.191 124.153 407.466 118.287C410.791 112.421 415.239 107.948 420.812 104.868C426.433 101.789 432.715 100.249 439.656 100.249C452.268 100.249 461.507 104.991 467.373 114.474V70.1856H484.238V179H467.373V165.655C461.605 175.04 452.464 179.733 439.949 179.733ZM443.469 165.655C450.997 165.655 456.863 163.162 461.067 158.176C465.271 153.19 467.373 147.226 467.373 140.284C467.373 133.343 465.271 127.33 461.067 122.246C456.863 117.163 450.997 114.621 443.469 114.621C435.843 114.621 430.002 117.04 425.944 121.88C421.887 126.719 419.712 132.854 419.418 140.284C419.614 147.715 421.667 153.801 425.578 158.542C429.488 163.284 435.452 165.655 443.469 165.655Z" fill="white"/>
<path d="M518.208 88.9568C515.715 88.9568 513.442 88.0769 511.389 86.3171C509.385 84.5084 508.382 81.9665 508.382 78.6913C508.382 75.2206 509.385 72.6542 511.389 70.9922C513.393 69.2813 515.666 68.4258 518.208 68.4258C520.75 68.4258 523.023 69.2813 525.027 70.9922C527.031 72.6542 528.034 75.2206 528.034 78.6913C528.034 81.4777 527.154 83.8974 525.394 85.9505C523.634 87.9547 521.239 88.9568 518.208 88.9568ZM526.567 179H509.849V100.982H526.567V179Z" fill="white"/>
<path d="M626.169 179H609.304V135.152C609.304 129.774 607.789 125.277 604.758 121.66C601.727 118.042 596.985 116.234 590.533 116.234C583.396 116.82 578.019 119.045 574.401 122.906C570.784 126.768 568.78 131.632 568.389 137.498V179H551.524V100.982H568.389V115.94C573.766 105.577 583.347 100.396 597.132 100.396C607.007 100.396 614.315 103.255 619.056 108.975C623.798 114.694 626.169 121.855 626.169 130.459V179Z" fill="white"/>
<path d="M681.465 179.587C672.666 179.587 665.309 177.802 659.394 174.234C653.479 170.665 649.031 165.899 646.049 159.935C643.067 153.972 641.576 147.372 641.576 140.138C641.576 131.534 643.312 124.324 646.782 118.507C650.693 112.299 655.606 107.752 661.521 104.868C667.484 101.984 673.986 100.493 681.025 100.396C705.565 100.396 717.834 113.692 717.834 140.284L717.541 146.444H658.588C660.445 153.336 663.525 158.322 667.827 161.402C672.177 164.433 677.163 165.948 682.785 165.948C691.193 165.948 698.525 162.917 704.782 156.856L713.728 166.388C705.613 175.187 694.859 179.587 681.465 179.587ZM702.876 134.125C702.192 127.184 699.87 122.075 695.91 118.8C691.951 115.525 687.038 113.887 681.172 113.887C674.328 113.887 669 115.769 665.187 119.533C661.374 123.297 659.076 128.161 658.294 134.125H702.876Z" fill="white"/>
</svg>
