<?xml version="1.0" encoding="UTF-8" standalone="no"?><!DOCTYPE svg PUBLIC "-//W3C//DTD SVG 1.1//EN" "http://www.w3.org/Graphics/SVG/1.1/DTD/svg11.dtd"><svg width="100%" height="100%" viewBox="0 0 3927 1067" version="1.1" xmlns="http://www.w3.org/2000/svg" xmlns:xlink="http://www.w3.org/1999/xlink" xml:space="preserve" xmlns:serif="http://www.serif.com/" style="fill-rule:evenodd;clip-rule:evenodd;stroke-linejoin:round;stroke-miterlimit:2;"><path id="Word" d="M1548.44,848.082l-354.123,0l-0,-588.803l99.255,0l0,498.801l254.868,-0l-0,90.002Zm277.579,3.365c-67.853,-0 -123.789,-19.907 -167.809,-59.722c-44.02,-39.814 -66.03,-95.89 -66.03,-168.229c-0,-70.096 21.729,-125.331 65.189,-165.706c43.459,-40.375 99.676,-60.563 168.65,-60.563c68.413,0 124.349,20.328 167.809,60.983c43.459,40.656 65.189,95.751 65.189,165.286c-0,33.365 -4.837,63.016 -14.51,88.951c-9.673,25.936 -22.992,48.226 -39.955,66.872c-16.963,18.645 -36.8,33.716 -59.511,45.211c-35.048,17.945 -74.722,26.917 -119.022,26.917Zm-0,-80.75c38.132,-0 70.376,-12.898 96.732,-38.693c26.356,-25.795 39.534,-61.404 39.534,-106.826c-0,-45.422 -13.178,-81.03 -39.534,-106.826c-26.356,-25.795 -58.6,-38.692 -96.732,-38.692c-37.011,-0 -69.115,12.337 -96.312,37.01c-27.197,24.674 -40.795,60.843 -40.795,108.508c-0,47.665 13.318,83.835 39.954,108.508c26.636,24.674 59.021,37.011 97.153,37.011Zm506.371,81.591c-47.105,0 -86.498,-10.234 -118.182,-30.702c-34.206,-23.552 -58.81,-52.852 -73.81,-87.9c-15.001,-35.048 -22.501,-72.058 -22.501,-111.031c-0,-48.226 9.463,-89.162 28.389,-122.808c18.925,-33.646 44.44,-59.301 76.544,-76.965c32.104,-17.664 68.063,-26.496 107.877,-26.496c72.339,0 125.331,27.197 158.977,81.591l0,-254.026l96.732,-0l0,624.131l-96.732,0l0,-76.544c-33.085,53.833 -85.517,80.75 -157.294,80.75Zm20.187,-80.75c43.179,-0 76.825,-14.3 100.938,-42.899c24.113,-28.599 36.169,-62.805 36.169,-102.62c0,-39.814 -12.056,-74.301 -36.169,-103.461c-24.113,-29.16 -57.759,-43.739 -100.938,-43.739c-43.74,-0 -77.245,13.878 -100.517,41.636c-23.272,27.758 -35.749,62.946 -37.431,105.564c1.121,42.619 12.897,77.526 35.328,104.723c22.431,27.197 56.637,40.796 102.62,40.796Zm428.985,-439.92c-14.299,-0 -27.267,-5.117 -38.903,-15.351c-11.636,-10.234 -17.454,-24.744 -17.454,-43.53c0,-19.907 5.748,-34.697 17.244,-44.37c11.496,-9.673 24.533,-14.51 39.113,-14.51c14.58,0 27.618,4.837 39.114,14.51c11.495,9.673 17.243,24.463 17.243,44.37c0,15.982 -5.047,29.791 -15.14,41.427c-10.094,11.636 -23.833,17.454 -41.217,17.454Zm47.946,516.464l-95.891,0l-0,-447.49l95.891,-0l-0,447.49Zm571.139,0l-96.732,0l-0,-251.503c-0,-30.842 -8.692,-56.637 -26.076,-77.385c-17.383,-20.749 -44.58,-31.123 -81.591,-31.123c-40.936,3.365 -71.778,16.122 -92.526,38.272c-20.748,22.151 -32.244,50.049 -34.487,83.695l-0,238.044l-96.732,0l-0,-447.49l96.732,-0l-0,85.797c30.842,-59.441 85.797,-89.162 164.865,-89.162c56.637,0 98.554,16.403 125.751,49.207c27.197,32.805 40.796,73.881 40.796,123.229l-0,278.419Zm317.113,3.365c-50.469,-0 -92.667,-10.234 -126.593,-30.702c-33.926,-20.468 -59.441,-47.805 -76.545,-82.012c-17.103,-34.207 -25.655,-72.058 -25.655,-113.555c0,-49.347 9.954,-90.704 29.861,-124.069c22.431,-35.609 50.679,-61.684 84.746,-78.227c34.066,-16.542 71.287,-25.094 111.662,-25.655c140.752,0 211.128,76.264 211.128,228.792l-1.682,35.329l-338.141,-0c10.654,39.534 28.388,68.062 53.202,85.586c24.814,17.524 53.343,26.286 85.587,26.286c48.226,0 90.283,-17.384 126.172,-52.151l51.31,54.675c-46.543,50.469 -108.228,75.703 -185.052,75.703Zm122.807,-260.756c-3.925,-39.814 -17.243,-69.114 -39.954,-87.9c-22.711,-18.785 -50.89,-28.178 -84.536,-28.178c-39.253,-0 -69.815,10.795 -91.685,32.384c-21.87,21.589 -35.048,49.488 -39.534,83.694l255.709,0Z" style="fill:#737373;"/><g id="Lettermark"><path d="M534.002,742.245l-529.835,0l147.615,-738.078l218.788,-0l-110.712,554.613l310.52,-0l-36.376,183.465Z" style="fill:#f08;fill-rule:nonzero;"/><path d="M372.818,323.9l529.835,0l-147.616,738.078l-218.787,0l110.712,-554.613l-310.52,0l36.376,-183.465Z" style="fill:#a40058;fill-rule:nonzero;"/></g></svg>