<svg viewBox="0 0 425 283" version="1.1" xmlns="http://www.w3.org/2000/svg" xmlns:xlink="http://www.w3.org/1999/xlink" xml:space="preserve" xmlns:serif="http://www.serif.com/" style="fill-rule:evenodd;clip-rule:evenodd;stroke-linejoin:round;stroke-miterlimit:2;">
<g transform="matrix(1,0,0,1,-44,-115)">
<path d="M281.44,397.667L438.32,397.667C443.326,397.667 448.118,395.908 452.453,393.427C456.789,390.946 461.258,387.831 463.76,383.533C466.262,379.236 468.002,374.36 468,369.399C467.998,364.437 466.266,359.563 463.76,355.268L357.76,172.947C355.258,168.65 352.201,165.534 347.867,163.053C343.532,160.573 337.325,158.813 332.32,158.813C327.315,158.813 322.521,160.573 318.187,163.053C313.852,165.534 310.795,168.65 308.293,172.947L281.44,219.587L227.733,129.13C225.229,124.834 222.176,120.307 217.84,117.827C213.504,115.346 208.713,115 203.707,115C198.701,115 193.909,115.346 189.573,117.827C185.238,120.307 180.771,124.834 178.267,129.13L46.827,355.268C44.321,359.563 44.002,364.437 44,369.399C43.998,374.36 44.325,379.235 46.827,383.533C49.329,387.83 53.798,390.946 58.133,393.427C62.469,395.908 67.26,397.667 72.267,397.667L171.2,397.667C210.401,397.667 238.934,380.082 258.827,346.787L306.88,263.4L332.32,219.587L410.053,352.44L306.88,352.44L281.44,397.667ZM169.787,352.44L100.533,352.44L203.707,174.36L256,263.4L221.361,323.784C208.151,345.387 193.089,352.44 169.787,352.44Z" style="fill:rgb(0,220,130);fill-rule:nonzero;"/>
</g>
</svg>