<svg width="1724" height="331" viewBox="0 0 1724 331" fill="none" xmlns="http://www.w3.org/2000/svg">
<path d="M1473.6 287.844L1522.17 223.688C1541.05 242.575 1564.44 252.168 1591.72 252.168C1620.2 252.168 1634.59 243.774 1634.59 226.986C1634.59 218.292 1626.8 211.696 1610.91 207.499C1596.52 204.202 1578.83 199.705 1557.54 194.009C1537.46 188.912 1520.97 179.319 1507.48 165.229C1493.99 151.738 1487.39 130.453 1487.39 101.673C1487.39 79.7878 1492.79 61.2007 1503.88 45.9112C1514.97 30.9216 1529.36 19.8293 1547.35 12.3345C1565.34 4.8397 1585.12 1.24219 1607.01 1.24219C1618.7 1.24219 1631.29 3.04094 1644.18 6.33866C1658.27 10.8355 1670.27 15.932 1680.76 21.9279C1692.45 28.5233 1702.64 36.0181 1711.94 44.1125L1659.17 96.5762C1643.88 84.8843 1627.1 79.1882 1608.81 79.1882C1586.92 79.1882 1576.13 85.184 1576.13 97.4755C1576.13 108.268 1584.22 116.063 1600.41 120.56C1617.5 125.056 1635.19 129.553 1654.08 134.05C1674.16 139.147 1690.65 148.44 1703.54 161.631C1717.03 175.122 1723.63 196.407 1723.63 225.787C1723.63 247.671 1717.93 266.259 1706.24 282.148C1694.55 298.336 1678.96 310.328 1659.77 317.823C1639.99 325.917 1619.9 330.114 1599.51 330.114C1582.73 330.114 1567.14 328.615 1552.45 325.917C1538.06 323.219 1524.87 318.722 1513.17 312.726C1499.68 306.131 1486.49 297.737 1473.6 287.844Z" fill="#636CFF"/>
<path d="M1136.65 249.468C1120.46 224.286 1112.37 196.105 1112.37 164.927C1112.37 141.843 1117.16 119.958 1126.46 99.5721C1135.75 79.1862 1148.64 61.7983 1165.13 47.1084C1181.62 32.4186 1200.51 20.7267 1221.79 12.6323C1243.08 4.53793 1265.26 0.640625 1288.05 0.640625C1311.13 0.640625 1333.31 4.53793 1354.6 12.6323C1375.58 20.1271 1394.47 31.5192 1411.26 46.8086C1427.75 62.0981 1440.64 79.7858 1449.93 99.5721C1459.23 119.958 1464.02 141.843 1464.02 164.927C1464.02 188.91 1459.53 210.795 1450.23 230.282C1440.94 250.368 1427.75 268.055 1411.26 283.345C1394.17 298.634 1375.29 310.026 1354.6 317.821C1333.31 325.915 1311.13 330.112 1288.05 330.112C1257.77 330.112 1228.69 322.917 1201.41 308.527C1174.12 294.137 1152.54 274.351 1136.65 249.468ZM1288.05 243.173C1309.63 243.173 1328.52 235.378 1344.41 220.089C1360.3 204.799 1368.39 186.212 1368.39 164.927C1368.39 150.837 1364.79 137.946 1357.3 126.254C1349.5 114.262 1339.61 104.968 1327.62 98.0731C1315.33 91.1779 1302.14 87.5804 1288.05 87.5804C1274.26 87.5804 1261.06 91.1779 1248.77 98.0731C1236.78 104.968 1226.89 114.262 1219.09 126.254C1211.6 137.946 1208 150.837 1208 164.927C1208 186.212 1216.1 204.799 1231.98 220.089C1247.87 235.378 1266.76 243.173 1288.05 243.173Z" fill="#636CFF"/>
<path d="M910.624 131.652V320.521H814.39V131.652C812.891 103.771 800.9 89.0814 778.115 88.182H772.719C748.436 89.0814 736.145 106.17 736.145 138.847V320.521H640.211V138.847C640.211 51.9071 684.28 6.03887 772.719 1.24219H778.115C813.191 3.34073 841.372 11.7349 862.657 26.4247C883.642 11.7349 911.823 3.34073 946.899 1.24219H952.295C1040.73 6.03887 1084.8 51.9071 1084.8 138.847V320.521H988.869V138.847C988.869 106.17 976.578 89.0814 952.295 88.182H946.899C924.114 89.0814 912.123 103.771 910.624 131.652Z" fill="#636CFF"/>
<path d="M361.711 287.844L410.277 223.688C429.164 242.575 452.548 252.168 479.829 252.168C508.309 252.168 522.699 243.774 522.699 226.986C522.699 218.292 514.905 211.696 499.016 207.499C484.626 204.202 466.938 199.705 445.653 194.009C425.567 188.912 409.078 179.319 395.587 165.229C382.097 151.738 375.501 130.453 375.501 101.673C375.501 79.7878 380.898 61.2007 391.99 45.9112C403.082 30.9216 417.472 19.8293 435.46 12.3345C453.447 4.8397 473.234 1.24219 495.119 1.24219C506.81 1.24219 519.402 3.04094 532.293 6.33866C546.383 10.8355 558.375 15.932 568.867 21.9279C580.559 28.5233 590.752 36.0181 600.046 44.1125L547.282 96.5762C531.993 84.8843 515.205 79.1882 496.917 79.1882C475.032 79.1882 464.24 85.184 464.24 97.4755C464.24 108.268 472.334 116.063 488.523 120.56C505.611 125.056 523.299 129.553 542.186 134.05C562.272 139.147 578.761 148.44 591.652 161.631C605.142 175.122 611.738 196.407 611.738 225.787C611.738 247.671 606.042 266.259 594.35 282.148C582.658 298.336 567.069 310.328 547.882 317.823C528.096 325.917 508.01 330.114 487.624 330.114C470.835 330.114 455.246 328.615 440.556 325.917C426.166 323.219 412.975 318.722 401.284 312.726C387.793 306.131 374.602 297.737 361.711 287.844Z" fill="#636CFF"/>
<path d="M24.7597 249.468C8.57096 224.286 0.476562 196.105 0.476562 164.927C0.476562 141.843 5.27324 119.958 14.5668 99.5721C23.8604 79.1862 36.7514 61.7983 53.24 47.1084C69.7286 32.4186 88.6155 20.7267 109.901 12.6323C131.186 4.53793 153.371 0.640625 176.155 0.640625C199.239 0.640625 221.424 4.53793 242.709 12.6323C263.694 20.1271 282.581 31.5192 299.37 46.8086C315.858 62.0981 328.749 79.7858 338.043 99.5721C347.336 119.958 352.133 141.843 352.133 164.927C352.133 188.91 347.636 210.795 338.343 230.282C329.049 250.368 315.858 268.055 299.37 283.345C282.281 298.634 263.394 310.026 242.709 317.821C221.424 325.915 199.239 330.112 176.155 330.112C145.876 330.112 116.796 322.917 89.5149 308.527C62.2338 294.137 40.6487 274.351 24.7597 249.468ZM176.155 243.173C197.74 243.173 216.627 235.378 232.516 220.089C248.405 204.799 256.499 186.212 256.499 164.927C256.499 150.837 252.902 137.946 245.407 126.254C237.612 114.262 227.719 104.968 215.727 98.0731C203.436 91.1779 190.245 87.5804 176.155 87.5804C162.364 87.5804 149.174 91.1779 136.882 98.0731C124.89 104.968 114.997 114.262 107.203 126.254C99.7078 137.946 96.1103 150.837 96.1103 164.927C96.1103 186.212 104.205 204.799 120.094 220.089C135.983 235.378 154.87 243.173 176.155 243.173Z" fill="#636CFF"/>
</svg>
