<svg width="487" height="202" xmlns="http://www.w3.org/2000/svg">
    <defs>
        <linearGradient x1="0%" y1="49.185%" x2="100%" y2="50.815%" id="a">
            <stop stop-color="#594666" offset="0%"/>
            <stop stop-color="#341D44" offset="100%"/>
        </linearGradient>
    </defs>
    <path d="M81.785 80.258c2.765 2.856 4.148 7.491 4.094 14.066 0 6.521-1.329 11.318-4.04 14.39-2.713 3.072-6.966 4.581-12.709 4.581h-9.092v13.258H46V76h21.96c6.487 0 11.06 1.401 13.825 4.258zm-10.581 19.24v-8.3c0-1.347-.266-2.21-.798-2.694-.532-.432-1.489-.701-2.871-.701H60.09v15.09h7.444c1.382 0 2.34-.215 2.871-.7.532-.54.798-1.401.798-2.695zM99.142 76h21.784l13.261 50.553h-14.06l-9.747-36.957h-.692l-9.747 36.957h-14.06L99.142 76zm338.86 23.475c2.665 2.368 3.998 6.074 3.998 11.068 0 5.611-1.59 9.678-4.665 12.2-3.128 2.523-8.152 3.81-15.124 3.81-6.818 0-13.124-.875-18.968-2.574l1.948-11.222a52.734 52.734 0 0 0 15.482 2.316c2.666 0 4.922-.154 6.819-.463v-6.641l-7.024-.618c-4.152-.36-7.434-1.08-9.792-2.11-2.358-1.03-4.05-2.574-5.126-4.53-1.077-1.957-1.59-4.634-1.59-7.98 0-4.17.564-7.465 1.743-9.884 1.128-2.42 3.025-4.17 5.64-5.251 2.614-1.081 6.152-1.596 10.663-1.596 5.998 0 11.791.67 17.482 2.06l-1.692 10.913c-2.614-.515-4.87-.875-6.818-1.133-1.948-.257-3.948-.36-6.05-.36-2.614 0-4.768.154-6.46.412v6.64l6.306.516c6.152.566 10.561 2.007 13.227 4.427zm-267.921 3.149h.053V76h14.045v50.553h-13.832l-12.928-21.019c-.744-1.293-1.223-2.317-1.542-3.18-.266-.862-.426-1.67-.426-2.425h-.479v26.624h-14.044V76h13.885l12.82 21.019a20.938 20.938 0 0 1 1.544 3.126c.266.862.425 1.67.425 2.479h.479zm107.222-3.098c2.666 2.368 3.999 6.075 4.05 11.017 0 5.611-1.538 9.678-4.665 12.2-3.127 2.523-8.151 3.81-15.124 3.81-6.818 0-13.124-.875-18.968-2.574l1.948-11.222a52.144 52.144 0 0 0 15.431 2.316c2.717 0 4.973-.154 6.87-.463v-6.641l-7.024-.618c-4.152-.36-7.433-1.08-9.792-2.11-2.358-1.03-4.1-2.574-5.126-4.53-1.077-1.957-1.59-4.634-1.59-7.98 0-4.17.616-7.465 1.744-9.884 1.127-2.42 3.024-4.17 5.639-5.251C253.31 76.515 256.848 76 261.359 76c5.947 0 11.74.67 17.43 2.06l-1.69 10.964a109.783 109.783 0 0 0-6.82-1.132c-1.947-.258-3.947-.36-6.049-.36-2.614 0-4.768.154-6.46.411v6.641l6.306.515c6.152.566 10.561 2.008 13.227 4.427zm38.428 14.98a38.31 38.31 0 0 0 5.65-1.286l.976 11.325a29.698 29.698 0 0 1-6.215 1.545c-2.26.309-4.83.463-7.809.463-5.29 0-9.349-.772-12.277-2.316-2.928-1.545-4.932-4.067-6.164-7.67-1.182-3.553-1.798-8.65-1.798-15.239 0-6.692.667-11.789 1.952-15.392 1.284-3.604 3.493-6.178 6.575-7.67 3.082-1.494 7.449-2.266 13.1-2.266 2.106 0 4.417.206 6.883.566s4.315.824 5.497 1.339l-1.696 10.81c-1.54-.463-3.287-.823-5.29-1.08-2.004-.258-3.648-.412-4.984-.412-2.876 0-4.88.411-5.959 1.184-1.078.772-1.592 2.213-1.592 4.324v21.519c2.568.514 4.829.772 6.832.772 2.106 0 4.213-.155 6.319-.515zM381.336 76h14.043v50.553h-14.043V76zm-155.104 0l13.555 50.553h-14.371l-9.963-36.957h-.762l-9.962 36.957h-14.372L203.913 76h22.32zm135.664 0l13.261 50.553h-14.06l-9.747-36.957h-.692l-9.746 36.957h-14.06L340.111 76h21.784z" fill="url(#a)" fill-rule="evenodd"/>
</svg>
