<svg width="50" height="50" viewBox="0 0 50 50" fill="none" xmlns="http://www.w3.org/2000/svg">
<g clip-path="url(#clip0_1116_401)">
<path d="M28.623 25C28.623 25.9609 28.2413 26.8824 27.5619 27.5619C26.8824 28.2413 25.9609 28.623 25 28.623C24.0391 28.623 23.1176 28.2413 22.4381 27.5619C21.7587 26.8824 21.377 25.9609 21.377 25C21.377 24.0391 21.7587 23.1176 22.4381 22.4381C23.1176 21.7587 24.0391 21.377 25 21.377C25.9609 21.377 26.8824 21.7587 27.5619 22.4381C28.2413 23.1176 28.623 24.0391 28.623 25Z" fill="#050A14"/>
<path d="M41.0791 15.7129C40.2931 14.3561 39.3364 13.1057 38.2324 11.9922L34.043 14.4092C32.752 13.3064 31.2712 12.4477 29.6729 11.875C28.2752 13.2778 27.1304 14.9115 26.2891 16.7041C30.9521 16.3867 35.7666 18.0762 40.2344 21.5674L42.8711 20.0439C42.4605 18.5299 41.8583 17.0744 41.0791 15.7129Z" fill="#050A14"/>
<path d="M25 43.5645C26.5674 43.5596 28.1299 43.3545 29.6436 42.959V38.125C31.245 37.5595 32.7295 36.7056 34.0234 35.6055C33.5074 33.6932 32.6649 31.8844 31.5332 30.2588C29.4775 34.4531 25.6104 37.7783 20.3516 39.9023V42.9443C21.8675 43.3524 23.4301 43.5609 25 43.5645Z" fill="#050A14"/>
<path d="M8.9209 15.7178C8.14053 17.0776 7.53671 18.5314 7.12402 20.0439L11.3135 22.4609C11.0027 24.1309 10.9994 25.8435 11.3037 27.5146C13.2174 28.0236 15.2045 28.1987 17.1777 28.0322C14.5703 24.1553 13.6279 19.1406 14.4141 13.5254L11.7773 12.002C10.6707 13.1138 9.71079 14.3625 8.9209 15.7178Z" fill="#050A14"/>
<path d="M41.0791 34.2822C41.8604 32.9247 42.4609 31.4697 42.876 29.956L38.6914 27.539C39.0039 25.8495 39.0039 24.1406 38.7012 22.4853C36.7875 21.9763 34.8004 21.8012 32.8271 21.9677C35.4346 25.8447 36.377 30.8593 35.5908 36.4745L38.2275 37.998C39.3304 36.8841 40.2885 35.6357 41.0791 34.2822Z" fill="#00B4FF"/>
<path d="M8.9209 34.2822C9.70688 35.639 10.6636 36.8895 11.7676 38.0029L15.957 35.5859C17.248 36.6887 18.7288 37.5474 20.3271 38.1201C21.7248 36.7174 22.8696 35.0836 23.7109 33.291C19.0479 33.6084 14.2334 31.9189 9.76562 28.4277L7.12891 29.9512C7.54395 31.4648 8.14453 32.9199 8.9209 34.2822Z" fill="#00B4FF"/>
<path d="M25 6.43066C23.4326 6.43555 21.8701 6.64063 20.3564 7.03613V11.8701C18.755 12.4357 17.2705 13.2896 15.9766 14.3896C16.4926 16.302 17.3351 18.1108 18.4668 19.7363C20.5225 15.542 24.3896 12.2168 29.6484 10.0928V7.05078C28.1316 6.64742 26.5695 6.43904 25 6.43066Z" fill="#00B4FF"/>
<path d="M25 3.24219C36.9971 3.24219 46.7578 13.0029 46.7578 25C46.7578 36.9971 36.9971 46.7578 25 46.7578C13.0029 46.7578 3.24219 36.9971 3.24219 25C3.24219 13.0029 13.0029 3.24219 25 3.24219ZM25 0.0488281C18.3825 0.0488281 12.0361 2.6776 7.35686 7.35686C2.6776 12.0361 0.0488281 18.3825 0.0488281 25C0.0488281 31.6175 2.6776 37.9639 7.35686 42.6431C12.0361 47.3224 18.3825 49.9512 25 49.9512C31.6175 49.9512 37.9639 47.3224 42.6431 42.6431C47.3224 37.9639 49.9512 31.6175 49.9512 25C49.9512 18.3825 47.3224 12.0361 42.6431 7.35686C37.9639 2.6776 31.6175 0.0488281 25 0.0488281Z" fill="#00B4FF"/>
</g>
<defs>
<clipPath id="clip0_1116_401">
<rect width="50" height="50" fill="white"/>
</clipPath>
</defs>
</svg>
