<svg width="48" height="50" viewBox="0 0 48 50" fill="none" xmlns="http://www.w3.org/2000/svg">
<g clip-path="url(#clip0_1116_435)">
<path d="M41.3238 49.9169L32.3607 41.0046L32.2238 41.0242V40.9265L13.1627 22.1051L17.8595 17.5708L15.1001 1.73975L2.00784 17.9617C-0.223129 20.2093 -0.634095 23.8641 0.970638 26.5612L9.15086 40.1251C10.4033 42.2164 12.6734 43.4672 15.1197 43.4477L19.1707 43.4085L41.3238 49.9169Z" fill="#18B6F6"/>
<path d="M46.2155 17.6488L44.415 14.3263L43.4756 12.6259L43.1039 11.9614L43.0647 12.0005L38.1331 3.45955C36.9002 1.30966 34.591 -0.0193694 32.086 -3.60389e-05L27.7611 0.117433L14.8644 0.156525C12.4182 0.176071 10.1873 1.46601 8.95434 3.55727L1.10681 19.1146L15.1384 1.70054L33.5342 21.9095L30.2659 25.2125L32.223 41.0241L32.2425 40.9849V41.0241H32.2034L32.2425 41.0631L33.769 42.5485L41.186 49.7995C41.4991 50.0927 42.008 49.7409 41.7926 49.3695L37.2133 40.3595L45.1979 25.6035L45.4522 25.3103C45.5501 25.193 45.6479 25.0758 45.7263 24.9585C47.2919 22.8281 47.5071 19.9747 46.2155 17.6488Z" fill="#AC7EF4"/>
<path d="M33.5927 21.8315L15.1383 1.72021L17.7606 17.4731L13.0638 22.027L32.1836 41.0047L30.4615 25.2518L33.5927 21.8315Z" fill="white"/>
</g>
<defs>
<clipPath id="clip0_1116_435">
<rect width="47.0588" height="50" fill="white"/>
</clipPath>
</defs>
</svg>
