<svg
   xmlns="http://www.w3.org/2000/svg"
   width="683"
   height="683"
   viewBox="125 0 683 683">
  <g transform="translate(100.1264)">
    <path
       style="fill:#6361ec;stroke:none"
       d="m 25.171899,436.17674 c 39.85154,0 94.851101,-0.42374 131.719701,-0.42374 8.1314,-10.75274 16.83631,-20.82026 24.28031,-26.95759 24.94133,-20.56667 58.11066,-28.50667 89.33335,-19.23733 66.464,19.732 88.2853,102.784 32,147.06 -8.8533,6.964 -17.24876,14.79598 -30.63166,18.38192 v 127.84342 h 203 V 555 c 0,0 -40.78233,-13.16291 -51.74834,-32.15659 C 383.40526,474.40608 411.887,397.47967 474.8736,388.177 v -93.435 c -11.7613,-1.73734 -22.67104,-7.01059 -32.36834,-13.81859 -60.524,-42.48934 -43.584,-130.03067 26.6667,-150.82801 30.748,-9.10267 67.3226,-1.41413 90.6666,20.80134 7.18488,7.18488 23.68579,29.90752 25.63304,33.28026 h 122.36696 c -0.8946,-20.82 -5.4213,-41.86693 -12.768,-61.3336 -6.304,-16.7012 -15.0506,-32.367466 -25.7586,-46.666666 -8.8907,-11.873067 -19.2627,-22.925601 -30.8067,-32.260268 C 577.71456,-5.2409901 506.67192,-0.07671046 433.17196,0 H 271.8736 v 126.27 c 44.4986,25.69128 62.51762,52.01215 63.94496,81.90674 2.432,98.99067 -148.75599,121.832 -179.97479,29.33333 C 143.84535,175.07391 180.17236,137.44381 221.8736,126.27 V 0 c -22.92,0 -45.60303,2.8448639 -67.36836,10.437024 -17.60734,6.141974 -34.084,14.643975 -49.33334,25.367308 C 93.089639,44.300466 81.923639,54.362066 72.224439,65.510067 19.897529,125.65247 25.171899,199.11007 25.171899,273.51007 V 435.753 M 524.8736,682.84342 c 21.904,-1.728 42.50636,-5.68267 62.96496,-13.86667 16.7534,-6.70133 32.3987,-15.62533 46.6667,-26.7 76.952,-59.73333 73.3333,-146.36934 73.3333,-234.10001 V 232.981 c -46.35978,0 -106.51967,-0.0124 -122.36696,0 -18.31851,32.77665 -32.51,45.83997 -60.598,61.761 v 93.435 c 20.98748,12.11713 33.41627,17.3186 46.05836,33.33308 C 606.91726,467.99675 582.5416,541.33467 524.8736,555 M 25.171899,485.51 c 0,111.04134 85.660361,197.33342 196.701701,197.33342 0,-42.84342 0.13714,-85.78112 0,-127.84342 -7.39454,-1.98136 -21.19369,-7.84725 -27.36836,-11.75125 -19.56,-12.36667 -35.50244,-33.55734 -37.61364,-57.73867 z" />
  </g>
</svg>
