<svg enable-background="new 0 0 192 65" viewBox="0 0 192 65" x="0" xmlns="http://www.w3.org/2000/svg" xmlns:xlink="http://www.w3.org/1999/xlink" y="0">
    <path d="m74.2 36.9c-.3-.1-.7-.2-1-.3-.2-.1-.3-.1-.4-.2-.1 0-.3-.1-.3-.2-.4-.2-.8-.4-1.2-.7-1.7-1-2.8-2.2-2.6-4.2.3-2.5 2.2-3.8 4.6-3.9 2.4-.2 4.8.4 6.7 1.7 1.8 1.2 3.5-1.7 1.7-2.9-3.9-2.6-10.3-3.3-14 0-2 1.8-2.9 5-2.2 7.6.6 2.2 2.5 3.9 4.5 5 1.1.6 2.3 1.1 3.5 1.4.3.1.6.2.9.2.3.1.6.2.9.3.2.1.4.1.5.2h.1c.1 0 .3.1.3.1.8.4 1.6.8 2.4 1.4.3.2.1.1.4.3.2.1.3.3.5.4l.5.5c.3.3.1.1.3.5.5.8.7 1.5.7 2.5s-.4 2-1 2.7c-1.4 1.6-3.6 2.2-5.7 2.1-1.5-.1-3.1-.4-4.4-.9-1.3-.6-2.5-1.4-3.6-2.3-.7-.5-1.9-.1-2.3.6-.5.9-.1 1.8.6 2.3 2.2 1.6 4.5 2.9 7.3 3.4 2.6.4 5.1.4 7.5-.7 2.3-1 4.2-3 4.7-5.5.6-2.6-.1-5.1-1.8-7.1-2.1-2.2-5.2-3.4-8.1-4.3z" fill="#ee4d2d"/>
    <path d="m90.8 37.5c-.2.2-.4.3-.6.5 0-2.9 0-5.9 0-8.8 0-1.1 0-2.3 0-3.4 0-2.2-3.4-2.2-3.4 0v24.1 3.4c0 2.2 3.4 2.2 3.4 0 0-3 0-6 0-9.1 0-.1.1-.2.1-.4 0-.1.1-.3.1-.4s.1-.1.1-.2c-.2.5 0 0 .1-.1.2-.4.4-.8.7-1.2.4-.6.4-.7 1-1.2.8-.7 1.8-1.3 3-1.4 1.5-.1 2.8.2 3.9.9 0 0 .1 0 .1.1 0 0 0 0 .1.1s.1.1.2.2.2.2.3.3c0 0 .1.1.1.2.1.1.2.3.3.4s.3.6.2.5c.1.3.2.5.2.8v.1c-.1.3 0 1 0 1.3v3.3 6c0 2.2 3.4 2.2 3.4 0 0-1.9 0-3.8 0-5.7 0-1.6.1-3.3 0-4.9-.5-6.5-8.7-8.9-13.3-5.4z" fill="#ee4d2d"/>
    <path d="m126.6 45.3c-.1-4-2.7-7.4-6.5-8.7-3.7-1.3-8.1-.2-10.6 2.8-2.6 3.1-3.1 7.6-.9 11s6.2 5.1 10.2 4.4c4.4-.8 7.7-4.7 7.8-9.1 0-.1 0-.1 0-.2s0-.1 0-.2zm-7.5 5.9c-2.5.9-5.4.2-7.1-1.9-1.7-2-1.8-4.9-.5-7 1.4-2.2 4.1-3.3 6.6-2.8 2.9.6 5.1 3 5.1 6 0 2.5-1.7 4.9-4.1 5.7z" fill="#ee4d2d"/>
    <path d="m149.2 45.3c-.1-4-2.7-7.4-6.5-8.7-3.3-1.2-7.3-.3-9.9 2 0-.3 0-.5 0-.8 0-2.2-3.4-2.2-3.4 0v22.3 3.2c0 2.2 3.4 2.2 3.4 0 0-3.6 0-7.2 0-10.9 2.3 2.1 5.4 3 8.5 2.4 4.4-.8 7.7-4.7 7.8-9.1 0-.1 0-.1 0-.2.1-.1.1-.1.1-.2zm-7.5 5.9c-2.5.9-5.4.2-7.1-1.9-1.7-2-1.8-4.9-.5-7 1.4-2.2 4.1-3.3 6.6-2.8 2.9.6 5.1 3 5.1 6 0 2.5-1.6 4.9-4.1 5.7z" fill="#ee4d2d"/>
    <path d="m165.6 37.1c-2.3-1.3-5.5-1.4-7.9-.4-2 .8-3.5 2.4-4.4 4.4-.5 1.1-.8 2.2-.9 3.4v.4c-.2 1.8.2 3.6.9 5.2 1.5 3.4 4.9 4.8 8.4 4.9 2.3 0 4.6-.4 6.5-1.6 1.9-1.1.2-4-1.7-2.9-1.5.9-3 1.2-4.7 1.1-.6 0-1.2 0-1.7-.1-.8-.2-1.3-.3-1.9-.7-.1-.1-.3-.2-.4-.3h-.1s0 0-.1-.1c-.2-.2-.5-.4-.7-.7 0 0-.1-.1-.1-.1s0 0 0-.1c-.1-.1-.2-.2-.2-.3-.2-.2-.3-.5-.4-.8s0 0 0-.1-.1-.2-.1-.4c-.1-.2-.2-.5-.2-.8-.1-.2-.1-.5-.1-.7v-.1h12.3c.9 0 1.6-.8 1.7-1.7 0-2.7-1.5-6.1-4.2-7.5zm-7.7 3.3c.1-.1 0-.1 0 0zm-1.7 2.3c0-.1 0-.1 0 0 0-.1.1-.1.1-.2.2-.3.3-.7.5-1 0-.1.2-.3.2-.3.1-.1.2-.2.3-.3s.3-.3.4-.4.2-.2.4-.2c.7-.4 1.5-.7 2.3-.7 1.1-.1 2.1 0 3.1.4 0 0 .4.2.4.2.2.1.3.2.5.3 0 0 .3.2.3.3.1.1.3.3.4.5.1.1.1.2.2.2.1.2.2.3.3.5 0 0 .1.3.2.3 0 .1.1.3.1.4.1.2.1.5.2.7-3.4 0-6.7 0-10.1 0v-.1c.1-.3.2-.5.2-.6z" fill="#ee4d2d"/>
    <path d="m186.2 37.1c-2.3-1.3-5.5-1.4-7.9-.4-2 .8-3.5 2.4-4.4 4.4-.5 1.1-.8 2.2-.9 3.4v.4c-.2 1.8.2 3.6.9 5.2 1.5 3.4 4.9 4.8 8.4 4.9 2.3 0 4.6-.4 6.5-1.6 1.9-1.1.2-4-1.7-2.9-1.5.9-3 1.2-4.7 1.1-.6 0-1.2 0-1.7-.1-.8-.2-1.3-.3-1.9-.7-.1-.1-.3-.2-.4-.3h-.1s0 0-.1-.1c-.2-.2-.5-.4-.7-.7 0 0-.1-.1-.1-.1s0 0 0-.1c-.1-.1-.2-.2-.2-.3-.2-.2-.3-.5-.4-.8s0 0 0-.1-.1-.2-.1-.4c-.1-.2-.2-.5-.2-.8-.1-.2-.1-.5-.1-.7v-.1h12.3c.9 0 1.6-.8 1.7-1.7.1-2.7-1.4-6.1-4.2-7.5zm-7.7 3.3c.1-.1.1-.1 0 0zm-1.6 2.3c0-.1 0-.1 0 0 0-.1.1-.1.1-.2.2-.3.3-.7.5-1 0-.1.2-.3.2-.3.1-.1.2-.2.3-.3s.3-.3.4-.4.2-.2.4-.2c.7-.4 1.5-.7 2.3-.7 1.1-.1 2.1 0 3.1.4 0 0 .4.2.4.2.2.1.3.2.5.3 0 0 .3.2.3.3.1.1.3.3.4.5.1.1.1.2.2.2.1.2.2.3.3.5 0 0 .1.3.2.3 0 .1.1.3.1.4.1.2.1.5.2.7-3.4 0-6.7 0-10.1 0v-.1c0-.3.1-.5.2-.6z" fill="#ee4d2d"/>
    <path d="m52.2 17.1h-12.7c0-5.4-3-17-11.9-17.1-9.9 0-12 12.4-12 17.1h-12.8c-3.4-.1-2.8 3.4-2.8 3.4l2.5 33.7s-.1 7.4 6.4 7.6h37.3c6.3-.4 6.4-7.6 6.4-7.6l2.5-33.7s.5-3.6-2.9-3.4zm-24.6-14c7.9.2 8.7 12.9 8.8 14h-17.7c0-1.1.5-13.8 8.9-14zm9.7 43.3c-.5 6.7-7.9 6.9-9.1 6.9-5.7-.1-9.1-3.2-9.1-3.2-.2-.2-.4-.5-.4-.8 0-.5.4-.9.9-.9.2 0 .4.1.6.2.4.3 3.4 2.7 8 2.8 3.2-.1 6.7-1.7 7-5 .4-4.9-6.5-6.7-7.8-7.1s-8.2-2.2-7.9-8c .1-2.4 2.3-6.5 8-6.7 5-.1 7.8 2.3 7.8 2.3.2.2.3.4.3.7 0 .5-.4.9-.9.9-.2 0-.4-.1-.5-.2s-3-1.9-6.5-1.9c-3.9.1-5.8 2.8-5.9 5 0 3.6 4.9 5.2 5.8 5.5 4.6 1.6 10.2 3.4 9.7 9.5z" fill="#ee4d2d"/>
</svg>
