<svg width="42" height="50" viewBox="0 0 42 50" fill="none" xmlns="http://www.w3.org/2000/svg">
<g clip-path="url(#clip0_1116_452)">
<path d="M38.9611 6.65584C36.7515 3.45717 33.4044 1.22244 29.6031 0.407865C25.8017 -0.406709 21.8328 0.260299 18.5066 2.27272L6.81826 9.57792C5.25078 10.5661 3.90689 11.8707 2.87259 13.4082C1.8383 14.9457 1.13638 16.6821 0.811764 18.5065C0.269585 21.6149 0.783945 24.8154 2.2728 27.5974C1.22936 29.1111 0.5108 30.8246 0.162413 32.6299C-0.158971 34.4881 -0.109261 36.3916 0.308675 38.2305C0.726611 40.0694 1.5045 41.8074 2.59748 43.3441C7.30527 50 16.3962 51.948 23.052 47.7273L34.7403 40.2597C36.3078 39.2715 37.6517 37.9669 38.686 36.4294C39.7203 34.892 40.4222 33.1555 40.7468 31.3312C41.252 28.2753 40.7387 25.1381 39.2858 22.4026C40.3292 20.8888 41.0478 19.1754 41.3962 17.3701C41.7176 15.5119 41.6679 13.6084 41.2499 11.7695C40.832 9.93059 40.0541 8.19262 38.9611 6.65584Z" fill="#FF3E00"/>
<path d="M17.3702 43.9936C13.6364 44.9676 9.578 43.5066 7.46761 40.2598C6.80504 39.3287 6.3346 38.275 6.08375 37.1601C5.8329 36.0452 5.80666 34.8915 6.00657 33.7663C6.04086 33.4386 6.09508 33.1134 6.16891 32.7923L6.49358 32.1429L7.14293 32.4676C8.51712 33.4793 10.0545 34.248 11.6884 34.7403L12.0131 34.9027V35.3897C11.9893 35.97 12.1608 36.5416 12.5001 37.0131C12.8143 37.4766 13.2622 37.8335 13.7841 38.0365C14.306 38.2395 14.8773 38.2789 15.4222 38.1494C15.7091 38.0878 15.9836 37.9781 16.2338 37.8248L27.7598 30.5196C28.0524 30.3437 28.3048 30.1084 28.5006 29.8287C28.6964 29.549 28.8311 29.2313 28.8962 28.8962C28.9483 28.5554 28.9321 28.2076 28.8485 27.8732C28.7649 27.5387 28.6156 27.2243 28.4092 26.9481C28.0949 26.4846 27.6471 26.1277 27.1252 25.9247C26.6032 25.7217 26.0319 25.6823 25.4871 25.8118C25.2565 25.8891 25.0379 25.9983 24.8377 26.1364L20.2923 28.8962C19.5964 29.3875 18.8301 29.7706 18.0196 30.0325C14.2858 31.0066 10.2273 29.3832 8.11696 26.2988C7.4544 25.3677 6.98396 24.3139 6.7331 23.199C6.48225 22.0841 6.45601 20.9304 6.65592 19.8053C6.84498 18.7127 7.26035 17.6718 7.8754 16.7492C8.49044 15.8266 9.29156 15.0429 10.2273 14.4481L21.9157 6.98059C22.6213 6.54613 23.3871 6.21793 24.1884 6.00657C27.9222 5.03254 31.9806 6.49358 34.091 9.578C34.7535 10.5091 35.224 11.5628 35.4748 12.6777C35.7257 13.7926 35.7519 14.9464 35.552 16.0715C35.5243 16.4536 35.47 16.8333 35.3897 17.2079L35.065 17.8572L34.4157 17.3702C33.0415 16.3585 31.5041 15.5898 29.8702 15.0975H29.5455V14.6105C29.608 13.9756 29.4346 13.34 29.0585 12.8248C28.7443 12.3612 28.2964 12.0043 27.7745 11.8013C27.2526 11.5983 26.6813 11.559 26.1364 11.6884C25.8495 11.75 25.575 11.8598 25.3248 12.0131L13.7988 19.4806C13.5062 19.6564 13.2538 19.8918 13.058 20.1715C12.8622 20.4511 12.7274 20.7688 12.6624 21.104C12.6102 21.4448 12.6264 21.7925 12.7101 22.127C12.7937 22.4614 12.943 22.7759 13.1494 23.052C13.4637 23.5155 13.9115 23.8725 14.4334 24.0755C14.9553 24.2784 15.5267 24.3178 16.0715 24.1884C16.3021 24.1111 16.5207 24.0018 16.7209 23.8637L21.2663 21.104C21.9622 20.6127 22.7285 20.2296 23.539 19.9676C27.2728 18.9936 31.3312 20.4546 33.4416 23.7014C34.1042 24.6325 34.5746 25.6862 34.8255 26.8011C35.0763 27.916 35.1026 29.0697 34.9027 30.1949C34.7136 31.2874 34.2982 32.3284 33.6832 33.2509C33.0682 34.1735 32.267 34.9573 31.3312 35.552L19.6429 42.8572C18.947 43.3485 18.1808 43.7316 17.3702 43.9936Z" fill="white"/>
</g>
<defs>
<clipPath id="clip0_1116_452">
<rect width="41.5584" height="50" fill="white"/>
</clipPath>
</defs>
</svg>
