<svg width="83" height="34" viewBox="0 0 83 34" fill="none" xmlns="http://www.w3.org/2000/svg">
<path d="M14.2814 23.8914C14.1038 23.8914 13.9599 23.7477 13.9599 23.5704V5.48222C13.9599 5.30497 14.1038 5.16127 14.2814 5.16127H17.2928C17.4704 5.16127 17.6144 5.30497 17.6144 5.48222V10.5701C17.6144 10.8836 18.0547 11.0372 18.2903 10.8298C18.5708 10.5829 18.8849 10.3722 19.2328 10.1977C19.8941 9.84858 20.6511 9.67403 21.5039 9.67403C22.5132 9.67403 23.392 9.91841 24.1403 10.4072C24.906 10.8784 25.4977 11.5592 25.9154 12.4494C26.333 13.3396 26.5419 14.387 26.5419 15.5914V23.5704C26.5419 23.7477 26.3979 23.8914 26.2203 23.8914H23.2089C23.0313 23.8914 22.8874 23.7477 22.8874 23.5704V16.0627C22.8874 15.1026 22.6698 14.3521 22.2348 13.8109C21.7997 13.2524 21.1993 12.9731 20.4336 12.9731C19.8767 12.9731 19.3894 13.104 18.9718 13.3658C18.5541 13.6102 18.2235 13.9593 17.9798 14.4131C17.7362 14.867 17.6144 15.3819 17.6144 15.9579V23.5704C17.6144 23.7477 17.4704 23.8914 17.2928 23.8914H14.2814Z" fill="white"/>
<path fill-rule="evenodd" clip-rule="evenodd" d="M34.8803 24.2841C33.8535 24.2841 32.9051 24.1096 32.0349 23.7605C31.1822 23.3939 30.4426 22.8877 29.8161 22.2419C29.1896 21.5786 28.7024 20.8018 28.3543 19.9116C28.0063 19.0039 27.8322 18.0177 27.8322 16.9529C27.8322 15.923 28.0063 14.963 28.3543 14.0728C28.7024 13.1825 29.1809 12.4145 29.79 11.7687C30.4165 11.1054 31.1474 10.5904 31.9827 10.2239C32.8181 9.85731 33.723 9.67403 34.6975 9.67403C35.7069 9.67403 36.6205 9.84858 37.4384 10.1977C38.2738 10.5468 38.9873 11.0443 39.5789 11.6901C40.1706 12.336 40.6231 13.104 40.9363 13.9942C41.267 14.8844 41.4323 15.8794 41.4323 16.9791V17.5745C41.4323 17.7518 41.2884 17.8955 41.1108 17.8955H31.913C31.7162 17.8955 31.5648 18.0707 31.606 18.2628C31.7902 19.1202 32.142 19.8094 32.6614 20.3305C33.2531 20.9065 34.0014 21.1945 34.9064 21.1945C35.5329 21.1945 36.3973 21.0923 36.9247 20.7494C37.3291 20.4865 37.4819 20.2009 37.6802 19.8301L37.6803 19.8299L37.681 19.8286L37.6813 19.8281C37.716 19.7633 37.752 19.6959 37.7911 19.6255C37.8463 19.5263 37.952 19.4665 38.0657 19.4665H40.8236C41.0012 19.4665 41.1465 19.6107 41.1336 19.7874C40.9087 21.1945 40.2044 22.0541 39.6225 22.5729C38.996 23.1315 38.3782 23.5248 37.5428 23.839C36.7075 24.1358 35.82 24.2841 34.8803 24.2841ZM34.6975 12.5018C33.897 12.5018 33.2183 12.7636 32.6614 13.2873C32.1993 13.7359 31.8713 14.3253 31.6773 15.0557C31.6256 15.2504 31.7783 15.4343 31.9801 15.4343H37.2988C37.4958 15.4343 37.6474 15.2587 37.6037 15.0669C37.436 14.3314 37.1198 13.7382 36.6553 13.2873C36.1332 12.7636 35.4806 12.5018 34.6975 12.5018Z" fill="white"/>
<path d="M45.5282 23.8128C46.3287 24.127 47.2163 24.2841 48.1908 24.2841C49.0087 24.2841 49.757 24.1707 50.4357 23.9437C51.1144 23.7168 51.7061 23.3939 52.2108 22.975C52.7155 22.5561 53.0983 22.0673 53.3594 21.5087C53.6378 20.9502 53.777 20.3305 53.777 19.6497C53.777 18.5326 53.3855 17.6162 52.6024 16.9005C51.8192 16.1674 50.6881 15.6699 49.2089 15.4081L48.478 15.2772C47.66 15.1375 47.077 14.9543 46.729 14.7273C46.3983 14.483 46.233 14.1862 46.233 13.8371C46.233 13.4356 46.4071 13.104 46.7551 12.8422C47.1032 12.5803 47.5469 12.4494 48.0864 12.4494C48.6085 12.4494 49.2217 12.5978 49.6046 12.8945C49.92 13.1283 50.1733 13.4232 50.2666 13.8013C50.3096 13.9756 50.4528 14.1224 50.6327 14.1192L53.1336 14.0735C53.3089 14.0703 53.4499 13.9273 53.4309 13.7533C53.3449 12.9627 52.9668 11.9184 52.524 11.4283C52.0194 10.8697 51.3842 10.4421 50.6185 10.1453C49.8702 9.83113 49.0348 9.67403 48.1125 9.67403C47.0684 9.67403 46.146 9.86604 45.3455 10.2501C44.545 10.6341 43.9185 11.1665 43.466 11.8472C43.0136 12.5105 42.7873 13.2786 42.7873 14.1513C42.7873 15.251 43.1702 16.1587 43.9359 16.8743C44.719 17.59 45.8589 18.0788 47.3555 18.3406L48.0864 18.4715C48.8695 18.6111 49.4264 18.8119 49.757 19.0737C50.1051 19.3181 50.2791 19.6323 50.2791 20.0163C50.2791 20.4701 50.0877 20.828 49.7048 21.0898C49.322 21.3516 48.8347 21.4825 48.243 21.4825C47.6165 21.4825 47.0771 21.3255 46.6246 21.0113C46.2321 20.7387 45.9193 20.2009 45.7297 19.7099C45.6795 19.5797 45.5569 19.4893 45.4171 19.4893H42.8781C42.7005 19.4893 42.5555 19.6334 42.5653 19.8104C42.6397 21.1566 43.1781 21.9427 43.679 22.4775C44.2359 23.0535 44.7451 23.4986 45.5282 23.8128Z" fill="white"/>
<path d="M4.4507 23.8914C4.27311 23.8914 4.12915 23.7477 4.12915 23.5704V13.6674C4.12915 13.4901 4.27311 13.3464 4.4507 13.3464H6.96082C7.13841 13.3464 7.28237 13.2027 7.28237 13.0254L7.28237 10.3877C7.28237 10.2105 7.13841 10.0668 6.96082 10.0668H4.4507C4.27311 10.0668 4.12915 9.92308 4.12915 9.74582V5.51432C4.12915 5.33706 4.27311 5.19337 4.4507 5.19337H7.46213C7.63972 5.19337 7.78368 5.33706 7.78368 5.51432V9.58535C7.78368 9.76261 7.92765 9.9063 8.10523 9.9063H11.9687C12.1463 9.9063 12.2902 10.05 12.2902 10.2273V13.0254C12.2902 13.2027 12.1463 13.3464 11.9687 13.3464H8.10523C7.92765 13.3464 7.78368 13.4901 7.78368 13.6674V23.5704C7.78368 23.7477 7.63972 23.8914 7.46213 23.8914H4.4507Z" fill="white"/>
<path d="M70.2029 23.8128C71.0035 24.127 71.891 24.2841 72.8655 24.2841C73.6834 24.2841 74.4318 24.1707 75.1105 23.9438C75.7891 23.7168 76.3808 23.3939 76.8855 22.975C77.3902 22.5561 77.773 22.0673 78.0341 21.5087C78.3125 20.9502 78.4517 20.3305 78.4517 19.6497C78.4517 18.5326 78.0602 17.6162 77.2771 16.9005C76.494 16.1674 75.3628 15.6699 73.8836 15.4081L73.1527 15.2772C72.3347 15.1375 71.7518 14.9543 71.4037 14.7273C71.0731 14.483 70.9077 14.1862 70.9077 13.8371C70.9077 13.4357 71.0818 13.104 71.4298 12.8422C71.7779 12.5803 72.2216 12.4494 72.7611 12.4494C73.2832 12.4494 73.8964 12.5978 74.2793 12.8945C74.5947 13.1284 74.848 13.4232 74.9413 13.8013C74.9843 13.9756 75.1275 14.1224 75.3074 14.1192L77.8083 14.0735C77.9836 14.0703 78.1246 13.9273 78.1056 13.7533C78.0196 12.9627 77.6416 11.9184 77.1988 11.4283C76.6941 10.8697 76.0589 10.4421 75.2932 10.1453C74.5449 9.83113 73.7096 9.67404 72.7872 9.67404C71.7431 9.67404 70.8207 9.86604 70.0202 10.2501C69.2197 10.6341 68.5932 11.1665 68.1407 11.8472C67.6883 12.5105 67.462 13.2786 67.462 14.1513C67.462 15.251 67.8449 16.1587 68.6106 16.8744C69.3937 17.59 70.5336 18.0788 72.0302 18.3406L72.7611 18.4715C73.5442 18.6112 74.1011 18.8119 74.4317 19.0737C74.7798 19.3181 74.9538 19.6323 74.9538 20.0163C74.9538 20.4701 74.7624 20.828 74.3795 21.0898C73.9967 21.3516 73.5094 21.4826 72.9177 21.4826C72.2912 21.4826 71.7518 21.3255 71.2993 21.0113C70.9068 20.7387 70.594 20.2009 70.4044 19.7099C70.3542 19.5797 70.2316 19.4893 70.0918 19.4893H67.5528C67.3752 19.4893 67.2302 19.6335 67.24 19.8104C67.3144 21.1566 67.8528 21.9427 68.3537 22.4775C68.9106 23.0535 69.4198 23.4986 70.2029 23.8128Z" fill="white"/>
<path d="M55.8393 29.0362C56.4082 29.1087 56.7348 29.1274 56.9948 29.1274C57.6133 29.1274 58.5974 29.0059 59.2237 28.7278C59.85 28.4498 60.378 28.0477 60.8078 27.5218C61.2438 26.9958 61.5938 26.3641 61.8578 25.6266L67.4073 10.3598C67.4721 10.1816 67.3401 9.99324 67.1505 9.99324H64.2464C64.129 9.99324 64.0247 10.0683 63.9873 10.1796L60.8498 19.5321C60.8247 19.6067 60.7548 19.657 60.6761 19.657C60.5974 19.657 60.5274 19.6066 60.5024 19.532L57.3704 10.1797C57.3331 10.0683 57.2288 9.99324 57.1113 9.99324H54.2248C54.0355 9.99324 53.9035 10.1812 53.9678 10.3593L58.9313 24.1074C58.9536 24.169 58.9529 24.2365 58.9295 24.2977L58.6711 24.9737C58.4684 25.5057 58.2198 25.8865 57.925 26.1162C57.6364 26.352 57.2987 26.4729 56.9119 26.479C56.604 26.4839 56.2619 26.4883 55.8856 26.4162C55.7348 26.3873 55.5814 26.4737 55.5427 26.6223L55.0462 28.5306C55.0083 28.676 55.095 28.8254 55.2376 28.8729C55.2519 28.8777 55.266 28.8824 55.2802 28.8872C55.4409 28.9411 55.5995 28.9943 55.8393 29.0362Z" fill="white"/>
</svg>
