<svg viewBox="0 0 2626 1329" fill="none" xmlns="http://www.w3.org/2000/svg">
<path fill-rule="evenodd" clip-rule="evenodd" d="M1330.01 595.704V567H1168V595.704H1232.58V763.512H1265.43V595.704H1330.01ZM1381.59 639.864V567H1350.12V763.512H1381.59V685.68C1381.59 658.908 1395.66 645.384 1413.6 645.384C1431.27 645.384 1442.03 655.32 1442.03 680.436V763.512H1473.49V677.676C1473.49 639.312 1454.17 619.992 1422.43 619.992C1406.7 619.992 1392.07 626.34 1382.14 639.864H1381.59ZM1541.08 597.084V567H1509.61V597.084H1541.08ZM1541.08 763.512V623.304H1509.61V763.512H1541.08ZM1650.89 619.992C1632.4 619.992 1617.77 628.824 1608.94 641.52H1608.38V623.304H1578.58V763.512H1610.04V685.68C1610.04 658.908 1624.12 645.384 1642.06 645.384C1659.72 645.384 1670.48 655.32 1670.48 680.436V763.512H1701.95V677.676C1701.95 639.312 1682.63 619.992 1650.89 619.992ZM1864.47 763.512L1799.89 687.336L1857.85 623.304H1821.14L1770.08 680.712H1769.53V567H1738.07V763.512H1769.53V695.616H1770.08L1824.73 763.512H1864.47ZM2032.52 619.992C2011.27 619.992 1997.74 629.376 1987.53 645.384C1980.36 628.824 1965.45 619.992 1946.13 619.992C1929.57 619.992 1917.15 626.616 1907.22 640.14H1906.66V623.304H1876.58V763.512H1908.04V688.44C1908.04 661.392 1918.81 645.384 1937.58 645.384C1953.86 645.384 1962.69 656.976 1962.69 676.848V763.512H1994.16V687.888C1994.16 661.116 2005.2 645.384 2023.69 645.384C2039.42 645.384 2049.08 655.32 2049.08 680.16V763.512H2080.54V677.124C2080.54 639.312 2062.33 619.992 2032.52 619.992V619.992ZM2148.13 597.084V567H2116.66V597.084H2148.13ZM2148.13 763.512V623.304H2116.66V763.512H2148.13ZM2217.09 763.512V567H2185.63V763.512H2217.09ZM2286.05 763.512V567H2254.59V763.512H2286.05Z" fill="white"/>
<path fill-rule="evenodd" clip-rule="evenodd" d="M989 664.5C989 843.716 843.716 989 664.5 989C485.284 989 340 843.716 340 664.5C340 485.284 485.284 340 664.5 340C843.716 340 989 485.284 989 664.5ZM567.898 737.534C551.95 737.534 545.89 730.198 545.89 712.017V631H577.467V603.25H545.89V562.742H509.528V603.25H482.417V631H509.528V717.439C509.528 752.844 524.52 767.197 558.649 767.197C565.347 767.197 573.64 765.921 579.062 764.327V735.939C576.51 736.896 572.045 737.534 567.898 737.534ZM791.172 599.423C766.612 599.423 750.983 610.268 739.181 628.768C730.888 609.63 713.664 599.423 691.337 599.423C672.199 599.423 657.846 607.078 646.363 622.707H645.725V603.251H610.958V765.284H647.32V678.526C647.32 647.267 659.76 628.768 681.449 628.768C700.268 628.768 710.475 642.164 710.475 665.129V765.284H746.836V677.888C746.836 646.949 759.595 628.768 780.965 628.768C799.146 628.768 810.31 640.25 810.31 668.957V765.284H846.672V665.448C846.672 621.75 825.62 599.423 791.172 599.423Z" fill="white"/>
</svg>
