<svg viewBox="0 0 1947 649" fill="none" xmlns="http://www.w3.org/2000/svg">
<path fill-rule="evenodd" clip-rule="evenodd" d="M990.012 255.704V227H828V255.704H892.584V423.512H925.428V255.704H990.012ZM1041.59 299.864V227H1010.12V423.512H1041.59V345.68C1041.59 318.908 1055.66 305.384 1073.6 305.384C1091.27 305.384 1102.03 315.32 1102.03 340.436V423.512H1133.49V337.676C1133.49 299.312 1114.17 279.992 1082.43 279.992C1066.7 279.992 1052.07 286.34 1042.14 299.864H1041.59ZM1201.08 257.084V227H1169.61V257.084H1201.08ZM1201.08 423.512V283.304H1169.61V423.512H1201.08ZM1310.89 279.992C1292.4 279.992 1277.77 288.824 1268.94 301.52H1268.38V283.304H1238.58V423.512H1270.04V345.68C1270.04 318.908 1284.12 305.384 1302.06 305.384C1319.72 305.384 1330.48 315.32 1330.48 340.436V423.512H1361.95V337.676C1361.95 299.312 1342.63 279.992 1310.89 279.992ZM1524.47 423.512L1459.89 347.336L1517.85 283.304H1481.14L1430.08 340.712H1429.53V227H1398.07V423.512H1429.53V355.616H1430.08L1484.73 423.512H1524.47ZM1692.52 279.992C1671.27 279.992 1657.74 289.376 1647.53 305.384C1640.36 288.824 1625.45 279.992 1606.13 279.992C1589.57 279.992 1577.15 286.616 1567.22 300.14H1566.66V283.304H1536.58V423.512H1568.04V348.44C1568.04 321.392 1578.81 305.384 1597.58 305.384C1613.86 305.384 1622.69 316.976 1622.69 336.848V423.512H1654.16V347.888C1654.16 321.116 1665.2 305.384 1683.69 305.384C1699.42 305.384 1709.08 315.32 1709.08 340.16V423.512H1740.54V337.124C1740.54 299.312 1722.33 279.992 1692.52 279.992V279.992ZM1808.13 257.084V227H1776.66V257.084H1808.13ZM1808.13 423.512V283.304H1776.66V423.512H1808.13ZM1877.09 423.512V227H1845.63V423.512H1877.09ZM1946.05 423.512V227H1914.59V423.512H1946.05Z" fill="black"/>
<path fill-rule="evenodd" clip-rule="evenodd" d="M324.5 648.955C503.692 648.955 648.955 503.692 648.955 324.5C648.955 145.309 503.692 0.0458984 324.5 0.0458984C145.309 0.0458984 0.0458984 145.309 0.0458984 324.5C0.0458984 503.692 145.309 648.955 324.5 648.955Z" fill="#FF3838"/>
<path fill-rule="evenodd" clip-rule="evenodd" d="M205.907 372.01C205.907 390.188 211.966 397.523 227.912 397.523C232.058 397.523 236.523 396.885 239.074 395.929V424.312C233.653 425.907 225.361 427.183 218.664 427.183C184.54 427.183 169.55 412.831 169.55 377.431V291.005H142.442V263.259H169.55V222.756H205.907V263.259H237.48V291.005H205.907V372.01ZM399.171 288.772C410.971 270.275 426.598 259.432 451.155 259.432C485.598 259.432 506.646 281.756 506.646 325.448V425.269H470.29V328.956C470.29 300.253 459.128 288.772 440.949 288.772C419.582 288.772 406.825 306.951 406.825 337.886V425.269H370.469V325.129C370.469 302.167 360.263 288.772 341.447 288.772C319.761 288.772 307.323 307.27 307.323 338.523V425.269H270.966V263.259H305.728V282.713H306.366C317.847 267.086 332.198 259.432 351.333 259.432C373.658 259.432 390.879 269.637 399.171 288.772Z" fill="white"/>
</svg>
