<?xml version="1.0" encoding="UTF-8"?><svg id="Ebene_2" xmlns="http://www.w3.org/2000/svg" viewBox="0 0 216.4 65.01"><defs><style>.cls-1{fill:#fff;}</style></defs><g id="Ebene_1-2"><g id="Ebene_2-2"><g id="Ebene_1-2"><path class="cls-1" d="M25.7,16.01h-5.2c-.9,0-1.3,.4-1.3,1.3v24.5c0,2-.4,4-5.8,4-3.7,0-5.8-2-5.8-5.6V17.31c0-.9-.4-1.3-1.3-1.3H1.3c-.9,0-1.3,.4-1.3,1.3v23c0,8.5,7.3,10.2,13.3,10.2,5.2,0,9.4-1.1,11.2-2.1s2.4-2.4,2.4-4.7V17.31c0-.9-.4-1.3-1.2-1.3"/><path class="cls-1" d="M36.4,0h-1.8c-.49-.06-.94,.29-1,.79,0,.07,0,.14,0,.21v63c-.06,.49,.29,.94,.79,1,.07,0,.14,0,.21,0h1.8c.49,.06,.94-.29,1-.79,0-.07,0-.14,0-.21V1.01c-.1-.6-.4-1-1-1"/><path class="cls-1" d="M57.4,30.21c-3.8-1.6-7.2-3.1-7.2-6.4,0-2.8,1.7-4.4,4.6-4.4,2.7,0,4,2,4.9,4.2,.47,1.46,1.87,2.41,3.4,2.3,1.59,.12,2.98-1.07,3.1-2.66,.01-.15,.01-.29,0-.44,0-3-3.6-7.3-11.3-7.3-7.3,0-11.9,3.7-11.9,9.7,0,5.6,5,7.8,9.4,9.8,3.8,1.7,7.3,3.3,7.3,6.7,.11,2.49-1.82,4.59-4.31,4.7-.13,0-.26,0-.39,0-3.3,0-4.7-2.2-5.7-4.6-.5-1.49-1.93-2.47-3.5-2.4-1.77-.16-3.33,1.14-3.49,2.91-.01,.13-.02,.26-.01,.39,0,2.9,3.7,8.3,12.6,8.3,7.4,0,12.2-4.1,12.2-10.4s-5.1-8.4-9.7-10.4"/><path class="cls-1" d="M95.8,38.01c-.86,.01-1.64,.52-2,1.3-1.4,2.6-3.3,5.3-7.1,5.3-6.8,0-9.2-7.1-9.2-13.2,0-7.9,3.6-11.4,7.2-11.4s5.1,3.1,5.6,5,1.7,2.7,3.3,2.7c1.78,.21,3.39-1.07,3.59-2.85,.03-.22,.03-.44,0-.65,0-3.1-4.1-8.6-12.1-8.6-9.1,0-14.8,6.8-14.8,17.7,0,13.1,7.5,17.7,14.5,17.7,8.3,0,12.6-7.3,12.6-11.2,.12-.86-.48-1.66-1.34-1.78-.08-.01-.17-.02-.26-.02"/><path class="cls-1" d="M115.2,15.51c-3.39-.05-6.76,.6-9.9,1.9-1.79,.59-2.95,2.32-2.8,4.2v27.2c0,.9,.4,1.3,1.3,1.3h5.1c.9,0,1.3-.4,1.3-1.3V23.01c0-1.9,1.4-3.1,3.8-3.1,1.34-.04,2.59,.7,3.2,1.9,.64,1.23,1.91,2,3.3,2,1.73,.1,3.21-1.22,3.31-2.94,0-.15,0-.31,0-.46,.1-1.5-.8-4.9-8.6-4.9"/><path class="cls-1" d="M138.4,19.91c5,0,6,4.6,6.2,7.5l-13.6,2.3c.3-4.8,2.4-9.8,7.4-9.8m12.1,18.2c-.78,.01-1.49,.48-1.8,1.2-1.2,2-3.8,5.4-8,5.4-5.4,0-8.9-4.1-9.4-11l18.6-3.1c1.3-.2,2.1-.6,2.1-2.2,0-6.4-4.4-12.9-12.8-12.9-6.9,0-15,4.6-15,17.5,0,11.2,5.6,17.9,15,17.9,8.5,0,13-7.2,13-11.1,.04-.9-.66-1.66-1.56-1.7-.05,0-.1,0-.14,0"/><path class="cls-1" d="M170.4,19.91c5,0,6,4.6,6.2,7.5l-13.6,2.3c.3-4.8,2.4-9.8,7.4-9.8m12.1,18.2c-.78,.01-1.49,.48-1.8,1.2-1.2,2-3.8,5.4-8,5.4-5.4,0-8.9-4.1-9.4-11l18.6-3.1c1.3-.2,2.1-.6,2.1-2.2,0-6.4-4.4-12.9-12.8-12.9-6.9,0-15,4.6-15,17.5,0,11.2,5.6,17.9,15,17.9,8.5,0,13-7.2,13-11.1,.04-.9-.66-1.66-1.56-1.7-.05,0-.1,0-.14,0"/><path class="cls-1" d="M202.4,15.51c-3.72-.11-7.43,.54-10.9,1.9-2.1,1-2.7,2-2.7,4.2v27.2c0,.9,.4,1.3,1.3,1.3h5.1c.9,0,1.3-.4,1.3-1.3V23.91c0-2,.4-4.1,5.6-4.1,5.7,0,6.5,3.8,6.5,6.1v22.9c0,.9,.4,1.3,1.3,1.3h5.2c.9,0,1.3-.4,1.3-1.3V25.61c0-8.8-8.7-10.1-14-10.1"/></g></g></g></svg>