<svg width="100" height="100" viewBox="0 0 100 100" fill="none" xmlns="http://www.w3.org/2000/svg">
<rect width="100" height="100" rx="37" fill="#F7F8F6"/>
<path d="M32.2314 89.2822C32.3975 88.9209 32.5993 88.5189 32.8369 88.0762L35.6299 82.8613H36.2012L32.2998 90H31.8701L30.9814 82.8613H31.4697L32.041 87.5C32.1257 88.2064 32.1826 88.8005 32.2119 89.2822H32.2314ZM37.5635 90.0977C37.0003 90.0977 36.5609 89.9202 36.2451 89.5654C35.9294 89.2074 35.7715 88.7093 35.7715 88.0713C35.7715 87.4821 35.887 86.9173 36.1182 86.377C36.3493 85.8366 36.6667 85.4069 37.0703 85.0879C37.4772 84.7689 37.9248 84.6094 38.4131 84.6094C38.7842 84.6094 39.0804 84.7087 39.3018 84.9072C39.5231 85.1058 39.6338 85.376 39.6338 85.7178C39.6338 86.307 39.3669 86.7562 38.833 87.0654C38.3024 87.3747 37.513 87.5293 36.4648 87.5293H36.3037C36.2842 87.6725 36.2744 87.832 36.2744 88.0078C36.2744 88.5449 36.3949 88.9551 36.6357 89.2383C36.8766 89.5182 37.2233 89.6582 37.6758 89.6582C38.1055 89.6582 38.5547 89.5394 39.0234 89.3018V89.7607C38.5677 89.9854 38.0811 90.0977 37.5635 90.0977ZM38.3545 85.0293C37.9281 85.0293 37.5309 85.2181 37.1631 85.5957C36.7985 85.9701 36.5348 86.4714 36.3721 87.0996H36.6113C38.2943 87.0996 39.1357 86.6602 39.1357 85.7812C39.1357 85.5632 39.0641 85.3841 38.9209 85.2441C38.7809 85.1009 38.5921 85.0293 38.3545 85.0293ZM43.2861 84.5996C43.5107 84.5996 43.7109 84.6224 43.8867 84.668L43.7842 85.1221C43.6312 85.0732 43.4473 85.0488 43.2324 85.0488C42.9264 85.0488 42.6351 85.153 42.3584 85.3613C42.0817 85.5697 41.8327 85.8822 41.6113 86.2988C41.39 86.7155 41.2272 87.1663 41.123 87.6514L40.6348 90H40.1562L41.2842 84.6924H41.6748L41.5332 85.6885H41.5625C41.8001 85.3825 42.0003 85.1628 42.1631 85.0293C42.3258 84.8926 42.4984 84.7868 42.6807 84.7119C42.8662 84.637 43.068 84.5996 43.2861 84.5996ZM46.6748 84.6094C47.4235 84.6094 47.8776 84.9658 48.0371 85.6787H48.0566C48.0957 85.4639 48.3285 84.3717 48.7549 82.4023H49.2383L47.627 90H47.2266L47.4463 88.6621H47.417C46.8538 89.6191 46.1637 90.0977 45.3467 90.0977C44.432 90.0977 43.9746 89.4889 43.9746 88.2715C43.9746 87.6432 44.0902 87.041 44.3213 86.4648C44.5557 85.8887 44.8779 85.4362 45.2881 85.1074C45.6982 84.7754 46.1605 84.6094 46.6748 84.6094ZM45.459 89.6582C45.7487 89.6582 46.0384 89.5573 46.3281 89.3555C46.6211 89.1504 46.8815 88.877 47.1094 88.5352C47.3405 88.1901 47.5146 87.8141 47.6318 87.4072C47.749 86.9971 47.8076 86.6553 47.8076 86.3818C47.8076 85.9717 47.7067 85.6445 47.5049 85.4004C47.3063 85.153 47.0329 85.0293 46.6846 85.0293C46.2809 85.0293 45.9163 85.1644 45.5908 85.4346C45.2653 85.7048 44.9984 86.1003 44.79 86.6211C44.5817 87.1387 44.4775 87.6709 44.4775 88.2178C44.4775 89.1781 44.8047 89.6582 45.459 89.6582ZM52.2119 84.6094C52.9671 84.6094 53.4212 84.9658 53.5742 85.6787H53.6035L53.8916 84.6924H54.2822L53.1641 90H52.7637L52.9834 88.6621H52.9541C52.6807 89.1243 52.3763 89.4792 52.041 89.7266C51.7057 89.974 51.32 90.0977 50.8838 90.0977C49.9691 90.0977 49.5117 89.4889 49.5117 88.2715C49.5117 87.6302 49.6338 87.0182 49.8779 86.4355C50.1221 85.8529 50.4476 85.4036 50.8545 85.0879C51.2646 84.7689 51.7171 84.6094 52.2119 84.6094ZM50.9961 89.6582C51.2858 89.6582 51.5739 89.5573 51.8604 89.3555C52.1501 89.1536 52.4089 88.8835 52.6367 88.5449C52.8678 88.2064 53.0436 87.832 53.1641 87.4219C53.2845 87.0117 53.3447 86.665 53.3447 86.3818C53.3447 86.1247 53.3024 85.8952 53.2178 85.6934C53.1331 85.4883 53.0078 85.3271 52.8418 85.21C52.6758 85.0895 52.4691 85.0293 52.2217 85.0293C51.818 85.0293 51.4535 85.1628 51.1279 85.4297C50.8024 85.6966 50.5355 86.097 50.3271 86.6309C50.1188 87.1615 50.0146 87.6904 50.0146 88.2178C50.0146 88.7126 50.096 89.0771 50.2588 89.3115C50.4215 89.5426 50.6673 89.6582 50.9961 89.6582ZM56.8799 90.0977C56.3135 90.0977 55.8659 89.9186 55.5371 89.5605C55.2116 89.1992 55.0488 88.6995 55.0488 88.0615C55.0488 87.4333 55.1676 86.8457 55.4053 86.2988C55.6462 85.7487 55.9701 85.3304 56.377 85.0439C56.7839 84.7542 57.2559 84.6094 57.793 84.6094C58.2292 84.6094 58.6214 84.6794 58.9697 84.8193L58.833 85.2588C58.4847 85.1058 58.1299 85.0293 57.7686 85.0293C57.3486 85.0293 56.9694 85.1546 56.6309 85.4053C56.2956 85.6559 56.0319 86.0173 55.8398 86.4893C55.6478 86.9613 55.5518 87.4821 55.5518 88.0518C55.5518 88.5661 55.6706 88.9632 55.9082 89.2432C56.1491 89.5199 56.4893 89.6582 56.9287 89.6582C57.1598 89.6582 57.373 89.637 57.5684 89.5947C57.7669 89.5524 57.9818 89.4775 58.2129 89.3701V89.8193C57.8353 90.0049 57.391 90.0977 56.8799 90.0977ZM61.2158 90.0977C60.6494 90.0977 60.2018 89.9186 59.873 89.5605C59.5475 89.1992 59.3848 88.6995 59.3848 88.0615C59.3848 87.4333 59.5036 86.8457 59.7412 86.2988C59.9821 85.7487 60.306 85.3304 60.7129 85.0439C61.1198 84.7542 61.5918 84.6094 62.1289 84.6094C62.5651 84.6094 62.9574 84.6794 63.3057 84.8193L63.1689 85.2588C62.8206 85.1058 62.4658 85.0293 62.1045 85.0293C61.6846 85.0293 61.3053 85.1546 60.9668 85.4053C60.6315 85.6559 60.3678 86.0173 60.1758 86.4893C59.9837 86.9613 59.8877 87.4821 59.8877 88.0518C59.8877 88.5661 60.0065 88.9632 60.2441 89.2432C60.485 89.5199 60.8252 89.6582 61.2646 89.6582C61.4958 89.6582 61.709 89.637 61.9043 89.5947C62.1029 89.5524 62.3177 89.4775 62.5488 89.3701V89.8193C62.1712 90.0049 61.7269 90.0977 61.2158 90.0977ZM64.0723 90H63.5938L64.7217 84.6924H65.1904L64.0723 90ZM64.9316 83.3301C64.9316 83.151 64.9674 83.0078 65.0391 82.9004C65.1107 82.793 65.2083 82.7393 65.332 82.7393C65.5176 82.7393 65.6104 82.8564 65.6104 83.0908C65.6104 83.2764 65.5745 83.4229 65.5029 83.5303C65.4313 83.6377 65.3385 83.6914 65.2246 83.6914C65.1302 83.6914 65.057 83.6605 65.0049 83.5986C64.9561 83.5335 64.9316 83.444 64.9316 83.3301ZM68.7158 84.5898C69.3018 84.5898 69.7542 84.7673 70.0732 85.1221C70.3955 85.4736 70.5566 85.9603 70.5566 86.582C70.5566 87.2233 70.4395 87.8239 70.2051 88.3838C69.974 88.9404 69.6566 89.3652 69.2529 89.6582C68.8493 89.9512 68.3838 90.0977 67.8564 90.0977C67.2575 90.0977 66.8018 89.9202 66.4893 89.5654C66.18 89.2074 66.0254 88.6963 66.0254 88.0322C66.0254 87.4105 66.1442 86.8278 66.3818 86.2842C66.6195 85.7406 66.9401 85.3223 67.3438 85.0293C67.7474 84.7363 68.2048 84.5898 68.7158 84.5898ZM68.6768 85.0098C68.2731 85.0098 67.9102 85.1383 67.5879 85.3955C67.2656 85.6494 67.0085 86.0156 66.8164 86.4941C66.6243 86.9694 66.5283 87.474 66.5283 88.0078C66.5283 89.1211 66.9873 89.6777 67.9053 89.6777C68.3187 89.6777 68.6849 89.5524 69.0039 89.3018C69.3262 89.0479 69.5817 88.6768 69.7705 88.1885C69.9626 87.6969 70.0586 87.1582 70.0586 86.5723C70.0586 86.071 69.9398 85.6852 69.7021 85.415C69.4645 85.1449 69.1227 85.0098 68.6768 85.0098Z" fill="#405236"/>
<g filter="url(#filter0_d)">
<path fill-rule="evenodd" clip-rule="evenodd" d="M70 46.6L54.8 77H46L22.4 29.8L37.6 29.8L50.4 55.4L54.8 46.6H70Z" fill="#405236"/>
<path d="M51.4733 55.9367L55.5416 47.8H68.0584L54.0584 75.8H46.7416L24.3416 31H36.8584L49.3267 55.9367L50.4 58.0833L51.4733 55.9367Z" stroke="#405236" stroke-width="2.4"/>
</g>
<g filter="url(#filter1_d)">
<path fill-rule="evenodd" clip-rule="evenodd" d="M72.8 41H57.6L63.2 29.8L78.4 29.8L72.8 41Z" fill="#CD4000"/>
<path d="M76.4584 31L72.0584 39.8H59.5416L63.9416 31H76.4584Z" stroke="#CD4000" stroke-width="2.4"/>
</g>
<path d="M56.6351 70.688L54.0607 75.8H46.7416L24.3416 31H36.8572L56.6351 70.688Z" fill="#4A5E3F" stroke="#405236" stroke-width="2.4"/>
<path d="M59.6 31H74.821" stroke="#CD4000" stroke-width="2.4" stroke-linecap="square"/>
<path d="M55.6 35H70.821" stroke="#CD4000" stroke-width="2.4" stroke-linecap="square"/>
<path d="M51.6 39.8H66.821" stroke="#CD4000" stroke-width="2.4" stroke-linecap="square"/>
<defs>
<filter id="filter0_d" x="17.4" y="28.8" width="57.6" height="57.2" filterUnits="userSpaceOnUse" color-interpolation-filters="sRGB">
<feFlood flood-opacity="0" result="BackgroundImageFix"/>
<feColorMatrix in="SourceAlpha" type="matrix" values="0 0 0 0 0 0 0 0 0 0 0 0 0 0 0 0 0 0 127 0"/>
<feOffset dy="4"/>
<feGaussianBlur stdDeviation="2.5"/>
<feColorMatrix type="matrix" values="0 0 0 0 0 0 0 0 0 0 0 0 0 0 0 0 0 0 0.0906646 0"/>
<feBlend mode="normal" in2="BackgroundImageFix" result="effect1_dropShadow"/>
<feBlend mode="normal" in="SourceGraphic" in2="effect1_dropShadow" result="shape"/>
</filter>
<filter id="filter1_d" x="52.6" y="28.8" width="30.8" height="21.2" filterUnits="userSpaceOnUse" color-interpolation-filters="sRGB">
<feFlood flood-opacity="0" result="BackgroundImageFix"/>
<feColorMatrix in="SourceAlpha" type="matrix" values="0 0 0 0 0 0 0 0 0 0 0 0 0 0 0 0 0 0 127 0"/>
<feOffset dy="4"/>
<feGaussianBlur stdDeviation="2.5"/>
<feColorMatrix type="matrix" values="0 0 0 0 0 0 0 0 0 0 0 0 0 0 0 0 0 0 0.0906646 0"/>
<feBlend mode="normal" in2="BackgroundImageFix" result="effect1_dropShadow"/>
<feBlend mode="normal" in="SourceGraphic" in2="effect1_dropShadow" result="shape"/>
</filter>
</defs>
</svg>
