<svg width="5781" height="2574" viewBox="0 0 5781 2574" fill="none" xmlns="http://www.w3.org/2000/svg">
<style>
@media (prefers-color-scheme: dark) {
  path {
    fill: #FFFFFF;
  }
}
</style>
<path fill-rule="evenodd" clip-rule="evenodd" d="M3460.33 934.416C3392.28 885.812 3343.6 811.822 3328.11 726.275H3007.23C3007.23 726.276 3007.23 726.277 3007.23 726.278L2732.28 726.278C2732.28 726.277 2732.28 726.276 2732.28 726.275H2411.39C2383.69 879.244 2249.86 995.259 2088.93 995.259C2069.4 995.259 2050.26 993.549 2031.66 990.27L1867.52 1274.63C1867.52 1274.63 1867.52 1274.63 1867.52 1274.63L1791.5 1406.33C1791.49 1406.33 1791.49 1406.33 1791.49 1406.33L1630.48 1685.25C1682.31 1732.35 1718.99 1795.83 1732.33 1867.51H2671.76C2696.2 1710.66 2831.86 1590.64 2995.54 1590.64C3023.24 1590.64 3050.13 1594.07 3075.82 1600.54L3460.33 934.416ZM2893.12 1280.39L3029.23 1044.6H2613.52C2520.67 1173.58 2381.43 1266.94 2220.25 1300.23L2076.53 1549.19H2465.37C2563.56 1408.4 2716.39 1308.55 2893.12 1280.39Z" fill="black"/>
<path fill-rule="evenodd" clip-rule="evenodd" d="M4603.47 278.853H4166.66C4048.76 122.481 3861.47 21.3948 3650.57 21.3948C3439.67 21.3947 3252.37 122.482 3134.47 278.855L2605.03 278.855C2487.14 122.482 2299.84 21.3948 2088.94 21.3948C1732.18 21.3947 1442.96 310.661 1442.96 667.489C1442.96 779.207 1471.31 884.302 1521.21 975.971L1392.69 1198.61L1236.94 928.793C1272.31 848.898 1291.96 760.488 1291.96 667.488C1291.96 310.661 1002.74 21.3944 645.978 21.3944C289.214 21.3943 3.11893e-05 310.66 0 667.488C-2.89516e-05 998.716 249.204 1271.73 570.316 1309.2L801.792 1710.2C777.456 1778.22 764.201 1851.51 764.201 1927.91C764.201 2284.73 1053.42 2574 1410.18 2574C1619.47 2574 1805.52 2474.45 1923.57 2320.1H2489.56C2607.9 2469.02 2790.57 2564.5 2995.54 2564.5C3352.31 2564.5 3641.52 2275.24 3641.52 1918.41C3641.52 1816.16 3617.77 1719.46 3575.49 1633.52L3766.12 1303.27C3933.98 1272.96 4079.29 1177.77 4175.15 1044.6H4626.52C4744.78 1195.34 4928.59 1292.19 5135.02 1292.19C5491.79 1292.19 5781 1002.92 5781 646.094C5781 289.266 5491.79 3.11949e-05 5135.02 0C4914.65 -1.92689e-05 4720.05 110.368 4603.47 278.853ZM3194.08 1657.62C3272.59 1717.5 3323.25 1812.03 3323.25 1918.41C3323.25 2099.43 3176.53 2246.18 2995.54 2246.18C2843.36 2246.18 2715.4 2142.42 2678.53 2001.78H1729.53C1696.03 2147.22 1565.77 2255.68 1410.17 2255.68C1229.18 2255.68 1082.46 2108.93 1082.46 1927.91C1082.46 1843 1114.74 1765.64 1167.69 1707.42L747.368 979.27C715.442 989.649 681.363 995.259 645.976 995.259C464.986 995.259 318.264 848.511 318.264 667.488C318.264 486.465 464.986 339.717 645.976 339.717C826.966 339.717 973.687 486.465 973.687 667.488C973.687 766.094 930.152 854.531 861.258 914.619L1274.02 1629.67C1315.49 1610.71 1361.6 1600.13 1410.17 1600.13C1447.93 1600.13 1484.19 1606.52 1517.94 1618.27L1908.72 941.293C1819.86 882.666 1761.22 781.926 1761.22 667.488C1761.22 486.466 1907.94 339.718 2088.93 339.718C2245.79 339.718 2376.91 449.942 2409.09 597.175H3330.41C3362.59 449.942 3493.71 339.718 3650.56 339.718C3807.42 339.718 3938.54 449.943 3970.72 597.176H4810.93C4834.54 439.356 4970.65 318.323 5135.02 318.323C5316.01 318.323 5462.73 465.071 5462.73 646.094C5462.73 827.116 5316.01 973.864 5135.02 973.864C4981.68 973.864 4852.95 868.538 4817.18 726.275H3973.02C3945.32 879.244 3811.49 995.259 3650.56 995.259C3626.6 995.259 3603.23 992.686 3580.73 987.801L3194.08 1657.62Z" fill="black"/>
<path d="M5468.09 1753V1893.62H5089.57V1753H5468.09ZM5168.87 1609.25H5359.89V2164.33C5359.89 2176.05 5361.71 2185.55 5365.36 2192.84C5369.26 2199.87 5374.86 2204.95 5382.15 2208.08C5389.44 2210.94 5398.17 2212.38 5408.32 2212.38C5415.62 2212.38 5423.3 2211.72 5431.37 2210.42C5439.7 2208.86 5445.95 2207.56 5450.12 2206.52L5479.03 2344.41C5469.91 2347.01 5457.02 2350.27 5440.36 2354.17C5423.95 2358.08 5404.29 2360.55 5381.37 2361.59C5336.58 2363.68 5298.17 2358.47 5266.14 2345.97C5234.37 2333.21 5210.02 2313.42 5193.09 2286.59C5176.42 2259.77 5168.35 2226.05 5168.87 2185.42V1609.25Z" fill="black"/>
<path d="M5007.84 1553V2353H4816.82V1553H5007.84Z" fill="black"/>
<path d="M4743.58 1753L4537.72 2353H4318.97L4113.5 1753H4314.67L4425.22 2166.28H4431.47L4542.41 1753H4743.58Z" fill="black"/>
</svg>
