<svg width="47" height="50" viewBox="0 0 47 50" fill="none" xmlns="http://www.w3.org/2000/svg">
<g clip-path="url(#clip0_1116_444)">
<path d="M36.6368 0V26.7411C36.6368 34.2149 30.5785 40.2732 23.1047 40.2732C15.6309 40.2732 9.57269 34.2149 9.57269 26.7411V0H19.1459V26.7411C19.1459 28.1555 19.9005 29.4624 21.1253 30.1696C22.3502 30.8767 23.8593 30.8767 25.0841 30.1696C26.309 29.4624 27.0636 28.1555 27.0636 26.7411V0H36.6368Z" fill="#35495E"/>
<path d="M46.2094 0V26.7411C46.2094 39.5018 35.8653 49.8493 23.1047 49.8493C10.344 49.8493 0 39.5018 0 26.7411V0H9.57265V26.7411C9.57265 34.2149 15.6315 40.2732 23.1047 40.2732C30.5779 40.2732 36.6367 34.2149 36.6367 26.7411V0H46.2094Z" fill="#41B883"/>
</g>
<defs>
<clipPath id="clip0_1116_444">
<rect width="46.2094" height="50" fill="white"/>
</clipPath>
</defs>
</svg>
