<svg width="301" height="75" viewBox="0 0 301 75" fill="none" xmlns="http://www.w3.org/2000/svg">
<g clip-path="url(#clip0_2985_55954)">
<path d="M81.6136 19.2242C70.6393 19.2242 62.8989 26.5069 62.8989 37.759C62.8989 48.8157 70.1091 56.7573 81.6136 56.7573C92.6494 56.7573 100.326 49.2791 100.326 37.759C100.326 27.0373 93.0596 19.2242 81.6136 19.2242ZM81.6136 48.2184C76.4543 48.2184 73.1478 44.1122 73.1478 37.759C73.1478 31.671 76.4543 27.763 81.6136 27.763C86.773 27.763 90.0823 31.671 90.0823 37.759C90.0907 44.1122 86.7841 48.2184 81.622 48.2184H81.6136ZM166.141 19.2242H153.635L140.082 33.5719V9.05232H129.895V55.8947H140.091V45.2874L145.295 40.1457L155.17 55.8836H166.889L152.441 33.1253L166.141 19.2242ZM169.986 55.8947H180.177V9.05232H169.989L169.986 55.8947ZM249.89 25.6807C247.764 21.795 243.274 19.2242 237.864 19.2242C228.6 19.2242 221.981 26.8391 221.981 37.8288C221.981 49.0139 228.6 56.7573 237.998 56.7573C242.694 56.7573 246.598 54.8396 248.847 51.6602V55.8947H259.037V20.0867H250.736L249.89 25.6807ZM240.573 48.3496C235.676 48.3496 232.303 43.9783 232.292 37.7227C232.292 31.604 235.668 27.2969 240.571 27.2969C245.473 27.2969 248.847 31.537 248.847 37.5888C248.847 43.9085 245.465 48.3468 240.573 48.3496ZM284.616 19.2325C279.203 19.2325 274.716 21.7923 272.592 25.6835L271.755 20.1007H263.454V66.9207H273.642V51.6686C275.891 54.8452 279.814 56.7656 284.493 56.7656C293.891 56.7656 300.504 49.0195 300.504 37.8344C300.496 26.8475 293.883 19.2325 284.616 19.2325ZM281.895 48.3524C276.996 48.3524 273.619 43.9811 273.619 37.7451C273.619 31.791 276.993 27.6179 281.895 27.6179C286.798 27.6179 290.174 31.8552 290.174 37.8791C290.174 44.048 286.798 48.3524 281.895 48.3524ZM201.671 19.2242C191.025 19.2242 183.55 26.9675 183.55 38.147C183.55 49.1284 191.29 56.7349 202.323 56.7573C210.055 56.7573 215.829 53.0615 218.32 46.5073L209.132 44.3858C208.141 46.8981 205.309 48.3496 202.072 48.3496C197.309 48.3496 194.312 45.1032 193.593 40.3383H218.934L219.015 39.3864C219.152 37.9428 219.152 36.4894 219.015 35.0458C218.011 25.1168 210.946 19.2242 201.671 19.2242ZM193.983 34.2419C194.99 29.9515 198.077 27.2969 201.765 27.2969C205.655 27.2969 208.415 29.6165 208.948 34.2419H193.983ZM112.617 27.1043L111.554 20.0755H103.253V55.8947H113.443V38.6188C113.443 32.5922 117.679 29.0192 124.822 29.0192H126.345V19.2242H125.324C118.929 19.2242 115.045 21.7532 112.617 27.1043ZM53.7689 20.0755L45.3979 45.5386L37.5068 20.0867H27.5649L19.6487 51.5848L11.2079 20.0867H0.49585L13.3844 66.9291H24.4537L32.5456 35.2775L40.1911 56.7712H52.0166L64.4866 20.1007L53.7689 20.0755Z" fill="#F0E9E1"/>
</g>
<defs>
<clipPath id="clip0_2985_55954">
<rect width="300" height="75" fill="white" transform="translate(0.5)"/>
</clipPath>
</defs>
</svg>
