<svg xmlns="http://www.w3.org/2000/svg" xmlns:xlink="http://www.w3.org/1999/xlink" width="940" height="472.49"><rect width="940" height="472.49" rx="5" ry="5" class="a"/><svg y="0%" x="0%"><circle cx="20" cy="20" r="6" fill="#ff5f58"/><circle cx="40" cy="20" r="6" fill="#ffbd2e"/><circle cx="60" cy="20" r="6" fill="#18c132"/></svg><svg height="412.49" viewBox="0 0 90 41.249" width="900" x="15" xmlns="http://www.w3.org/2000/svg" xmlns:xlink="http://www.w3.org/1999/xlink" y="50"><style>@keyframes n{0%{transform:translateX(0)}.8%{transform:translateX(-90px)}15.5%{transform:translateX(-180px)}16.7%{transform:translateX(-270px)}19.2%{transform:translateX(-360px)}20.7%{transform:translateX(-450px)}25%{transform:translateX(-540px)}27.5%{transform:translateX(-630px)}32.7%{transform:translateX(-720px)}45.5%{transform:translateX(-810px)}50.6%{transform:translateX(-900px)}54.7%{transform:translateX(-990px)}58.4%{transform:translateX(-1080px)}62.4%{transform:translateX(-1170px)}66.3%{transform:translateX(-1260px)}70.1%{transform:translateX(-1350px)}74%{transform:translateX(-1440px)}77.6%{transform:translateX(-1530px)}79.8%{transform:translateX(-1710px)}81.5%{transform:translateX(-1800px)}85.3%{transform:translateX(-1890px)}86%{transform:translateX(-1980px)}88%{transform:translateX(-2250px)}89.2%{transform:translateX(-2340px)}89.5%{transform:translateX(-2430px)}to{transform:translateX(-2520px)}}.a{fill:#282d35}.f{fill:#a8cc8c;font-weight:700}.g{fill:#b9c0cb}.h{fill:#71bef2;font-weight:700}.i{fill:#66c2cd}.j{fill:#a8cc8c}.k{fill:#6f7783}</style><g font-size="1.67" font-family="Monaco,Consolas,Menlo,'Bitstream Vera Sans Mono','Powerline Symbols',monospace"><defs><symbol id="1"><text y="1.67" class="f">zoltan@zoltan-pc</text><text x="16.032" y="1.67" class="g">:</text><text x="17.034" y="1.67" class="h">~/src/express</text><text x="30.06" y="1.67" class="g">$</text></symbol><symbol id="2"><text y="1.67" class="f">zoltan@zoltan-pc</text><text x="16.032" y="1.67" class="g">:</text><text x="17.034" y="1.67" class="h">~/src/express</text><text x="30.06" y="1.67" class="g">$</text><text x="32.064" y="1.67" class="g">pnpm</text></symbol><symbol id="3"><text y="1.67" class="f">zoltan@zoltan-pc</text><text x="16.032" y="1.67" class="g">:</text><text x="17.034" y="1.67" class="h">~/src/express</text><text x="30.06" y="1.67" class="g">$</text><text x="32.064" y="1.67" class="g">pnpm</text><text x="37.074" y="1.67" class="g">i</text></symbol><symbol id="4"><text y="1.67" class="g">Resolving:</text><text x="11.022" y="1.67" class="g">total</text><text x="17.034" y="1.67" class="i">270</text><text x="20.04" y="1.67" class="g">,</text><text x="22.044" y="1.67" class="g">reused</text><text x="29.058" y="1.67" class="i">259</text><text x="32.064" y="1.67" class="g">,</text><text x="34.068" y="1.67" class="g">downloaded</text><text x="45.09" y="1.67" class="i">0</text></symbol><symbol id="5"><text y="1.67" class="g">Packages:</text><text x="10.02" y="1.67" class="j">+270</text></symbol><symbol id="6"><text y="1.67" class="j">++++++++++++++++++++++++++++++++++++++++++++++++++++++++++++++++++++++++++++++++++++++++</text></symbol><symbol id="7"><text y="1.67" class="j">+</text><text x="2.004" y="1.67" class="g">connect-redis</text><text x="16.032" y="1.67" class="k">3.4.0</text></symbol><symbol id="8"><text y="1.67" class="j">+</text><text x="2.004" y="1.67" class="g">cookie-parser</text><text x="16.032" y="1.67" class="k">1.4.3</text></symbol><symbol id="9"><text y="1.67" class="j">+</text><text x="2.004" y="1.67" class="g">cookie-session</text><text x="17.034" y="1.67" class="k">1.3.2</text><text x="23.046" y="1.67" class="k">(2.0.0-beta.3</text><text x="37.074" y="1.67" class="k">is</text><text x="40.08" y="1.67" class="k">available)</text></symbol><symbol id="10"><text y="1.67" class="j">+</text><text x="2.004" y="1.67" class="g">ejs</text><text x="6.012" y="1.67" class="k">2.6.1</text></symbol><symbol id="11"><text y="1.67" class="j">+</text><text x="2.004" y="1.67" class="g">eslint</text><text x="9.018" y="1.67" class="k">2.13.1</text><text x="16.032" y="1.67" class="k">(5.12.0</text><text x="24.048" y="1.67" class="k">is</text><text x="27.054" y="1.67" class="k">available)</text></symbol><symbol id="12"><text y="1.67" class="j">+</text><text x="2.004" y="1.67" class="g">express-session</text><text x="18.036" y="1.67" class="k">1.15.6</text></symbol><symbol id="13"><text y="1.67" class="j">+</text><text x="2.004" y="1.67" class="g">hbs</text><text x="6.012" y="1.67" class="k">4.0.1</text></symbol><symbol id="14"><text y="1.67" class="j">+</text><text x="2.004" y="1.67" class="g">istanbul</text><text x="11.022" y="1.67" class="k">0.4.5</text></symbol><symbol id="15"><text y="1.67" class="j">+</text><text x="2.004" y="1.67" class="g">marked</text><text x="9.018" y="1.67" class="k">0.5.1</text><text x="15.03" y="1.67" class="k">(0.5.2</text><text x="22.044" y="1.67" class="k">is</text><text x="25.05" y="1.67" class="k">available)</text></symbol><symbol id="16"><text y="1.67" class="j">+</text><text x="2.004" y="1.67" class="g">method-override</text><text x="18.036" y="1.67" class="k">3.0.0</text></symbol><symbol id="17"><text y="1.67" class="j">+</text><text x="2.004" y="1.67" class="g">mocha</text><text x="8.016" y="1.67" class="k">5.2.0</text></symbol><symbol id="18"><text y="1.67" class="j">+</text><text x="2.004" y="1.67" class="g">morgan</text><text x="9.018" y="1.67" class="k">1.9.1</text></symbol><symbol id="19"><text y="1.67" class="j">+</text><text x="2.004" y="1.67" class="g">multiparty</text><text x="13.026" y="1.67" class="k">4.2.1</text></symbol><symbol id="20"><text y="1.67" class="j">+</text><text x="2.004" y="1.67" class="g">pbkdf2-password</text><text x="18.036" y="1.67" class="k">1.2.1</text></symbol><symbol id="21"><text y="1.67" class="j">+</text><text x="2.004" y="1.67" class="g">should</text><text x="9.018" y="1.67" class="k">13.2.3</text></symbol><symbol id="22"><text y="1.67" class="j">+</text><text x="2.004" y="1.67" class="g">supertest</text><text x="12.024" y="1.67" class="k">3.3.0</text></symbol><symbol id="23"><text y="1.67" class="j">+</text><text x="2.004" y="1.67" class="g">vhost</text><text x="8.016" y="1.67" class="k">3.0.2</text></symbol><symbol id="a"><path fill="transparent" d="M0 0h90v19H0z"/></symbol><symbol id="b"><path fill="#6f7683" d="M0 0h1.102v2.171H0z"/></symbol></defs><path class="a" d="M0 0h90v41.249H0z"/><g style="animation-duration:5.183451s;animation-iteration-count:infinite;animation-name:n;animation-timing-function:steps(1,end)"><svg width="2610"><svg><use xlink:href="#a"/><use xlink:href="#b" x="-.004"/></svg><svg x="90"><use xlink:href="#a"/><use xlink:href="#b" x="31.996"/><use xlink:href="#1"/></svg><svg x="180"><use xlink:href="#a"/><use xlink:href="#b" x="32.996"/><text y="1.67" class="f">zoltan@zoltan-pc</text><text x="16.032" y="1.67" class="g">:</text><text x="17.034" y="1.67" class="h">~/src/express</text><text x="30.06" y="1.67" class="g">$</text><text x="32.064" y="1.67" class="g">p</text></svg><svg x="270"><use xlink:href="#a"/><use xlink:href="#b" x="33.996"/><text y="1.67" class="f">zoltan@zoltan-pc</text><text x="16.032" y="1.67" class="g">:</text><text x="17.034" y="1.67" class="h">~/src/express</text><text x="30.06" y="1.67" class="g">$</text><text x="32.064" y="1.67" class="g">pn</text></svg><svg x="360"><use xlink:href="#a"/><use xlink:href="#b" x="34.996"/><text y="1.67" class="f">zoltan@zoltan-pc</text><text x="16.032" y="1.67" class="g">:</text><text x="17.034" y="1.67" class="h">~/src/express</text><text x="30.06" y="1.67" class="g">$</text><text x="32.064" y="1.67" class="g">pnp</text></svg><svg x="450"><use xlink:href="#a"/><use xlink:href="#b" x="35.996"/><use xlink:href="#2"/></svg><svg x="540"><use xlink:href="#a"/><use xlink:href="#b" x="36.996"/><use xlink:href="#2"/></svg><svg x="630"><use xlink:href="#a"/><use xlink:href="#b" x="37.996"/><use xlink:href="#3"/></svg><svg x="720"><use xlink:href="#a"/><use xlink:href="#b" x="-.004" y="2.146"/><use xlink:href="#3"/></svg><svg x="810"><use xlink:href="#a"/><use xlink:href="#3"/></svg><svg x="900"><use xlink:href="#a"/><use xlink:href="#3"/><text y="3.841" class="g">Resolving:</text><text x="11.022" y="3.841" class="g">total</text><text x="17.034" y="3.841" class="i">28</text><text x="19.038" y="3.841" class="g">,</text><text x="21.042" y="3.841" class="g">reused</text><text x="28.056" y="3.841" class="i">22</text><text x="30.06" y="3.841" class="g">,</text><text x="32.064" y="3.841" class="g">downloaded</text><text x="43.086" y="3.841" class="i">0</text></svg><svg x="990"><use xlink:href="#a"/><use xlink:href="#3"/><text y="3.841" class="g">Resolving:</text><text x="11.022" y="3.841" class="g">total</text><text x="17.034" y="3.841" class="i">80</text><text x="19.038" y="3.841" class="g">,</text><text x="21.042" y="3.841" class="g">reused</text><text x="28.056" y="3.841" class="i">54</text><text x="30.06" y="3.841" class="g">,</text><text x="32.064" y="3.841" class="g">downloaded</text><text x="43.086" y="3.841" class="i">0</text></svg><svg x="1080"><use xlink:href="#a"/><use xlink:href="#3"/><text y="3.841" class="g">Resolving:</text><text x="11.022" y="3.841" class="g">total</text><text x="17.034" y="3.841" class="i">107</text><text x="20.04" y="3.841" class="g">,</text><text x="22.044" y="3.841" class="g">reused</text><text x="29.058" y="3.841" class="i">82</text><text x="31.062" y="3.841" class="g">,</text><text x="33.066" y="3.841" class="g">downloaded</text><text x="44.088" y="3.841" class="i">0</text></svg><svg x="1170"><use xlink:href="#a"/><use xlink:href="#3"/><text y="3.841" class="g">Resolving:</text><text x="11.022" y="3.841" class="g">total</text><text x="17.034" y="3.841" class="i">161</text><text x="20.04" y="3.841" class="g">,</text><text x="22.044" y="3.841" class="g">reused</text><text x="29.058" y="3.841" class="i">108</text><text x="32.064" y="3.841" class="g">,</text><text x="34.068" y="3.841" class="g">downloaded</text><text x="45.09" y="3.841" class="i">0</text></svg><svg x="1260"><use xlink:href="#a"/><use xlink:href="#3"/><text y="3.841" class="g">Resolving:</text><text x="11.022" y="3.841" class="g">total</text><text x="17.034" y="3.841" class="i">200</text><text x="20.04" y="3.841" class="g">,</text><text x="22.044" y="3.841" class="g">reused</text><text x="29.058" y="3.841" class="i">143</text><text x="32.064" y="3.841" class="g">,</text><text x="34.068" y="3.841" class="g">downloaded</text><text x="45.09" y="3.841" class="i">0</text></svg><svg x="1350"><use xlink:href="#a"/><use xlink:href="#3"/><text y="3.841" class="g">Resolving:</text><text x="11.022" y="3.841" class="g">total</text><text x="17.034" y="3.841" class="i">247</text><text x="20.04" y="3.841" class="g">,</text><text x="22.044" y="3.841" class="g">reused</text><text x="29.058" y="3.841" class="i">176</text><text x="32.064" y="3.841" class="g">,</text><text x="34.068" y="3.841" class="g">downloaded</text><text x="45.09" y="3.841" class="i">0</text></svg><svg x="1440"><use xlink:href="#a"/><use xlink:href="#3"/><text y="3.841" class="g">Resolving:</text><text x="11.022" y="3.841" class="g">total</text><text x="17.034" y="3.841" class="i">269</text><text x="20.04" y="3.841" class="g">,</text><text x="22.044" y="3.841" class="g">reused</text><text x="29.058" y="3.841" class="i">233</text><text x="32.064" y="3.841" class="g">,</text><text x="34.068" y="3.841" class="g">downloaded</text><text x="45.09" y="3.841" class="i">0</text></svg><svg x="1530"><use xlink:href="#a"/><use xlink:href="#3"/><use xlink:href="#4" y="2.171"/></svg><svg x="1620"><use xlink:href="#a"/><use xlink:href="#3"/><use xlink:href="#5" y="2.171"/><use xlink:href="#6" y="4.342"/><text y="8.183" class="g">Resolving:</text><text x="11.022" y="8.183" class="g">total</text></svg><svg x="1710"><use xlink:href="#a"/><use xlink:href="#3"/><use xlink:href="#5" y="2.171"/><use xlink:href="#6" y="4.342"/><use xlink:href="#4" y="6.513"/></svg><svg x="1800"><use xlink:href="#a"/><use xlink:href="#3"/><use xlink:href="#5" y="2.171"/><use xlink:href="#6" y="4.342"/><text y="8.183" class="g">Resolving:</text><text x="11.022" y="8.183" class="g">total</text><text x="17.034" y="8.183" class="i">270</text><text x="20.04" y="8.183" class="g">,</text><text x="22.044" y="8.183" class="g">reused</text><text x="29.058" y="8.183" class="i">268</text><text x="32.064" y="8.183" class="g">,</text><text x="34.068" y="8.183" class="g">downloaded</text><text x="45.09" y="8.183" class="i">0</text></svg><svg x="1890"><use xlink:href="#a"/><use xlink:href="#3"/><use xlink:href="#5" y="2.171"/><use xlink:href="#6" y="4.342"/><text y="8.183" class="g">Resolving:</text><text x="11.022" y="8.183" class="g">total</text><text x="17.034" y="8.183" class="i">270</text><text x="20.04" y="8.183" class="g">,</text><text x="22.044" y="8.183" class="g">reused</text><text x="29.058" y="8.183" class="i">270</text><text x="32.064" y="8.183" class="g">,</text><text x="34.068" y="8.183" class="g">downloaded</text><text x="45.09" y="8.183" class="i">0</text></svg><svg x="1980"><use xlink:href="#a"/><use xlink:href="#3"/><use xlink:href="#5" y="2.171"/><use xlink:href="#6" y="4.342"/><text y="8.183" class="g">Resolving:</text><text x="11.022" y="8.183" class="g">total</text><text x="17.034" y="8.183" class="i">270</text><text x="20.04" y="8.183" class="g">,</text><text x="22.044" y="8.183" class="g">reused</text><text x="29.058" y="8.183" class="i">270</text><text x="32.064" y="8.183" class="g">,</text><text x="34.068" y="8.183" class="g">downloaded</text><text x="45.09" y="8.183" class="i">0</text><text x="46.092" y="8.183" class="g">,</text><text x="48.096" y="8.183" class="g">done</text></svg><svg x="2070"><use xlink:href="#a"/><text y="1.67" class="j">+</text><text x="2.004" y="1.67" class="g">body-parser</text><text x="14.028" y="1.67" class="k">1.18.3</text><text y="3.841" class="j">+</text><text x="2.004" y="3.841" class="g">content-disposition</text><text x="22.044" y="3.841" class="k">0.5.2</text><text y="6.012" class="j">+</text><text x="2.004" y="6.012" class="g">content-type</text><text x="15.03" y="6.012" class="k">1.0.4</text><text y="8.183" class="j">+</text><text x="2.004" y="8.183" class="g">cookie</text><text x="9.018" y="8.183" class="k">0.3.1</text><text y="10.354" class="j">+</text><text x="2.004" y="10.354" class="g">cookie-signature</text><text x="19.038" y="10.354" class="k">1.0.6</text><text x="25.05" y="10.354" class="k">(1.1.0</text><text x="32.064" y="10.354" class="k">is</text><text x="35.07" y="10.354" class="k">available)</text><text y="12.525" class="j">+</text><text x="2.004" y="12.525" class="g">debug</text><text x="8.016" y="12.525" class="k">2.6.9</text><text x="14.028" y="12.525" class="k">(4.1.1</text><text x="21.042" y="12.525" class="k">is</text><text x="24.048" y="12.525" class="k">available)</text><text y="14.696" class="j">+</text><text x="2.004" y="14.696" class="g">depd</text><text x="7.014" y="14.696" class="k">1.1.2</text><text x="13.026" y="14.696" class="k">(2.0.0</text><text x="20.04" y="14.696" class="k">is</text><text x="23.046" y="14.696" class="k">available)</text><text y="16.867" class="j">+</text><text x="2.004" y="16.867" class="g">encodeurl</text><text x="12.024" y="16.867" class="k">1.0.2</text><text y="19.038" class="j">+</text><text x="2.004" y="19.038" class="g">escape-html</text><text x="14.028" y="19.038" class="k">1.0.3</text><text y="21.209" class="j">+</text><text x="2.004" y="21.209" class="g">etag</text><text x="7.014" y="21.209" class="k">1.8.1</text><text y="23.38" class="j">+</text><text x="2.004" y="23.38" class="g">finalhandler</text><text x="15.03" y="23.38" class="k">1.1.1</text><text y="25.551" class="j">+</text><text x="2.004" y="25.551" class="g">fresh</text><text x="8.016" y="25.551" class="k">0.5.2</text><text y="27.722" class="j">+</text><text x="2.004" y="27.722" class="g">merge-descriptors</text><text x="20.04" y="27.722" class="k">1.0.1</text><text y="29.893" class="j">+</text><text x="2.004" y="29.893" class="g">methods</text><text x="10.02" y="29.893" class="k">1.1.2</text><text y="32.064" class="j">+</text><text x="2.004" y="32.064" class="g">on-finished</text><text x="14.028" y="32.064" class="k">2.3.0</text><text y="34.235" class="j">+</text><text x="2.004" y="34.235" class="g">parseurl</text><text x="11.022" y="34.235" class="k">1.3.2</text><text y="36.406" class="j">+</text><text x="2.004" y="36.406" class="g">path-to-regexp</text><text x="17.034" y="36.406" class="k">0.1.7</text><text x="23.046" y="36.406" class="k">(3.0.0</text><text x="30.06" y="36.406" class="k">is</text><text x="33.066" y="36.406" class="k">available)</text><text y="38.577" class="j">+</text><text x="2.004" y="38.577" class="g">proxy-addr</text><text x="13.026" y="38.577" class="k">2.0.4</text><text y="40.748" class="j">+</text><text x="2.004" y="40.748" class="g">qs</text><text x="5.01" y="40.748" class="k">6.5.2</text><text x="11.022" y="40.748" class="k">(6.6</text></svg><svg x="2160"><use xlink:href="#a"/><text y="1.67" class="j">+</text><text x="2.004" y="1.67" class="g">statuses</text><text x="11.022" y="1.67" class="k">1.4.0</text><text x="17.034" y="1.67" class="k">(1.5.0</text><text x="24.048" y="1.67" class="k">is</text><text x="27.054" y="1.67" class="k">available)</text><text y="3.841" class="j">+</text><text x="2.004" y="3.841" class="g">type-is</text><text x="10.02" y="3.841" class="k">1.6.16</text><text y="6.012" class="j">+</text><text x="2.004" y="6.012" class="g">utils-merge</text><text x="14.028" y="6.012" class="k">1.0.1</text><text y="8.183" class="j">+</text><text x="2.004" y="8.183" class="g">vary</text><text x="7.014" y="8.183" class="k">1.1.2</text><text y="12.525" class="i">devDependencies:</text><text y="14.696" class="j">+</text><text x="2.004" y="14.696" class="g">after</text><text x="8.016" y="14.696" class="k">0.8.2</text><use xlink:href="#7" y="15.197"/><use xlink:href="#8" y="17.368"/><use xlink:href="#9" y="19.539"/><use xlink:href="#10" y="21.71"/><use xlink:href="#11" y="23.881"/><use xlink:href="#12" y="26.052"/><use xlink:href="#13" y="28.223"/><use xlink:href="#14" y="30.394"/><use xlink:href="#15" y="32.565"/><use xlink:href="#16" y="34.736"/><use xlink:href="#17" y="36.907"/><text y="40.748" class="j">+</text><text x="2.004" y="40.748" class="g">mor</text></svg><svg x="2250"><use xlink:href="#a"/><use xlink:href="#7"/><use xlink:href="#8" y="2.171"/><use xlink:href="#9" y="4.342"/><use xlink:href="#10" y="6.513"/><use xlink:href="#11" y="8.684"/><use xlink:href="#12" y="10.855"/><use xlink:href="#13" y="13.026"/><use xlink:href="#14" y="15.197"/><use xlink:href="#15" y="17.368"/><use xlink:href="#16" y="19.539"/><use xlink:href="#17" y="21.71"/><use xlink:href="#18" y="23.881"/><use xlink:href="#19" y="26.052"/><use xlink:href="#20" y="28.223"/><use xlink:href="#21" y="30.394"/><use xlink:href="#22" y="32.565"/><use xlink:href="#23" y="34.736"/></svg><svg x="2340"><use xlink:href="#a"/><use xlink:href="#b" x="-.004" y="39.053"/><use xlink:href="#7"/><use xlink:href="#8" y="2.171"/><use xlink:href="#9" y="4.342"/><use xlink:href="#10" y="6.513"/><use xlink:href="#11" y="8.684"/><use xlink:href="#12" y="10.855"/><use xlink:href="#13" y="13.026"/><use xlink:href="#14" y="15.197"/><use xlink:href="#15" y="17.368"/><use xlink:href="#16" y="19.539"/><use xlink:href="#17" y="21.71"/><use xlink:href="#18" y="23.881"/><use xlink:href="#19" y="26.052"/><use xlink:href="#20" y="28.223"/><use xlink:href="#21" y="30.394"/><use xlink:href="#22" y="32.565"/><use xlink:href="#23" y="34.736"/></svg><svg x="2430"><use xlink:href="#a"/><use xlink:href="#b" x="31.996" y="39.053"/><use xlink:href="#7"/><use xlink:href="#8" y="2.171"/><use xlink:href="#9" y="4.342"/><use xlink:href="#10" y="6.513"/><use xlink:href="#11" y="8.684"/><use xlink:href="#12" y="10.855"/><use xlink:href="#13" y="13.026"/><use xlink:href="#14" y="15.197"/><use xlink:href="#15" y="17.368"/><use xlink:href="#16" y="19.539"/><use xlink:href="#17" y="21.71"/><use xlink:href="#18" y="23.881"/><use xlink:href="#19" y="26.052"/><use xlink:href="#20" y="28.223"/><use xlink:href="#21" y="30.394"/><use xlink:href="#22" y="32.565"/><use xlink:href="#23" y="34.736"/><use xlink:href="#1" y="39.078"/></svg><svg x="2520"><use xlink:href="#a"/><use xlink:href="#b" x="-.004" y="39.053"/><use xlink:href="#8"/><use xlink:href="#9" y="2.171"/><use xlink:href="#10" y="4.342"/><use xlink:href="#11" y="6.513"/><use xlink:href="#12" y="8.684"/><use xlink:href="#13" y="10.855"/><use xlink:href="#14" y="13.026"/><use xlink:href="#15" y="15.197"/><use xlink:href="#16" y="17.368"/><use xlink:href="#17" y="19.539"/><use xlink:href="#18" y="21.71"/><use xlink:href="#19" y="23.881"/><use xlink:href="#20" y="26.052"/><use xlink:href="#21" y="28.223"/><use xlink:href="#22" y="30.394"/><use xlink:href="#23" y="32.565"/><text y="38.577" class="f">zoltan@zoltan-pc</text><text x="16.032" y="38.577" class="g">:</text><text x="17.034" y="38.577" class="h">~/src/express</text><text x="30.06" y="38.577" class="g">$</text><text x="32.064" y="38.577" class="g">exit</text></svg></svg></g></g></svg></svg>